<?xml version="1.0" encoding="utf-8"?>
<svg xmlns="http://www.w3.org/2000/svg" xmlns:xlink="http://www.w3.org/1999/xlink" width="600" height="400" viewBox="0 0 2400 1600">
<defs>
  <clipPath id="clip340">
    <rect x="0" y="0" width="2400" height="1600"/>
  </clipPath>
</defs>
<path clip-path="url(#clip340)" d="
M0 1600 L2400 1600 L2400 0 L0 0  Z
  " fill="#ffffff" fill-rule="evenodd" fill-opacity="1"/>
<defs>
  <clipPath id="clip341">
    <rect x="480" y="0" width="1681" height="1600"/>
  </clipPath>
</defs>
<path clip-path="url(#clip340)" d="
M338.728 1423.18 L2352.76 1423.18 L2352.76 47.2441 L338.728 47.2441  Z
  " fill="#ffffff" fill-rule="evenodd" fill-opacity="1"/>
<defs>
  <clipPath id="clip342">
    <rect x="338" y="47" width="2015" height="1377"/>
  </clipPath>
</defs>
<polyline clip-path="url(#clip342)" style="stroke:#000000; stroke-width:2; stroke-opacity:0.1; fill:none" points="
  395.725,1423.18 395.725,47.2441 
  "/>
<polyline clip-path="url(#clip342)" style="stroke:#000000; stroke-width:2; stroke-opacity:0.1; fill:none" points="
  775.731,1423.18 775.731,47.2441 
  "/>
<polyline clip-path="url(#clip342)" style="stroke:#000000; stroke-width:2; stroke-opacity:0.1; fill:none" points="
  1155.74,1423.18 1155.74,47.2441 
  "/>
<polyline clip-path="url(#clip342)" style="stroke:#000000; stroke-width:2; stroke-opacity:0.1; fill:none" points="
  1535.74,1423.18 1535.74,47.2441 
  "/>
<polyline clip-path="url(#clip342)" style="stroke:#000000; stroke-width:2; stroke-opacity:0.1; fill:none" points="
  1915.75,1423.18 1915.75,47.2441 
  "/>
<polyline clip-path="url(#clip342)" style="stroke:#000000; stroke-width:2; stroke-opacity:0.1; fill:none" points="
  2295.76,1423.18 2295.76,47.2441 
  "/>
<polyline clip-path="url(#clip342)" style="stroke:#000000; stroke-width:2; stroke-opacity:0.1; fill:none" points="
  338.728,1223.22 2352.76,1223.22 
  "/>
<polyline clip-path="url(#clip342)" style="stroke:#000000; stroke-width:2; stroke-opacity:0.1; fill:none" points="
  338.728,980.795 2352.76,980.795 
  "/>
<polyline clip-path="url(#clip342)" style="stroke:#000000; stroke-width:2; stroke-opacity:0.1; fill:none" points="
  338.728,738.374 2352.76,738.374 
  "/>
<polyline clip-path="url(#clip342)" style="stroke:#000000; stroke-width:2; stroke-opacity:0.1; fill:none" points="
  338.728,495.953 2352.76,495.953 
  "/>
<polyline clip-path="url(#clip342)" style="stroke:#000000; stroke-width:2; stroke-opacity:0.1; fill:none" points="
  338.728,253.532 2352.76,253.532 
  "/>
<polyline clip-path="url(#clip340)" style="stroke:#000000; stroke-width:4; stroke-opacity:1; fill:none" points="
  338.728,1423.18 2352.76,1423.18 
  "/>
<polyline clip-path="url(#clip340)" style="stroke:#000000; stroke-width:4; stroke-opacity:1; fill:none" points="
  338.728,1423.18 338.728,47.2441 
  "/>
<polyline clip-path="url(#clip340)" style="stroke:#000000; stroke-width:4; stroke-opacity:1; fill:none" points="
  395.725,1423.18 395.725,1406.67 
  "/>
<polyline clip-path="url(#clip340)" style="stroke:#000000; stroke-width:4; stroke-opacity:1; fill:none" points="
  775.731,1423.18 775.731,1406.67 
  "/>
<polyline clip-path="url(#clip340)" style="stroke:#000000; stroke-width:4; stroke-opacity:1; fill:none" points="
  1155.74,1423.18 1155.74,1406.67 
  "/>
<polyline clip-path="url(#clip340)" style="stroke:#000000; stroke-width:4; stroke-opacity:1; fill:none" points="
  1535.74,1423.18 1535.74,1406.67 
  "/>
<polyline clip-path="url(#clip340)" style="stroke:#000000; stroke-width:4; stroke-opacity:1; fill:none" points="
  1915.75,1423.18 1915.75,1406.67 
  "/>
<polyline clip-path="url(#clip340)" style="stroke:#000000; stroke-width:4; stroke-opacity:1; fill:none" points="
  2295.76,1423.18 2295.76,1406.67 
  "/>
<polyline clip-path="url(#clip340)" style="stroke:#000000; stroke-width:4; stroke-opacity:1; fill:none" points="
  338.728,1223.22 362.897,1223.22 
  "/>
<polyline clip-path="url(#clip340)" style="stroke:#000000; stroke-width:4; stroke-opacity:1; fill:none" points="
  338.728,980.795 362.897,980.795 
  "/>
<polyline clip-path="url(#clip340)" style="stroke:#000000; stroke-width:4; stroke-opacity:1; fill:none" points="
  338.728,738.374 362.897,738.374 
  "/>
<polyline clip-path="url(#clip340)" style="stroke:#000000; stroke-width:4; stroke-opacity:1; fill:none" points="
  338.728,495.953 362.897,495.953 
  "/>
<polyline clip-path="url(#clip340)" style="stroke:#000000; stroke-width:4; stroke-opacity:1; fill:none" points="
  338.728,253.532 362.897,253.532 
  "/>
<path clip-path="url(#clip340)" d="M 0 0 M395.725 1445.17 Q392.114 1445.17 390.286 1448.74 Q388.48 1452.28 388.48 1459.41 Q388.48 1466.51 390.286 1470.08 Q392.114 1473.62 395.725 1473.62 Q399.36 1473.62 401.165 1470.08 Q402.994 1466.51 402.994 1459.41 Q402.994 1452.28 401.165 1448.74 Q399.36 1445.17 395.725 1445.17 M395.725 1441.47 Q401.536 1441.47 404.591 1446.07 Q407.67 1450.66 407.67 1459.41 Q407.67 1468.13 404.591 1472.74 Q401.536 1477.32 395.725 1477.32 Q389.915 1477.32 386.837 1472.74 Q383.781 1468.13 383.781 1459.41 Q383.781 1450.66 386.837 1446.07 Q389.915 1441.47 395.725 1441.47 Z" fill="#000000" fill-rule="evenodd" fill-opacity="1" /><path clip-path="url(#clip340)" d="M 0 0 M766.113 1472.72 L773.752 1472.72 L773.752 1446.35 L765.442 1448.02 L765.442 1443.76 L773.706 1442.09 L778.382 1442.09 L778.382 1472.72 L786.021 1472.72 L786.021 1476.65 L766.113 1476.65 L766.113 1472.72 Z" fill="#000000" fill-rule="evenodd" fill-opacity="1" /><path clip-path="url(#clip340)" d="M 0 0 M1150.39 1472.72 L1166.71 1472.72 L1166.71 1476.65 L1144.77 1476.65 L1144.77 1472.72 Q1147.43 1469.96 1152.01 1465.33 Q1156.62 1460.68 1157.8 1459.34 Q1160.04 1456.81 1160.92 1455.08 Q1161.83 1453.32 1161.83 1451.63 Q1161.83 1448.87 1159.88 1447.14 Q1157.96 1445.4 1154.86 1445.4 Q1152.66 1445.4 1150.2 1446.17 Q1147.77 1446.93 1145 1448.48 L1145 1443.76 Q1147.82 1442.62 1150.27 1442.05 Q1152.73 1441.47 1154.77 1441.47 Q1160.14 1441.47 1163.33 1444.15 Q1166.52 1446.84 1166.52 1451.33 Q1166.52 1453.46 1165.71 1455.38 Q1164.93 1457.28 1162.82 1459.87 Q1162.24 1460.54 1159.14 1463.76 Q1156.04 1466.95 1150.39 1472.72 Z" fill="#000000" fill-rule="evenodd" fill-opacity="1" /><path clip-path="url(#clip340)" d="M 0 0 M1539.99 1458.02 Q1543.35 1458.74 1545.22 1461 Q1547.12 1463.27 1547.12 1466.61 Q1547.12 1471.72 1543.6 1474.52 Q1540.08 1477.32 1533.6 1477.32 Q1531.43 1477.32 1529.11 1476.88 Q1526.82 1476.47 1524.37 1475.61 L1524.37 1471.1 Q1526.31 1472.23 1528.63 1472.81 Q1530.94 1473.39 1533.46 1473.39 Q1537.86 1473.39 1540.15 1471.65 Q1542.47 1469.92 1542.47 1466.61 Q1542.47 1463.55 1540.31 1461.84 Q1538.19 1460.1 1534.37 1460.1 L1530.34 1460.1 L1530.34 1456.26 L1534.55 1456.26 Q1538 1456.26 1539.83 1454.89 Q1541.66 1453.5 1541.66 1450.91 Q1541.66 1448.25 1539.76 1446.84 Q1537.88 1445.4 1534.37 1445.4 Q1532.44 1445.4 1530.25 1445.82 Q1528.05 1446.24 1525.41 1447.11 L1525.41 1442.95 Q1528.07 1442.21 1530.38 1441.84 Q1532.72 1441.47 1534.78 1441.47 Q1540.11 1441.47 1543.21 1443.9 Q1546.31 1446.3 1546.31 1450.43 Q1546.31 1453.3 1544.67 1455.29 Q1543.02 1457.25 1539.99 1458.02 Z" fill="#000000" fill-rule="evenodd" fill-opacity="1" /><path clip-path="url(#clip340)" d="M 0 0 M1918.76 1446.17 L1906.95 1464.61 L1918.76 1464.61 L1918.76 1446.17 M1917.53 1442.09 L1923.41 1442.09 L1923.41 1464.61 L1928.34 1464.61 L1928.34 1468.5 L1923.41 1468.5 L1923.41 1476.65 L1918.76 1476.65 L1918.76 1468.5 L1903.16 1468.5 L1903.16 1463.99 L1917.53 1442.09 Z" fill="#000000" fill-rule="evenodd" fill-opacity="1" /><path clip-path="url(#clip340)" d="M 0 0 M2286.03 1442.09 L2304.39 1442.09 L2304.39 1446.03 L2290.32 1446.03 L2290.32 1454.5 Q2291.33 1454.15 2292.35 1453.99 Q2293.37 1453.8 2294.39 1453.8 Q2300.18 1453.8 2303.56 1456.98 Q2306.94 1460.15 2306.94 1465.56 Q2306.94 1471.14 2303.46 1474.24 Q2299.99 1477.32 2293.67 1477.32 Q2291.5 1477.32 2289.23 1476.95 Q2286.98 1476.58 2284.57 1475.84 L2284.57 1471.14 Q2286.66 1472.28 2288.88 1472.83 Q2291.1 1473.39 2293.58 1473.39 Q2297.58 1473.39 2299.92 1471.28 Q2302.26 1469.18 2302.26 1465.56 Q2302.26 1461.95 2299.92 1459.85 Q2297.58 1457.74 2293.58 1457.74 Q2291.7 1457.74 2289.83 1458.16 Q2287.98 1458.57 2286.03 1459.45 L2286.03 1442.09 Z" fill="#000000" fill-rule="evenodd" fill-opacity="1" /><path clip-path="url(#clip340)" d="M 0 0 M126.26 1230.11 L155.936 1230.11 L155.936 1234.05 L126.26 1234.05 L126.26 1230.11 Z" fill="#000000" fill-rule="evenodd" fill-opacity="1" /><path clip-path="url(#clip340)" d="M 0 0 M173.852 1216.46 L162.047 1234.91 L173.852 1234.91 L173.852 1216.46 M172.626 1212.38 L178.505 1212.38 L178.505 1234.91 L183.436 1234.91 L183.436 1238.8 L178.505 1238.8 L178.505 1246.94 L173.852 1246.94 L173.852 1238.8 L158.251 1238.8 L158.251 1234.28 L172.626 1212.38 Z" fill="#000000" fill-rule="evenodd" fill-opacity="1" /><path clip-path="url(#clip340)" d="M 0 0 M216.676 1221.48 L206.098 1232.11 L216.676 1242.68 L213.922 1245.48 L203.297 1234.86 L192.672 1245.48 L189.94 1242.68 L200.496 1232.11 L189.94 1221.48 L192.672 1218.68 L203.297 1229.3 L213.922 1218.68 L216.676 1221.48 Z" fill="#000000" fill-rule="evenodd" fill-opacity="1" /><path clip-path="url(#clip340)" d="M 0 0 M222.556 1243.01 L230.195 1243.01 L230.195 1216.64 L221.885 1218.31 L221.885 1214.05 L230.148 1212.38 L234.824 1212.38 L234.824 1243.01 L242.463 1243.01 L242.463 1246.94 L222.556 1246.94 L222.556 1243.01 Z" fill="#000000" fill-rule="evenodd" fill-opacity="1" /><path clip-path="url(#clip340)" d="M 0 0 M257.533 1215.46 Q253.922 1215.46 252.093 1219.03 Q250.287 1222.57 250.287 1229.7 Q250.287 1236.8 252.093 1240.37 Q253.922 1243.91 257.533 1243.91 Q261.167 1243.91 262.972 1240.37 Q264.801 1236.8 264.801 1229.7 Q264.801 1222.57 262.972 1219.03 Q261.167 1215.46 257.533 1215.46 M257.533 1211.76 Q263.343 1211.76 266.398 1216.36 Q269.477 1220.95 269.477 1229.7 Q269.477 1238.42 266.398 1243.03 Q263.343 1247.61 257.533 1247.61 Q251.722 1247.61 248.644 1243.03 Q245.588 1238.42 245.588 1229.7 Q245.588 1220.95 248.644 1216.36 Q251.722 1211.76 257.533 1211.76 Z" fill="#000000" fill-rule="evenodd" fill-opacity="1" /><path clip-path="url(#clip340)" d="M 0 0 M269.477 1205.86 L293.589 1205.86 L293.589 1209.06 L269.477 1209.06 L269.477 1205.86 Z" fill="#000000" fill-rule="evenodd" fill-opacity="1" /><path clip-path="url(#clip340)" d="M 0 0 M297.745 1191.45 L312.66 1191.45 L312.66 1194.65 L301.224 1194.65 L301.224 1201.53 Q302.052 1201.25 302.88 1201.12 Q303.707 1200.97 304.535 1200.97 Q309.237 1200.97 311.983 1203.55 Q314.728 1206.12 314.728 1210.52 Q314.728 1215.06 311.907 1217.58 Q309.086 1220.08 303.952 1220.08 Q302.184 1220.08 300.341 1219.78 Q298.516 1219.48 296.56 1218.87 L296.56 1215.06 Q298.253 1215.98 300.058 1216.43 Q301.864 1216.88 303.876 1216.88 Q307.13 1216.88 309.03 1215.17 Q310.929 1213.46 310.929 1210.52 Q310.929 1207.59 309.03 1205.88 Q307.13 1204.17 303.876 1204.17 Q302.353 1204.17 300.83 1204.51 Q299.325 1204.84 297.745 1205.56 L297.745 1191.45 Z" fill="#000000" fill-rule="evenodd" fill-opacity="1" /><path clip-path="url(#clip340)" d="M 0 0 M128.343 987.694 L158.019 987.694 L158.019 991.629 L128.343 991.629 L128.343 987.694 Z" fill="#000000" fill-rule="evenodd" fill-opacity="1" /><path clip-path="url(#clip340)" d="M 0 0 M167.116 1000.59 L183.436 1000.59 L183.436 1004.52 L161.491 1004.52 L161.491 1000.59 Q164.153 997.833 168.737 993.203 Q173.343 988.55 174.524 987.208 Q176.769 984.685 177.649 982.948 Q178.552 981.189 178.552 979.499 Q178.552 976.745 176.607 975.009 Q174.686 973.273 171.584 973.273 Q169.385 973.273 166.931 974.036 Q164.501 974.8 161.723 976.351 L161.723 971.629 Q164.547 970.495 167.001 969.916 Q169.454 969.337 171.491 969.337 Q176.862 969.337 180.056 972.023 Q183.251 974.708 183.251 979.198 Q183.251 981.328 182.44 983.249 Q181.653 985.148 179.547 987.74 Q178.968 988.411 175.866 991.629 Q172.765 994.823 167.116 1000.59 Z" fill="#000000" fill-rule="evenodd" fill-opacity="1" /><path clip-path="url(#clip340)" d="M 0 0 M216.676 979.06 L206.098 989.685 L216.676 1000.26 L213.922 1003.06 L203.297 992.439 L192.672 1003.06 L189.94 1000.26 L200.496 989.685 L189.94 979.06 L192.672 976.259 L203.297 986.884 L213.922 976.259 L216.676 979.06 Z" fill="#000000" fill-rule="evenodd" fill-opacity="1" /><path clip-path="url(#clip340)" d="M 0 0 M222.556 1000.59 L230.195 1000.59 L230.195 974.222 L221.885 975.888 L221.885 971.629 L230.148 969.962 L234.824 969.962 L234.824 1000.59 L242.463 1000.59 L242.463 1004.52 L222.556 1004.52 L222.556 1000.59 Z" fill="#000000" fill-rule="evenodd" fill-opacity="1" /><path clip-path="url(#clip340)" d="M 0 0 M257.533 973.041 Q253.922 973.041 252.093 976.606 Q250.287 980.148 250.287 987.277 Q250.287 994.384 252.093 997.948 Q253.922 1001.49 257.533 1001.49 Q261.167 1001.49 262.972 997.948 Q264.801 994.384 264.801 987.277 Q264.801 980.148 262.972 976.606 Q261.167 973.041 257.533 973.041 M257.533 969.337 Q263.343 969.337 266.398 973.944 Q269.477 978.527 269.477 987.277 Q269.477 996.004 266.398 1000.61 Q263.343 1005.19 257.533 1005.19 Q251.722 1005.19 248.644 1000.61 Q245.588 996.004 245.588 987.277 Q245.588 978.527 248.644 973.944 Q251.722 969.337 257.533 969.337 Z" fill="#000000" fill-rule="evenodd" fill-opacity="1" /><path clip-path="url(#clip340)" d="M 0 0 M269.477 963.439 L293.589 963.439 L293.589 966.636 L269.477 966.636 L269.477 963.439 Z" fill="#000000" fill-rule="evenodd" fill-opacity="1" /><path clip-path="url(#clip340)" d="M 0 0 M297.745 949.032 L312.66 949.032 L312.66 952.229 L301.224 952.229 L301.224 959.113 Q302.052 958.831 302.88 958.699 Q303.707 958.549 304.535 958.549 Q309.237 958.549 311.983 961.125 Q314.728 963.702 314.728 968.103 Q314.728 972.636 311.907 975.156 Q309.086 977.657 303.952 977.657 Q302.184 977.657 300.341 977.357 Q298.516 977.056 296.56 976.454 L296.56 972.636 Q298.253 973.557 300.058 974.009 Q301.864 974.46 303.876 974.46 Q307.13 974.46 309.03 972.749 Q310.929 971.037 310.929 968.103 Q310.929 965.169 309.03 963.458 Q307.13 961.746 303.876 961.746 Q302.353 961.746 300.83 962.085 Q299.325 962.423 297.745 963.138 L297.745 949.032 Z" fill="#000000" fill-rule="evenodd" fill-opacity="1" /><path clip-path="url(#clip340)" d="M 0 0 M302.784 724.173 Q299.173 724.173 297.344 727.737 Q295.539 731.279 295.539 738.409 Q295.539 745.515 297.344 749.08 Q299.173 752.622 302.784 752.622 Q306.418 752.622 308.224 749.08 Q310.053 745.515 310.053 738.409 Q310.053 731.279 308.224 727.737 Q306.418 724.173 302.784 724.173 M302.784 720.469 Q308.594 720.469 311.65 725.075 Q314.728 729.659 314.728 738.409 Q314.728 747.135 311.65 751.742 Q308.594 756.325 302.784 756.325 Q296.974 756.325 293.895 751.742 Q290.84 747.135 290.84 738.409 Q290.84 729.659 293.895 725.075 Q296.974 720.469 302.784 720.469 Z" fill="#000000" fill-rule="evenodd" fill-opacity="1" /><path clip-path="url(#clip340)" d="M 0 0 M167.116 515.745 L183.436 515.745 L183.436 519.681 L161.491 519.681 L161.491 515.745 Q164.153 512.991 168.737 508.361 Q173.343 503.708 174.524 502.366 Q176.769 499.843 177.649 498.107 Q178.552 496.347 178.552 494.658 Q178.552 491.903 176.607 490.167 Q174.686 488.431 171.584 488.431 Q169.385 488.431 166.931 489.195 Q164.501 489.959 161.723 491.509 L161.723 486.787 Q164.547 485.653 167.001 485.074 Q169.454 484.496 171.491 484.496 Q176.862 484.496 180.056 487.181 Q183.251 489.866 183.251 494.357 Q183.251 496.486 182.44 498.408 Q181.653 500.306 179.547 502.898 Q178.968 503.57 175.866 506.787 Q172.765 509.982 167.116 515.745 Z" fill="#000000" fill-rule="evenodd" fill-opacity="1" /><path clip-path="url(#clip340)" d="M 0 0 M216.676 494.218 L206.098 504.843 L216.676 515.421 L213.922 518.222 L203.297 507.597 L192.672 518.222 L189.94 515.421 L200.496 504.843 L189.94 494.218 L192.672 491.417 L203.297 502.042 L213.922 491.417 L216.676 494.218 Z" fill="#000000" fill-rule="evenodd" fill-opacity="1" /><path clip-path="url(#clip340)" d="M 0 0 M222.556 515.745 L230.195 515.745 L230.195 489.38 L221.885 491.046 L221.885 486.787 L230.148 485.121 L234.824 485.121 L234.824 515.745 L242.463 515.745 L242.463 519.681 L222.556 519.681 L222.556 515.745 Z" fill="#000000" fill-rule="evenodd" fill-opacity="1" /><path clip-path="url(#clip340)" d="M 0 0 M257.533 488.199 Q253.922 488.199 252.093 491.764 Q250.287 495.306 250.287 502.435 Q250.287 509.542 252.093 513.107 Q253.922 516.648 257.533 516.648 Q261.167 516.648 262.972 513.107 Q264.801 509.542 264.801 502.435 Q264.801 495.306 262.972 491.764 Q261.167 488.199 257.533 488.199 M257.533 484.496 Q263.343 484.496 266.398 489.102 Q269.477 493.685 269.477 502.435 Q269.477 511.162 266.398 515.769 Q263.343 520.352 257.533 520.352 Q251.722 520.352 248.644 515.769 Q245.588 511.162 245.588 502.435 Q245.588 493.685 248.644 489.102 Q251.722 484.496 257.533 484.496 Z" fill="#000000" fill-rule="evenodd" fill-opacity="1" /><path clip-path="url(#clip340)" d="M 0 0 M269.477 478.597 L293.589 478.597 L293.589 481.794 L269.477 481.794 L269.477 478.597 Z" fill="#000000" fill-rule="evenodd" fill-opacity="1" /><path clip-path="url(#clip340)" d="M 0 0 M297.745 464.19 L312.66 464.19 L312.66 467.388 L301.224 467.388 L301.224 474.271 Q302.052 473.989 302.88 473.857 Q303.707 473.707 304.535 473.707 Q309.237 473.707 311.983 476.284 Q314.728 478.86 314.728 483.261 Q314.728 487.794 311.907 490.314 Q309.086 492.816 303.952 492.816 Q302.184 492.816 300.341 492.515 Q298.516 492.214 296.56 491.612 L296.56 487.794 Q298.253 488.716 300.058 489.167 Q301.864 489.618 303.876 489.618 Q307.13 489.618 309.03 487.907 Q310.929 486.195 310.929 483.261 Q310.929 480.327 309.03 478.616 Q307.13 476.904 303.876 476.904 Q302.353 476.904 300.83 477.243 Q299.325 477.581 297.745 478.296 L297.745 464.19 Z" fill="#000000" fill-rule="evenodd" fill-opacity="1" /><path clip-path="url(#clip340)" d="M 0 0 M173.852 246.774 L162.047 265.223 L173.852 265.223 L173.852 246.774 M172.626 242.7 L178.505 242.7 L178.505 265.223 L183.436 265.223 L183.436 269.112 L178.505 269.112 L178.505 277.26 L173.852 277.26 L173.852 269.112 L158.251 269.112 L158.251 264.598 L172.626 242.7 Z" fill="#000000" fill-rule="evenodd" fill-opacity="1" /><path clip-path="url(#clip340)" d="M 0 0 M216.676 251.797 L206.098 262.422 L216.676 273 L213.922 275.801 L203.297 265.176 L192.672 275.801 L189.94 273 L200.496 262.422 L189.94 251.797 L192.672 248.996 L203.297 259.621 L213.922 248.996 L216.676 251.797 Z" fill="#000000" fill-rule="evenodd" fill-opacity="1" /><path clip-path="url(#clip340)" d="M 0 0 M222.556 273.325 L230.195 273.325 L230.195 246.959 L221.885 248.626 L221.885 244.366 L230.148 242.7 L234.824 242.7 L234.824 273.325 L242.463 273.325 L242.463 277.26 L222.556 277.26 L222.556 273.325 Z" fill="#000000" fill-rule="evenodd" fill-opacity="1" /><path clip-path="url(#clip340)" d="M 0 0 M257.533 245.778 Q253.922 245.778 252.093 249.343 Q250.287 252.885 250.287 260.014 Q250.287 267.121 252.093 270.686 Q253.922 274.227 257.533 274.227 Q261.167 274.227 262.972 270.686 Q264.801 267.121 264.801 260.014 Q264.801 252.885 262.972 249.343 Q261.167 245.778 257.533 245.778 M257.533 242.075 Q263.343 242.075 266.398 246.681 Q269.477 251.264 269.477 260.014 Q269.477 268.741 266.398 273.348 Q263.343 277.931 257.533 277.931 Q251.722 277.931 248.644 273.348 Q245.588 268.741 245.588 260.014 Q245.588 251.264 248.644 246.681 Q251.722 242.075 257.533 242.075 Z" fill="#000000" fill-rule="evenodd" fill-opacity="1" /><path clip-path="url(#clip340)" d="M 0 0 M269.477 236.176 L293.589 236.176 L293.589 239.373 L269.477 239.373 L269.477 236.176 Z" fill="#000000" fill-rule="evenodd" fill-opacity="1" /><path clip-path="url(#clip340)" d="M 0 0 M297.745 221.769 L312.66 221.769 L312.66 224.967 L301.224 224.967 L301.224 231.85 Q302.052 231.568 302.88 231.436 Q303.707 231.286 304.535 231.286 Q309.237 231.286 311.983 233.863 Q314.728 236.439 314.728 240.84 Q314.728 245.373 311.907 247.893 Q309.086 250.395 303.952 250.395 Q302.184 250.395 300.341 250.094 Q298.516 249.793 296.56 249.191 L296.56 245.373 Q298.253 246.295 300.058 246.746 Q301.864 247.197 303.876 247.197 Q307.13 247.197 309.03 245.486 Q310.929 243.774 310.929 240.84 Q310.929 237.906 309.03 236.195 Q307.13 234.483 303.876 234.483 Q302.353 234.483 300.83 234.822 Q299.325 235.16 297.745 235.875 L297.745 221.769 Z" fill="#000000" fill-rule="evenodd" fill-opacity="1" /><path clip-path="url(#clip340)" d="M 0 0 M1147.48 1538.25 Q1147.48 1544.71 1150.12 1548.4 Q1152.8 1552.07 1157.44 1552.07 Q1162.09 1552.07 1164.77 1548.4 Q1167.44 1544.71 1167.44 1538.25 Q1167.44 1531.79 1164.77 1528.13 Q1162.09 1524.44 1157.44 1524.44 Q1152.8 1524.44 1150.12 1528.13 Q1147.48 1531.79 1147.48 1538.25 M1167.44 1550.7 Q1165.59 1553.88 1162.76 1555.44 Q1159.96 1556.97 1156.01 1556.97 Q1149.55 1556.97 1145.48 1551.81 Q1141.43 1546.65 1141.43 1538.25 Q1141.43 1529.85 1145.48 1524.69 Q1149.55 1519.54 1156.01 1519.54 Q1159.96 1519.54 1162.76 1521.1 Q1165.59 1522.62 1167.44 1525.81 L1167.44 1520.4 L1173.3 1520.4 L1173.3 1569.6 L1167.44 1569.6 L1167.44 1550.7 Z" fill="#000000" fill-rule="evenodd" fill-opacity="1" /><path clip-path="url(#clip340)" d="M 0 0 M1206.52 1566.87 L1206.52 1571.42 L1172.66 1571.42 L1172.66 1566.87 L1206.52 1566.87 Z" fill="#000000" fill-rule="evenodd" fill-opacity="1" /><path clip-path="url(#clip340)" d="M 0 0 M1235.39 1521.45 L1235.39 1526.98 Q1232.91 1525.71 1230.24 1525.07 Q1227.56 1524.44 1224.7 1524.44 Q1220.34 1524.44 1218.14 1525.77 Q1215.98 1527.11 1215.98 1529.79 Q1215.98 1531.82 1217.54 1533 Q1219.1 1534.15 1223.81 1535.2 L1225.81 1535.64 Q1232.05 1536.98 1234.66 1539.43 Q1237.3 1541.85 1237.3 1546.21 Q1237.3 1551.17 1233.36 1554.07 Q1229.44 1556.97 1222.57 1556.97 Q1219.7 1556.97 1216.58 1556.39 Q1213.49 1555.85 1210.06 1554.74 L1210.06 1548.69 Q1213.3 1550.38 1216.45 1551.24 Q1219.61 1552.07 1222.69 1552.07 Q1226.83 1552.07 1229.06 1550.66 Q1231.29 1549.23 1231.29 1546.65 Q1231.29 1544.27 1229.66 1542.99 Q1228.07 1541.72 1222.63 1540.54 L1220.59 1540.07 Q1215.15 1538.92 1212.73 1536.56 Q1210.31 1534.18 1210.31 1530.04 Q1210.31 1525.01 1213.88 1522.27 Q1217.44 1519.54 1224 1519.54 Q1227.24 1519.54 1230.11 1520.01 Q1232.97 1520.49 1235.39 1521.45 Z" fill="#000000" fill-rule="evenodd" fill-opacity="1" /><path clip-path="url(#clip340)" d="M 0 0 M1273.08 1534.53 L1273.08 1556.04 L1267.22 1556.04 L1267.22 1534.72 Q1267.22 1529.66 1265.25 1527.14 Q1263.27 1524.63 1259.33 1524.63 Q1254.59 1524.63 1251.85 1527.65 Q1249.11 1530.68 1249.11 1535.9 L1249.11 1556.04 L1243.22 1556.04 L1243.22 1520.4 L1249.11 1520.4 L1249.11 1525.93 Q1251.21 1522.72 1254.04 1521.13 Q1256.91 1519.54 1260.63 1519.54 Q1266.78 1519.54 1269.93 1523.36 Q1273.08 1527.14 1273.08 1534.53 Z" fill="#000000" fill-rule="evenodd" fill-opacity="1" /><path clip-path="url(#clip340)" d="M 0 0 M1293.03 1524.5 Q1288.32 1524.5 1285.59 1528.19 Q1282.85 1531.85 1282.85 1538.25 Q1282.85 1544.65 1285.55 1548.34 Q1288.29 1552 1293.03 1552 Q1297.71 1552 1300.45 1548.31 Q1303.19 1544.62 1303.19 1538.25 Q1303.19 1531.92 1300.45 1528.23 Q1297.71 1524.5 1293.03 1524.5 M1293.03 1519.54 Q1300.67 1519.54 1305.03 1524.5 Q1309.39 1529.47 1309.39 1538.25 Q1309.39 1547 1305.03 1552 Q1300.67 1556.97 1293.03 1556.97 Q1285.36 1556.97 1281 1552 Q1276.67 1547 1276.67 1538.25 Q1276.67 1529.47 1281 1524.5 Q1285.36 1519.54 1293.03 1519.54 Z" fill="#000000" fill-rule="evenodd" fill-opacity="1" /><path clip-path="url(#clip340)" d="M 0 0 M1312.13 1520.4 L1317.99 1520.4 L1325.31 1548.21 L1332.6 1520.4 L1339.5 1520.4 L1346.82 1548.21 L1354.11 1520.4 L1359.97 1520.4 L1350.64 1556.04 L1343.74 1556.04 L1336.07 1526.83 L1328.36 1556.04 L1321.46 1556.04 L1312.13 1520.4 Z" fill="#000000" fill-rule="evenodd" fill-opacity="1" /><path clip-path="url(#clip340)" d="M 0 0 M1386.29 1506.52 L1399.79 1506.52 L1399.79 1511.07 L1392.15 1511.07 L1392.15 1560.09 L1399.79 1560.09 L1399.79 1564.64 L1386.29 1564.64 L1386.29 1506.52 Z" fill="#000000" fill-rule="evenodd" fill-opacity="1" /><path clip-path="url(#clip340)" d="M 0 0 M1429.39 1537.81 Q1429.39 1531.44 1426.75 1527.94 Q1424.14 1524.44 1419.39 1524.44 Q1414.68 1524.44 1412.04 1527.94 Q1409.43 1531.44 1409.43 1537.81 Q1409.43 1544.14 1412.04 1547.64 Q1414.68 1551.14 1419.39 1551.14 Q1424.14 1551.14 1426.75 1547.64 Q1429.39 1544.14 1429.39 1537.81 M1435.24 1551.62 Q1435.24 1560.72 1431.2 1565.15 Q1427.16 1569.6 1418.82 1569.6 Q1415.73 1569.6 1413 1569.13 Q1410.26 1568.68 1407.68 1567.72 L1407.68 1562.03 Q1410.26 1563.43 1412.77 1564.1 Q1415.29 1564.76 1417.9 1564.76 Q1423.66 1564.76 1426.52 1561.74 Q1429.39 1558.75 1429.39 1552.67 L1429.39 1549.77 Q1427.57 1552.92 1424.74 1554.48 Q1421.91 1556.04 1417.96 1556.04 Q1411.4 1556.04 1407.39 1551.05 Q1403.38 1546.05 1403.38 1537.81 Q1403.38 1529.53 1407.39 1524.53 Q1411.4 1519.54 1417.96 1519.54 Q1421.91 1519.54 1424.74 1521.1 Q1427.57 1522.66 1429.39 1525.81 L1429.39 1520.4 L1435.24 1520.4 L1435.24 1551.62 Z" fill="#000000" fill-rule="evenodd" fill-opacity="1" /><path clip-path="url(#clip340)" d="M 0 0 M1451.79 1508.52 L1457.21 1508.52 L1440.65 1562.09 L1435.24 1562.09 L1451.79 1508.52 Z" fill="#000000" fill-rule="evenodd" fill-opacity="1" /><path clip-path="url(#clip340)" d="M 0 0 M1463.13 1506.52 L1469.01 1506.52 L1469.01 1535.77 L1486.49 1520.4 L1493.97 1520.4 L1475.06 1537.07 L1494.76 1556.04 L1487.12 1556.04 L1469.01 1538.63 L1469.01 1556.04 L1463.13 1556.04 L1463.13 1506.52 Z" fill="#000000" fill-rule="evenodd" fill-opacity="1" /><path clip-path="url(#clip340)" d="M 0 0 M1524.36 1537.81 Q1524.36 1531.44 1521.72 1527.94 Q1519.11 1524.44 1514.37 1524.44 Q1509.66 1524.44 1507.02 1527.94 Q1504.41 1531.44 1504.41 1537.81 Q1504.41 1544.14 1507.02 1547.64 Q1509.66 1551.14 1514.37 1551.14 Q1519.11 1551.14 1521.72 1547.64 Q1524.36 1544.14 1524.36 1537.81 M1530.22 1551.62 Q1530.22 1560.72 1526.18 1565.15 Q1522.14 1569.6 1513.8 1569.6 Q1510.71 1569.6 1507.97 1569.13 Q1505.23 1568.68 1502.66 1567.72 L1502.66 1562.03 Q1505.23 1563.43 1507.75 1564.1 Q1510.26 1564.76 1512.87 1564.76 Q1518.63 1564.76 1521.5 1561.74 Q1524.36 1558.75 1524.36 1552.67 L1524.36 1549.77 Q1522.55 1552.92 1519.72 1554.48 Q1516.88 1556.04 1512.94 1556.04 Q1506.38 1556.04 1502.37 1551.05 Q1498.36 1546.05 1498.36 1537.81 Q1498.36 1529.53 1502.37 1524.53 Q1506.38 1519.54 1512.94 1519.54 Q1516.88 1519.54 1519.72 1521.1 Q1522.55 1522.66 1524.36 1525.81 L1524.36 1520.4 L1530.22 1520.4 L1530.22 1551.62 Z" fill="#000000" fill-rule="evenodd" fill-opacity="1" /><path clip-path="url(#clip340)" d="M 0 0 M1550.05 1506.52 L1550.05 1564.64 L1536.55 1564.64 L1536.55 1560.09 L1544.16 1560.09 L1544.16 1511.07 L1536.55 1511.07 L1536.55 1506.52 L1550.05 1506.52 Z" fill="#000000" fill-rule="evenodd" fill-opacity="1" /><path clip-path="url(#clip340)" d="M 0 0 M53.4065 1263.14 L58.9447 1263.14 Q57.6716 1265.62 57.035 1268.29 Q56.3984 1270.97 56.3984 1273.83 Q56.3984 1278.19 57.7352 1280.39 Q59.072 1282.55 61.7456 1282.55 Q63.7826 1282.55 64.9603 1280.99 Q66.1061 1279.43 67.1565 1274.72 L67.6021 1272.72 Q68.9389 1266.48 71.3897 1263.87 Q73.8086 1261.23 78.1691 1261.23 Q83.1344 1261.23 86.0308 1265.17 Q88.9272 1269.09 88.9272 1275.96 Q88.9272 1278.83 88.3543 1281.95 Q87.8132 1285.03 86.6992 1288.47 L80.6518 1288.47 Q82.3387 1285.22 83.198 1282.07 Q84.0256 1278.92 84.0256 1275.84 Q84.0256 1271.7 82.6251 1269.47 Q81.1929 1267.24 78.6147 1267.24 Q76.2276 1267.24 74.9545 1268.87 Q73.6813 1270.46 72.5037 1275.9 L72.0262 1277.94 Q70.8804 1283.38 68.5251 1285.8 Q66.138 1288.22 62.0002 1288.22 Q56.9713 1288.22 54.2341 1284.65 Q51.4968 1281.09 51.4968 1274.53 Q51.4968 1271.28 51.9743 1268.42 Q52.4517 1265.55 53.4065 1263.14 Z" fill="#000000" fill-rule="evenodd" fill-opacity="1" /><path clip-path="url(#clip340)" d="M 0 0 M66.4881 1225.45 L88.0042 1225.45 L88.0042 1231.31 L66.679 1231.31 Q61.6183 1231.31 59.1038 1233.28 Q56.5894 1235.25 56.5894 1239.2 Q56.5894 1243.94 59.6131 1246.68 Q62.6368 1249.42 67.8567 1249.42 L88.0042 1249.42 L88.0042 1255.31 L52.3562 1255.31 L52.3562 1249.42 L57.8944 1249.42 Q54.6797 1247.32 53.0883 1244.48 Q51.4968 1241.62 51.4968 1237.9 Q51.4968 1231.75 55.3163 1228.6 Q59.1038 1225.45 66.4881 1225.45 Z" fill="#000000" fill-rule="evenodd" fill-opacity="1" /><path clip-path="url(#clip340)" d="M 0 0 M56.4621 1205.49 Q56.4621 1210.21 60.1542 1212.94 Q63.8145 1215.68 70.212 1215.68 Q76.6095 1215.68 80.3017 1212.97 Q83.9619 1210.24 83.9619 1205.49 Q83.9619 1200.82 80.2698 1198.08 Q76.5777 1195.34 70.212 1195.34 Q63.8781 1195.34 60.186 1198.08 Q56.4621 1200.82 56.4621 1205.49 M51.4968 1205.49 Q51.4968 1197.86 56.4621 1193.5 Q61.4273 1189.13 70.212 1189.13 Q78.9649 1189.13 83.9619 1193.5 Q88.9272 1197.86 88.9272 1205.49 Q88.9272 1213.17 83.9619 1217.53 Q78.9649 1221.85 70.212 1221.85 Q61.4273 1221.85 56.4621 1217.53 Q51.4968 1213.17 51.4968 1205.49 Z" fill="#000000" fill-rule="evenodd" fill-opacity="1" /><path clip-path="url(#clip340)" d="M 0 0 M52.3562 1186.4 L52.3562 1180.54 L80.1743 1173.22 L52.3562 1165.93 L52.3562 1159.02 L80.1743 1151.7 L52.3562 1144.42 L52.3562 1138.56 L88.0042 1147.88 L88.0042 1154.79 L58.7856 1162.46 L88.0042 1170.16 L88.0042 1177.07 L52.3562 1186.4 Z" fill="#000000" fill-rule="evenodd" fill-opacity="1" /><path clip-path="url(#clip340)" d="M 0 0 M57.7671 1088.24 L38.479 1088.24 L38.479 1082.38 L88.0042 1082.38 L88.0042 1088.24 L82.657 1088.24 Q85.8398 1090.08 87.3994 1092.92 Q88.9272 1095.72 88.9272 1099.66 Q88.9272 1106.13 83.771 1110.2 Q78.6147 1114.24 70.212 1114.24 Q61.8093 1114.24 56.6531 1110.2 Q51.4968 1106.13 51.4968 1099.66 Q51.4968 1095.72 53.0564 1092.92 Q54.5842 1090.08 57.7671 1088.24 M70.212 1108.19 Q76.6732 1108.19 80.3653 1105.55 Q84.0256 1102.88 84.0256 1098.23 Q84.0256 1093.59 80.3653 1090.91 Q76.6732 1088.24 70.212 1088.24 Q63.7508 1088.24 60.0905 1090.91 Q56.3984 1093.59 56.3984 1098.23 Q56.3984 1102.88 60.0905 1105.55 Q63.7508 1108.19 70.212 1108.19 Z" fill="#000000" fill-rule="evenodd" fill-opacity="1" /><path clip-path="url(#clip340)" d="M 0 0 M68.7161 1045.75 L71.5806 1045.75 L71.5806 1072.67 Q77.6281 1072.29 80.8109 1069.05 Q83.9619 1065.77 83.9619 1059.94 Q83.9619 1056.57 83.1344 1053.42 Q82.3069 1050.23 80.6518 1047.12 L86.1899 1047.12 Q87.5267 1050.27 88.227 1053.58 Q88.9272 1056.89 88.9272 1060.29 Q88.9272 1068.82 83.9619 1073.82 Q78.9967 1078.79 70.5303 1078.79 Q61.7774 1078.79 56.6531 1074.07 Q51.4968 1069.33 51.4968 1061.31 Q51.4968 1054.12 56.1438 1049.95 Q60.7589 1045.75 68.7161 1045.75 M66.9973 1051.6 Q62.1912 1051.67 59.3266 1054.31 Q56.4621 1056.92 56.4621 1061.25 Q56.4621 1066.15 59.2312 1069.11 Q62.0002 1072.04 67.0292 1072.48 L66.9973 1051.6 Z" fill="#000000" fill-rule="evenodd" fill-opacity="1" /><path clip-path="url(#clip340)" d="M 0 0 M82.657 1033.94 L101.563 1033.94 L101.563 1039.83 L52.3562 1039.83 L52.3562 1033.94 L57.7671 1033.94 Q54.5842 1032.09 53.0564 1029.29 Q51.4968 1026.46 51.4968 1022.54 Q51.4968 1016.05 56.6531 1012.01 Q61.8093 1007.93 70.212 1007.93 Q78.6147 1007.93 83.771 1012.01 Q88.9272 1016.05 88.9272 1022.54 Q88.9272 1026.46 87.3994 1029.29 Q85.8398 1032.09 82.657 1033.94 M70.212 1014.01 Q63.7508 1014.01 60.0905 1016.69 Q56.3984 1019.33 56.3984 1023.98 Q56.3984 1028.62 60.0905 1031.3 Q63.7508 1033.94 70.212 1033.94 Q76.6732 1033.94 80.3653 1031.3 Q84.0256 1028.62 84.0256 1023.98 Q84.0256 1019.33 80.3653 1016.69 Q76.6732 1014.01 70.212 1014.01 Z" fill="#000000" fill-rule="evenodd" fill-opacity="1" /><path clip-path="url(#clip340)" d="M 0 0 M56.4621 987.978 Q56.4621 992.689 60.1542 995.426 Q63.8145 998.163 70.212 998.163 Q76.6095 998.163 80.3017 995.458 Q83.9619 992.721 83.9619 987.978 Q83.9619 983.299 80.2698 980.562 Q76.5777 977.825 70.212 977.825 Q63.8781 977.825 60.186 980.562 Q56.4621 983.299 56.4621 987.978 M51.4968 987.978 Q51.4968 980.339 56.4621 975.979 Q61.4273 971.618 70.212 971.618 Q78.9649 971.618 83.9619 975.979 Q88.9272 980.339 88.9272 987.978 Q88.9272 995.649 83.9619 1000.01 Q78.9649 1004.34 70.212 1004.34 Q61.4273 1004.34 56.4621 1000.01 Q51.4968 995.649 51.4968 987.978 Z" fill="#000000" fill-rule="evenodd" fill-opacity="1" /><path clip-path="url(#clip340)" d="M 0 0 M53.4065 942.75 L58.9447 942.75 Q57.6716 945.233 57.035 947.906 Q56.3984 950.58 56.3984 953.444 Q56.3984 957.805 57.7352 960.001 Q59.072 962.165 61.7456 962.165 Q63.7826 962.165 64.9603 960.606 Q66.1061 959.046 67.1565 954.336 L67.6021 952.33 Q68.9389 946.092 71.3897 943.482 Q73.8086 940.84 78.1691 940.84 Q83.1344 940.84 86.0308 944.787 Q88.9272 948.702 88.9272 955.577 Q88.9272 958.441 88.3543 961.561 Q87.8132 964.648 86.6992 968.085 L80.6518 968.085 Q82.3387 964.839 83.198 961.688 Q84.0256 958.537 84.0256 955.45 Q84.0256 951.312 82.6251 949.084 Q81.1929 946.856 78.6147 946.856 Q76.2276 946.856 74.9545 948.479 Q73.6813 950.07 72.5037 955.513 L72.0262 957.55 Q70.8804 962.993 68.5251 965.412 Q66.138 967.831 62.0002 967.831 Q56.9713 967.831 54.2341 964.266 Q51.4968 960.701 51.4968 954.145 Q51.4968 950.898 51.9743 948.033 Q52.4517 945.169 53.4065 942.75 Z" fill="#000000" fill-rule="evenodd" fill-opacity="1" /><path clip-path="url(#clip340)" d="M 0 0 M52.3562 934.697 L52.3562 928.841 L88.0042 928.841 L88.0042 934.697 L52.3562 934.697 M38.479 934.697 L38.479 928.841 L45.895 928.841 L45.895 934.697 L38.479 934.697 Z" fill="#000000" fill-rule="evenodd" fill-opacity="1" /><path clip-path="url(#clip340)" d="M 0 0 M42.2347 916.905 L52.3562 916.905 L52.3562 904.842 L56.9077 904.842 L56.9077 916.905 L76.2594 916.905 Q80.6199 916.905 81.8613 915.727 Q83.1026 914.518 83.1026 910.858 L83.1026 904.842 L88.0042 904.842 L88.0042 910.858 Q88.0042 917.637 85.4897 920.215 Q82.9434 922.793 76.2594 922.793 L56.9077 922.793 L56.9077 927.09 L52.3562 927.09 L52.3562 922.793 L42.2347 922.793 L42.2347 916.905 Z" fill="#000000" fill-rule="evenodd" fill-opacity="1" /><path clip-path="url(#clip340)" d="M 0 0 M52.3562 898.699 L52.3562 892.843 L88.0042 892.843 L88.0042 898.699 L52.3562 898.699 M38.479 898.699 L38.479 892.843 L45.895 892.843 L45.895 898.699 L38.479 898.699 Z" fill="#000000" fill-rule="evenodd" fill-opacity="1" /><path clip-path="url(#clip340)" d="M 0 0 M56.4621 872.886 Q56.4621 877.597 60.1542 880.334 Q63.8145 883.071 70.212 883.071 Q76.6095 883.071 80.3017 880.366 Q83.9619 877.629 83.9619 872.886 Q83.9619 868.207 80.2698 865.47 Q76.5777 862.733 70.212 862.733 Q63.8781 862.733 60.186 865.47 Q56.4621 868.207 56.4621 872.886 M51.4968 872.886 Q51.4968 865.247 56.4621 860.887 Q61.4273 856.526 70.212 856.526 Q78.9649 856.526 83.9619 860.887 Q88.9272 865.247 88.9272 872.886 Q88.9272 880.557 83.9619 884.917 Q78.9649 889.246 70.212 889.246 Q61.4273 889.246 56.4621 884.917 Q51.4968 880.557 51.4968 872.886 Z" fill="#000000" fill-rule="evenodd" fill-opacity="1" /><path clip-path="url(#clip340)" d="M 0 0 M66.4881 820.751 L88.0042 820.751 L88.0042 826.608 L66.679 826.608 Q61.6183 826.608 59.1038 828.581 Q56.5894 830.554 56.5894 834.501 Q56.5894 839.244 59.6131 841.981 Q62.6368 844.718 67.8567 844.718 L88.0042 844.718 L88.0042 850.606 L52.3562 850.606 L52.3562 844.718 L57.8944 844.718 Q54.6797 842.617 53.0883 839.785 Q51.4968 836.92 51.4968 833.196 Q51.4968 827.053 55.3163 823.902 Q59.1038 820.751 66.4881 820.751 Z" fill="#000000" fill-rule="evenodd" fill-opacity="1" /><path clip-path="url(#clip340)" d="M 0 0 M53.4065 771.162 L58.9447 771.162 Q57.6716 773.645 57.035 776.319 Q56.3984 778.992 56.3984 781.857 Q56.3984 786.217 57.7352 788.413 Q59.072 790.578 61.7456 790.578 Q63.7826 790.578 64.9603 789.018 Q66.1061 787.459 67.1565 782.748 L67.6021 780.743 Q68.9389 774.504 71.3897 771.894 Q73.8086 769.253 78.1691 769.253 Q83.1344 769.253 86.0308 773.199 Q88.9272 777.114 88.9272 783.989 Q88.9272 786.854 88.3543 789.973 Q87.8132 793.06 86.6992 796.498 L80.6518 796.498 Q82.3387 793.251 83.198 790.1 Q84.0256 786.949 84.0256 783.862 Q84.0256 779.724 82.6251 777.496 Q81.1929 775.268 78.6147 775.268 Q76.2276 775.268 74.9545 776.891 Q73.6813 778.483 72.5037 783.926 L72.0262 785.963 Q70.8804 791.405 68.5251 793.824 Q66.138 796.243 62.0002 796.243 Q56.9713 796.243 54.2341 792.678 Q51.4968 789.114 51.4968 782.557 Q51.4968 779.31 51.9743 776.446 Q52.4517 773.581 53.4065 771.162 Z" fill="#000000" fill-rule="evenodd" fill-opacity="1" /><path clip-path="url(#clip340)" d="M 0 0 M73.9359 763.714 L52.3562 763.714 L52.3562 757.858 L73.7131 757.858 Q78.7739 757.858 81.3202 755.885 Q83.8346 753.911 83.8346 749.964 Q83.8346 745.222 80.8109 742.485 Q77.7872 739.716 72.5673 739.716 L52.3562 739.716 L52.3562 733.859 L88.0042 733.859 L88.0042 739.716 L82.5296 739.716 Q85.7762 741.848 87.3676 744.681 Q88.9272 747.482 88.9272 751.206 Q88.9272 757.349 85.1078 760.532 Q81.2883 763.714 73.9359 763.714 M51.4968 748.978 L51.4968 748.978 Z" fill="#000000" fill-rule="evenodd" fill-opacity="1" /><path clip-path="url(#clip340)" d="M 0 0 M70.212 702.126 Q63.7508 702.126 60.0905 704.8 Q56.3984 707.442 56.3984 712.089 Q56.3984 716.736 60.0905 719.409 Q63.7508 722.051 70.212 722.051 Q76.6732 722.051 80.3653 719.409 Q84.0256 716.736 84.0256 712.089 Q84.0256 707.442 80.3653 704.8 Q76.6732 702.126 70.212 702.126 M57.7671 722.051 Q54.5842 720.205 53.0564 717.404 Q51.4968 714.571 51.4968 710.656 Q51.4968 704.163 56.6531 700.121 Q61.8093 696.047 70.212 696.047 Q78.6147 696.047 83.771 700.121 Q88.9272 704.163 88.9272 710.656 Q88.9272 714.571 87.3994 717.404 Q85.8398 720.205 82.657 722.051 L88.0042 722.051 L88.0042 727.939 L38.479 727.939 L38.479 722.051 L57.7671 722.051 Z" fill="#000000" fill-rule="evenodd" fill-opacity="1" /><path clip-path="url(#clip340)" d="M 0 0 M38.479 689.904 L38.479 684.048 L88.0042 684.048 L88.0042 689.904 L38.479 689.904 Z" fill="#000000" fill-rule="evenodd" fill-opacity="1" /><path clip-path="url(#clip340)" d="M 0 0 M52.3562 677.905 L52.3562 672.048 L88.0042 672.048 L88.0042 677.905 L52.3562 677.905 M38.479 677.905 L38.479 672.048 L45.895 672.048 L45.895 677.905 L38.479 677.905 Z" fill="#000000" fill-rule="evenodd" fill-opacity="1" /><path clip-path="url(#clip340)" d="M 0 0 M59.1993 638.151 Q55.2526 635.955 53.3747 632.899 Q51.4968 629.844 51.4968 625.706 Q51.4968 620.136 55.4117 617.112 Q59.2948 614.088 66.4881 614.088 L88.0042 614.088 L88.0042 619.977 L66.679 619.977 Q61.5546 619.977 59.072 621.791 Q56.5894 623.605 56.5894 627.329 Q56.5894 631.881 59.6131 634.522 Q62.6368 637.164 67.8567 637.164 L88.0042 637.164 L88.0042 643.052 L66.679 643.052 Q61.5228 643.052 59.072 644.867 Q56.5894 646.681 56.5894 650.468 Q56.5894 654.956 59.6449 657.598 Q62.6686 660.24 67.8567 660.24 L88.0042 660.24 L88.0042 666.128 L52.3562 666.128 L52.3562 660.24 L57.8944 660.24 Q54.616 658.235 53.0564 655.434 Q51.4968 652.633 51.4968 648.782 Q51.4968 644.899 53.4702 642.193 Q55.4436 639.456 59.1993 638.151 Z" fill="#000000" fill-rule="evenodd" fill-opacity="1" /><path clip-path="url(#clip340)" d="M 0 0 M70.0847 591.745 Q70.0847 598.843 71.7079 601.58 Q73.3312 604.317 77.2461 604.317 Q80.3653 604.317 82.2114 602.28 Q84.0256 600.211 84.0256 596.678 Q84.0256 591.809 80.5881 588.88 Q77.1188 585.92 71.3897 585.92 L70.0847 585.92 L70.0847 591.745 M67.6657 580.064 L88.0042 580.064 L88.0042 585.92 L82.5933 585.92 Q85.8398 587.925 87.3994 590.917 Q88.9272 593.909 88.9272 598.238 Q88.9272 603.712 85.8716 606.959 Q82.7843 610.174 77.6281 610.174 Q71.6125 610.174 68.5569 606.163 Q65.5014 602.121 65.5014 594.132 L65.5014 585.92 L64.9285 585.92 Q60.8862 585.92 58.6901 588.594 Q56.4621 591.236 56.4621 596.042 Q56.4621 599.097 57.1941 601.994 Q57.9262 604.89 59.3903 607.564 L53.9795 607.564 Q52.7381 604.349 52.1334 601.325 Q51.4968 598.302 51.4968 595.437 Q51.4968 587.703 55.5072 583.883 Q59.5176 580.064 67.6657 580.064 Z" fill="#000000" fill-rule="evenodd" fill-opacity="1" /><path clip-path="url(#clip340)" d="M 0 0 M42.2347 568.128 L52.3562 568.128 L52.3562 556.065 L56.9077 556.065 L56.9077 568.128 L76.2594 568.128 Q80.6199 568.128 81.8613 566.95 Q83.1026 565.741 83.1026 562.081 L83.1026 556.065 L88.0042 556.065 L88.0042 562.081 Q88.0042 568.86 85.4897 571.438 Q82.9434 574.016 76.2594 574.016 L56.9077 574.016 L56.9077 578.313 L52.3562 578.313 L52.3562 574.016 L42.2347 574.016 L42.2347 568.128 Z" fill="#000000" fill-rule="evenodd" fill-opacity="1" /><path clip-path="url(#clip340)" d="M 0 0 M52.3562 549.922 L52.3562 544.066 L88.0042 544.066 L88.0042 549.922 L52.3562 549.922 M38.479 549.922 L38.479 544.066 L45.895 544.066 L45.895 549.922 L38.479 549.922 Z" fill="#000000" fill-rule="evenodd" fill-opacity="1" /><path clip-path="url(#clip340)" d="M 0 0 M56.4621 524.109 Q56.4621 528.82 60.1542 531.557 Q63.8145 534.294 70.212 534.294 Q76.6095 534.294 80.3017 531.589 Q83.9619 528.852 83.9619 524.109 Q83.9619 519.43 80.2698 516.693 Q76.5777 513.956 70.212 513.956 Q63.8781 513.956 60.186 516.693 Q56.4621 519.43 56.4621 524.109 M51.4968 524.109 Q51.4968 516.47 56.4621 512.11 Q61.4273 507.749 70.212 507.749 Q78.9649 507.749 83.9619 512.11 Q88.9272 516.47 88.9272 524.109 Q88.9272 531.78 83.9619 536.14 Q78.9649 540.469 70.212 540.469 Q61.4273 540.469 56.4621 536.14 Q51.4968 531.78 51.4968 524.109 Z" fill="#000000" fill-rule="evenodd" fill-opacity="1" /><path clip-path="url(#clip340)" d="M 0 0 M66.4881 471.974 L88.0042 471.974 L88.0042 477.831 L66.679 477.831 Q61.6183 477.831 59.1038 479.804 Q56.5894 481.777 56.5894 485.724 Q56.5894 490.466 59.6131 493.204 Q62.6368 495.941 67.8567 495.941 L88.0042 495.941 L88.0042 501.829 L52.3562 501.829 L52.3562 495.941 L57.8944 495.941 Q54.6797 493.84 53.0883 491.008 Q51.4968 488.143 51.4968 484.419 Q51.4968 478.276 55.3163 475.125 Q59.1038 471.974 66.4881 471.974 Z" fill="#000000" fill-rule="evenodd" fill-opacity="1" /><path clip-path="url(#clip340)" d="M 0 0 M57.8307 424.454 Q57.2578 425.441 57.0032 426.618 Q56.7167 427.764 56.7167 429.165 Q56.7167 434.13 59.9632 436.804 Q63.1779 439.445 69.2253 439.445 L88.0042 439.445 L88.0042 445.334 L52.3562 445.334 L52.3562 439.445 L57.8944 439.445 Q54.6479 437.599 53.0883 434.639 Q51.4968 431.679 51.4968 427.446 Q51.4968 426.841 51.5923 426.109 Q51.656 425.377 51.8151 424.486 L57.8307 424.454 Z" fill="#000000" fill-rule="evenodd" fill-opacity="1" /><path clip-path="url(#clip340)" d="M 0 0 M70.0847 402.11 Q70.0847 409.208 71.7079 411.945 Q73.3312 414.683 77.2461 414.683 Q80.3653 414.683 82.2114 412.646 Q84.0256 410.577 84.0256 407.044 Q84.0256 402.174 80.5881 399.246 Q77.1188 396.286 71.3897 396.286 L70.0847 396.286 L70.0847 402.11 M67.6657 390.429 L88.0042 390.429 L88.0042 396.286 L82.5933 396.286 Q85.8398 398.291 87.3994 401.283 Q88.9272 404.275 88.9272 408.603 Q88.9272 414.078 85.8716 417.324 Q82.7843 420.539 77.6281 420.539 Q71.6125 420.539 68.5569 416.529 Q65.5014 412.487 65.5014 404.498 L65.5014 396.286 L64.9285 396.286 Q60.8862 396.286 58.6901 398.959 Q56.4621 401.601 56.4621 406.407 Q56.4621 409.463 57.1941 412.359 Q57.9262 415.256 59.3903 417.929 L53.9795 417.929 Q52.7381 414.715 52.1334 411.691 Q51.4968 408.667 51.4968 405.803 Q51.4968 398.068 55.5072 394.249 Q59.5176 390.429 67.6657 390.429 Z" fill="#000000" fill-rule="evenodd" fill-opacity="1" /><path clip-path="url(#clip340)" d="M 0 0 M42.2347 378.494 L52.3562 378.494 L52.3562 366.431 L56.9077 366.431 L56.9077 378.494 L76.2594 378.494 Q80.6199 378.494 81.8613 377.316 Q83.1026 376.107 83.1026 372.446 L83.1026 366.431 L88.0042 366.431 L88.0042 372.446 Q88.0042 379.226 85.4897 381.804 Q82.9434 384.382 76.2594 384.382 L56.9077 384.382 L56.9077 388.679 L52.3562 388.679 L52.3562 384.382 L42.2347 384.382 L42.2347 378.494 Z" fill="#000000" fill-rule="evenodd" fill-opacity="1" /><path clip-path="url(#clip340)" d="M 0 0 M68.7161 329.796 L71.5806 329.796 L71.5806 356.723 Q77.6281 356.341 80.8109 353.095 Q83.9619 349.816 83.9619 343.992 Q83.9619 340.618 83.1344 337.467 Q82.3069 334.284 80.6518 331.165 L86.1899 331.165 Q87.5267 334.316 88.227 337.626 Q88.9272 340.936 88.9272 344.342 Q88.9272 352.872 83.9619 357.869 Q78.9967 362.834 70.5303 362.834 Q61.7774 362.834 56.6531 358.123 Q51.4968 353.381 51.4968 345.36 Q51.4968 338.167 56.1438 333.997 Q60.7589 329.796 68.7161 329.796 M66.9973 335.652 Q62.1912 335.716 59.3266 338.358 Q56.4621 340.968 56.4621 345.297 Q56.4621 350.198 59.2312 353.158 Q62.0002 356.086 67.0292 356.532 L66.9973 335.652 Z" fill="#000000" fill-rule="evenodd" fill-opacity="1" /><path clip-path="url(#clip340)" d="M 0 0 M38.479 303.474 L38.479 289.979 L43.0304 289.979 L43.0304 297.617 L92.0464 297.617 L92.0464 289.979 L96.5979 289.979 L96.5979 303.474 L38.479 303.474 Z" fill="#000000" fill-rule="evenodd" fill-opacity="1" /><path clip-path="url(#clip340)" d="M 0 0 M82.5933 281.894 L82.5933 271.391 L46.3406 271.391 L48.6323 282.817 L42.7758 282.817 L40.4842 271.454 L40.4842 265.025 L82.5933 265.025 L82.5933 254.522 L88.0042 254.522 L88.0042 281.894 L82.5933 281.894 Z" fill="#000000" fill-rule="evenodd" fill-opacity="1" /><path clip-path="url(#clip340)" d="M 0 0 M40.4842 237.971 L40.4842 232.56 L94.0516 249.111 L94.0516 254.522 L40.4842 237.971 Z" fill="#000000" fill-rule="evenodd" fill-opacity="1" /><path clip-path="url(#clip340)" d="M 0 0 M53.4065 203.691 L58.9447 203.691 Q57.6716 206.174 57.035 208.848 Q56.3984 211.521 56.3984 214.386 Q56.3984 218.746 57.7352 220.942 Q59.072 223.107 61.7456 223.107 Q63.7826 223.107 64.9603 221.547 Q66.1061 219.988 67.1565 215.277 L67.6021 213.272 Q68.9389 207.033 71.3897 204.423 Q73.8086 201.782 78.1691 201.782 Q83.1344 201.782 86.0308 205.728 Q88.9272 209.643 88.9272 216.518 Q88.9272 219.383 88.3543 222.502 Q87.8132 225.589 86.6992 229.027 L80.6518 229.027 Q82.3387 225.78 83.198 222.629 Q84.0256 219.478 84.0256 216.391 Q84.0256 212.253 82.6251 210.025 Q81.1929 207.797 78.6147 207.797 Q76.2276 207.797 74.9545 209.421 Q73.6813 211.012 72.5037 216.455 L72.0262 218.492 Q70.8804 223.934 68.5251 226.353 Q66.138 228.772 62.0002 228.772 Q56.9713 228.772 54.2341 225.207 Q51.4968 221.643 51.4968 215.086 Q51.4968 211.839 51.9743 208.975 Q52.4517 206.11 53.4065 203.691 Z" fill="#000000" fill-rule="evenodd" fill-opacity="1" /><path clip-path="url(#clip340)" d="M 0 0 M38.479 181.952 L96.5979 181.952 L96.5979 195.448 L92.0464 195.448 L92.0464 187.841 L43.0304 187.841 L43.0304 195.448 L38.479 195.448 L38.479 181.952 Z" fill="#000000" fill-rule="evenodd" fill-opacity="1" /><polyline clip-path="url(#clip342)" style="stroke:#009af9; stroke-width:12; stroke-opacity:1; fill:none" points="
  395.729,738.377 414.921,746.915 434.114,754.757 453.306,762.36 472.498,769.812 491.69,777.156 510.882,784.413 530.075,791.601 549.267,798.729 568.459,805.805 
  587.651,812.837 606.843,819.827 626.035,826.781 645.228,833.702 664.42,840.592 683.612,847.454 702.804,854.289 721.996,861.1 741.189,867.889 760.381,874.655 
  779.573,881.402 798.765,888.129 817.957,894.837 837.149,901.528 856.342,908.203 875.534,914.862 894.726,921.506 913.918,928.135 933.11,934.75 952.302,941.352 
  971.495,947.94 990.687,954.517 1009.88,961.081 1029.07,967.633 1048.26,974.175 1067.46,980.705 1086.65,987.225 1105.84,993.734 1125.03,1000.23 1144.22,1006.72 
  1163.42,1013.2 1182.61,1019.67 1201.8,1026.14 1220.99,1032.59 1240.19,1039.04 1259.38,1045.47 1278.57,1051.9 1297.76,1058.32 1316.95,1064.73 1336.15,1071.14 
  1355.34,1077.54 1374.53,1083.93 1393.72,1090.31 1412.91,1096.69 1432.11,1103.06 1451.3,1109.42 1470.49,1115.78 1489.68,1122.13 1508.88,1128.47 1528.07,1134.81 
  1547.26,1141.14 1566.45,1147.47 1585.64,1153.79 1604.84,1160.1 1624.03,1166.41 1643.22,1172.72 1662.41,1179.01 1681.61,1185.31 1700.8,1191.59 1719.99,1197.87 
  1739.18,1204.15 1758.37,1210.42 1777.57,1216.69 1796.76,1222.95 1815.95,1229.21 1835.14,1235.46 1854.33,1241.71 1873.53,1247.95 1892.72,1254.19 1911.91,1260.42 
  1931.1,1266.65 1950.3,1272.88 1969.49,1279.1 1988.68,1285.31 2007.87,1291.53 2027.06,1297.73 2046.26,1303.94 2065.45,1310.14 2084.64,1316.33 2103.83,1322.53 
  2123.03,1328.71 2142.22,1334.9 2161.41,1341.08 2180.6,1347.26 2199.79,1353.43 2218.99,1359.6 2238.18,1365.76 2257.37,1371.93 2276.56,1378.08 2295.76,1384.24 
  
  "/>
<polyline clip-path="url(#clip342)" style="stroke:#e26f46; stroke-width:12; stroke-opacity:1; fill:none" points="
  395.729,738.371 414.921,729.745 434.114,721.824 453.306,714.144 472.498,706.617 491.69,699.2 510.882,691.87 530.075,684.611 549.267,677.412 568.459,670.265 
  587.651,663.164 606.843,656.105 626.035,649.082 645.228,642.093 664.42,635.134 683.612,628.205 702.804,621.302 721.996,614.424 741.189,607.568 760.381,600.735 
  779.573,593.922 798.765,587.129 817.957,580.355 837.149,573.598 856.342,566.857 875.534,560.133 894.726,553.424 913.918,546.73 933.11,540.05 952.302,533.384 
  971.495,526.73 990.687,520.09 1009.88,513.461 1029.07,506.844 1048.26,500.239 1067.46,493.645 1086.65,487.061 1105.84,480.488 1125.03,473.925 1144.22,467.372 
  1163.42,460.828 1182.61,454.294 1201.8,447.768 1220.99,441.252 1240.19,434.744 1259.38,428.244 1278.57,421.753 1297.76,415.27 1316.95,408.794 1336.15,402.326 
  1355.34,395.866 1374.53,389.413 1393.72,382.967 1412.91,376.528 1432.11,370.096 1451.3,363.67 1470.49,357.251 1489.68,350.839 1508.88,344.433 1528.07,338.034 
  1547.26,331.64 1566.45,325.253 1585.64,318.871 1604.84,312.495 1624.03,306.125 1643.22,299.761 1662.41,293.402 1681.61,287.048 1700.8,280.7 1719.99,274.357 
  1739.18,268.02 1758.37,261.687 1777.57,255.36 1796.76,249.037 1815.95,242.719 1835.14,236.406 1854.33,230.098 1873.53,223.795 1892.72,217.496 1911.91,211.201 
  1931.1,204.912 1950.3,198.626 1969.49,192.345 1988.68,186.068 2007.87,179.796 2027.06,173.528 2046.26,167.264 2065.45,161.004 2084.64,154.748 2103.83,148.496 
  2123.03,142.248 2142.22,136.003 2161.41,129.763 2180.6,123.527 2199.79,117.294 2218.99,111.065 2238.18,104.84 2257.37,98.6182 2276.56,92.4001 2295.76,86.1857 
  
  "/>
<path clip-path="url(#clip340)" d="
M1970.89 274.549 L2285.62 274.549 L2285.62 93.1086 L1970.89 93.1086  Z
  " fill="#ffffff" fill-rule="evenodd" fill-opacity="1"/>
<polyline clip-path="url(#clip340)" style="stroke:#000000; stroke-width:4; stroke-opacity:1; fill:none" points="
  1970.89,274.549 2285.62,274.549 2285.62,93.1086 1970.89,93.1086 1970.89,274.549 
  "/>
<polyline clip-path="url(#clip340)" style="stroke:#009af9; stroke-width:4; stroke-opacity:1; fill:none" points="
  1993.27,153.589 2127.54,153.589 
  "/>
<path clip-path="url(#clip340)" d="M 0 0 M2149.92 136.309 L2179.15 136.309 L2179.15 140.244 L2166.88 140.244 L2166.88 170.869 L2162.19 170.869 L2162.19 140.244 L2149.92 140.244 L2149.92 136.309 Z" fill="#000000" fill-rule="evenodd" fill-opacity="1" /><path clip-path="url(#clip340)" d="M 0 0 M2213.85 147.535 L2189.96 156.031 L2213.85 164.48 L2213.85 168.693 L2184.18 157.929 L2184.18 154.086 L2213.85 143.322 L2213.85 147.535 Z" fill="#000000" fill-rule="evenodd" fill-opacity="1" /><path clip-path="url(#clip340)" d="M 0 0 M2228.92 139.387 Q2225.31 139.387 2223.48 142.952 Q2221.68 146.494 2221.68 153.623 Q2221.68 160.73 2223.48 164.295 Q2225.31 167.836 2228.92 167.836 Q2232.56 167.836 2234.36 164.295 Q2236.19 160.73 2236.19 153.623 Q2236.19 146.494 2234.36 142.952 Q2232.56 139.387 2228.92 139.387 M2228.92 135.684 Q2234.73 135.684 2237.79 140.29 Q2240.87 144.873 2240.87 153.623 Q2240.87 162.35 2237.79 166.957 Q2234.73 171.54 2228.92 171.54 Q2223.11 171.54 2220.03 166.957 Q2216.98 162.35 2216.98 153.623 Q2216.98 144.873 2220.03 140.29 Q2223.11 135.684 2228.92 135.684 Z" fill="#000000" fill-rule="evenodd" fill-opacity="1" /><polyline clip-path="url(#clip340)" style="stroke:#e26f46; stroke-width:4; stroke-opacity:1; fill:none" points="
  1993.27,214.069 2127.54,214.069 
  "/>
<path clip-path="url(#clip340)" d="M 0 0 M2149.92 196.789 L2179.15 196.789 L2179.15 200.724 L2166.88 200.724 L2166.88 231.349 L2162.19 231.349 L2162.19 200.724 L2149.92 200.724 L2149.92 196.789 Z" fill="#000000" fill-rule="evenodd" fill-opacity="1" /><path clip-path="url(#clip340)" d="M 0 0 M2184.18 208.015 L2184.18 203.802 L2213.85 214.566 L2213.85 218.409 L2184.18 229.173 L2184.18 224.96 L2208.02 216.511 L2184.18 208.015 Z" fill="#000000" fill-rule="evenodd" fill-opacity="1" /><path clip-path="url(#clip340)" d="M 0 0 M2228.92 199.867 Q2225.31 199.867 2223.48 203.432 Q2221.68 206.974 2221.68 214.103 Q2221.68 221.21 2223.48 224.775 Q2225.31 228.316 2228.92 228.316 Q2232.56 228.316 2234.36 224.775 Q2236.19 221.21 2236.19 214.103 Q2236.19 206.974 2234.36 203.432 Q2232.56 199.867 2228.92 199.867 M2228.92 196.164 Q2234.73 196.164 2237.79 200.77 Q2240.87 205.353 2240.87 214.103 Q2240.87 222.83 2237.79 227.437 Q2234.73 232.02 2228.92 232.02 Q2223.11 232.02 2220.03 227.437 Q2216.98 222.83 2216.98 214.103 Q2216.98 205.353 2220.03 200.77 Q2223.11 196.164 2228.92 196.164 Z" fill="#000000" fill-rule="evenodd" fill-opacity="1" /></svg>
