<?xml version="1.0" encoding="utf-8"?>
<svg xmlns="http://www.w3.org/2000/svg" xmlns:xlink="http://www.w3.org/1999/xlink" width="600" height="400" viewBox="0 0 2400 1600">
<defs>
  <clipPath id="clip030">
    <rect x="0" y="0" width="2400" height="1600"/>
  </clipPath>
</defs>
<path clip-path="url(#clip030)" d="
M0 1600 L2400 1600 L2400 0 L0 0  Z
  " fill="#ffffff" fill-rule="evenodd" fill-opacity="1"/>
<defs>
  <clipPath id="clip031">
    <rect x="480" y="0" width="1681" height="1600"/>
  </clipPath>
</defs>
<path clip-path="url(#clip030)" d="
M238.13 1423.18 L2352.76 1423.18 L2352.76 47.2441 L238.13 47.2441  Z
  " fill="#ffffff" fill-rule="evenodd" fill-opacity="1"/>
<defs>
  <clipPath id="clip032">
    <rect x="238" y="47" width="2116" height="1377"/>
  </clipPath>
</defs>
<polyline clip-path="url(#clip032)" style="stroke:#000000; stroke-width:2; stroke-opacity:0.1; fill:none" points="
  297.978,1423.18 297.978,47.2441 
  "/>
<polyline clip-path="url(#clip032)" style="stroke:#000000; stroke-width:2; stroke-opacity:0.1; fill:none" points="
  867.958,1423.18 867.958,47.2441 
  "/>
<polyline clip-path="url(#clip032)" style="stroke:#000000; stroke-width:2; stroke-opacity:0.1; fill:none" points="
  1437.94,1423.18 1437.94,47.2441 
  "/>
<polyline clip-path="url(#clip032)" style="stroke:#000000; stroke-width:2; stroke-opacity:0.1; fill:none" points="
  2007.92,1423.18 2007.92,47.2441 
  "/>
<polyline clip-path="url(#clip030)" style="stroke:#000000; stroke-width:4; stroke-opacity:1; fill:none" points="
  238.13,1423.18 2352.76,1423.18 
  "/>
<polyline clip-path="url(#clip030)" style="stroke:#000000; stroke-width:4; stroke-opacity:1; fill:none" points="
  297.978,1423.18 297.978,1406.67 
  "/>
<polyline clip-path="url(#clip030)" style="stroke:#000000; stroke-width:4; stroke-opacity:1; fill:none" points="
  867.958,1423.18 867.958,1406.67 
  "/>
<polyline clip-path="url(#clip030)" style="stroke:#000000; stroke-width:4; stroke-opacity:1; fill:none" points="
  1437.94,1423.18 1437.94,1406.67 
  "/>
<polyline clip-path="url(#clip030)" style="stroke:#000000; stroke-width:4; stroke-opacity:1; fill:none" points="
  2007.92,1423.18 2007.92,1406.67 
  "/>
<path clip-path="url(#clip030)" d="M 0 0 M297.978 1452.37 Q294.367 1452.37 292.538 1455.94 Q290.733 1459.48 290.733 1466.61 Q290.733 1473.71 292.538 1477.28 Q294.367 1480.82 297.978 1480.82 Q301.612 1480.82 303.418 1477.28 Q305.246 1473.71 305.246 1466.61 Q305.246 1459.48 303.418 1455.94 Q301.612 1452.37 297.978 1452.37 M297.978 1448.67 Q303.788 1448.67 306.844 1453.27 Q309.922 1457.86 309.922 1466.61 Q309.922 1475.33 306.844 1479.94 Q303.788 1484.52 297.978 1484.52 Q292.168 1484.52 289.089 1479.94 Q286.034 1475.33 286.034 1466.61 Q286.034 1457.86 289.089 1453.27 Q292.168 1448.67 297.978 1448.67 Z" fill="#000000" fill-rule="evenodd" fill-opacity="1" /><path clip-path="url(#clip030)" d="M 0 0 M831.326 1479.92 L838.965 1479.92 L838.965 1453.55 L830.655 1455.22 L830.655 1450.96 L838.919 1449.29 L843.595 1449.29 L843.595 1479.92 L851.234 1479.92 L851.234 1483.85 L831.326 1483.85 L831.326 1479.92 Z" fill="#000000" fill-rule="evenodd" fill-opacity="1" /><path clip-path="url(#clip030)" d="M 0 0 M866.303 1452.37 Q862.692 1452.37 860.863 1455.94 Q859.058 1459.48 859.058 1466.61 Q859.058 1473.71 860.863 1477.28 Q862.692 1480.82 866.303 1480.82 Q869.937 1480.82 871.743 1477.28 Q873.571 1473.71 873.571 1466.61 Q873.571 1459.48 871.743 1455.94 Q869.937 1452.37 866.303 1452.37 M866.303 1448.67 Q872.113 1448.67 875.169 1453.27 Q878.247 1457.86 878.247 1466.61 Q878.247 1475.33 875.169 1479.94 Q872.113 1484.52 866.303 1484.52 Q860.493 1484.52 857.414 1479.94 Q854.359 1475.33 854.359 1466.61 Q854.359 1457.86 857.414 1453.27 Q860.493 1448.67 866.303 1448.67 Z" fill="#000000" fill-rule="evenodd" fill-opacity="1" /><path clip-path="url(#clip030)" d="M 0 0 M893.317 1452.37 Q889.706 1452.37 887.877 1455.94 Q886.071 1459.48 886.071 1466.61 Q886.071 1473.71 887.877 1477.28 Q889.706 1480.82 893.317 1480.82 Q896.951 1480.82 898.756 1477.28 Q900.585 1473.71 900.585 1466.61 Q900.585 1459.48 898.756 1455.94 Q896.951 1452.37 893.317 1452.37 M893.317 1448.67 Q899.127 1448.67 902.182 1453.27 Q905.261 1457.86 905.261 1466.61 Q905.261 1475.33 902.182 1479.94 Q899.127 1484.52 893.317 1484.52 Q887.506 1484.52 884.428 1479.94 Q881.372 1475.33 881.372 1466.61 Q881.372 1457.86 884.428 1453.27 Q887.506 1448.67 893.317 1448.67 Z" fill="#000000" fill-rule="evenodd" fill-opacity="1" /><path clip-path="url(#clip030)" d="M 0 0 M1405.58 1479.92 L1421.9 1479.92 L1421.9 1483.85 L1399.95 1483.85 L1399.95 1479.92 Q1402.61 1477.16 1407.2 1472.53 Q1411.8 1467.88 1412.98 1466.54 Q1415.23 1464.01 1416.11 1462.28 Q1417.01 1460.52 1417.01 1458.83 Q1417.01 1456.07 1415.07 1454.34 Q1413.15 1452.6 1410.04 1452.6 Q1407.85 1452.6 1405.39 1453.37 Q1402.96 1454.13 1400.18 1455.68 L1400.18 1450.96 Q1403.01 1449.82 1405.46 1449.25 Q1407.91 1448.67 1409.95 1448.67 Q1415.32 1448.67 1418.52 1451.35 Q1421.71 1454.04 1421.71 1458.53 Q1421.71 1460.66 1420.9 1462.58 Q1420.11 1464.48 1418.01 1467.07 Q1417.43 1467.74 1414.33 1470.96 Q1411.23 1474.15 1405.58 1479.92 Z" fill="#000000" fill-rule="evenodd" fill-opacity="1" /><path clip-path="url(#clip030)" d="M 0 0 M1436.97 1452.37 Q1433.35 1452.37 1431.53 1455.94 Q1429.72 1459.48 1429.72 1466.61 Q1429.72 1473.71 1431.53 1477.28 Q1433.35 1480.82 1436.97 1480.82 Q1440.6 1480.82 1442.41 1477.28 Q1444.23 1473.71 1444.23 1466.61 Q1444.23 1459.48 1442.41 1455.94 Q1440.6 1452.37 1436.97 1452.37 M1436.97 1448.67 Q1442.78 1448.67 1445.83 1453.27 Q1448.91 1457.86 1448.91 1466.61 Q1448.91 1475.33 1445.83 1479.94 Q1442.78 1484.52 1436.97 1484.52 Q1431.16 1484.52 1428.08 1479.94 Q1425.02 1475.33 1425.02 1466.61 Q1425.02 1457.86 1428.08 1453.27 Q1431.16 1448.67 1436.97 1448.67 Z" fill="#000000" fill-rule="evenodd" fill-opacity="1" /><path clip-path="url(#clip030)" d="M 0 0 M1463.98 1452.37 Q1460.37 1452.37 1458.54 1455.94 Q1456.73 1459.48 1456.73 1466.61 Q1456.73 1473.71 1458.54 1477.28 Q1460.37 1480.82 1463.98 1480.82 Q1467.61 1480.82 1469.42 1477.28 Q1471.25 1473.71 1471.25 1466.61 Q1471.25 1459.48 1469.42 1455.94 Q1467.61 1452.37 1463.98 1452.37 M1463.98 1448.67 Q1469.79 1448.67 1472.85 1453.27 Q1475.92 1457.86 1475.92 1466.61 Q1475.92 1475.33 1472.85 1479.94 Q1469.79 1484.52 1463.98 1484.52 Q1458.17 1484.52 1455.09 1479.94 Q1452.04 1475.33 1452.04 1466.61 Q1452.04 1457.86 1455.09 1453.27 Q1458.17 1448.67 1463.98 1448.67 Z" fill="#000000" fill-rule="evenodd" fill-opacity="1" /><path clip-path="url(#clip030)" d="M 0 0 M1985.15 1465.22 Q1988.51 1465.94 1990.38 1468.2 Q1992.28 1470.47 1992.28 1473.81 Q1992.28 1478.92 1988.76 1481.72 Q1985.24 1484.52 1978.76 1484.52 Q1976.59 1484.52 1974.27 1484.08 Q1971.98 1483.67 1969.53 1482.81 L1969.53 1478.3 Q1971.47 1479.43 1973.79 1480.01 Q1976.1 1480.59 1978.62 1480.59 Q1983.02 1480.59 1985.31 1478.85 Q1987.63 1477.12 1987.63 1473.81 Q1987.63 1470.75 1985.48 1469.04 Q1983.35 1467.3 1979.53 1467.3 L1975.5 1467.3 L1975.5 1463.46 L1979.71 1463.46 Q1983.16 1463.46 1984.99 1462.09 Q1986.82 1460.7 1986.82 1458.11 Q1986.82 1455.45 1984.92 1454.04 Q1983.05 1452.6 1979.53 1452.6 Q1977.61 1452.6 1975.41 1453.02 Q1973.21 1453.44 1970.57 1454.31 L1970.57 1450.15 Q1973.23 1449.41 1975.55 1449.04 Q1977.88 1448.67 1979.94 1448.67 Q1985.27 1448.67 1988.37 1451.1 Q1991.47 1453.5 1991.47 1457.63 Q1991.47 1460.5 1989.83 1462.49 Q1988.18 1464.45 1985.15 1465.22 Z" fill="#000000" fill-rule="evenodd" fill-opacity="1" /><path clip-path="url(#clip030)" d="M 0 0 M2007.35 1452.37 Q2003.74 1452.37 2001.91 1455.94 Q2000.11 1459.48 2000.11 1466.61 Q2000.11 1473.71 2001.91 1477.28 Q2003.74 1480.82 2007.35 1480.82 Q2010.99 1480.82 2012.79 1477.28 Q2014.62 1473.71 2014.62 1466.61 Q2014.62 1459.48 2012.79 1455.94 Q2010.99 1452.37 2007.35 1452.37 M2007.35 1448.67 Q2013.16 1448.67 2016.22 1453.27 Q2019.3 1457.86 2019.3 1466.61 Q2019.3 1475.33 2016.22 1479.94 Q2013.16 1484.52 2007.35 1484.52 Q2001.54 1484.52 1998.46 1479.94 Q1995.41 1475.33 1995.41 1466.61 Q1995.41 1457.86 1998.46 1453.27 Q2001.54 1448.67 2007.35 1448.67 Z" fill="#000000" fill-rule="evenodd" fill-opacity="1" /><path clip-path="url(#clip030)" d="M 0 0 M2034.36 1452.37 Q2030.75 1452.37 2028.92 1455.94 Q2027.12 1459.48 2027.12 1466.61 Q2027.12 1473.71 2028.92 1477.28 Q2030.75 1480.82 2034.36 1480.82 Q2038 1480.82 2039.8 1477.28 Q2041.63 1473.71 2041.63 1466.61 Q2041.63 1459.48 2039.8 1455.94 Q2038 1452.37 2034.36 1452.37 M2034.36 1448.67 Q2040.17 1448.67 2043.23 1453.27 Q2046.31 1457.86 2046.31 1466.61 Q2046.31 1475.33 2043.23 1479.94 Q2040.17 1484.52 2034.36 1484.52 Q2028.55 1484.52 2025.48 1479.94 Q2022.42 1475.33 2022.42 1466.61 Q2022.42 1457.86 2025.48 1453.27 Q2028.55 1448.67 2034.36 1448.67 Z" fill="#000000" fill-rule="evenodd" fill-opacity="1" /><path clip-path="url(#clip030)" d="M 0 0 M1312.06 1520.4 L1299.17 1537.74 L1312.73 1556.04 L1305.82 1556.04 L1295.44 1542.04 L1285.07 1556.04 L1278.16 1556.04 L1292.01 1537.39 L1279.34 1520.4 L1286.24 1520.4 L1295.7 1533.1 L1305.15 1520.4 L1312.06 1520.4 Z" fill="#000000" fill-rule="evenodd" fill-opacity="1" /><polyline clip-path="url(#clip032)" style="stroke:#000000; stroke-width:2; stroke-opacity:0.1; fill:none" points="
  238.13,1297.88 2352.76,1297.88 
  "/>
<polyline clip-path="url(#clip032)" style="stroke:#000000; stroke-width:2; stroke-opacity:0.1; fill:none" points="
  238.13,1015.57 2352.76,1015.57 
  "/>
<polyline clip-path="url(#clip032)" style="stroke:#000000; stroke-width:2; stroke-opacity:0.1; fill:none" points="
  238.13,733.266 2352.76,733.266 
  "/>
<polyline clip-path="url(#clip032)" style="stroke:#000000; stroke-width:2; stroke-opacity:0.1; fill:none" points="
  238.13,450.958 2352.76,450.958 
  "/>
<polyline clip-path="url(#clip032)" style="stroke:#000000; stroke-width:2; stroke-opacity:0.1; fill:none" points="
  238.13,168.65 2352.76,168.65 
  "/>
<polyline clip-path="url(#clip030)" style="stroke:#000000; stroke-width:4; stroke-opacity:1; fill:none" points="
  238.13,1423.18 238.13,47.2441 
  "/>
<polyline clip-path="url(#clip030)" style="stroke:#000000; stroke-width:4; stroke-opacity:1; fill:none" points="
  238.13,1297.88 263.506,1297.88 
  "/>
<polyline clip-path="url(#clip030)" style="stroke:#000000; stroke-width:4; stroke-opacity:1; fill:none" points="
  238.13,1015.57 263.506,1015.57 
  "/>
<polyline clip-path="url(#clip030)" style="stroke:#000000; stroke-width:4; stroke-opacity:1; fill:none" points="
  238.13,733.266 263.506,733.266 
  "/>
<polyline clip-path="url(#clip030)" style="stroke:#000000; stroke-width:4; stroke-opacity:1; fill:none" points="
  238.13,450.958 263.506,450.958 
  "/>
<polyline clip-path="url(#clip030)" style="stroke:#000000; stroke-width:4; stroke-opacity:1; fill:none" points="
  238.13,168.65 263.506,168.65 
  "/>
<path clip-path="url(#clip030)" d="M 0 0 M126.205 1283.68 Q122.593 1283.68 120.765 1287.25 Q118.959 1290.79 118.959 1297.92 Q118.959 1305.02 120.765 1308.59 Q122.593 1312.13 126.205 1312.13 Q129.839 1312.13 131.644 1308.59 Q133.473 1305.02 133.473 1297.92 Q133.473 1290.79 131.644 1287.25 Q129.839 1283.68 126.205 1283.68 M126.205 1279.98 Q132.015 1279.98 135.07 1284.58 Q138.149 1289.17 138.149 1297.92 Q138.149 1306.64 135.07 1311.25 Q132.015 1315.83 126.205 1315.83 Q120.394 1315.83 117.316 1311.25 Q114.26 1306.64 114.26 1297.92 Q114.26 1289.17 117.316 1284.58 Q120.394 1279.98 126.205 1279.98 Z" fill="#000000" fill-rule="evenodd" fill-opacity="1" /><path clip-path="url(#clip030)" d="M 0 0 M143.218 1309.28 L148.103 1309.28 L148.103 1315.16 L143.218 1315.16 L143.218 1309.28 Z" fill="#000000" fill-rule="evenodd" fill-opacity="1" /><path clip-path="url(#clip030)" d="M 0 0 M163.172 1283.68 Q159.561 1283.68 157.732 1287.25 Q155.927 1290.79 155.927 1297.92 Q155.927 1305.02 157.732 1308.59 Q159.561 1312.13 163.172 1312.13 Q166.806 1312.13 168.612 1308.59 Q170.44 1305.02 170.44 1297.92 Q170.44 1290.79 168.612 1287.25 Q166.806 1283.68 163.172 1283.68 M163.172 1279.98 Q168.982 1279.98 172.038 1284.58 Q175.116 1289.17 175.116 1297.92 Q175.116 1306.64 172.038 1311.25 Q168.982 1315.83 163.172 1315.83 Q157.362 1315.83 154.283 1311.25 Q151.228 1306.64 151.228 1297.92 Q151.228 1289.17 154.283 1284.58 Q157.362 1279.98 163.172 1279.98 Z" fill="#000000" fill-rule="evenodd" fill-opacity="1" /><path clip-path="url(#clip030)" d="M 0 0 M190.186 1283.68 Q186.575 1283.68 184.746 1287.25 Q182.94 1290.79 182.94 1297.92 Q182.94 1305.02 184.746 1308.59 Q186.575 1312.13 190.186 1312.13 Q193.82 1312.13 195.625 1308.59 Q197.454 1305.02 197.454 1297.92 Q197.454 1290.79 195.625 1287.25 Q193.82 1283.68 190.186 1283.68 M190.186 1279.98 Q195.996 1279.98 199.051 1284.58 Q202.13 1289.17 202.13 1297.92 Q202.13 1306.64 199.051 1311.25 Q195.996 1315.83 190.186 1315.83 Q184.376 1315.83 181.297 1311.25 Q178.241 1306.64 178.241 1297.92 Q178.241 1289.17 181.297 1284.58 Q184.376 1279.98 190.186 1279.98 Z" fill="#000000" fill-rule="evenodd" fill-opacity="1" /><path clip-path="url(#clip030)" d="M 0 0 M128.797 1001.37 Q125.186 1001.37 123.357 1004.94 Q121.552 1008.48 121.552 1015.61 Q121.552 1022.72 123.357 1026.28 Q125.186 1029.82 128.797 1029.82 Q132.431 1029.82 134.237 1026.28 Q136.066 1022.72 136.066 1015.61 Q136.066 1008.48 134.237 1004.94 Q132.431 1001.37 128.797 1001.37 M128.797 997.669 Q134.607 997.669 137.663 1002.28 Q140.741 1006.86 140.741 1015.61 Q140.741 1024.34 137.663 1028.94 Q134.607 1033.53 128.797 1033.53 Q122.987 1033.53 119.908 1028.94 Q116.853 1024.34 116.853 1015.61 Q116.853 1006.86 119.908 1002.28 Q122.987 997.669 128.797 997.669 Z" fill="#000000" fill-rule="evenodd" fill-opacity="1" /><path clip-path="url(#clip030)" d="M 0 0 M145.811 1026.97 L150.695 1026.97 L150.695 1032.85 L145.811 1032.85 L145.811 1026.97 Z" fill="#000000" fill-rule="evenodd" fill-opacity="1" /><path clip-path="url(#clip030)" d="M 0 0 M159.792 1028.92 L176.112 1028.92 L176.112 1032.85 L154.167 1032.85 L154.167 1028.92 Q156.829 1026.16 161.413 1021.53 Q166.019 1016.88 167.2 1015.54 Q169.445 1013.02 170.325 1011.28 Q171.227 1009.52 171.227 1007.83 Q171.227 1005.08 169.283 1003.34 Q167.362 1001.6 164.26 1001.6 Q162.061 1001.6 159.607 1002.37 Q157.177 1003.13 154.399 1004.68 L154.399 999.961 Q157.223 998.826 159.677 998.248 Q162.13 997.669 164.167 997.669 Q169.538 997.669 172.732 1000.35 Q175.926 1003.04 175.926 1007.53 Q175.926 1009.66 175.116 1011.58 Q174.329 1013.48 172.223 1016.07 Q171.644 1016.74 168.542 1019.96 Q165.44 1023.15 159.792 1028.92 Z" fill="#000000" fill-rule="evenodd" fill-opacity="1" /><path clip-path="url(#clip030)" d="M 0 0 M181.227 998.294 L199.584 998.294 L199.584 1002.23 L185.51 1002.23 L185.51 1010.7 Q186.528 1010.35 187.547 1010.19 Q188.565 1010.01 189.584 1010.01 Q195.371 1010.01 198.75 1013.18 Q202.13 1016.35 202.13 1021.77 Q202.13 1027.34 198.658 1030.45 Q195.186 1033.53 188.866 1033.53 Q186.69 1033.53 184.422 1033.15 Q182.176 1032.78 179.769 1032.04 L179.769 1027.34 Q181.852 1028.48 184.075 1029.03 Q186.297 1029.59 188.774 1029.59 Q192.778 1029.59 195.116 1027.48 Q197.454 1025.38 197.454 1021.77 Q197.454 1018.15 195.116 1016.05 Q192.778 1013.94 188.774 1013.94 Q186.899 1013.94 185.024 1014.36 Q183.172 1014.78 181.227 1015.65 L181.227 998.294 Z" fill="#000000" fill-rule="evenodd" fill-opacity="1" /><path clip-path="url(#clip030)" d="M 0 0 M127.2 719.065 Q123.589 719.065 121.76 722.629 Q119.955 726.171 119.955 733.301 Q119.955 740.407 121.76 743.972 Q123.589 747.513 127.2 747.513 Q130.834 747.513 132.64 743.972 Q134.468 740.407 134.468 733.301 Q134.468 726.171 132.64 722.629 Q130.834 719.065 127.2 719.065 M127.2 715.361 Q133.01 715.361 136.066 719.967 Q139.144 724.551 139.144 733.301 Q139.144 742.027 136.066 746.634 Q133.01 751.217 127.2 751.217 Q121.39 751.217 118.311 746.634 Q115.256 742.027 115.256 733.301 Q115.256 724.551 118.311 719.967 Q121.39 715.361 127.2 715.361 Z" fill="#000000" fill-rule="evenodd" fill-opacity="1" /><path clip-path="url(#clip030)" d="M 0 0 M144.214 744.666 L149.098 744.666 L149.098 750.546 L144.214 750.546 L144.214 744.666 Z" fill="#000000" fill-rule="evenodd" fill-opacity="1" /><path clip-path="url(#clip030)" d="M 0 0 M154.214 715.986 L172.57 715.986 L172.57 719.921 L158.496 719.921 L158.496 728.393 Q159.515 728.046 160.533 727.884 Q161.552 727.699 162.57 727.699 Q168.357 727.699 171.737 730.87 Q175.116 734.041 175.116 739.458 Q175.116 745.037 171.644 748.138 Q168.172 751.217 161.852 751.217 Q159.677 751.217 157.408 750.847 Q155.163 750.476 152.755 749.736 L152.755 745.037 Q154.839 746.171 157.061 746.726 Q159.283 747.282 161.76 747.282 Q165.765 747.282 168.102 745.176 Q170.44 743.069 170.44 739.458 Q170.44 735.847 168.102 733.74 Q165.765 731.634 161.76 731.634 Q159.885 731.634 158.01 732.051 Q156.158 732.467 154.214 733.347 L154.214 715.986 Z" fill="#000000" fill-rule="evenodd" fill-opacity="1" /><path clip-path="url(#clip030)" d="M 0 0 M190.186 719.065 Q186.575 719.065 184.746 722.629 Q182.94 726.171 182.94 733.301 Q182.94 740.407 184.746 743.972 Q186.575 747.513 190.186 747.513 Q193.82 747.513 195.625 743.972 Q197.454 740.407 197.454 733.301 Q197.454 726.171 195.625 722.629 Q193.82 719.065 190.186 719.065 M190.186 715.361 Q195.996 715.361 199.051 719.967 Q202.13 724.551 202.13 733.301 Q202.13 742.027 199.051 746.634 Q195.996 751.217 190.186 751.217 Q184.376 751.217 181.297 746.634 Q178.241 742.027 178.241 733.301 Q178.241 724.551 181.297 719.967 Q184.376 715.361 190.186 715.361 Z" fill="#000000" fill-rule="evenodd" fill-opacity="1" /><path clip-path="url(#clip030)" d="M 0 0 M128.103 436.756 Q124.492 436.756 122.663 440.321 Q120.857 443.863 120.857 450.992 Q120.857 458.099 122.663 461.664 Q124.492 465.205 128.103 465.205 Q131.737 465.205 133.542 461.664 Q135.371 458.099 135.371 450.992 Q135.371 443.863 133.542 440.321 Q131.737 436.756 128.103 436.756 M128.103 433.053 Q133.913 433.053 136.968 437.659 Q140.047 442.243 140.047 450.992 Q140.047 459.719 136.968 464.326 Q133.913 468.909 128.103 468.909 Q122.293 468.909 119.214 464.326 Q116.158 459.719 116.158 450.992 Q116.158 442.243 119.214 437.659 Q122.293 433.053 128.103 433.053 Z" fill="#000000" fill-rule="evenodd" fill-opacity="1" /><path clip-path="url(#clip030)" d="M 0 0 M145.116 462.358 L150.001 462.358 L150.001 468.238 L145.116 468.238 L145.116 462.358 Z" fill="#000000" fill-rule="evenodd" fill-opacity="1" /><path clip-path="url(#clip030)" d="M 0 0 M153.89 433.678 L176.112 433.678 L176.112 435.668 L163.565 468.238 L158.681 468.238 L170.487 437.613 L153.89 437.613 L153.89 433.678 Z" fill="#000000" fill-rule="evenodd" fill-opacity="1" /><path clip-path="url(#clip030)" d="M 0 0 M181.227 433.678 L199.584 433.678 L199.584 437.613 L185.51 437.613 L185.51 446.085 Q186.528 445.738 187.547 445.576 Q188.565 445.391 189.584 445.391 Q195.371 445.391 198.75 448.562 Q202.13 451.733 202.13 457.15 Q202.13 462.729 198.658 465.83 Q195.186 468.909 188.866 468.909 Q186.69 468.909 184.422 468.539 Q182.176 468.168 179.769 467.428 L179.769 462.729 Q181.852 463.863 184.075 464.418 Q186.297 464.974 188.774 464.974 Q192.778 464.974 195.116 462.867 Q197.454 460.761 197.454 457.15 Q197.454 453.539 195.116 451.432 Q192.778 449.326 188.774 449.326 Q186.899 449.326 185.024 449.742 Q183.172 450.159 181.227 451.039 L181.227 433.678 Z" fill="#000000" fill-rule="evenodd" fill-opacity="1" /><path clip-path="url(#clip030)" d="M 0 0 M118.242 181.994 L125.88 181.994 L125.88 155.629 L117.57 157.296 L117.57 153.036 L125.834 151.37 L130.51 151.37 L130.51 181.994 L138.149 181.994 L138.149 185.93 L118.242 185.93 L118.242 181.994 Z" fill="#000000" fill-rule="evenodd" fill-opacity="1" /><path clip-path="url(#clip030)" d="M 0 0 M143.218 180.05 L148.103 180.05 L148.103 185.93 L143.218 185.93 L143.218 180.05 Z" fill="#000000" fill-rule="evenodd" fill-opacity="1" /><path clip-path="url(#clip030)" d="M 0 0 M163.172 154.448 Q159.561 154.448 157.732 158.013 Q155.927 161.555 155.927 168.684 Q155.927 175.791 157.732 179.356 Q159.561 182.897 163.172 182.897 Q166.806 182.897 168.612 179.356 Q170.44 175.791 170.44 168.684 Q170.44 161.555 168.612 158.013 Q166.806 154.448 163.172 154.448 M163.172 150.745 Q168.982 150.745 172.038 155.351 Q175.116 159.934 175.116 168.684 Q175.116 177.411 172.038 182.018 Q168.982 186.601 163.172 186.601 Q157.362 186.601 154.283 182.018 Q151.228 177.411 151.228 168.684 Q151.228 159.934 154.283 155.351 Q157.362 150.745 163.172 150.745 Z" fill="#000000" fill-rule="evenodd" fill-opacity="1" /><path clip-path="url(#clip030)" d="M 0 0 M190.186 154.448 Q186.575 154.448 184.746 158.013 Q182.94 161.555 182.94 168.684 Q182.94 175.791 184.746 179.356 Q186.575 182.897 190.186 182.897 Q193.82 182.897 195.625 179.356 Q197.454 175.791 197.454 168.684 Q197.454 161.555 195.625 158.013 Q193.82 154.448 190.186 154.448 M190.186 150.745 Q195.996 150.745 199.051 155.351 Q202.13 159.934 202.13 168.684 Q202.13 177.411 199.051 182.018 Q195.996 186.601 190.186 186.601 Q184.376 186.601 181.297 182.018 Q178.241 177.411 178.241 168.684 Q178.241 159.934 181.297 155.351 Q184.376 150.745 190.186 150.745 Z" fill="#000000" fill-rule="evenodd" fill-opacity="1" /><path clip-path="url(#clip030)" d="M 0 0 M70.212 745.095 Q76.6732 745.095 80.3653 742.453 Q84.0256 739.779 84.0256 735.132 Q84.0256 730.485 80.3653 727.812 Q76.6732 725.138 70.212 725.138 Q63.7508 725.138 60.0905 727.812 Q56.3984 730.485 56.3984 735.132 Q56.3984 739.779 60.0905 742.453 Q63.7508 745.095 70.212 745.095 M82.657 725.138 Q85.8398 726.984 87.3994 729.817 Q88.9272 732.618 88.9272 736.565 Q88.9272 743.026 83.771 747.1 Q78.6147 751.142 70.212 751.142 Q61.8093 751.142 56.6531 747.1 Q51.4968 743.026 51.4968 736.565 Q51.4968 732.618 53.0564 729.817 Q54.5842 726.984 57.7671 725.138 L52.3562 725.138 L52.3562 719.282 L101.563 719.282 L101.563 725.138 L82.657 725.138 Z" fill="#000000" fill-rule="evenodd" fill-opacity="1" /><polyline clip-path="url(#clip032)" style="stroke:#009af9; stroke-width:4; stroke-opacity:1; fill:none" points="
  297.978,1297.88 300.669,1297.88 305.771,1297.88 310.872,1297.88 313.563,1297.88 316.255,1297.88 321.356,1297.88 326.458,1297.88 329.149,1297.88 331.84,1297.88 
  336.941,1297.88 342.043,1297.88 344.734,1297.88 347.425,1297.88 352.527,1297.88 357.628,1297.88 360.32,1297.88 363.011,1297.88 368.112,1297.88 373.214,1297.88 
  375.905,1297.88 378.596,1297.88 383.698,1297.88 388.799,1297.88 391.49,1297.88 394.181,1297.88 399.283,1297.88 404.385,1297.88 407.076,1297.88 409.767,1297.88 
  414.868,1297.88 419.97,1297.88 422.661,1297.88 425.352,1297.88 430.454,1297.88 435.555,1297.88 438.246,1297.88 440.938,1297.88 446.039,1297.88 451.141,1297.88 
  453.832,1297.88 456.523,1297.88 461.625,1297.88 466.726,1297.88 469.417,1297.88 472.108,1297.88 477.21,1297.88 482.311,1297.88 485.003,1297.88 487.694,1297.88 
  492.795,1297.88 497.897,1297.88 500.588,1297.88 503.279,1297.88 508.381,1297.88 513.482,1297.88 516.173,1297.88 518.865,1297.88 523.966,1297.88 529.068,1297.88 
  531.759,1297.88 534.45,1297.88 539.552,1297.88 544.653,1297.88 547.344,1297.88 550.035,1297.88 555.137,1297.88 560.238,1297.88 562.93,1297.88 565.621,1297.88 
  570.722,1297.88 575.824,1297.88 578.515,1297.88 581.206,1297.88 586.308,1297.88 591.409,1297.88 594.1,1297.88 596.792,1297.88 601.893,1297.88 606.995,1297.88 
  609.686,1297.88 612.377,1297.88 617.478,1297.88 622.58,1297.88 625.271,1297.88 627.962,1297.88 633.064,1297.88 638.165,1297.88 640.857,1297.88 643.548,1297.88 
  648.649,1297.88 653.751,1297.88 656.442,1297.88 659.133,1297.88 664.235,1297.88 669.336,1297.88 672.027,1297.88 674.719,1297.88 679.82,1297.88 684.922,1297.88 
  687.613,1297.88 690.304,1297.88 695.405,1297.88 700.507,1297.88 703.198,1297.88 705.889,1297.88 710.991,1297.88 716.092,1297.88 718.784,1297.88 721.475,1297.88 
  726.576,168.65 731.678,168.65 734.369,168.65 737.06,168.65 742.162,168.65 747.263,168.65 749.954,168.65 752.645,168.65 757.747,168.65 762.849,168.65 
  765.54,168.65 768.231,168.65 773.332,168.65 778.434,168.65 781.125,168.65 783.816,168.65 788.918,168.65 794.019,168.65 796.71,168.65 799.402,168.65 
  804.503,168.65 809.605,168.65 812.296,168.65 814.987,168.65 820.089,168.65 825.19,168.65 827.881,168.65 830.572,168.65 835.674,168.65 840.775,168.65 
  843.467,168.65 846.158,168.65 851.259,168.65 856.361,168.65 859.052,168.65 861.743,168.65 866.845,168.65 871.946,168.65 874.637,168.65 877.329,168.65 
  882.43,168.65 887.532,168.65 890.223,168.65 892.914,168.65 898.016,168.65 903.117,168.65 905.808,168.65 908.499,168.65 913.601,168.65 918.702,168.65 
  921.394,168.65 924.085,168.65 929.186,168.65 934.288,168.65 936.979,168.65 939.67,168.65 944.772,168.65 949.873,168.65 952.564,168.65 955.256,168.65 
  960.357,168.65 965.459,168.65 968.15,168.65 970.841,168.65 975.942,168.65 981.044,168.65 983.735,168.65 986.426,168.65 991.528,168.65 996.629,168.65 
  999.321,168.65 1002.01,168.65 1007.11,168.65 1012.21,1297.88 1014.91,1297.88 1017.6,1297.88 1022.7,1297.88 1027.8,1297.88 1030.49,1297.88 1033.18,1297.88 
  1038.28,1297.88 1043.39,1297.88 1046.08,1297.88 1048.77,1297.88 1053.87,1297.88 1058.97,1297.88 1061.66,1297.88 1064.35,1297.88 1069.45,1297.88 1074.56,1297.88 
  1077.25,1297.88 1079.94,1297.88 1085.04,1297.88 1090.14,1297.88 1092.83,1297.88 1095.52,1297.88 1100.63,1297.88 1105.73,1297.88 1108.42,1297.88 1111.11,1297.88 
  1116.21,1297.88 1121.31,1297.88 1124,1297.88 1126.69,1297.88 1131.8,1297.88 1136.9,1297.88 1139.59,1297.88 1142.28,1297.88 1147.38,1297.88 1152.48,1297.88 
  1155.17,1297.88 1157.87,1297.88 1162.97,1297.88 1168.07,1297.88 1170.76,1297.88 1173.45,1297.88 1178.55,1297.88 1183.65,1297.88 1186.35,1297.88 1189.04,1297.88 
  1194.14,1297.88 1199.24,1297.88 1201.93,1297.88 1204.62,1297.88 1209.72,1297.88 1214.82,1297.88 1217.52,1297.88 1220.21,1297.88 1225.31,1297.88 1230.41,1297.88 
  1233.1,1297.88 1235.79,1297.88 1240.89,1297.88 1246,1297.88 1248.69,1297.88 1251.38,1297.88 1256.48,1297.88 1261.58,1297.88 1264.27,1297.88 1266.96,1297.88 
  1272.06,1297.88 1277.17,1297.88 1279.86,1297.88 1282.55,1297.88 1287.65,1297.88 1292.75,1297.88 1295.44,1297.88 1298.13,1297.88 1303.24,1297.88 1308.34,1297.88 
  1311.03,1297.88 1313.72,1297.88 1318.82,1297.88 1323.92,1297.88 1326.61,1297.88 1329.3,1297.88 1334.41,1297.88 1339.51,1297.88 1342.2,1297.88 1344.89,1297.88 
  1349.99,1297.88 1355.09,1297.88 1357.78,1297.88 1360.48,1297.88 1365.58,1297.88 1370.68,1297.88 1373.37,1297.88 1376.06,1297.88 1381.16,1297.88 1386.26,1297.88 
  1388.96,1297.88 1391.65,1297.88 1396.75,1297.88 1401.85,1297.88 1404.54,1297.88 1407.23,1297.88 1412.33,1297.88 1417.43,1297.88 1420.13,1297.88 1422.82,1297.88 
  1427.92,1297.88 1433.02,1297.88 1435.71,1297.88 1438.4,1297.88 1443.5,1297.88 1448.61,1297.88 1451.3,1297.88 1453.99,1297.88 1459.09,1297.88 1464.19,1297.88 
  1466.88,1297.88 1469.57,1297.88 1474.67,1297.88 1479.78,1297.88 1482.47,1297.88 1485.16,1297.88 1490.26,1297.88 1495.36,1297.88 1498.05,1297.88 1500.74,1297.88 
  1505.85,1297.88 1510.95,1297.88 1513.64,1297.88 1516.33,1297.88 1521.43,1297.88 1526.53,1297.88 1529.22,1297.88 1531.92,1297.88 1537.02,1297.88 1542.12,1297.88 
  1544.81,1297.88 1547.5,1297.88 1552.6,1297.88 1557.7,1297.88 1560.39,1297.88 1563.09,1297.88 1568.19,1297.88 1573.29,1297.88 1575.98,1297.88 1578.67,1297.88 
  1583.77,1297.88 1588.87,1297.88 1591.57,1297.88 1594.26,1297.88 1599.36,1297.88 1604.46,1297.88 1607.15,1297.88 1609.84,1297.88 1614.94,1297.88 1620.05,1297.88 
  1622.74,1297.88 1625.43,1297.88 1630.53,1297.88 1635.63,1297.88 1638.32,1297.88 1641.01,1297.88 1646.11,1297.88 1651.22,1297.88 1653.91,1297.88 1656.6,1297.88 
  1661.7,1297.88 1666.8,1297.88 1669.49,1297.88 1672.18,1297.88 1677.29,1297.88 1682.39,1297.88 1685.08,1297.88 1687.77,1297.88 1692.87,1297.88 1697.97,1297.88 
  1700.66,1297.88 1703.35,1297.88 1708.46,1297.88 1713.56,1297.88 1716.25,1297.88 1718.94,1297.88 1724.04,1297.88 1729.14,1297.88 1731.83,1297.88 1734.53,1297.88 
  1739.63,1297.88 1744.73,1297.88 1747.42,1297.88 1750.11,1297.88 1755.21,1297.88 1760.31,1297.88 1763,1297.88 1765.7,1297.88 1770.8,1297.88 1775.9,1297.88 
  1778.59,1297.88 1781.28,1297.88 1786.38,1297.88 1791.48,1297.88 1794.18,1297.88 1796.87,1297.88 1801.97,1297.88 1807.07,1297.88 1809.76,1297.88 1812.45,1297.88 
  1817.55,1297.88 1822.66,1297.88 1825.35,1297.88 1828.04,1297.88 1833.14,1297.88 1838.24,1297.88 1840.93,1297.88 1843.62,1297.88 1848.72,1297.88 1853.83,1297.88 
  1856.52,1297.88 1859.21,1297.88 1864.31,1297.88 1869.41,1297.88 1872.1,1297.88 1874.79,1297.88 1879.9,1297.88 1885,1297.88 1887.69,1297.88 1890.38,1297.88 
  1895.48,1297.88 1900.58,1297.88 1903.27,1297.88 1905.96,1297.88 1911.07,1297.88 1916.17,1297.88 1918.86,1297.88 1921.55,1297.88 1926.65,1297.88 1931.75,1297.88 
  1934.44,1297.88 1937.14,1297.88 1942.24,1297.88 1947.34,1297.88 1950.03,1297.88 1952.72,1297.88 1957.82,1297.88 1962.92,1297.88 1965.61,1297.88 1968.31,1297.88 
  1973.41,1297.88 1978.51,1297.88 1981.2,1297.88 1983.89,1297.88 1988.99,1297.88 1994.09,1297.88 1996.79,1297.88 1999.48,1297.88 2004.58,1297.88 2009.68,1297.88 
  2012.37,1297.88 2015.06,1297.88 2020.16,1297.88 2025.27,1297.88 2027.96,1297.88 2030.65,1297.88 2035.75,1297.88 2040.85,1297.88 2043.54,1297.88 2046.23,1297.88 
  2051.33,1297.88 2056.44,1297.88 2059.13,1297.88 2061.82,1297.88 2066.92,1297.88 2072.02,1297.88 2074.71,1297.88 2077.4,1297.88 2082.51,1297.88 2087.61,1297.88 
  2090.3,1297.88 2092.99,1297.88 2098.09,1297.88 2103.19,1297.88 2105.88,1297.88 2108.57,1297.88 2113.68,1297.88 2118.78,1297.88 2121.47,1297.88 2124.16,1297.88 
  2129.26,1297.88 2134.36,1297.88 2137.05,1297.88 2139.75,1297.88 2144.85,1297.88 2149.95,1297.88 2152.64,1297.88 2155.33,1297.88 2160.43,1297.88 2165.53,1297.88 
  2168.22,1297.88 2170.92,1297.88 2176.02,1297.88 2181.12,1297.88 2183.81,1297.88 2186.5,1297.88 2191.6,1297.88 2196.7,1297.88 2199.4,1297.88 2202.09,1297.88 
  2207.19,1297.88 2212.29,1297.88 2214.98,1297.88 2217.67,1297.88 2222.77,1297.88 2227.88,1297.88 2230.57,1297.88 2233.26,1297.88 2238.36,1297.88 2243.46,1297.88 
  2246.15,1297.88 2248.84,1297.88 2253.94,1297.88 2259.05,1297.88 2261.74,1297.88 2264.43,1297.88 2269.53,1297.88 2274.63,1297.88 2277.32,1297.88 2280.01,1297.88 
  2285.12,1297.88 2290.22,1297.88 2292.91,1297.88 
  "/>
<polyline clip-path="url(#clip032)" style="stroke:#e26f46; stroke-width:4; stroke-opacity:1; fill:none" points="
  297.978,1297.88 300.669,1297.88 305.771,1297.88 310.872,1297.88 313.563,1297.88 316.255,1297.88 321.356,1297.88 326.458,1297.88 329.149,1297.88 331.84,1297.88 
  336.941,1297.88 342.043,1297.88 344.734,1297.88 347.425,1297.88 352.527,1297.88 357.628,1297.88 360.32,1297.88 363.011,1297.88 368.112,1297.88 373.214,1297.88 
  375.905,1297.88 378.596,1297.88 383.698,1297.88 388.799,1297.88 391.49,1297.88 394.181,1297.88 399.283,1297.88 404.385,1297.88 407.076,1297.88 409.767,1297.88 
  414.868,1297.88 419.97,1297.88 422.661,1297.88 425.352,1297.88 430.454,1297.88 435.555,1297.88 438.246,1297.88 440.938,1297.88 446.039,1297.88 451.141,1297.88 
  453.832,1297.88 456.523,1297.88 461.625,1297.88 466.726,1297.88 469.417,1297.88 472.108,1297.88 477.21,1297.88 482.311,1297.88 485.003,1297.88 487.694,1297.88 
  492.795,1297.88 497.897,1297.88 500.588,1297.88 503.279,1297.88 508.381,1297.88 513.482,1297.88 516.173,1297.88 518.865,1297.88 523.966,1297.88 529.068,1297.88 
  531.759,1297.88 534.45,1297.88 539.552,1297.88 544.653,1297.88 547.344,1297.88 550.035,1297.88 555.137,1297.88 560.238,1297.88 562.93,1297.88 565.621,1297.88 
  570.722,1297.88 575.824,1297.88 578.515,1297.88 581.206,1297.88 586.308,1297.88 591.409,1297.88 594.1,1297.88 596.792,1297.88 601.893,1297.88 606.995,1297.88 
  609.686,1297.88 612.377,1297.88 617.478,1297.88 622.58,1297.88 625.271,1297.88 627.962,1297.88 633.064,1297.88 638.165,1297.88 640.857,1297.88 643.548,1297.88 
  648.649,1297.88 653.751,1297.88 656.442,1297.88 659.133,1297.88 664.235,1297.88 669.336,1297.88 672.027,1297.88 674.719,1297.88 679.82,1297.88 684.922,1297.88 
  687.613,1297.88 690.304,1297.88 695.405,1297.88 700.507,1297.88 703.198,1297.88 705.889,1297.88 710.991,1297.88 716.092,1297.88 718.784,1297.88 721.475,1297.88 
  726.576,1297.88 731.678,1297.88 734.369,1297.88 737.06,1297.88 742.162,1297.88 747.263,1297.88 749.954,1297.88 752.645,1297.88 757.747,1297.88 762.849,1297.88 
  765.54,1297.88 768.231,1297.88 773.332,1297.88 778.434,1297.88 781.125,1297.88 783.816,1297.88 788.918,1297.88 794.019,1297.88 796.71,1297.88 799.402,1297.88 
  804.503,1297.88 809.605,1297.88 812.296,1297.88 814.987,1297.88 820.089,1297.88 825.19,1297.88 827.881,1297.88 830.572,1297.88 835.674,1297.88 840.775,1297.88 
  843.467,1297.88 846.158,1297.88 851.259,1297.88 856.361,1297.88 859.052,1297.88 861.743,1297.88 866.845,1297.88 871.946,1297.88 874.637,1297.88 877.329,1297.88 
  882.43,1297.88 887.532,1297.88 890.223,1297.88 892.914,1297.88 898.016,1297.88 903.117,1297.88 905.808,1297.88 908.499,1297.88 913.601,1297.88 918.702,1297.88 
  921.394,1297.88 924.085,1297.88 929.186,1297.88 934.288,1297.88 936.979,1297.88 939.67,1297.88 944.772,1297.88 949.873,1297.88 952.564,1297.88 955.256,1297.88 
  960.357,1297.88 965.459,1297.88 968.15,1297.88 970.841,1297.88 975.942,1297.88 981.044,1297.88 983.735,1297.88 986.426,1297.88 991.528,1297.88 996.629,1297.88 
  999.321,1297.88 1002.01,1297.88 1007.11,1297.88 1012.21,1297.88 1014.91,1297.88 1017.6,1297.88 1022.7,1297.88 1027.8,1297.88 1030.49,1297.88 1033.18,1297.88 
  1038.28,1297.88 1043.39,1297.88 1046.08,1297.88 1048.77,1297.88 1053.87,1297.88 1058.97,1297.88 1061.66,1297.88 1064.35,1297.88 1069.45,1297.88 1074.56,1297.88 
  1077.25,1297.88 1079.94,1297.88 1085.04,1297.88 1090.14,1297.88 1092.83,1297.88 1095.52,1297.88 1100.63,1297.88 1105.73,1297.88 1108.42,1297.88 1111.11,1297.89 
  1116.21,1297.89 1121.31,1297.88 1124,1297.88 1126.69,1297.87 1131.8,1297.87 1136.9,1297.88 1139.59,1297.89 1142.28,1297.9 1147.38,1297.92 1152.48,1297.92 
  1155.17,1297.91 1157.87,1297.87 1162.97,1297.79 1168.07,1297.74 1170.76,1297.73 1173.45,1297.8 1178.55,1298.01 1183.65,1298.24 1186.35,1298.36 1189.04,1298.34 
  1194.14,1298.01 1199.24,1297.32 1201.93,1296.89 1204.62,1296.49 1209.72,1296.45 1214.82,1297.64 1217.52,1298.58 1220.21,1300.23 1225.31,1302.49 1230.41,1302.4 
  1233.1,1301.54 1235.79,1298.02 1240.89,1290.01 1246,1282.41 1248.69,1279.22 1251.38,1280.35 1256.48,1292.24 1261.58,1316.65 1264.27,1331.44 1266.96,1351.34 
  1272.06,1369.86 1277.17,1350.49 1279.86,1323.35 1282.55,1269.45 1287.65,1120.21 1292.75,916.012 1295.44,793.022 1298.13,661.155 1303.24,432.398 1308.34,249.941 
  1311.03,174.038 1313.72,128.373 1318.82,86.1857 1323.92,93.4065 1326.61,112.114 1329.3,133.787 1334.41,169.462 1339.51,190.333 1342.2,195.439 1344.89,192.603 
  1349.99,182.786 1355.09,170.888 1357.78,164.696 1360.48,162.162 1365.58,161.006 1370.68,163.936 1373.37,166.594 1376.06,168.609 1381.16,170.973 1386.26,171.176 
  1388.96,170.569 1391.65,169.686 1396.75,168.351 1401.85,167.74 1404.54,167.702 1407.23,167.977 1412.33,168.507 1417.43,168.894 1420.13,169.019 1422.82,168.958 
  1427.92,168.777 1433.02,168.582 1435.71,168.491 1438.4,168.497 1443.5,168.58 1448.61,168.724 1451.3,168.807 1453.99,168.837 1459.09,168.777 1464.19,168.563 
  1466.88,168.417 1469.57,168.254 1474.67,168.156 1479.78,168.452 1482.47,168.714 1485.16,169.242 1490.26,170.038 1495.36,170.151 1498.05,169.978 1500.74,168.933 
  1505.85,166.479 1510.95,164.2 1513.64,163.254 1516.33,163.833 1521.43,167.883 1526.53,175.527 1529.22,180.171 1531.92,184.891 1537.02,186.891 1542.12,176.79 
  1544.81,168.104 1547.5,149.936 1552.6,117.664 1557.7,98.3 1560.39,97.0244 1563.09,111.653 1568.19,186.967 1573.29,328.556 1575.98,425.403 1578.67,546.636 
  1583.77,785.046 1588.87,1014.23 1591.57,1126.13 1594.26,1214.64 1599.36,1331.58 1604.46,1381.05 1607.15,1384.24 1609.84,1370.93 1614.94,1335.74 1620.05,1300.09 
  1622.74,1283.15 1625.43,1276.28 1630.53,1273.53 1635.63,1282.16 1638.32,1289.82 1641.01,1296.07 1646.11,1304.03 1651.22,1305.85 1653.91,1304.72 1656.6,1302.32 
  1661.7,1298.19 1666.8,1295.64 1669.49,1294.98 1672.18,1295.45 1677.29,1296.73 1682.39,1298.07 1685.08,1298.69 1687.77,1298.78 1692.87,1298.59 1697.97,1298.1 
  1700.66,1297.77 1703.35,1297.64 1708.46,1297.57 1713.56,1297.71 1716.25,1297.84 1718.94,1297.92 1724.04,1297.99 1729.14,1297.97 1731.83,1297.93 1734.53,1297.89 
  1739.63,1297.85 1744.73,1297.84 1747.42,1297.86 1750.11,1297.87 1755.21,1297.89 1760.31,1297.9 1763,1297.89 1765.7,1297.89 1770.8,1297.88 1775.9,1297.88 
  1778.59,1297.88 1781.28,1297.88 1786.38,1297.88 1791.48,1297.88 1794.18,1297.88 1796.87,1297.88 1801.97,1297.88 1807.07,1297.88 1809.76,1297.88 1812.45,1297.88 
  1817.55,1297.88 1822.66,1297.88 1825.35,1297.88 1828.04,1297.88 1833.14,1297.88 1838.24,1297.88 1840.93,1297.88 1843.62,1297.88 1848.72,1297.88 1853.83,1297.88 
  1856.52,1297.88 1859.21,1297.88 1864.31,1297.88 1869.41,1297.88 1872.1,1297.88 1874.79,1297.88 1879.9,1297.88 1885,1297.88 1887.69,1297.88 1890.38,1297.88 
  1895.48,1297.88 1900.58,1297.88 1903.27,1297.88 1905.96,1297.88 1911.07,1297.88 1916.17,1297.88 1918.86,1297.88 1921.55,1297.88 1926.65,1297.88 1931.75,1297.88 
  1934.44,1297.88 1937.14,1297.88 1942.24,1297.88 1947.34,1297.88 1950.03,1297.88 1952.72,1297.88 1957.82,1297.88 1962.92,1297.88 1965.61,1297.88 1968.31,1297.88 
  1973.41,1297.88 1978.51,1297.88 1981.2,1297.88 1983.89,1297.88 1988.99,1297.88 1994.09,1297.88 1996.79,1297.88 1999.48,1297.88 2004.58,1297.88 2009.68,1297.88 
  2012.37,1297.88 2015.06,1297.88 2020.16,1297.88 2025.27,1297.88 2027.96,1297.88 2030.65,1297.88 2035.75,1297.88 2040.85,1297.88 2043.54,1297.88 2046.23,1297.88 
  2051.33,1297.88 2056.44,1297.88 2059.13,1297.88 2061.82,1297.88 2066.92,1297.88 2072.02,1297.88 2074.71,1297.88 2077.4,1297.88 2082.51,1297.88 2087.61,1297.88 
  2090.3,1297.88 2092.99,1297.88 2098.09,1297.88 2103.19,1297.88 2105.88,1297.88 2108.57,1297.88 2113.68,1297.88 2118.78,1297.88 2121.47,1297.88 2124.16,1297.88 
  2129.26,1297.88 2134.36,1297.88 2137.05,1297.88 2139.75,1297.88 2144.85,1297.88 2149.95,1297.88 2152.64,1297.88 2155.33,1297.88 2160.43,1297.88 2165.53,1297.88 
  2168.22,1297.88 2170.92,1297.88 2176.02,1297.88 2181.12,1297.88 2183.81,1297.88 2186.5,1297.88 2191.6,1297.88 2196.7,1297.88 2199.4,1297.88 2202.09,1297.88 
  2207.19,1297.88 2212.29,1297.88 2214.98,1297.88 2217.67,1297.88 2222.77,1297.88 2227.88,1297.88 2230.57,1297.88 2233.26,1297.88 2238.36,1297.88 2243.46,1297.88 
  2246.15,1297.88 2248.84,1297.88 2253.94,1297.88 2259.05,1297.88 2261.74,1297.88 2264.43,1297.88 2269.53,1297.88 2274.63,1297.88 2277.32,1297.88 2280.01,1297.88 
  2285.12,1297.88 2290.22,1297.88 2292.91,1297.88 
  "/>
<path clip-path="url(#clip030)" d="
M1802.38 274.549 L2282.27 274.549 L2282.27 93.1086 L1802.38 93.1086  Z
  " fill="#ffffff" fill-rule="evenodd" fill-opacity="1"/>
<polyline clip-path="url(#clip030)" style="stroke:#000000; stroke-width:4; stroke-opacity:1; fill:none" points="
  1802.38,274.549 2282.27,274.549 2282.27,93.1086 1802.38,93.1086 1802.38,274.549 
  "/>
<polyline clip-path="url(#clip030)" style="stroke:#009af9; stroke-width:4; stroke-opacity:1; fill:none" points="
  1825.88,153.589 1966.85,153.589 
  "/>
<path clip-path="url(#clip030)" d="M 0 0 M1994.75 157.929 Q1994.75 162.628 1996.67 165.313 Q1998.61 167.975 2001.99 167.975 Q2005.37 167.975 2007.31 165.313 Q2009.26 162.628 2009.26 157.929 Q2009.26 153.23 2007.31 150.568 Q2005.37 147.883 2001.99 147.883 Q1998.61 147.883 1996.67 150.568 Q1994.75 153.23 1994.75 157.929 M2009.26 166.98 Q2007.92 169.295 2005.86 170.429 Q2003.82 171.54 2000.95 171.54 Q1996.25 171.54 1993.29 167.79 Q1990.35 164.04 1990.35 157.929 Q1990.35 151.818 1993.29 148.068 Q1996.25 144.318 2000.95 144.318 Q2003.82 144.318 2005.86 145.452 Q2007.92 146.563 2009.26 148.878 L2009.26 144.943 L2013.52 144.943 L2013.52 180.73 L2009.26 180.73 L2009.26 166.98 Z" fill="#000000" fill-rule="evenodd" fill-opacity="1" /><path clip-path="url(#clip030)" d="M 0 0 M2019.07 164.989 L2023.96 164.989 L2023.96 168.97 L2020.16 176.378 L2017.18 176.378 L2019.07 168.97 L2019.07 164.989 Z" fill="#000000" fill-rule="evenodd" fill-opacity="1" /><path clip-path="url(#clip030)" d="M 0 0 M2047.71 137.582 L2047.71 144.943 L2056.48 144.943 L2056.48 148.253 L2047.71 148.253 L2047.71 162.327 Q2047.71 165.498 2048.56 166.401 Q2049.44 167.304 2052.11 167.304 L2056.48 167.304 L2056.48 170.869 L2052.11 170.869 Q2047.18 170.869 2045.3 169.04 Q2043.43 167.188 2043.43 162.327 L2043.43 148.253 L2040.3 148.253 L2040.3 144.943 L2043.43 144.943 L2043.43 137.582 L2047.71 137.582 Z" fill="#000000" fill-rule="evenodd" fill-opacity="1" /><path clip-path="url(#clip030)" d="M 0 0 M2061.5 149.341 L2091.18 149.341 L2091.18 153.23 L2061.5 153.23 L2061.5 149.341 M2061.5 158.785 L2091.18 158.785 L2091.18 162.721 L2061.5 162.721 L2061.5 158.785 Z" fill="#000000" fill-rule="evenodd" fill-opacity="1" /><path clip-path="url(#clip030)" d="M 0 0 M2106.25 139.387 Q2102.64 139.387 2100.81 142.952 Q2099 146.494 2099 153.623 Q2099 160.73 2100.81 164.295 Q2102.64 167.836 2106.25 167.836 Q2109.88 167.836 2111.69 164.295 Q2113.52 160.73 2113.52 153.623 Q2113.52 146.494 2111.69 142.952 Q2109.88 139.387 2106.25 139.387 M2106.25 135.684 Q2112.06 135.684 2115.12 140.29 Q2118.19 144.873 2118.19 153.623 Q2118.19 162.35 2115.12 166.957 Q2112.06 171.54 2106.25 171.54 Q2100.44 171.54 2097.36 166.957 Q2094.31 162.35 2094.31 153.623 Q2094.31 144.873 2097.36 140.29 Q2100.44 135.684 2106.25 135.684 Z" fill="#000000" fill-rule="evenodd" fill-opacity="1" /><path clip-path="url(#clip030)" d="M 0 0 M2123.26 164.989 L2128.15 164.989 L2128.15 170.869 L2123.26 170.869 L2123.26 164.989 Z" fill="#000000" fill-rule="evenodd" fill-opacity="1" /><path clip-path="url(#clip030)" d="M 0 0 M2143.22 139.387 Q2139.61 139.387 2137.78 142.952 Q2135.97 146.494 2135.97 153.623 Q2135.97 160.73 2137.78 164.295 Q2139.61 167.836 2143.22 167.836 Q2146.85 167.836 2148.66 164.295 Q2150.49 160.73 2150.49 153.623 Q2150.49 146.494 2148.66 142.952 Q2146.85 139.387 2143.22 139.387 M2143.22 135.684 Q2149.03 135.684 2152.08 140.29 Q2155.16 144.873 2155.16 153.623 Q2155.16 162.35 2152.08 166.957 Q2149.03 171.54 2143.22 171.54 Q2137.41 171.54 2134.33 166.957 Q2131.27 162.35 2131.27 153.623 Q2131.27 144.873 2134.33 140.29 Q2137.41 135.684 2143.22 135.684 Z" fill="#000000" fill-rule="evenodd" fill-opacity="1" /><polyline clip-path="url(#clip030)" style="stroke:#e26f46; stroke-width:4; stroke-opacity:1; fill:none" points="
  1825.88,214.069 1966.85,214.069 
  "/>
<path clip-path="url(#clip030)" d="M 0 0 M1994.75 218.409 Q1994.75 223.108 1996.67 225.793 Q1998.61 228.455 2001.99 228.455 Q2005.37 228.455 2007.31 225.793 Q2009.26 223.108 2009.26 218.409 Q2009.26 213.71 2007.31 211.048 Q2005.37 208.363 2001.99 208.363 Q1998.61 208.363 1996.67 211.048 Q1994.75 213.71 1994.75 218.409 M2009.26 227.46 Q2007.92 229.775 2005.86 230.909 Q2003.82 232.02 2000.95 232.02 Q1996.25 232.02 1993.29 228.27 Q1990.35 224.52 1990.35 218.409 Q1990.35 212.298 1993.29 208.548 Q1996.25 204.798 2000.95 204.798 Q2003.82 204.798 2005.86 205.932 Q2007.92 207.043 2009.26 209.358 L2009.26 205.423 L2013.52 205.423 L2013.52 241.21 L2009.26 241.21 L2009.26 227.46 Z" fill="#000000" fill-rule="evenodd" fill-opacity="1" /><path clip-path="url(#clip030)" d="M 0 0 M2019.07 225.469 L2023.96 225.469 L2023.96 229.45 L2020.16 236.858 L2017.18 236.858 L2019.07 229.45 L2019.07 225.469 Z" fill="#000000" fill-rule="evenodd" fill-opacity="1" /><path clip-path="url(#clip030)" d="M 0 0 M2047.71 198.062 L2047.71 205.423 L2056.48 205.423 L2056.48 208.733 L2047.71 208.733 L2047.71 222.807 Q2047.71 225.978 2048.56 226.881 Q2049.44 227.784 2052.11 227.784 L2056.48 227.784 L2056.48 231.349 L2052.11 231.349 Q2047.18 231.349 2045.3 229.52 Q2043.43 227.668 2043.43 222.807 L2043.43 208.733 L2040.3 208.733 L2040.3 205.423 L2043.43 205.423 L2043.43 198.062 L2047.71 198.062 Z" fill="#000000" fill-rule="evenodd" fill-opacity="1" /><path clip-path="url(#clip030)" d="M 0 0 M2061.5 209.821 L2091.18 209.821 L2091.18 213.71 L2061.5 213.71 L2061.5 209.821 M2061.5 219.265 L2091.18 219.265 L2091.18 223.201 L2061.5 223.201 L2061.5 219.265 Z" fill="#000000" fill-rule="evenodd" fill-opacity="1" /><path clip-path="url(#clip030)" d="M 0 0 M2109.1 200.863 L2097.29 219.312 L2109.1 219.312 L2109.1 200.863 M2107.87 196.789 L2113.75 196.789 L2113.75 219.312 L2118.68 219.312 L2118.68 223.201 L2113.75 223.201 L2113.75 231.349 L2109.1 231.349 L2109.1 223.201 L2093.5 223.201 L2093.5 218.687 L2107.87 196.789 Z" fill="#000000" fill-rule="evenodd" fill-opacity="1" /><path clip-path="url(#clip030)" d="M 0 0 M2123.8 196.789 L2142.15 196.789 L2142.15 200.724 L2128.08 200.724 L2128.08 209.196 Q2129.1 208.849 2130.12 208.687 Q2131.13 208.502 2132.15 208.502 Q2137.94 208.502 2141.32 211.673 Q2144.7 214.844 2144.7 220.261 Q2144.7 225.839 2141.23 228.941 Q2137.75 232.02 2131.43 232.02 Q2129.26 232.02 2126.99 231.65 Q2124.74 231.279 2122.34 230.538 L2122.34 225.839 Q2124.42 226.974 2126.64 227.529 Q2128.87 228.085 2131.34 228.085 Q2135.35 228.085 2137.68 225.978 Q2140.02 223.872 2140.02 220.261 Q2140.02 216.65 2137.68 214.543 Q2135.35 212.437 2131.34 212.437 Q2129.47 212.437 2127.59 212.853 Q2125.74 213.27 2123.8 214.15 L2123.8 196.789 Z" fill="#000000" fill-rule="evenodd" fill-opacity="1" /><path clip-path="url(#clip030)" d="M 0 0 M2159.77 199.867 Q2156.16 199.867 2154.33 203.432 Q2152.52 206.974 2152.52 214.103 Q2152.52 221.21 2154.33 224.775 Q2156.16 228.316 2159.77 228.316 Q2163.4 228.316 2165.21 224.775 Q2167.04 221.21 2167.04 214.103 Q2167.04 206.974 2165.21 203.432 Q2163.4 199.867 2159.77 199.867 M2159.77 196.164 Q2165.58 196.164 2168.63 200.77 Q2171.71 205.353 2171.71 214.103 Q2171.71 222.83 2168.63 227.437 Q2165.58 232.02 2159.77 232.02 Q2153.96 232.02 2150.88 227.437 Q2147.82 222.83 2147.82 214.103 Q2147.82 205.353 2150.88 200.77 Q2153.96 196.164 2159.77 196.164 Z" fill="#000000" fill-rule="evenodd" fill-opacity="1" /><path clip-path="url(#clip030)" d="M 0 0 M2176.78 225.469 L2181.67 225.469 L2181.67 231.349 L2176.78 231.349 L2176.78 225.469 Z" fill="#000000" fill-rule="evenodd" fill-opacity="1" /><path clip-path="url(#clip030)" d="M 0 0 M2199.58 200.863 L2187.78 219.312 L2199.58 219.312 L2199.58 200.863 M2198.36 196.789 L2204.24 196.789 L2204.24 219.312 L2209.17 219.312 L2209.17 223.201 L2204.24 223.201 L2204.24 231.349 L2199.58 231.349 L2199.58 223.201 L2183.98 223.201 L2183.98 218.687 L2198.36 196.789 Z" fill="#000000" fill-rule="evenodd" fill-opacity="1" /><path clip-path="url(#clip030)" d="M 0 0 M2213.05 196.789 L2235.28 196.789 L2235.28 198.779 L2222.73 231.349 L2217.85 231.349 L2229.65 200.724 L2213.05 200.724 L2213.05 196.789 Z" fill="#000000" fill-rule="evenodd" fill-opacity="1" /></svg>
