<?xml version="1.0" encoding="utf-8"?>
<svg xmlns="http://www.w3.org/2000/svg" xmlns:xlink="http://www.w3.org/1999/xlink" width="600" height="400" viewBox="0 0 2400 1600">
<defs>
  <clipPath id="clip970">
    <rect x="0" y="0" width="2400" height="1600"/>
  </clipPath>
</defs>
<path clip-path="url(#clip970)" d="
M0 1600 L2400 1600 L2400 0 L0 0  Z
  " fill="#ffffff" fill-rule="evenodd" fill-opacity="1"/>
<defs>
  <clipPath id="clip971">
    <rect x="480" y="0" width="1681" height="1600"/>
  </clipPath>
</defs>
<path clip-path="url(#clip970)" d="
M238.13 1423.18 L2352.76 1423.18 L2352.76 47.2441 L238.13 47.2441  Z
  " fill="#ffffff" fill-rule="evenodd" fill-opacity="1"/>
<defs>
  <clipPath id="clip972">
    <rect x="238" y="47" width="2116" height="1377"/>
  </clipPath>
</defs>
<polyline clip-path="url(#clip972)" style="stroke:#000000; stroke-width:2; stroke-opacity:0.1; fill:none" points="
  297.978,1423.18 297.978,47.2441 
  "/>
<polyline clip-path="url(#clip972)" style="stroke:#000000; stroke-width:2; stroke-opacity:0.1; fill:none" points="
  867.958,1423.18 867.958,47.2441 
  "/>
<polyline clip-path="url(#clip972)" style="stroke:#000000; stroke-width:2; stroke-opacity:0.1; fill:none" points="
  1437.94,1423.18 1437.94,47.2441 
  "/>
<polyline clip-path="url(#clip972)" style="stroke:#000000; stroke-width:2; stroke-opacity:0.1; fill:none" points="
  2007.92,1423.18 2007.92,47.2441 
  "/>
<polyline clip-path="url(#clip970)" style="stroke:#000000; stroke-width:4; stroke-opacity:1; fill:none" points="
  238.13,1423.18 2352.76,1423.18 
  "/>
<polyline clip-path="url(#clip970)" style="stroke:#000000; stroke-width:4; stroke-opacity:1; fill:none" points="
  297.978,1423.18 297.978,1406.67 
  "/>
<polyline clip-path="url(#clip970)" style="stroke:#000000; stroke-width:4; stroke-opacity:1; fill:none" points="
  867.958,1423.18 867.958,1406.67 
  "/>
<polyline clip-path="url(#clip970)" style="stroke:#000000; stroke-width:4; stroke-opacity:1; fill:none" points="
  1437.94,1423.18 1437.94,1406.67 
  "/>
<polyline clip-path="url(#clip970)" style="stroke:#000000; stroke-width:4; stroke-opacity:1; fill:none" points="
  2007.92,1423.18 2007.92,1406.67 
  "/>
<path clip-path="url(#clip970)" d="M 0 0 M297.978 1452.37 Q294.367 1452.37 292.538 1455.94 Q290.733 1459.48 290.733 1466.61 Q290.733 1473.71 292.538 1477.28 Q294.367 1480.82 297.978 1480.82 Q301.612 1480.82 303.418 1477.28 Q305.246 1473.71 305.246 1466.61 Q305.246 1459.48 303.418 1455.94 Q301.612 1452.37 297.978 1452.37 M297.978 1448.67 Q303.788 1448.67 306.844 1453.27 Q309.922 1457.86 309.922 1466.61 Q309.922 1475.33 306.844 1479.94 Q303.788 1484.52 297.978 1484.52 Q292.168 1484.52 289.089 1479.94 Q286.034 1475.33 286.034 1466.61 Q286.034 1457.86 289.089 1453.27 Q292.168 1448.67 297.978 1448.67 Z" fill="#000000" fill-rule="evenodd" fill-opacity="1" /><path clip-path="url(#clip970)" d="M 0 0 M831.326 1479.92 L838.965 1479.92 L838.965 1453.55 L830.655 1455.22 L830.655 1450.96 L838.919 1449.29 L843.595 1449.29 L843.595 1479.92 L851.234 1479.92 L851.234 1483.85 L831.326 1483.85 L831.326 1479.92 Z" fill="#000000" fill-rule="evenodd" fill-opacity="1" /><path clip-path="url(#clip970)" d="M 0 0 M866.303 1452.37 Q862.692 1452.37 860.863 1455.94 Q859.058 1459.48 859.058 1466.61 Q859.058 1473.71 860.863 1477.28 Q862.692 1480.82 866.303 1480.82 Q869.937 1480.82 871.743 1477.28 Q873.571 1473.71 873.571 1466.61 Q873.571 1459.48 871.743 1455.94 Q869.937 1452.37 866.303 1452.37 M866.303 1448.67 Q872.113 1448.67 875.169 1453.27 Q878.247 1457.86 878.247 1466.61 Q878.247 1475.33 875.169 1479.94 Q872.113 1484.52 866.303 1484.52 Q860.493 1484.52 857.414 1479.94 Q854.359 1475.33 854.359 1466.61 Q854.359 1457.86 857.414 1453.27 Q860.493 1448.67 866.303 1448.67 Z" fill="#000000" fill-rule="evenodd" fill-opacity="1" /><path clip-path="url(#clip970)" d="M 0 0 M893.317 1452.37 Q889.706 1452.37 887.877 1455.94 Q886.071 1459.48 886.071 1466.61 Q886.071 1473.71 887.877 1477.28 Q889.706 1480.82 893.317 1480.82 Q896.951 1480.82 898.756 1477.28 Q900.585 1473.71 900.585 1466.61 Q900.585 1459.48 898.756 1455.94 Q896.951 1452.37 893.317 1452.37 M893.317 1448.67 Q899.127 1448.67 902.182 1453.27 Q905.261 1457.86 905.261 1466.61 Q905.261 1475.33 902.182 1479.94 Q899.127 1484.52 893.317 1484.52 Q887.506 1484.52 884.428 1479.94 Q881.372 1475.33 881.372 1466.61 Q881.372 1457.86 884.428 1453.27 Q887.506 1448.67 893.317 1448.67 Z" fill="#000000" fill-rule="evenodd" fill-opacity="1" /><path clip-path="url(#clip970)" d="M 0 0 M1405.58 1479.92 L1421.9 1479.92 L1421.9 1483.85 L1399.95 1483.85 L1399.95 1479.92 Q1402.61 1477.16 1407.2 1472.53 Q1411.8 1467.88 1412.98 1466.54 Q1415.23 1464.01 1416.11 1462.28 Q1417.01 1460.52 1417.01 1458.83 Q1417.01 1456.07 1415.07 1454.34 Q1413.15 1452.6 1410.04 1452.6 Q1407.85 1452.6 1405.39 1453.37 Q1402.96 1454.13 1400.18 1455.68 L1400.18 1450.96 Q1403.01 1449.82 1405.46 1449.25 Q1407.91 1448.67 1409.95 1448.67 Q1415.32 1448.67 1418.52 1451.35 Q1421.71 1454.04 1421.71 1458.53 Q1421.71 1460.66 1420.9 1462.58 Q1420.11 1464.48 1418.01 1467.07 Q1417.43 1467.74 1414.33 1470.96 Q1411.23 1474.15 1405.58 1479.92 Z" fill="#000000" fill-rule="evenodd" fill-opacity="1" /><path clip-path="url(#clip970)" d="M 0 0 M1436.97 1452.37 Q1433.35 1452.37 1431.53 1455.94 Q1429.72 1459.48 1429.72 1466.61 Q1429.72 1473.71 1431.53 1477.28 Q1433.35 1480.82 1436.97 1480.82 Q1440.6 1480.82 1442.41 1477.28 Q1444.23 1473.71 1444.23 1466.61 Q1444.23 1459.48 1442.41 1455.94 Q1440.6 1452.37 1436.97 1452.37 M1436.97 1448.67 Q1442.78 1448.67 1445.83 1453.27 Q1448.91 1457.86 1448.91 1466.61 Q1448.91 1475.33 1445.83 1479.94 Q1442.78 1484.52 1436.97 1484.52 Q1431.16 1484.52 1428.08 1479.94 Q1425.02 1475.33 1425.02 1466.61 Q1425.02 1457.86 1428.08 1453.27 Q1431.16 1448.67 1436.97 1448.67 Z" fill="#000000" fill-rule="evenodd" fill-opacity="1" /><path clip-path="url(#clip970)" d="M 0 0 M1463.98 1452.37 Q1460.37 1452.37 1458.54 1455.94 Q1456.73 1459.48 1456.73 1466.61 Q1456.73 1473.71 1458.54 1477.28 Q1460.37 1480.82 1463.98 1480.82 Q1467.61 1480.82 1469.42 1477.28 Q1471.25 1473.71 1471.25 1466.61 Q1471.25 1459.48 1469.42 1455.94 Q1467.61 1452.37 1463.98 1452.37 M1463.98 1448.67 Q1469.79 1448.67 1472.85 1453.27 Q1475.92 1457.86 1475.92 1466.61 Q1475.92 1475.33 1472.85 1479.94 Q1469.79 1484.52 1463.98 1484.52 Q1458.17 1484.52 1455.09 1479.94 Q1452.04 1475.33 1452.04 1466.61 Q1452.04 1457.86 1455.09 1453.27 Q1458.17 1448.67 1463.98 1448.67 Z" fill="#000000" fill-rule="evenodd" fill-opacity="1" /><path clip-path="url(#clip970)" d="M 0 0 M1985.15 1465.22 Q1988.51 1465.94 1990.38 1468.2 Q1992.28 1470.47 1992.28 1473.81 Q1992.28 1478.92 1988.76 1481.72 Q1985.24 1484.52 1978.76 1484.52 Q1976.59 1484.52 1974.27 1484.08 Q1971.98 1483.67 1969.53 1482.81 L1969.53 1478.3 Q1971.47 1479.43 1973.79 1480.01 Q1976.1 1480.59 1978.62 1480.59 Q1983.02 1480.59 1985.31 1478.85 Q1987.63 1477.12 1987.63 1473.81 Q1987.63 1470.75 1985.48 1469.04 Q1983.35 1467.3 1979.53 1467.3 L1975.5 1467.3 L1975.5 1463.46 L1979.71 1463.46 Q1983.16 1463.46 1984.99 1462.09 Q1986.82 1460.7 1986.82 1458.11 Q1986.82 1455.45 1984.92 1454.04 Q1983.05 1452.6 1979.53 1452.6 Q1977.61 1452.6 1975.41 1453.02 Q1973.21 1453.44 1970.57 1454.31 L1970.57 1450.15 Q1973.23 1449.41 1975.55 1449.04 Q1977.88 1448.67 1979.94 1448.67 Q1985.27 1448.67 1988.37 1451.1 Q1991.47 1453.5 1991.47 1457.63 Q1991.47 1460.5 1989.83 1462.49 Q1988.18 1464.45 1985.15 1465.22 Z" fill="#000000" fill-rule="evenodd" fill-opacity="1" /><path clip-path="url(#clip970)" d="M 0 0 M2007.35 1452.37 Q2003.74 1452.37 2001.91 1455.94 Q2000.11 1459.48 2000.11 1466.61 Q2000.11 1473.71 2001.91 1477.28 Q2003.74 1480.82 2007.35 1480.82 Q2010.99 1480.82 2012.79 1477.28 Q2014.62 1473.71 2014.62 1466.61 Q2014.62 1459.48 2012.79 1455.94 Q2010.99 1452.37 2007.35 1452.37 M2007.35 1448.67 Q2013.16 1448.67 2016.22 1453.27 Q2019.3 1457.86 2019.3 1466.61 Q2019.3 1475.33 2016.22 1479.94 Q2013.16 1484.52 2007.35 1484.52 Q2001.54 1484.52 1998.46 1479.94 Q1995.41 1475.33 1995.41 1466.61 Q1995.41 1457.86 1998.46 1453.27 Q2001.54 1448.67 2007.35 1448.67 Z" fill="#000000" fill-rule="evenodd" fill-opacity="1" /><path clip-path="url(#clip970)" d="M 0 0 M2034.36 1452.37 Q2030.75 1452.37 2028.92 1455.94 Q2027.12 1459.48 2027.12 1466.61 Q2027.12 1473.71 2028.92 1477.28 Q2030.75 1480.82 2034.36 1480.82 Q2038 1480.82 2039.8 1477.28 Q2041.63 1473.71 2041.63 1466.61 Q2041.63 1459.48 2039.8 1455.94 Q2038 1452.37 2034.36 1452.37 M2034.36 1448.67 Q2040.17 1448.67 2043.23 1453.27 Q2046.31 1457.86 2046.31 1466.61 Q2046.31 1475.33 2043.23 1479.94 Q2040.17 1484.52 2034.36 1484.52 Q2028.55 1484.52 2025.48 1479.94 Q2022.42 1475.33 2022.42 1466.61 Q2022.42 1457.86 2025.48 1453.27 Q2028.55 1448.67 2034.36 1448.67 Z" fill="#000000" fill-rule="evenodd" fill-opacity="1" /><path clip-path="url(#clip970)" d="M 0 0 M1312.06 1520.4 L1299.17 1537.74 L1312.73 1556.04 L1305.82 1556.04 L1295.44 1542.04 L1285.07 1556.04 L1278.16 1556.04 L1292.01 1537.39 L1279.34 1520.4 L1286.24 1520.4 L1295.7 1533.1 L1305.15 1520.4 L1312.06 1520.4 Z" fill="#000000" fill-rule="evenodd" fill-opacity="1" /><polyline clip-path="url(#clip972)" style="stroke:#000000; stroke-width:2; stroke-opacity:0.1; fill:none" points="
  238.13,1291.62 2352.76,1291.62 
  "/>
<polyline clip-path="url(#clip972)" style="stroke:#000000; stroke-width:2; stroke-opacity:0.1; fill:none" points="
  238.13,1011.31 2352.76,1011.31 
  "/>
<polyline clip-path="url(#clip972)" style="stroke:#000000; stroke-width:2; stroke-opacity:0.1; fill:none" points="
  238.13,731.004 2352.76,731.004 
  "/>
<polyline clip-path="url(#clip972)" style="stroke:#000000; stroke-width:2; stroke-opacity:0.1; fill:none" points="
  238.13,450.697 2352.76,450.697 
  "/>
<polyline clip-path="url(#clip972)" style="stroke:#000000; stroke-width:2; stroke-opacity:0.1; fill:none" points="
  238.13,170.39 2352.76,170.39 
  "/>
<polyline clip-path="url(#clip970)" style="stroke:#000000; stroke-width:4; stroke-opacity:1; fill:none" points="
  238.13,1423.18 238.13,47.2441 
  "/>
<polyline clip-path="url(#clip970)" style="stroke:#000000; stroke-width:4; stroke-opacity:1; fill:none" points="
  238.13,1291.62 263.506,1291.62 
  "/>
<polyline clip-path="url(#clip970)" style="stroke:#000000; stroke-width:4; stroke-opacity:1; fill:none" points="
  238.13,1011.31 263.506,1011.31 
  "/>
<polyline clip-path="url(#clip970)" style="stroke:#000000; stroke-width:4; stroke-opacity:1; fill:none" points="
  238.13,731.004 263.506,731.004 
  "/>
<polyline clip-path="url(#clip970)" style="stroke:#000000; stroke-width:4; stroke-opacity:1; fill:none" points="
  238.13,450.697 263.506,450.697 
  "/>
<polyline clip-path="url(#clip970)" style="stroke:#000000; stroke-width:4; stroke-opacity:1; fill:none" points="
  238.13,170.39 263.506,170.39 
  "/>
<path clip-path="url(#clip970)" d="M 0 0 M126.205 1277.42 Q122.593 1277.42 120.765 1280.98 Q118.959 1284.52 118.959 1291.65 Q118.959 1298.76 120.765 1302.32 Q122.593 1305.87 126.205 1305.87 Q129.839 1305.87 131.644 1302.32 Q133.473 1298.76 133.473 1291.65 Q133.473 1284.52 131.644 1280.98 Q129.839 1277.42 126.205 1277.42 M126.205 1273.71 Q132.015 1273.71 135.07 1278.32 Q138.149 1282.9 138.149 1291.65 Q138.149 1300.38 135.07 1304.99 Q132.015 1309.57 126.205 1309.57 Q120.394 1309.57 117.316 1304.99 Q114.26 1300.38 114.26 1291.65 Q114.26 1282.9 117.316 1278.32 Q120.394 1273.71 126.205 1273.71 Z" fill="#000000" fill-rule="evenodd" fill-opacity="1" /><path clip-path="url(#clip970)" d="M 0 0 M143.218 1303.02 L148.103 1303.02 L148.103 1308.9 L143.218 1308.9 L143.218 1303.02 Z" fill="#000000" fill-rule="evenodd" fill-opacity="1" /><path clip-path="url(#clip970)" d="M 0 0 M163.172 1277.42 Q159.561 1277.42 157.732 1280.98 Q155.927 1284.52 155.927 1291.65 Q155.927 1298.76 157.732 1302.32 Q159.561 1305.87 163.172 1305.87 Q166.806 1305.87 168.612 1302.32 Q170.44 1298.76 170.44 1291.65 Q170.44 1284.52 168.612 1280.98 Q166.806 1277.42 163.172 1277.42 M163.172 1273.71 Q168.982 1273.71 172.038 1278.32 Q175.116 1282.9 175.116 1291.65 Q175.116 1300.38 172.038 1304.99 Q168.982 1309.57 163.172 1309.57 Q157.362 1309.57 154.283 1304.99 Q151.228 1300.38 151.228 1291.65 Q151.228 1282.9 154.283 1278.32 Q157.362 1273.71 163.172 1273.71 Z" fill="#000000" fill-rule="evenodd" fill-opacity="1" /><path clip-path="url(#clip970)" d="M 0 0 M190.186 1277.42 Q186.575 1277.42 184.746 1280.98 Q182.94 1284.52 182.94 1291.65 Q182.94 1298.76 184.746 1302.32 Q186.575 1305.87 190.186 1305.87 Q193.82 1305.87 195.625 1302.32 Q197.454 1298.76 197.454 1291.65 Q197.454 1284.52 195.625 1280.98 Q193.82 1277.42 190.186 1277.42 M190.186 1273.71 Q195.996 1273.71 199.051 1278.32 Q202.13 1282.9 202.13 1291.65 Q202.13 1300.38 199.051 1304.99 Q195.996 1309.57 190.186 1309.57 Q184.376 1309.57 181.297 1304.99 Q178.241 1300.38 178.241 1291.65 Q178.241 1282.9 181.297 1278.32 Q184.376 1273.71 190.186 1273.71 Z" fill="#000000" fill-rule="evenodd" fill-opacity="1" /><path clip-path="url(#clip970)" d="M 0 0 M128.797 997.109 Q125.186 997.109 123.357 1000.67 Q121.552 1004.22 121.552 1011.35 Q121.552 1018.45 123.357 1022.02 Q125.186 1025.56 128.797 1025.56 Q132.431 1025.56 134.237 1022.02 Q136.066 1018.45 136.066 1011.35 Q136.066 1004.22 134.237 1000.67 Q132.431 997.109 128.797 997.109 M128.797 993.406 Q134.607 993.406 137.663 998.012 Q140.741 1002.6 140.741 1011.35 Q140.741 1020.07 137.663 1024.68 Q134.607 1029.26 128.797 1029.26 Q122.987 1029.26 119.908 1024.68 Q116.853 1020.07 116.853 1011.35 Q116.853 1002.6 119.908 998.012 Q122.987 993.406 128.797 993.406 Z" fill="#000000" fill-rule="evenodd" fill-opacity="1" /><path clip-path="url(#clip970)" d="M 0 0 M145.811 1022.71 L150.695 1022.71 L150.695 1028.59 L145.811 1028.59 L145.811 1022.71 Z" fill="#000000" fill-rule="evenodd" fill-opacity="1" /><path clip-path="url(#clip970)" d="M 0 0 M159.792 1024.66 L176.112 1024.66 L176.112 1028.59 L154.167 1028.59 L154.167 1024.66 Q156.829 1021.9 161.413 1017.27 Q166.019 1012.62 167.2 1011.28 Q169.445 1008.75 170.325 1007.02 Q171.227 1005.26 171.227 1003.57 Q171.227 1000.81 169.283 999.077 Q167.362 997.341 164.26 997.341 Q162.061 997.341 159.607 998.105 Q157.177 998.868 154.399 1000.42 L154.399 995.697 Q157.223 994.563 159.677 993.984 Q162.13 993.406 164.167 993.406 Q169.538 993.406 172.732 996.091 Q175.926 998.776 175.926 1003.27 Q175.926 1005.4 175.116 1007.32 Q174.329 1009.22 172.223 1011.81 Q171.644 1012.48 168.542 1015.7 Q165.44 1018.89 159.792 1024.66 Z" fill="#000000" fill-rule="evenodd" fill-opacity="1" /><path clip-path="url(#clip970)" d="M 0 0 M181.227 994.031 L199.584 994.031 L199.584 997.966 L185.51 997.966 L185.51 1006.44 Q186.528 1006.09 187.547 1005.93 Q188.565 1005.74 189.584 1005.74 Q195.371 1005.74 198.75 1008.91 Q202.13 1012.09 202.13 1017.5 Q202.13 1023.08 198.658 1026.18 Q195.186 1029.26 188.866 1029.26 Q186.69 1029.26 184.422 1028.89 Q182.176 1028.52 179.769 1027.78 L179.769 1023.08 Q181.852 1024.22 184.075 1024.77 Q186.297 1025.33 188.774 1025.33 Q192.778 1025.33 195.116 1023.22 Q197.454 1021.11 197.454 1017.5 Q197.454 1013.89 195.116 1011.79 Q192.778 1009.68 188.774 1009.68 Q186.899 1009.68 185.024 1010.1 Q183.172 1010.51 181.227 1011.39 L181.227 994.031 Z" fill="#000000" fill-rule="evenodd" fill-opacity="1" /><path clip-path="url(#clip970)" d="M 0 0 M127.2 716.802 Q123.589 716.802 121.76 720.367 Q119.955 723.909 119.955 731.038 Q119.955 738.145 121.76 741.71 Q123.589 745.251 127.2 745.251 Q130.834 745.251 132.64 741.71 Q134.468 738.145 134.468 731.038 Q134.468 723.909 132.64 720.367 Q130.834 716.802 127.2 716.802 M127.2 713.099 Q133.01 713.099 136.066 717.705 Q139.144 722.288 139.144 731.038 Q139.144 739.765 136.066 744.372 Q133.01 748.955 127.2 748.955 Q121.39 748.955 118.311 744.372 Q115.256 739.765 115.256 731.038 Q115.256 722.288 118.311 717.705 Q121.39 713.099 127.2 713.099 Z" fill="#000000" fill-rule="evenodd" fill-opacity="1" /><path clip-path="url(#clip970)" d="M 0 0 M144.214 742.404 L149.098 742.404 L149.098 748.284 L144.214 748.284 L144.214 742.404 Z" fill="#000000" fill-rule="evenodd" fill-opacity="1" /><path clip-path="url(#clip970)" d="M 0 0 M154.214 713.724 L172.57 713.724 L172.57 717.659 L158.496 717.659 L158.496 726.131 Q159.515 725.784 160.533 725.622 Q161.552 725.437 162.57 725.437 Q168.357 725.437 171.737 728.608 Q175.116 731.779 175.116 737.196 Q175.116 742.774 171.644 745.876 Q168.172 748.955 161.852 748.955 Q159.677 748.955 157.408 748.585 Q155.163 748.214 152.755 747.474 L152.755 742.774 Q154.839 743.909 157.061 744.464 Q159.283 745.02 161.76 745.02 Q165.765 745.02 168.102 742.913 Q170.44 740.807 170.44 737.196 Q170.44 733.585 168.102 731.478 Q165.765 729.372 161.76 729.372 Q159.885 729.372 158.01 729.788 Q156.158 730.205 154.214 731.085 L154.214 713.724 Z" fill="#000000" fill-rule="evenodd" fill-opacity="1" /><path clip-path="url(#clip970)" d="M 0 0 M190.186 716.802 Q186.575 716.802 184.746 720.367 Q182.94 723.909 182.94 731.038 Q182.94 738.145 184.746 741.71 Q186.575 745.251 190.186 745.251 Q193.82 745.251 195.625 741.71 Q197.454 738.145 197.454 731.038 Q197.454 723.909 195.625 720.367 Q193.82 716.802 190.186 716.802 M190.186 713.099 Q195.996 713.099 199.051 717.705 Q202.13 722.288 202.13 731.038 Q202.13 739.765 199.051 744.372 Q195.996 748.955 190.186 748.955 Q184.376 748.955 181.297 744.372 Q178.241 739.765 178.241 731.038 Q178.241 722.288 181.297 717.705 Q184.376 713.099 190.186 713.099 Z" fill="#000000" fill-rule="evenodd" fill-opacity="1" /><path clip-path="url(#clip970)" d="M 0 0 M128.103 436.496 Q124.492 436.496 122.663 440.06 Q120.857 443.602 120.857 450.732 Q120.857 457.838 122.663 461.403 Q124.492 464.944 128.103 464.944 Q131.737 464.944 133.542 461.403 Q135.371 457.838 135.371 450.732 Q135.371 443.602 133.542 440.06 Q131.737 436.496 128.103 436.496 M128.103 432.792 Q133.913 432.792 136.968 437.398 Q140.047 441.982 140.047 450.732 Q140.047 459.458 136.968 464.065 Q133.913 468.648 128.103 468.648 Q122.293 468.648 119.214 464.065 Q116.158 459.458 116.158 450.732 Q116.158 441.982 119.214 437.398 Q122.293 432.792 128.103 432.792 Z" fill="#000000" fill-rule="evenodd" fill-opacity="1" /><path clip-path="url(#clip970)" d="M 0 0 M145.116 462.097 L150.001 462.097 L150.001 467.977 L145.116 467.977 L145.116 462.097 Z" fill="#000000" fill-rule="evenodd" fill-opacity="1" /><path clip-path="url(#clip970)" d="M 0 0 M153.89 433.417 L176.112 433.417 L176.112 435.408 L163.565 467.977 L158.681 467.977 L170.487 437.352 L153.89 437.352 L153.89 433.417 Z" fill="#000000" fill-rule="evenodd" fill-opacity="1" /><path clip-path="url(#clip970)" d="M 0 0 M181.227 433.417 L199.584 433.417 L199.584 437.352 L185.51 437.352 L185.51 445.824 Q186.528 445.477 187.547 445.315 Q188.565 445.13 189.584 445.13 Q195.371 445.13 198.75 448.301 Q202.13 451.472 202.13 456.889 Q202.13 462.468 198.658 465.569 Q195.186 468.648 188.866 468.648 Q186.69 468.648 184.422 468.278 Q182.176 467.907 179.769 467.167 L179.769 462.468 Q181.852 463.602 184.075 464.157 Q186.297 464.713 188.774 464.713 Q192.778 464.713 195.116 462.606 Q197.454 460.5 197.454 456.889 Q197.454 453.278 195.116 451.171 Q192.778 449.065 188.774 449.065 Q186.899 449.065 185.024 449.482 Q183.172 449.898 181.227 450.778 L181.227 433.417 Z" fill="#000000" fill-rule="evenodd" fill-opacity="1" /><path clip-path="url(#clip970)" d="M 0 0 M118.242 183.735 L125.88 183.735 L125.88 157.369 L117.57 159.036 L117.57 154.777 L125.834 153.11 L130.51 153.11 L130.51 183.735 L138.149 183.735 L138.149 187.67 L118.242 187.67 L118.242 183.735 Z" fill="#000000" fill-rule="evenodd" fill-opacity="1" /><path clip-path="url(#clip970)" d="M 0 0 M143.218 181.79 L148.103 181.79 L148.103 187.67 L143.218 187.67 L143.218 181.79 Z" fill="#000000" fill-rule="evenodd" fill-opacity="1" /><path clip-path="url(#clip970)" d="M 0 0 M163.172 156.189 Q159.561 156.189 157.732 159.753 Q155.927 163.295 155.927 170.425 Q155.927 177.531 157.732 181.096 Q159.561 184.638 163.172 184.638 Q166.806 184.638 168.612 181.096 Q170.44 177.531 170.44 170.425 Q170.44 163.295 168.612 159.753 Q166.806 156.189 163.172 156.189 M163.172 152.485 Q168.982 152.485 172.038 157.091 Q175.116 161.675 175.116 170.425 Q175.116 179.152 172.038 183.758 Q168.982 188.341 163.172 188.341 Q157.362 188.341 154.283 183.758 Q151.228 179.152 151.228 170.425 Q151.228 161.675 154.283 157.091 Q157.362 152.485 163.172 152.485 Z" fill="#000000" fill-rule="evenodd" fill-opacity="1" /><path clip-path="url(#clip970)" d="M 0 0 M190.186 156.189 Q186.575 156.189 184.746 159.753 Q182.94 163.295 182.94 170.425 Q182.94 177.531 184.746 181.096 Q186.575 184.638 190.186 184.638 Q193.82 184.638 195.625 181.096 Q197.454 177.531 197.454 170.425 Q197.454 163.295 195.625 159.753 Q193.82 156.189 190.186 156.189 M190.186 152.485 Q195.996 152.485 199.051 157.091 Q202.13 161.675 202.13 170.425 Q202.13 179.152 199.051 183.758 Q195.996 188.341 190.186 188.341 Q184.376 188.341 181.297 183.758 Q178.241 179.152 178.241 170.425 Q178.241 161.675 181.297 157.091 Q184.376 152.485 190.186 152.485 Z" fill="#000000" fill-rule="evenodd" fill-opacity="1" /><path clip-path="url(#clip970)" d="M 0 0 M70.212 745.095 Q76.6732 745.095 80.3653 742.453 Q84.0256 739.779 84.0256 735.132 Q84.0256 730.485 80.3653 727.812 Q76.6732 725.138 70.212 725.138 Q63.7508 725.138 60.0905 727.812 Q56.3984 730.485 56.3984 735.132 Q56.3984 739.779 60.0905 742.453 Q63.7508 745.095 70.212 745.095 M82.657 725.138 Q85.8398 726.984 87.3994 729.817 Q88.9272 732.618 88.9272 736.565 Q88.9272 743.026 83.771 747.1 Q78.6147 751.142 70.212 751.142 Q61.8093 751.142 56.6531 747.1 Q51.4968 743.026 51.4968 736.565 Q51.4968 732.618 53.0564 729.817 Q54.5842 726.984 57.7671 725.138 L52.3562 725.138 L52.3562 719.282 L101.563 719.282 L101.563 725.138 L82.657 725.138 Z" fill="#000000" fill-rule="evenodd" fill-opacity="1" /><polyline clip-path="url(#clip972)" style="stroke:#009af9; stroke-width:4; stroke-opacity:1; fill:none" points="
  297.978,1291.62 300.669,1291.62 305.771,1291.62 310.872,1291.62 313.563,1291.62 316.255,1291.62 321.356,1291.62 326.458,1291.62 329.149,1291.62 331.84,1291.62 
  336.941,1291.62 342.043,1291.62 344.734,1291.62 347.425,1291.62 352.527,1291.62 357.628,1291.62 360.32,1291.62 363.011,1291.62 368.112,1291.62 373.214,1291.62 
  375.905,1291.62 378.596,1291.62 383.698,1291.62 388.799,1291.62 391.49,1291.62 394.181,1291.62 399.283,1291.62 404.385,1291.62 407.076,1291.62 409.767,1291.62 
  414.868,1291.62 419.97,1291.62 422.661,1291.62 425.352,1291.62 430.454,1291.62 435.555,1291.62 438.246,1291.62 440.938,1291.62 446.039,1291.62 451.141,1291.62 
  453.832,1291.62 456.523,1291.62 461.625,1291.62 466.726,1291.62 469.417,1291.62 472.108,1291.62 477.21,1291.62 482.311,1291.62 485.003,1291.62 487.694,1291.62 
  492.795,1291.62 497.897,1291.62 500.588,1291.62 503.279,1291.62 508.381,1291.62 513.482,1291.62 516.173,1291.62 518.865,1291.62 523.966,1291.62 529.068,1291.62 
  531.759,1291.62 534.45,1291.62 539.552,1291.62 544.653,1291.62 547.344,1291.62 550.035,1291.62 555.137,1291.62 560.238,1291.62 562.93,1291.62 565.621,1291.62 
  570.722,1291.62 575.824,1291.62 578.515,1291.62 581.206,1291.62 586.308,1291.62 591.409,1291.62 594.1,1291.62 596.792,1291.62 601.893,1291.62 606.995,1291.62 
  609.686,1291.62 612.377,1291.62 617.478,1291.62 622.58,1291.62 625.271,1291.62 627.962,1291.62 633.064,1291.62 638.165,1291.62 640.857,1291.62 643.548,1291.62 
  648.649,1291.62 653.751,1291.62 656.442,1291.62 659.133,1291.62 664.235,1291.62 669.336,1291.62 672.027,1291.62 674.719,1291.62 679.82,1291.62 684.922,1291.62 
  687.613,1291.62 690.304,1291.62 695.405,1291.62 700.507,1291.62 703.198,1291.62 705.889,1291.62 710.991,1291.62 716.092,1291.62 718.784,1291.62 721.475,1291.62 
  726.576,170.39 731.678,170.39 734.369,170.39 737.06,170.39 742.162,170.39 747.263,170.39 749.954,170.39 752.645,170.39 757.747,170.39 762.849,170.39 
  765.54,170.39 768.231,170.39 773.332,170.39 778.434,170.39 781.125,170.39 783.816,170.39 788.918,170.39 794.019,170.39 796.71,170.39 799.402,170.39 
  804.503,170.39 809.605,170.39 812.296,170.39 814.987,170.39 820.089,170.39 825.19,170.39 827.881,170.39 830.572,170.39 835.674,170.39 840.775,170.39 
  843.467,170.39 846.158,170.39 851.259,170.39 856.361,170.39 859.052,170.39 861.743,170.39 866.845,170.39 871.946,170.39 874.637,170.39 877.329,170.39 
  882.43,170.39 887.532,170.39 890.223,170.39 892.914,170.39 898.016,170.39 903.117,170.39 905.808,170.39 908.499,170.39 913.601,170.39 918.702,170.39 
  921.394,170.39 924.085,170.39 929.186,170.39 934.288,170.39 936.979,170.39 939.67,170.39 944.772,170.39 949.873,170.39 952.564,170.39 955.256,170.39 
  960.357,170.39 965.459,170.39 968.15,170.39 970.841,170.39 975.942,170.39 981.044,170.39 983.735,170.39 986.426,170.39 991.528,170.39 996.629,170.39 
  999.321,170.39 1002.01,170.39 1007.11,170.39 1012.21,1291.62 1014.91,1291.62 1017.6,1291.62 1022.7,1291.62 1027.8,1291.62 1030.49,1291.62 1033.18,1291.62 
  1038.28,1291.62 1043.39,1291.62 1046.08,1291.62 1048.77,1291.62 1053.87,1291.62 1058.97,1291.62 1061.66,1291.62 1064.35,1291.62 1069.45,1291.62 1074.56,1291.62 
  1077.25,1291.62 1079.94,1291.62 1085.04,1291.62 1090.14,1291.62 1092.83,1291.62 1095.52,1291.62 1100.63,1291.62 1105.73,1291.62 1108.42,1291.62 1111.11,1291.62 
  1116.21,1291.62 1121.31,1291.62 1124,1291.62 1126.69,1291.62 1131.8,1291.62 1136.9,1291.62 1139.59,1291.62 1142.28,1291.62 1147.38,1291.62 1152.48,1291.62 
  1155.17,1291.62 1157.87,1291.62 1162.97,1291.62 1168.07,1291.62 1170.76,1291.62 1173.45,1291.62 1178.55,1291.62 1183.65,1291.62 1186.35,1291.62 1189.04,1291.62 
  1194.14,1291.62 1199.24,1291.62 1201.93,1291.62 1204.62,1291.62 1209.72,1291.62 1214.82,1291.62 1217.52,1291.62 1220.21,1291.62 1225.31,1291.62 1230.41,1291.62 
  1233.1,1291.62 1235.79,1291.62 1240.89,1291.62 1246,1291.62 1248.69,1291.62 1251.38,1291.62 1256.48,1291.62 1261.58,1291.62 1264.27,1291.62 1266.96,1291.62 
  1272.06,1291.62 1277.17,1291.62 1279.86,1291.62 1282.55,1291.62 1287.65,1291.62 1292.75,1291.62 1295.44,1291.62 1298.13,1291.62 1303.24,1291.62 1308.34,1291.62 
  1311.03,1291.62 1313.72,1291.62 1318.82,1291.62 1323.92,1291.62 1326.61,1291.62 1329.3,1291.62 1334.41,1291.62 1339.51,1291.62 1342.2,1291.62 1344.89,1291.62 
  1349.99,1291.62 1355.09,1291.62 1357.78,1291.62 1360.48,1291.62 1365.58,1291.62 1370.68,1291.62 1373.37,1291.62 1376.06,1291.62 1381.16,1291.62 1386.26,1291.62 
  1388.96,1291.62 1391.65,1291.62 1396.75,1291.62 1401.85,1291.62 1404.54,1291.62 1407.23,1291.62 1412.33,1291.62 1417.43,1291.62 1420.13,1291.62 1422.82,1291.62 
  1427.92,1291.62 1433.02,1291.62 1435.71,1291.62 1438.4,1291.62 1443.5,1291.62 1448.61,1291.62 1451.3,1291.62 1453.99,1291.62 1459.09,1291.62 1464.19,1291.62 
  1466.88,1291.62 1469.57,1291.62 1474.67,1291.62 1479.78,1291.62 1482.47,1291.62 1485.16,1291.62 1490.26,1291.62 1495.36,1291.62 1498.05,1291.62 1500.74,1291.62 
  1505.85,1291.62 1510.95,1291.62 1513.64,1291.62 1516.33,1291.62 1521.43,1291.62 1526.53,1291.62 1529.22,1291.62 1531.92,1291.62 1537.02,1291.62 1542.12,1291.62 
  1544.81,1291.62 1547.5,1291.62 1552.6,1291.62 1557.7,1291.62 1560.39,1291.62 1563.09,1291.62 1568.19,1291.62 1573.29,1291.62 1575.98,1291.62 1578.67,1291.62 
  1583.77,1291.62 1588.87,1291.62 1591.57,1291.62 1594.26,1291.62 1599.36,1291.62 1604.46,1291.62 1607.15,1291.62 1609.84,1291.62 1614.94,1291.62 1620.05,1291.62 
  1622.74,1291.62 1625.43,1291.62 1630.53,1291.62 1635.63,1291.62 1638.32,1291.62 1641.01,1291.62 1646.11,1291.62 1651.22,1291.62 1653.91,1291.62 1656.6,1291.62 
  1661.7,1291.62 1666.8,1291.62 1669.49,1291.62 1672.18,1291.62 1677.29,1291.62 1682.39,1291.62 1685.08,1291.62 1687.77,1291.62 1692.87,1291.62 1697.97,1291.62 
  1700.66,1291.62 1703.35,1291.62 1708.46,1291.62 1713.56,1291.62 1716.25,1291.62 1718.94,1291.62 1724.04,1291.62 1729.14,1291.62 1731.83,1291.62 1734.53,1291.62 
  1739.63,1291.62 1744.73,1291.62 1747.42,1291.62 1750.11,1291.62 1755.21,1291.62 1760.31,1291.62 1763,1291.62 1765.7,1291.62 1770.8,1291.62 1775.9,1291.62 
  1778.59,1291.62 1781.28,1291.62 1786.38,1291.62 1791.48,1291.62 1794.18,1291.62 1796.87,1291.62 1801.97,1291.62 1807.07,1291.62 1809.76,1291.62 1812.45,1291.62 
  1817.55,1291.62 1822.66,1291.62 1825.35,1291.62 1828.04,1291.62 1833.14,1291.62 1838.24,1291.62 1840.93,1291.62 1843.62,1291.62 1848.72,1291.62 1853.83,1291.62 
  1856.52,1291.62 1859.21,1291.62 1864.31,1291.62 1869.41,1291.62 1872.1,1291.62 1874.79,1291.62 1879.9,1291.62 1885,1291.62 1887.69,1291.62 1890.38,1291.62 
  1895.48,1291.62 1900.58,1291.62 1903.27,1291.62 1905.96,1291.62 1911.07,1291.62 1916.17,1291.62 1918.86,1291.62 1921.55,1291.62 1926.65,1291.62 1931.75,1291.62 
  1934.44,1291.62 1937.14,1291.62 1942.24,1291.62 1947.34,1291.62 1950.03,1291.62 1952.72,1291.62 1957.82,1291.62 1962.92,1291.62 1965.61,1291.62 1968.31,1291.62 
  1973.41,1291.62 1978.51,1291.62 1981.2,1291.62 1983.89,1291.62 1988.99,1291.62 1994.09,1291.62 1996.79,1291.62 1999.48,1291.62 2004.58,1291.62 2009.68,1291.62 
  2012.37,1291.62 2015.06,1291.62 2020.16,1291.62 2025.27,1291.62 2027.96,1291.62 2030.65,1291.62 2035.75,1291.62 2040.85,1291.62 2043.54,1291.62 2046.23,1291.62 
  2051.33,1291.62 2056.44,1291.62 2059.13,1291.62 2061.82,1291.62 2066.92,1291.62 2072.02,1291.62 2074.71,1291.62 2077.4,1291.62 2082.51,1291.62 2087.61,1291.62 
  2090.3,1291.62 2092.99,1291.62 2098.09,1291.62 2103.19,1291.62 2105.88,1291.62 2108.57,1291.62 2113.68,1291.62 2118.78,1291.62 2121.47,1291.62 2124.16,1291.62 
  2129.26,1291.62 2134.36,1291.62 2137.05,1291.62 2139.75,1291.62 2144.85,1291.62 2149.95,1291.62 2152.64,1291.62 2155.33,1291.62 2160.43,1291.62 2165.53,1291.62 
  2168.22,1291.62 2170.92,1291.62 2176.02,1291.62 2181.12,1291.62 2183.81,1291.62 2186.5,1291.62 2191.6,1291.62 2196.7,1291.62 2199.4,1291.62 2202.09,1291.62 
  2207.19,1291.62 2212.29,1291.62 2214.98,1291.62 2217.67,1291.62 2222.77,1291.62 2227.88,1291.62 2230.57,1291.62 2233.26,1291.62 2238.36,1291.62 2243.46,1291.62 
  2246.15,1291.62 2248.84,1291.62 2253.94,1291.62 2259.05,1291.62 2261.74,1291.62 2264.43,1291.62 2269.53,1291.62 2274.63,1291.62 2277.32,1291.62 2280.01,1291.62 
  2285.12,1291.62 2290.22,1291.62 2292.91,1291.62 
  "/>
<polyline clip-path="url(#clip972)" style="stroke:#e26f46; stroke-width:4; stroke-opacity:1; fill:none" points="
  297.978,1291.62 300.669,1291.62 305.771,1291.62 310.872,1291.62 313.563,1291.62 316.255,1291.62 321.356,1291.62 326.458,1291.62 329.149,1291.62 331.84,1291.62 
  336.941,1291.62 342.043,1291.62 344.734,1291.62 347.425,1291.62 352.527,1291.62 357.628,1291.62 360.32,1291.62 363.011,1291.62 368.112,1291.62 373.214,1291.62 
  375.905,1291.62 378.596,1291.62 383.698,1291.62 388.799,1291.62 391.49,1291.62 394.181,1291.62 399.283,1291.62 404.385,1291.62 407.076,1291.62 409.767,1291.62 
  414.868,1291.62 419.97,1291.62 422.661,1291.62 425.352,1291.62 430.454,1291.62 435.555,1291.62 438.246,1291.62 440.938,1291.62 446.039,1291.62 451.141,1291.62 
  453.832,1291.62 456.523,1291.62 461.625,1291.62 466.726,1291.62 469.417,1291.62 472.108,1291.62 477.21,1291.62 482.311,1291.62 485.003,1291.62 487.694,1291.62 
  492.795,1291.62 497.897,1291.62 500.588,1291.62 503.279,1291.62 508.381,1291.62 513.482,1291.62 516.173,1291.62 518.865,1291.62 523.966,1291.62 529.068,1291.62 
  531.759,1291.62 534.45,1291.62 539.552,1291.62 544.653,1291.62 547.344,1291.62 550.035,1291.62 555.137,1291.62 560.238,1291.62 562.93,1291.62 565.621,1291.62 
  570.722,1291.62 575.824,1291.62 578.515,1291.62 581.206,1291.62 586.308,1291.62 591.409,1291.62 594.1,1291.62 596.792,1291.62 601.893,1291.62 606.995,1291.62 
  609.686,1291.62 612.377,1291.62 617.478,1291.62 622.58,1291.62 625.271,1291.62 627.962,1291.62 633.064,1291.62 638.165,1291.62 640.857,1291.62 643.548,1291.62 
  648.649,1291.62 653.751,1291.62 656.442,1291.62 659.133,1291.62 664.235,1291.62 669.336,1291.62 672.027,1291.62 674.719,1291.62 679.82,1291.62 684.922,1291.62 
  687.613,1291.62 690.304,1291.62 695.405,1291.62 700.507,1291.62 703.198,1291.62 705.889,1291.62 710.991,1291.62 716.092,1291.62 718.784,1291.62 721.475,1291.62 
  726.576,1291.62 731.678,1291.62 734.369,1291.62 737.06,1291.62 742.162,1291.62 747.263,1291.62 749.954,1291.62 752.645,1291.62 757.747,1291.62 762.849,1291.62 
  765.54,1291.62 768.231,1291.62 773.332,1291.62 778.434,1291.62 781.125,1291.62 783.816,1291.62 788.918,1291.62 794.019,1291.62 796.71,1291.62 799.402,1291.62 
  804.503,1291.62 809.605,1291.62 812.296,1291.62 814.987,1291.62 820.089,1291.62 825.19,1291.62 827.881,1291.62 830.572,1291.62 835.674,1291.62 840.775,1291.62 
  843.467,1291.62 846.158,1291.62 851.259,1291.62 856.361,1291.62 859.052,1291.62 861.743,1291.62 866.845,1291.62 871.946,1291.62 874.637,1291.62 877.329,1291.62 
  882.43,1291.62 887.532,1291.62 890.223,1291.62 892.914,1291.62 898.016,1291.62 903.117,1291.62 905.808,1291.62 908.499,1291.62 913.601,1291.62 918.702,1291.62 
  921.394,1291.62 924.085,1291.62 929.186,1291.62 934.288,1291.62 936.979,1291.62 939.67,1291.62 944.772,1291.62 949.873,1291.62 952.564,1291.62 955.256,1291.62 
  960.357,1291.62 965.459,1291.62 968.15,1291.62 970.841,1291.62 975.942,1291.62 981.044,1291.62 983.735,1291.62 986.426,1291.62 991.528,1291.62 996.629,1291.62 
  999.321,1291.62 1002.01,1291.62 1007.11,1291.62 1012.21,1291.62 1014.91,1291.62 1017.6,1291.62 1022.7,1291.62 1027.8,1291.62 1030.49,1291.62 1033.18,1291.62 
  1038.28,1291.62 1043.39,1291.62 1046.08,1291.62 1048.77,1291.62 1053.87,1291.62 1058.97,1291.62 1061.66,1291.62 1064.35,1291.62 1069.45,1291.62 1074.56,1291.62 
  1077.25,1291.62 1079.94,1291.61 1085.04,1291.62 1090.14,1291.62 1092.83,1291.62 1095.52,1291.62 1100.63,1291.63 1105.73,1291.62 1108.42,1291.62 1111.11,1291.61 
  1116.21,1291.6 1121.31,1291.59 1124,1291.59 1126.69,1291.61 1131.8,1291.64 1136.9,1291.68 1139.59,1291.7 1142.28,1291.69 1147.38,1291.64 1152.48,1291.54 
  1155.17,1291.47 1157.87,1291.41 1162.97,1291.4 1168.07,1291.56 1170.76,1291.67 1173.45,1291.91 1178.55,1292.24 1183.65,1292.26 1186.35,1292.23 1189.04,1291.77 
  1194.14,1290.8 1199.24,1289.88 1201.93,1289.44 1204.62,1289.58 1209.72,1290.82 1214.82,1293.37 1217.52,1294.87 1220.21,1296.72 1225.31,1297.96 1230.41,1295.35 
  1233.1,1293.2 1235.79,1287.62 1240.89,1278.02 1246,1271.65 1248.69,1269.39 1251.38,1273.87 1256.48,1290.79 1261.58,1318.24 1264.27,1333.18 1266.96,1352.79 
  1272.06,1366.57 1277.17,1340.35 1279.86,1311.49 1282.55,1254.19 1287.65,1105.91 1292.75,908.441 1295.44,790.483 1298.13,662.744 1303.24,441.339 1308.34,262.052 
  1311.03,183.506 1313.72,136.172 1318.82,86.2689 1323.92,86.1857 1326.61,102.697 1329.3,124.726 1334.41,163.797 1339.51,190.616 1342.2,200.531 1344.89,199.696 
  1349.99,192.411 1355.09,179.406 1357.78,170.649 1360.48,165.809 1365.58,160.552 1370.68,161.437 1373.37,163.992 1376.06,167.024 1381.16,171.684 1386.26,173.961 
  1388.96,174.348 1391.65,173.43 1396.75,171.558 1401.85,169.88 1404.54,169.055 1407.23,169.047 1412.33,169.348 1417.43,170.022 1420.13,170.516 1422.82,170.69 
  1427.92,170.836 1433.02,170.712 1435.71,170.537 1438.4,170.475 1443.5,170.414 1448.61,170.421 1451.3,170.473 1453.99,170.389 1459.09,170.158 1464.19,169.88 
  1466.88,169.716 1469.57,169.746 1474.67,170.162 1479.78,171.054 1482.47,171.59 1485.16,172.215 1490.26,172.544 1495.36,171.439 1498.05,170.619 1500.74,168.554 
  1505.85,165.376 1510.95,164.01 1513.64,163.759 1516.33,166.372 1521.43,173.528 1526.53,182.922 1529.22,187.972 1531.92,191.482 1537.02,189.577 1542.12,174.461 
  1544.81,164.153 1547.5,143.188 1552.6,111.17 1557.7,96.6813 1560.39,97.8454 1563.09,116.96 1568.19,196.836 1573.29,338.183 1575.98,431.805 1578.67,550.743 
  1583.77,780.174 1588.87,1000.63 1591.57,1111.18 1594.26,1198.57 1599.36,1319.35 1604.46,1376.09 1607.15,1384.24 1609.84,1372.83 1614.94,1339.93 1620.05,1302.24 
  1622.74,1280.99 1625.43,1271.06 1630.53,1262.2 1635.63,1267.74 1638.32,1275.49 1641.01,1283.48 1646.11,1295.66 1651.22,1301.49 1653.91,1302.42 1656.6,1300.16 
  1661.7,1295.31 1666.8,1290.73 1669.49,1288.39 1672.18,1288.06 1677.29,1288.47 1682.39,1290.17 1685.08,1291.52 1687.77,1292.23 1692.87,1292.99 1697.97,1292.78 
  1700.66,1292.34 1703.35,1291.89 1708.46,1291.27 1713.56,1291.07 1716.25,1291.11 1718.94,1291.3 1724.04,1291.61 1729.14,1291.8 1731.83,1291.86 1734.53,1291.8 
  1739.63,1291.69 1744.73,1291.58 1747.42,1291.53 1750.11,1291.54 1755.21,1291.56 1760.31,1291.61 1763,1291.64 1765.7,1291.65 1770.8,1291.65 1775.9,1291.63 
  1778.59,1291.61 1781.28,1291.61 1786.38,1291.6 1791.48,1291.61 1794.18,1291.62 1796.87,1291.62 1801.97,1291.62 1807.07,1291.62 1809.76,1291.62 1812.45,1291.62 
  1817.55,1291.62 1822.66,1291.62 1825.35,1291.62 1828.04,1291.62 1833.14,1291.62 1838.24,1291.62 1840.93,1291.62 1843.62,1291.62 1848.72,1291.62 1853.83,1291.62 
  1856.52,1291.62 1859.21,1291.62 1864.31,1291.62 1869.41,1291.62 1872.1,1291.62 1874.79,1291.62 1879.9,1291.62 1885,1291.62 1887.69,1291.62 1890.38,1291.62 
  1895.48,1291.62 1900.58,1291.62 1903.27,1291.62 1905.96,1291.62 1911.07,1291.62 1916.17,1291.62 1918.86,1291.62 1921.55,1291.62 1926.65,1291.62 1931.75,1291.62 
  1934.44,1291.62 1937.14,1291.62 1942.24,1291.62 1947.34,1291.62 1950.03,1291.62 1952.72,1291.62 1957.82,1291.62 1962.92,1291.62 1965.61,1291.62 1968.31,1291.62 
  1973.41,1291.62 1978.51,1291.62 1981.2,1291.62 1983.89,1291.62 1988.99,1291.62 1994.09,1291.62 1996.79,1291.62 1999.48,1291.62 2004.58,1291.62 2009.68,1291.62 
  2012.37,1291.62 2015.06,1291.62 2020.16,1291.62 2025.27,1291.62 2027.96,1291.62 2030.65,1291.62 2035.75,1291.62 2040.85,1291.62 2043.54,1291.62 2046.23,1291.62 
  2051.33,1291.62 2056.44,1291.62 2059.13,1291.62 2061.82,1291.62 2066.92,1291.62 2072.02,1291.62 2074.71,1291.62 2077.4,1291.62 2082.51,1291.62 2087.61,1291.62 
  2090.3,1291.62 2092.99,1291.62 2098.09,1291.62 2103.19,1291.62 2105.88,1291.62 2108.57,1291.62 2113.68,1291.62 2118.78,1291.62 2121.47,1291.62 2124.16,1291.62 
  2129.26,1291.62 2134.36,1291.62 2137.05,1291.62 2139.75,1291.62 2144.85,1291.62 2149.95,1291.62 2152.64,1291.62 2155.33,1291.62 2160.43,1291.62 2165.53,1291.62 
  2168.22,1291.62 2170.92,1291.62 2176.02,1291.62 2181.12,1291.62 2183.81,1291.62 2186.5,1291.62 2191.6,1291.62 2196.7,1291.62 2199.4,1291.62 2202.09,1291.62 
  2207.19,1291.62 2212.29,1291.62 2214.98,1291.62 2217.67,1291.62 2222.77,1291.62 2227.88,1291.62 2230.57,1291.62 2233.26,1291.62 2238.36,1291.62 2243.46,1291.62 
  2246.15,1291.62 2248.84,1291.62 2253.94,1291.62 2259.05,1291.62 2261.74,1291.62 2264.43,1291.62 2269.53,1291.62 2274.63,1291.62 2277.32,1291.62 2280.01,1291.62 
  2285.12,1291.62 2290.22,1291.62 2292.91,1291.62 
  "/>
<path clip-path="url(#clip970)" d="
M1802.38 274.549 L2282.27 274.549 L2282.27 93.1086 L1802.38 93.1086  Z
  " fill="#ffffff" fill-rule="evenodd" fill-opacity="1"/>
<polyline clip-path="url(#clip970)" style="stroke:#000000; stroke-width:4; stroke-opacity:1; fill:none" points="
  1802.38,274.549 2282.27,274.549 2282.27,93.1086 1802.38,93.1086 1802.38,274.549 
  "/>
<polyline clip-path="url(#clip970)" style="stroke:#009af9; stroke-width:4; stroke-opacity:1; fill:none" points="
  1825.88,153.589 1966.85,153.589 
  "/>
<path clip-path="url(#clip970)" d="M 0 0 M1994.75 157.929 Q1994.75 162.628 1996.67 165.313 Q1998.61 167.975 2001.99 167.975 Q2005.37 167.975 2007.31 165.313 Q2009.26 162.628 2009.26 157.929 Q2009.26 153.23 2007.31 150.568 Q2005.37 147.883 2001.99 147.883 Q1998.61 147.883 1996.67 150.568 Q1994.75 153.23 1994.75 157.929 M2009.26 166.98 Q2007.92 169.295 2005.86 170.429 Q2003.82 171.54 2000.95 171.54 Q1996.25 171.54 1993.29 167.79 Q1990.35 164.04 1990.35 157.929 Q1990.35 151.818 1993.29 148.068 Q1996.25 144.318 2000.95 144.318 Q2003.82 144.318 2005.86 145.452 Q2007.92 146.563 2009.26 148.878 L2009.26 144.943 L2013.52 144.943 L2013.52 180.73 L2009.26 180.73 L2009.26 166.98 Z" fill="#000000" fill-rule="evenodd" fill-opacity="1" /><path clip-path="url(#clip970)" d="M 0 0 M2019.07 164.989 L2023.96 164.989 L2023.96 168.97 L2020.16 176.378 L2017.18 176.378 L2019.07 168.97 L2019.07 164.989 Z" fill="#000000" fill-rule="evenodd" fill-opacity="1" /><path clip-path="url(#clip970)" d="M 0 0 M2047.71 137.582 L2047.71 144.943 L2056.48 144.943 L2056.48 148.253 L2047.71 148.253 L2047.71 162.327 Q2047.71 165.498 2048.56 166.401 Q2049.44 167.304 2052.11 167.304 L2056.48 167.304 L2056.48 170.869 L2052.11 170.869 Q2047.18 170.869 2045.3 169.04 Q2043.43 167.188 2043.43 162.327 L2043.43 148.253 L2040.3 148.253 L2040.3 144.943 L2043.43 144.943 L2043.43 137.582 L2047.71 137.582 Z" fill="#000000" fill-rule="evenodd" fill-opacity="1" /><path clip-path="url(#clip970)" d="M 0 0 M2061.5 149.341 L2091.18 149.341 L2091.18 153.23 L2061.5 153.23 L2061.5 149.341 M2061.5 158.785 L2091.18 158.785 L2091.18 162.721 L2061.5 162.721 L2061.5 158.785 Z" fill="#000000" fill-rule="evenodd" fill-opacity="1" /><path clip-path="url(#clip970)" d="M 0 0 M2106.25 139.387 Q2102.64 139.387 2100.81 142.952 Q2099 146.494 2099 153.623 Q2099 160.73 2100.81 164.295 Q2102.64 167.836 2106.25 167.836 Q2109.88 167.836 2111.69 164.295 Q2113.52 160.73 2113.52 153.623 Q2113.52 146.494 2111.69 142.952 Q2109.88 139.387 2106.25 139.387 M2106.25 135.684 Q2112.06 135.684 2115.12 140.29 Q2118.19 144.873 2118.19 153.623 Q2118.19 162.35 2115.12 166.957 Q2112.06 171.54 2106.25 171.54 Q2100.44 171.54 2097.36 166.957 Q2094.31 162.35 2094.31 153.623 Q2094.31 144.873 2097.36 140.29 Q2100.44 135.684 2106.25 135.684 Z" fill="#000000" fill-rule="evenodd" fill-opacity="1" /><path clip-path="url(#clip970)" d="M 0 0 M2123.26 164.989 L2128.15 164.989 L2128.15 170.869 L2123.26 170.869 L2123.26 164.989 Z" fill="#000000" fill-rule="evenodd" fill-opacity="1" /><path clip-path="url(#clip970)" d="M 0 0 M2143.22 139.387 Q2139.61 139.387 2137.78 142.952 Q2135.97 146.494 2135.97 153.623 Q2135.97 160.73 2137.78 164.295 Q2139.61 167.836 2143.22 167.836 Q2146.85 167.836 2148.66 164.295 Q2150.49 160.73 2150.49 153.623 Q2150.49 146.494 2148.66 142.952 Q2146.85 139.387 2143.22 139.387 M2143.22 135.684 Q2149.03 135.684 2152.08 140.29 Q2155.16 144.873 2155.16 153.623 Q2155.16 162.35 2152.08 166.957 Q2149.03 171.54 2143.22 171.54 Q2137.41 171.54 2134.33 166.957 Q2131.27 162.35 2131.27 153.623 Q2131.27 144.873 2134.33 140.29 Q2137.41 135.684 2143.22 135.684 Z" fill="#000000" fill-rule="evenodd" fill-opacity="1" /><polyline clip-path="url(#clip970)" style="stroke:#e26f46; stroke-width:4; stroke-opacity:1; fill:none" points="
  1825.88,214.069 1966.85,214.069 
  "/>
<path clip-path="url(#clip970)" d="M 0 0 M1994.75 218.409 Q1994.75 223.108 1996.67 225.793 Q1998.61 228.455 2001.99 228.455 Q2005.37 228.455 2007.31 225.793 Q2009.26 223.108 2009.26 218.409 Q2009.26 213.71 2007.31 211.048 Q2005.37 208.363 2001.99 208.363 Q1998.61 208.363 1996.67 211.048 Q1994.75 213.71 1994.75 218.409 M2009.26 227.46 Q2007.92 229.775 2005.86 230.909 Q2003.82 232.02 2000.95 232.02 Q1996.25 232.02 1993.29 228.27 Q1990.35 224.52 1990.35 218.409 Q1990.35 212.298 1993.29 208.548 Q1996.25 204.798 2000.95 204.798 Q2003.82 204.798 2005.86 205.932 Q2007.92 207.043 2009.26 209.358 L2009.26 205.423 L2013.52 205.423 L2013.52 241.21 L2009.26 241.21 L2009.26 227.46 Z" fill="#000000" fill-rule="evenodd" fill-opacity="1" /><path clip-path="url(#clip970)" d="M 0 0 M2019.07 225.469 L2023.96 225.469 L2023.96 229.45 L2020.16 236.858 L2017.18 236.858 L2019.07 229.45 L2019.07 225.469 Z" fill="#000000" fill-rule="evenodd" fill-opacity="1" /><path clip-path="url(#clip970)" d="M 0 0 M2047.71 198.062 L2047.71 205.423 L2056.48 205.423 L2056.48 208.733 L2047.71 208.733 L2047.71 222.807 Q2047.71 225.978 2048.56 226.881 Q2049.44 227.784 2052.11 227.784 L2056.48 227.784 L2056.48 231.349 L2052.11 231.349 Q2047.18 231.349 2045.3 229.52 Q2043.43 227.668 2043.43 222.807 L2043.43 208.733 L2040.3 208.733 L2040.3 205.423 L2043.43 205.423 L2043.43 198.062 L2047.71 198.062 Z" fill="#000000" fill-rule="evenodd" fill-opacity="1" /><path clip-path="url(#clip970)" d="M 0 0 M2061.5 209.821 L2091.18 209.821 L2091.18 213.71 L2061.5 213.71 L2061.5 209.821 M2061.5 219.265 L2091.18 219.265 L2091.18 223.201 L2061.5 223.201 L2061.5 219.265 Z" fill="#000000" fill-rule="evenodd" fill-opacity="1" /><path clip-path="url(#clip970)" d="M 0 0 M2109.1 200.863 L2097.29 219.312 L2109.1 219.312 L2109.1 200.863 M2107.87 196.789 L2113.75 196.789 L2113.75 219.312 L2118.68 219.312 L2118.68 223.201 L2113.75 223.201 L2113.75 231.349 L2109.1 231.349 L2109.1 223.201 L2093.5 223.201 L2093.5 218.687 L2107.87 196.789 Z" fill="#000000" fill-rule="evenodd" fill-opacity="1" /><path clip-path="url(#clip970)" d="M 0 0 M2123.8 196.789 L2142.15 196.789 L2142.15 200.724 L2128.08 200.724 L2128.08 209.196 Q2129.1 208.849 2130.12 208.687 Q2131.13 208.502 2132.15 208.502 Q2137.94 208.502 2141.32 211.673 Q2144.7 214.844 2144.7 220.261 Q2144.7 225.839 2141.23 228.941 Q2137.75 232.02 2131.43 232.02 Q2129.26 232.02 2126.99 231.65 Q2124.74 231.279 2122.34 230.538 L2122.34 225.839 Q2124.42 226.974 2126.64 227.529 Q2128.87 228.085 2131.34 228.085 Q2135.35 228.085 2137.68 225.978 Q2140.02 223.872 2140.02 220.261 Q2140.02 216.65 2137.68 214.543 Q2135.35 212.437 2131.34 212.437 Q2129.47 212.437 2127.59 212.853 Q2125.74 213.27 2123.8 214.15 L2123.8 196.789 Z" fill="#000000" fill-rule="evenodd" fill-opacity="1" /><path clip-path="url(#clip970)" d="M 0 0 M2159.77 199.867 Q2156.16 199.867 2154.33 203.432 Q2152.52 206.974 2152.52 214.103 Q2152.52 221.21 2154.33 224.775 Q2156.16 228.316 2159.77 228.316 Q2163.4 228.316 2165.21 224.775 Q2167.04 221.21 2167.04 214.103 Q2167.04 206.974 2165.21 203.432 Q2163.4 199.867 2159.77 199.867 M2159.77 196.164 Q2165.58 196.164 2168.63 200.77 Q2171.71 205.353 2171.71 214.103 Q2171.71 222.83 2168.63 227.437 Q2165.58 232.02 2159.77 232.02 Q2153.96 232.02 2150.88 227.437 Q2147.82 222.83 2147.82 214.103 Q2147.82 205.353 2150.88 200.77 Q2153.96 196.164 2159.77 196.164 Z" fill="#000000" fill-rule="evenodd" fill-opacity="1" /><path clip-path="url(#clip970)" d="M 0 0 M2176.78 225.469 L2181.67 225.469 L2181.67 231.349 L2176.78 231.349 L2176.78 225.469 Z" fill="#000000" fill-rule="evenodd" fill-opacity="1" /><path clip-path="url(#clip970)" d="M 0 0 M2199.58 200.863 L2187.78 219.312 L2199.58 219.312 L2199.58 200.863 M2198.36 196.789 L2204.24 196.789 L2204.24 219.312 L2209.17 219.312 L2209.17 223.201 L2204.24 223.201 L2204.24 231.349 L2199.58 231.349 L2199.58 223.201 L2183.98 223.201 L2183.98 218.687 L2198.36 196.789 Z" fill="#000000" fill-rule="evenodd" fill-opacity="1" /><path clip-path="url(#clip970)" d="M 0 0 M2213.05 196.789 L2235.28 196.789 L2235.28 198.779 L2222.73 231.349 L2217.85 231.349 L2229.65 200.724 L2213.05 200.724 L2213.05 196.789 Z" fill="#000000" fill-rule="evenodd" fill-opacity="1" /></svg>
