<?xml version="1.0" encoding="utf-8"?>
<svg xmlns="http://www.w3.org/2000/svg" xmlns:xlink="http://www.w3.org/1999/xlink" width="600" height="400" viewBox="0 0 2400 1600">
<defs>
  <clipPath id="clip210">
    <rect x="0" y="0" width="2400" height="1600"/>
  </clipPath>
</defs>
<path clip-path="url(#clip210)" d="
M0 1600 L2400 1600 L2400 0 L0 0  Z
  " fill="#ffffff" fill-rule="evenodd" fill-opacity="1"/>
<defs>
  <clipPath id="clip211">
    <rect x="480" y="0" width="1681" height="1600"/>
  </clipPath>
</defs>
<path clip-path="url(#clip210)" d="
M238.13 1423.18 L2352.76 1423.18 L2352.76 47.2441 L238.13 47.2441  Z
  " fill="#ffffff" fill-rule="evenodd" fill-opacity="1"/>
<defs>
  <clipPath id="clip212">
    <rect x="238" y="47" width="2116" height="1377"/>
  </clipPath>
</defs>
<polyline clip-path="url(#clip212)" style="stroke:#000000; stroke-width:2; stroke-opacity:0.1; fill:none" points="
  297.978,1423.18 297.978,47.2441 
  "/>
<polyline clip-path="url(#clip212)" style="stroke:#000000; stroke-width:2; stroke-opacity:0.1; fill:none" points="
  867.958,1423.18 867.958,47.2441 
  "/>
<polyline clip-path="url(#clip212)" style="stroke:#000000; stroke-width:2; stroke-opacity:0.1; fill:none" points="
  1437.94,1423.18 1437.94,47.2441 
  "/>
<polyline clip-path="url(#clip212)" style="stroke:#000000; stroke-width:2; stroke-opacity:0.1; fill:none" points="
  2007.92,1423.18 2007.92,47.2441 
  "/>
<polyline clip-path="url(#clip210)" style="stroke:#000000; stroke-width:4; stroke-opacity:1; fill:none" points="
  238.13,1423.18 2352.76,1423.18 
  "/>
<polyline clip-path="url(#clip210)" style="stroke:#000000; stroke-width:4; stroke-opacity:1; fill:none" points="
  297.978,1423.18 297.978,1406.67 
  "/>
<polyline clip-path="url(#clip210)" style="stroke:#000000; stroke-width:4; stroke-opacity:1; fill:none" points="
  867.958,1423.18 867.958,1406.67 
  "/>
<polyline clip-path="url(#clip210)" style="stroke:#000000; stroke-width:4; stroke-opacity:1; fill:none" points="
  1437.94,1423.18 1437.94,1406.67 
  "/>
<polyline clip-path="url(#clip210)" style="stroke:#000000; stroke-width:4; stroke-opacity:1; fill:none" points="
  2007.92,1423.18 2007.92,1406.67 
  "/>
<path clip-path="url(#clip210)" d="M 0 0 M297.978 1452.37 Q294.367 1452.37 292.538 1455.94 Q290.733 1459.48 290.733 1466.61 Q290.733 1473.71 292.538 1477.28 Q294.367 1480.82 297.978 1480.82 Q301.612 1480.82 303.418 1477.28 Q305.246 1473.71 305.246 1466.61 Q305.246 1459.48 303.418 1455.94 Q301.612 1452.37 297.978 1452.37 M297.978 1448.67 Q303.788 1448.67 306.844 1453.27 Q309.922 1457.86 309.922 1466.61 Q309.922 1475.33 306.844 1479.94 Q303.788 1484.52 297.978 1484.52 Q292.168 1484.52 289.089 1479.94 Q286.034 1475.33 286.034 1466.61 Q286.034 1457.86 289.089 1453.27 Q292.168 1448.67 297.978 1448.67 Z" fill="#000000" fill-rule="evenodd" fill-opacity="1" /><path clip-path="url(#clip210)" d="M 0 0 M831.326 1479.92 L838.965 1479.92 L838.965 1453.55 L830.655 1455.22 L830.655 1450.96 L838.919 1449.29 L843.595 1449.29 L843.595 1479.92 L851.234 1479.92 L851.234 1483.85 L831.326 1483.85 L831.326 1479.92 Z" fill="#000000" fill-rule="evenodd" fill-opacity="1" /><path clip-path="url(#clip210)" d="M 0 0 M866.303 1452.37 Q862.692 1452.37 860.863 1455.94 Q859.058 1459.48 859.058 1466.61 Q859.058 1473.71 860.863 1477.28 Q862.692 1480.82 866.303 1480.82 Q869.937 1480.82 871.743 1477.28 Q873.571 1473.71 873.571 1466.61 Q873.571 1459.48 871.743 1455.94 Q869.937 1452.37 866.303 1452.37 M866.303 1448.67 Q872.113 1448.67 875.169 1453.27 Q878.247 1457.86 878.247 1466.61 Q878.247 1475.33 875.169 1479.94 Q872.113 1484.52 866.303 1484.52 Q860.493 1484.52 857.414 1479.94 Q854.359 1475.33 854.359 1466.61 Q854.359 1457.86 857.414 1453.27 Q860.493 1448.67 866.303 1448.67 Z" fill="#000000" fill-rule="evenodd" fill-opacity="1" /><path clip-path="url(#clip210)" d="M 0 0 M893.317 1452.37 Q889.706 1452.37 887.877 1455.94 Q886.071 1459.48 886.071 1466.61 Q886.071 1473.71 887.877 1477.28 Q889.706 1480.82 893.317 1480.82 Q896.951 1480.82 898.756 1477.28 Q900.585 1473.71 900.585 1466.61 Q900.585 1459.48 898.756 1455.94 Q896.951 1452.37 893.317 1452.37 M893.317 1448.67 Q899.127 1448.67 902.182 1453.27 Q905.261 1457.86 905.261 1466.61 Q905.261 1475.33 902.182 1479.94 Q899.127 1484.52 893.317 1484.52 Q887.506 1484.52 884.428 1479.94 Q881.372 1475.33 881.372 1466.61 Q881.372 1457.86 884.428 1453.27 Q887.506 1448.67 893.317 1448.67 Z" fill="#000000" fill-rule="evenodd" fill-opacity="1" /><path clip-path="url(#clip210)" d="M 0 0 M1405.58 1479.92 L1421.9 1479.92 L1421.9 1483.85 L1399.95 1483.85 L1399.95 1479.92 Q1402.61 1477.16 1407.2 1472.53 Q1411.8 1467.88 1412.98 1466.54 Q1415.23 1464.01 1416.11 1462.28 Q1417.01 1460.52 1417.01 1458.83 Q1417.01 1456.07 1415.07 1454.34 Q1413.15 1452.6 1410.04 1452.6 Q1407.85 1452.6 1405.39 1453.37 Q1402.96 1454.13 1400.18 1455.68 L1400.18 1450.96 Q1403.01 1449.82 1405.46 1449.25 Q1407.91 1448.67 1409.95 1448.67 Q1415.32 1448.67 1418.52 1451.35 Q1421.71 1454.04 1421.71 1458.53 Q1421.71 1460.66 1420.9 1462.58 Q1420.11 1464.48 1418.01 1467.07 Q1417.43 1467.74 1414.33 1470.96 Q1411.23 1474.15 1405.58 1479.92 Z" fill="#000000" fill-rule="evenodd" fill-opacity="1" /><path clip-path="url(#clip210)" d="M 0 0 M1436.97 1452.37 Q1433.35 1452.37 1431.53 1455.94 Q1429.72 1459.48 1429.72 1466.61 Q1429.72 1473.71 1431.53 1477.28 Q1433.35 1480.82 1436.97 1480.82 Q1440.6 1480.82 1442.41 1477.28 Q1444.23 1473.71 1444.23 1466.61 Q1444.23 1459.48 1442.41 1455.94 Q1440.6 1452.37 1436.97 1452.37 M1436.97 1448.67 Q1442.78 1448.67 1445.83 1453.27 Q1448.91 1457.86 1448.91 1466.61 Q1448.91 1475.33 1445.83 1479.94 Q1442.78 1484.52 1436.97 1484.52 Q1431.16 1484.52 1428.08 1479.94 Q1425.02 1475.33 1425.02 1466.61 Q1425.02 1457.86 1428.08 1453.27 Q1431.16 1448.67 1436.97 1448.67 Z" fill="#000000" fill-rule="evenodd" fill-opacity="1" /><path clip-path="url(#clip210)" d="M 0 0 M1463.98 1452.37 Q1460.37 1452.37 1458.54 1455.94 Q1456.73 1459.48 1456.73 1466.61 Q1456.73 1473.71 1458.54 1477.28 Q1460.37 1480.82 1463.98 1480.82 Q1467.61 1480.82 1469.42 1477.28 Q1471.25 1473.71 1471.25 1466.61 Q1471.25 1459.48 1469.42 1455.94 Q1467.61 1452.37 1463.98 1452.37 M1463.98 1448.67 Q1469.79 1448.67 1472.85 1453.27 Q1475.92 1457.86 1475.92 1466.61 Q1475.92 1475.33 1472.85 1479.94 Q1469.79 1484.52 1463.98 1484.52 Q1458.17 1484.52 1455.09 1479.94 Q1452.04 1475.33 1452.04 1466.61 Q1452.04 1457.86 1455.09 1453.27 Q1458.17 1448.67 1463.98 1448.67 Z" fill="#000000" fill-rule="evenodd" fill-opacity="1" /><path clip-path="url(#clip210)" d="M 0 0 M1985.15 1465.22 Q1988.51 1465.94 1990.38 1468.2 Q1992.28 1470.47 1992.28 1473.81 Q1992.28 1478.92 1988.76 1481.72 Q1985.24 1484.52 1978.76 1484.52 Q1976.59 1484.52 1974.27 1484.08 Q1971.98 1483.67 1969.53 1482.81 L1969.53 1478.3 Q1971.47 1479.43 1973.79 1480.01 Q1976.1 1480.59 1978.62 1480.59 Q1983.02 1480.59 1985.31 1478.85 Q1987.63 1477.12 1987.63 1473.81 Q1987.63 1470.75 1985.48 1469.04 Q1983.35 1467.3 1979.53 1467.3 L1975.5 1467.3 L1975.5 1463.46 L1979.71 1463.46 Q1983.16 1463.46 1984.99 1462.09 Q1986.82 1460.7 1986.82 1458.11 Q1986.82 1455.45 1984.92 1454.04 Q1983.05 1452.6 1979.53 1452.6 Q1977.61 1452.6 1975.41 1453.02 Q1973.21 1453.44 1970.57 1454.31 L1970.57 1450.15 Q1973.23 1449.41 1975.55 1449.04 Q1977.88 1448.67 1979.94 1448.67 Q1985.27 1448.67 1988.37 1451.1 Q1991.47 1453.5 1991.47 1457.63 Q1991.47 1460.5 1989.83 1462.49 Q1988.18 1464.45 1985.15 1465.22 Z" fill="#000000" fill-rule="evenodd" fill-opacity="1" /><path clip-path="url(#clip210)" d="M 0 0 M2007.35 1452.37 Q2003.74 1452.37 2001.91 1455.94 Q2000.11 1459.48 2000.11 1466.61 Q2000.11 1473.71 2001.91 1477.28 Q2003.74 1480.82 2007.35 1480.82 Q2010.99 1480.82 2012.79 1477.28 Q2014.62 1473.71 2014.62 1466.61 Q2014.62 1459.48 2012.79 1455.94 Q2010.99 1452.37 2007.35 1452.37 M2007.35 1448.67 Q2013.16 1448.67 2016.22 1453.27 Q2019.3 1457.86 2019.3 1466.61 Q2019.3 1475.33 2016.22 1479.94 Q2013.16 1484.52 2007.35 1484.52 Q2001.54 1484.52 1998.46 1479.94 Q1995.41 1475.33 1995.41 1466.61 Q1995.41 1457.86 1998.46 1453.27 Q2001.54 1448.67 2007.35 1448.67 Z" fill="#000000" fill-rule="evenodd" fill-opacity="1" /><path clip-path="url(#clip210)" d="M 0 0 M2034.36 1452.37 Q2030.75 1452.37 2028.92 1455.94 Q2027.12 1459.48 2027.12 1466.61 Q2027.12 1473.71 2028.92 1477.28 Q2030.75 1480.82 2034.36 1480.82 Q2038 1480.82 2039.8 1477.28 Q2041.63 1473.71 2041.63 1466.61 Q2041.63 1459.48 2039.8 1455.94 Q2038 1452.37 2034.36 1452.37 M2034.36 1448.67 Q2040.17 1448.67 2043.23 1453.27 Q2046.31 1457.86 2046.31 1466.61 Q2046.31 1475.33 2043.23 1479.94 Q2040.17 1484.52 2034.36 1484.52 Q2028.55 1484.52 2025.48 1479.94 Q2022.42 1475.33 2022.42 1466.61 Q2022.42 1457.86 2025.48 1453.27 Q2028.55 1448.67 2034.36 1448.67 Z" fill="#000000" fill-rule="evenodd" fill-opacity="1" /><path clip-path="url(#clip210)" d="M 0 0 M1312.06 1520.4 L1299.17 1537.74 L1312.73 1556.04 L1305.82 1556.04 L1295.44 1542.04 L1285.07 1556.04 L1278.16 1556.04 L1292.01 1537.39 L1279.34 1520.4 L1286.24 1520.4 L1295.7 1533.1 L1305.15 1520.4 L1312.06 1520.4 Z" fill="#000000" fill-rule="evenodd" fill-opacity="1" /><polyline clip-path="url(#clip212)" style="stroke:#000000; stroke-width:2; stroke-opacity:0.1; fill:none" points="
  238.13,1382.6 2352.76,1382.6 
  "/>
<polyline clip-path="url(#clip212)" style="stroke:#000000; stroke-width:2; stroke-opacity:0.1; fill:none" points="
  238.13,1076.68 2352.76,1076.68 
  "/>
<polyline clip-path="url(#clip212)" style="stroke:#000000; stroke-width:2; stroke-opacity:0.1; fill:none" points="
  238.13,770.748 2352.76,770.748 
  "/>
<polyline clip-path="url(#clip212)" style="stroke:#000000; stroke-width:2; stroke-opacity:0.1; fill:none" points="
  238.13,464.82 2352.76,464.82 
  "/>
<polyline clip-path="url(#clip212)" style="stroke:#000000; stroke-width:2; stroke-opacity:0.1; fill:none" points="
  238.13,158.892 2352.76,158.892 
  "/>
<polyline clip-path="url(#clip210)" style="stroke:#000000; stroke-width:4; stroke-opacity:1; fill:none" points="
  238.13,1423.18 238.13,47.2441 
  "/>
<polyline clip-path="url(#clip210)" style="stroke:#000000; stroke-width:4; stroke-opacity:1; fill:none" points="
  238.13,1382.6 263.506,1382.6 
  "/>
<polyline clip-path="url(#clip210)" style="stroke:#000000; stroke-width:4; stroke-opacity:1; fill:none" points="
  238.13,1076.68 263.506,1076.68 
  "/>
<polyline clip-path="url(#clip210)" style="stroke:#000000; stroke-width:4; stroke-opacity:1; fill:none" points="
  238.13,770.748 263.506,770.748 
  "/>
<polyline clip-path="url(#clip210)" style="stroke:#000000; stroke-width:4; stroke-opacity:1; fill:none" points="
  238.13,464.82 263.506,464.82 
  "/>
<polyline clip-path="url(#clip210)" style="stroke:#000000; stroke-width:4; stroke-opacity:1; fill:none" points="
  238.13,158.892 263.506,158.892 
  "/>
<path clip-path="url(#clip210)" d="M 0 0 M126.205 1368.4 Q122.593 1368.4 120.765 1371.97 Q118.959 1375.51 118.959 1382.64 Q118.959 1389.74 120.765 1393.31 Q122.593 1396.85 126.205 1396.85 Q129.839 1396.85 131.644 1393.31 Q133.473 1389.74 133.473 1382.64 Q133.473 1375.51 131.644 1371.97 Q129.839 1368.4 126.205 1368.4 M126.205 1364.7 Q132.015 1364.7 135.07 1369.3 Q138.149 1373.89 138.149 1382.64 Q138.149 1391.36 135.07 1395.97 Q132.015 1400.55 126.205 1400.55 Q120.394 1400.55 117.316 1395.97 Q114.26 1391.36 114.26 1382.64 Q114.26 1373.89 117.316 1369.3 Q120.394 1364.7 126.205 1364.7 Z" fill="#000000" fill-rule="evenodd" fill-opacity="1" /><path clip-path="url(#clip210)" d="M 0 0 M143.218 1394 L148.103 1394 L148.103 1399.88 L143.218 1399.88 L143.218 1394 Z" fill="#000000" fill-rule="evenodd" fill-opacity="1" /><path clip-path="url(#clip210)" d="M 0 0 M163.172 1368.4 Q159.561 1368.4 157.732 1371.97 Q155.927 1375.51 155.927 1382.64 Q155.927 1389.74 157.732 1393.31 Q159.561 1396.85 163.172 1396.85 Q166.806 1396.85 168.612 1393.31 Q170.44 1389.74 170.44 1382.64 Q170.44 1375.51 168.612 1371.97 Q166.806 1368.4 163.172 1368.4 M163.172 1364.7 Q168.982 1364.7 172.038 1369.3 Q175.116 1373.89 175.116 1382.64 Q175.116 1391.36 172.038 1395.97 Q168.982 1400.55 163.172 1400.55 Q157.362 1400.55 154.283 1395.97 Q151.228 1391.36 151.228 1382.64 Q151.228 1373.89 154.283 1369.3 Q157.362 1364.7 163.172 1364.7 Z" fill="#000000" fill-rule="evenodd" fill-opacity="1" /><path clip-path="url(#clip210)" d="M 0 0 M190.186 1368.4 Q186.575 1368.4 184.746 1371.97 Q182.94 1375.51 182.94 1382.64 Q182.94 1389.74 184.746 1393.31 Q186.575 1396.85 190.186 1396.85 Q193.82 1396.85 195.625 1393.31 Q197.454 1389.74 197.454 1382.64 Q197.454 1375.51 195.625 1371.97 Q193.82 1368.4 190.186 1368.4 M190.186 1364.7 Q195.996 1364.7 199.051 1369.3 Q202.13 1373.89 202.13 1382.64 Q202.13 1391.36 199.051 1395.97 Q195.996 1400.55 190.186 1400.55 Q184.376 1400.55 181.297 1395.97 Q178.241 1391.36 178.241 1382.64 Q178.241 1373.89 181.297 1369.3 Q184.376 1364.7 190.186 1364.7 Z" fill="#000000" fill-rule="evenodd" fill-opacity="1" /><path clip-path="url(#clip210)" d="M 0 0 M128.797 1062.47 Q125.186 1062.47 123.357 1066.04 Q121.552 1069.58 121.552 1076.71 Q121.552 1083.82 123.357 1087.38 Q125.186 1090.92 128.797 1090.92 Q132.431 1090.92 134.237 1087.38 Q136.066 1083.82 136.066 1076.71 Q136.066 1069.58 134.237 1066.04 Q132.431 1062.47 128.797 1062.47 M128.797 1058.77 Q134.607 1058.77 137.663 1063.38 Q140.741 1067.96 140.741 1076.71 Q140.741 1085.44 137.663 1090.04 Q134.607 1094.63 128.797 1094.63 Q122.987 1094.63 119.908 1090.04 Q116.853 1085.44 116.853 1076.71 Q116.853 1067.96 119.908 1063.38 Q122.987 1058.77 128.797 1058.77 Z" fill="#000000" fill-rule="evenodd" fill-opacity="1" /><path clip-path="url(#clip210)" d="M 0 0 M145.811 1088.08 L150.695 1088.08 L150.695 1093.96 L145.811 1093.96 L145.811 1088.08 Z" fill="#000000" fill-rule="evenodd" fill-opacity="1" /><path clip-path="url(#clip210)" d="M 0 0 M159.792 1090.02 L176.112 1090.02 L176.112 1093.96 L154.167 1093.96 L154.167 1090.02 Q156.829 1087.27 161.413 1082.64 Q166.019 1077.98 167.2 1076.64 Q169.445 1074.12 170.325 1072.38 Q171.227 1070.62 171.227 1068.93 Q171.227 1066.18 169.283 1064.44 Q167.362 1062.71 164.26 1062.71 Q162.061 1062.71 159.607 1063.47 Q157.177 1064.23 154.399 1065.78 L154.399 1061.06 Q157.223 1059.93 159.677 1059.35 Q162.13 1058.77 164.167 1058.77 Q169.538 1058.77 172.732 1061.46 Q175.926 1064.14 175.926 1068.63 Q175.926 1070.76 175.116 1072.68 Q174.329 1074.58 172.223 1077.17 Q171.644 1077.84 168.542 1081.06 Q165.44 1084.26 159.792 1090.02 Z" fill="#000000" fill-rule="evenodd" fill-opacity="1" /><path clip-path="url(#clip210)" d="M 0 0 M181.227 1059.4 L199.584 1059.4 L199.584 1063.33 L185.51 1063.33 L185.51 1071.8 Q186.528 1071.46 187.547 1071.29 Q188.565 1071.11 189.584 1071.11 Q195.371 1071.11 198.75 1074.28 Q202.13 1077.45 202.13 1082.87 Q202.13 1088.45 198.658 1091.55 Q195.186 1094.63 188.866 1094.63 Q186.69 1094.63 184.422 1094.26 Q182.176 1093.89 179.769 1093.15 L179.769 1088.45 Q181.852 1089.58 184.075 1090.14 Q186.297 1090.69 188.774 1090.69 Q192.778 1090.69 195.116 1088.59 Q197.454 1086.48 197.454 1082.87 Q197.454 1079.26 195.116 1077.15 Q192.778 1075.04 188.774 1075.04 Q186.899 1075.04 185.024 1075.46 Q183.172 1075.88 181.227 1076.76 L181.227 1059.4 Z" fill="#000000" fill-rule="evenodd" fill-opacity="1" /><path clip-path="url(#clip210)" d="M 0 0 M127.2 756.546 Q123.589 756.546 121.76 760.111 Q119.955 763.653 119.955 770.783 Q119.955 777.889 121.76 781.454 Q123.589 784.995 127.2 784.995 Q130.834 784.995 132.64 781.454 Q134.468 777.889 134.468 770.783 Q134.468 763.653 132.64 760.111 Q130.834 756.546 127.2 756.546 M127.2 752.843 Q133.01 752.843 136.066 757.449 Q139.144 762.033 139.144 770.783 Q139.144 779.509 136.066 784.116 Q133.01 788.699 127.2 788.699 Q121.39 788.699 118.311 784.116 Q115.256 779.509 115.256 770.783 Q115.256 762.033 118.311 757.449 Q121.39 752.843 127.2 752.843 Z" fill="#000000" fill-rule="evenodd" fill-opacity="1" /><path clip-path="url(#clip210)" d="M 0 0 M144.214 782.148 L149.098 782.148 L149.098 788.028 L144.214 788.028 L144.214 782.148 Z" fill="#000000" fill-rule="evenodd" fill-opacity="1" /><path clip-path="url(#clip210)" d="M 0 0 M154.214 753.468 L172.57 753.468 L172.57 757.403 L158.496 757.403 L158.496 765.875 Q159.515 765.528 160.533 765.366 Q161.552 765.181 162.57 765.181 Q168.357 765.181 171.737 768.352 Q175.116 771.523 175.116 776.94 Q175.116 782.519 171.644 785.62 Q168.172 788.699 161.852 788.699 Q159.677 788.699 157.408 788.329 Q155.163 787.958 152.755 787.218 L152.755 782.519 Q154.839 783.653 157.061 784.208 Q159.283 784.764 161.76 784.764 Q165.765 784.764 168.102 782.657 Q170.44 780.551 170.44 776.94 Q170.44 773.329 168.102 771.222 Q165.765 769.116 161.76 769.116 Q159.885 769.116 158.01 769.533 Q156.158 769.949 154.214 770.829 L154.214 753.468 Z" fill="#000000" fill-rule="evenodd" fill-opacity="1" /><path clip-path="url(#clip210)" d="M 0 0 M190.186 756.546 Q186.575 756.546 184.746 760.111 Q182.94 763.653 182.94 770.783 Q182.94 777.889 184.746 781.454 Q186.575 784.995 190.186 784.995 Q193.82 784.995 195.625 781.454 Q197.454 777.889 197.454 770.783 Q197.454 763.653 195.625 760.111 Q193.82 756.546 190.186 756.546 M190.186 752.843 Q195.996 752.843 199.051 757.449 Q202.13 762.033 202.13 770.783 Q202.13 779.509 199.051 784.116 Q195.996 788.699 190.186 788.699 Q184.376 788.699 181.297 784.116 Q178.241 779.509 178.241 770.783 Q178.241 762.033 181.297 757.449 Q184.376 752.843 190.186 752.843 Z" fill="#000000" fill-rule="evenodd" fill-opacity="1" /><path clip-path="url(#clip210)" d="M 0 0 M128.103 450.619 Q124.492 450.619 122.663 454.184 Q120.857 457.725 120.857 464.855 Q120.857 471.961 122.663 475.526 Q124.492 479.068 128.103 479.068 Q131.737 479.068 133.542 475.526 Q135.371 471.961 135.371 464.855 Q135.371 457.725 133.542 454.184 Q131.737 450.619 128.103 450.619 M128.103 446.915 Q133.913 446.915 136.968 451.521 Q140.047 456.105 140.047 464.855 Q140.047 473.582 136.968 478.188 Q133.913 482.771 128.103 482.771 Q122.293 482.771 119.214 478.188 Q116.158 473.582 116.158 464.855 Q116.158 456.105 119.214 451.521 Q122.293 446.915 128.103 446.915 Z" fill="#000000" fill-rule="evenodd" fill-opacity="1" /><path clip-path="url(#clip210)" d="M 0 0 M145.116 476.22 L150.001 476.22 L150.001 482.1 L145.116 482.1 L145.116 476.22 Z" fill="#000000" fill-rule="evenodd" fill-opacity="1" /><path clip-path="url(#clip210)" d="M 0 0 M153.89 447.54 L176.112 447.54 L176.112 449.531 L163.565 482.1 L158.681 482.1 L170.487 451.475 L153.89 451.475 L153.89 447.54 Z" fill="#000000" fill-rule="evenodd" fill-opacity="1" /><path clip-path="url(#clip210)" d="M 0 0 M181.227 447.54 L199.584 447.54 L199.584 451.475 L185.51 451.475 L185.51 459.947 Q186.528 459.6 187.547 459.438 Q188.565 459.253 189.584 459.253 Q195.371 459.253 198.75 462.424 Q202.13 465.595 202.13 471.012 Q202.13 476.591 198.658 479.693 Q195.186 482.771 188.866 482.771 Q186.69 482.771 184.422 482.401 Q182.176 482.031 179.769 481.29 L179.769 476.591 Q181.852 477.725 184.075 478.281 Q186.297 478.836 188.774 478.836 Q192.778 478.836 195.116 476.73 Q197.454 474.623 197.454 471.012 Q197.454 467.401 195.116 465.295 Q192.778 463.188 188.774 463.188 Q186.899 463.188 185.024 463.605 Q183.172 464.021 181.227 464.901 L181.227 447.54 Z" fill="#000000" fill-rule="evenodd" fill-opacity="1" /><path clip-path="url(#clip210)" d="M 0 0 M118.242 172.237 L125.88 172.237 L125.88 145.872 L117.57 147.538 L117.57 143.279 L125.834 141.612 L130.51 141.612 L130.51 172.237 L138.149 172.237 L138.149 176.172 L118.242 176.172 L118.242 172.237 Z" fill="#000000" fill-rule="evenodd" fill-opacity="1" /><path clip-path="url(#clip210)" d="M 0 0 M143.218 170.293 L148.103 170.293 L148.103 176.172 L143.218 176.172 L143.218 170.293 Z" fill="#000000" fill-rule="evenodd" fill-opacity="1" /><path clip-path="url(#clip210)" d="M 0 0 M163.172 144.691 Q159.561 144.691 157.732 148.256 Q155.927 151.797 155.927 158.927 Q155.927 166.033 157.732 169.598 Q159.561 173.14 163.172 173.14 Q166.806 173.14 168.612 169.598 Q170.44 166.033 170.44 158.927 Q170.44 151.797 168.612 148.256 Q166.806 144.691 163.172 144.691 M163.172 140.987 Q168.982 140.987 172.038 145.594 Q175.116 150.177 175.116 158.927 Q175.116 167.654 172.038 172.26 Q168.982 176.844 163.172 176.844 Q157.362 176.844 154.283 172.26 Q151.228 167.654 151.228 158.927 Q151.228 150.177 154.283 145.594 Q157.362 140.987 163.172 140.987 Z" fill="#000000" fill-rule="evenodd" fill-opacity="1" /><path clip-path="url(#clip210)" d="M 0 0 M190.186 144.691 Q186.575 144.691 184.746 148.256 Q182.94 151.797 182.94 158.927 Q182.94 166.033 184.746 169.598 Q186.575 173.14 190.186 173.14 Q193.82 173.14 195.625 169.598 Q197.454 166.033 197.454 158.927 Q197.454 151.797 195.625 148.256 Q193.82 144.691 190.186 144.691 M190.186 140.987 Q195.996 140.987 199.051 145.594 Q202.13 150.177 202.13 158.927 Q202.13 167.654 199.051 172.26 Q195.996 176.844 190.186 176.844 Q184.376 176.844 181.297 172.26 Q178.241 167.654 178.241 158.927 Q178.241 150.177 181.297 145.594 Q184.376 140.987 190.186 140.987 Z" fill="#000000" fill-rule="evenodd" fill-opacity="1" /><path clip-path="url(#clip210)" d="M 0 0 M70.212 745.095 Q76.6732 745.095 80.3653 742.453 Q84.0256 739.779 84.0256 735.132 Q84.0256 730.485 80.3653 727.812 Q76.6732 725.138 70.212 725.138 Q63.7508 725.138 60.0905 727.812 Q56.3984 730.485 56.3984 735.132 Q56.3984 739.779 60.0905 742.453 Q63.7508 745.095 70.212 745.095 M82.657 725.138 Q85.8398 726.984 87.3994 729.817 Q88.9272 732.618 88.9272 736.565 Q88.9272 743.026 83.771 747.1 Q78.6147 751.142 70.212 751.142 Q61.8093 751.142 56.6531 747.1 Q51.4968 743.026 51.4968 736.565 Q51.4968 732.618 53.0564 729.817 Q54.5842 726.984 57.7671 725.138 L52.3562 725.138 L52.3562 719.282 L101.563 719.282 L101.563 725.138 L82.657 725.138 Z" fill="#000000" fill-rule="evenodd" fill-opacity="1" /><polyline clip-path="url(#clip212)" style="stroke:#009af9; stroke-width:4; stroke-opacity:1; fill:none" points="
  297.978,1382.6 300.669,1382.6 305.771,1382.6 310.872,1382.6 313.563,1382.6 316.255,1382.6 321.356,1382.6 326.458,1382.6 329.149,1382.6 331.84,1382.6 
  336.941,1382.6 342.043,1382.6 344.734,1382.6 347.425,1382.6 352.527,1382.6 357.628,1382.6 360.32,1382.6 363.011,1382.6 368.112,1382.6 373.214,1382.6 
  375.905,1382.6 378.596,1382.6 383.698,1382.6 388.799,1382.6 391.49,1382.6 394.181,1382.6 399.283,1382.6 404.385,1382.6 407.076,1382.6 409.767,1382.6 
  414.868,1382.6 419.97,1382.6 422.661,1382.6 425.352,1382.6 430.454,1382.6 435.555,1382.6 438.246,1382.6 440.938,1382.6 446.039,1382.6 451.141,1382.6 
  453.832,1382.6 456.523,1382.6 461.625,1382.6 466.726,1382.6 469.417,1382.6 472.108,1382.6 477.21,1382.6 482.311,1382.6 485.003,1382.6 487.694,1382.6 
  492.795,1382.6 497.897,1382.6 500.588,1382.6 503.279,1382.6 508.381,1382.6 513.482,1382.6 516.173,1382.6 518.865,1382.6 523.966,1382.6 529.068,1382.6 
  531.759,1382.6 534.45,1382.6 539.552,1382.6 544.653,1382.6 547.344,1382.6 550.035,1382.6 555.137,1382.6 560.238,1382.6 562.93,1382.6 565.621,1382.6 
  570.722,1382.6 575.824,1382.6 578.515,1382.6 581.206,1382.6 586.308,1382.6 591.409,1382.6 594.1,1382.6 596.792,1382.6 601.893,1382.6 606.995,1382.6 
  609.686,1382.6 612.377,1382.6 617.478,1382.6 622.58,1382.6 625.271,1382.6 627.962,1382.6 633.064,1382.6 638.165,1382.6 640.857,1382.6 643.548,1382.6 
  648.649,1382.6 653.751,1382.6 656.442,1382.6 659.133,1382.6 664.235,1382.6 669.336,1382.6 672.027,1382.6 674.719,1382.6 679.82,1382.6 684.922,1382.6 
  687.613,1382.6 690.304,1382.6 695.405,1382.6 700.507,1382.6 703.198,1382.6 705.889,1382.6 710.991,1382.6 716.092,1382.6 718.784,1382.6 721.475,1382.6 
  726.576,158.892 731.678,158.892 734.369,158.892 737.06,158.892 742.162,158.892 747.263,158.892 749.954,158.892 752.645,158.892 757.747,158.892 762.849,158.892 
  765.54,158.892 768.231,158.892 773.332,158.892 778.434,158.892 781.125,158.892 783.816,158.892 788.918,158.892 794.019,158.892 796.71,158.892 799.402,158.892 
  804.503,158.892 809.605,158.892 812.296,158.892 814.987,158.892 820.089,158.892 825.19,158.892 827.881,158.892 830.572,158.892 835.674,158.892 840.775,158.892 
  843.467,158.892 846.158,158.892 851.259,158.892 856.361,158.892 859.052,158.892 861.743,158.892 866.845,158.892 871.946,158.892 874.637,158.892 877.329,158.892 
  882.43,158.892 887.532,158.892 890.223,158.892 892.914,158.892 898.016,158.892 903.117,158.892 905.808,158.892 908.499,158.892 913.601,158.892 918.702,158.892 
  921.394,158.892 924.085,158.892 929.186,158.892 934.288,158.892 936.979,158.892 939.67,158.892 944.772,158.892 949.873,158.892 952.564,158.892 955.256,158.892 
  960.357,158.892 965.459,158.892 968.15,158.892 970.841,158.892 975.942,158.892 981.044,158.892 983.735,158.892 986.426,158.892 991.528,158.892 996.629,158.892 
  999.321,158.892 1002.01,158.892 1007.11,158.892 1012.21,1382.6 1014.91,1382.6 1017.6,1382.6 1022.7,1382.6 1027.8,1382.6 1030.49,1382.6 1033.18,1382.6 
  1038.28,1382.6 1043.39,1382.6 1046.08,1382.6 1048.77,1382.6 1053.87,1382.6 1058.97,1382.6 1061.66,1382.6 1064.35,1382.6 1069.45,1382.6 1074.56,1382.6 
  1077.25,1382.6 1079.94,1382.6 1085.04,1382.6 1090.14,1382.6 1092.83,1382.6 1095.52,1382.6 1100.63,1382.6 1105.73,1382.6 1108.42,1382.6 1111.11,1382.6 
  1116.21,1382.6 1121.31,1382.6 1124,1382.6 1126.69,1382.6 1131.8,1382.6 1136.9,1382.6 1139.59,1382.6 1142.28,1382.6 1147.38,1382.6 1152.48,1382.6 
  1155.17,1382.6 1157.87,1382.6 1162.97,1382.6 1168.07,1382.6 1170.76,1382.6 1173.45,1382.6 1178.55,1382.6 1183.65,1382.6 1186.35,1382.6 1189.04,1382.6 
  1194.14,1382.6 1199.24,1382.6 1201.93,1382.6 1204.62,1382.6 1209.72,1382.6 1214.82,1382.6 1217.52,1382.6 1220.21,1382.6 1225.31,1382.6 1230.41,1382.6 
  1233.1,1382.6 1235.79,1382.6 1240.89,1382.6 1246,1382.6 1248.69,1382.6 1251.38,1382.6 1256.48,1382.6 1261.58,1382.6 1264.27,1382.6 1266.96,1382.6 
  1272.06,1382.6 1277.17,1382.6 1279.86,1382.6 1282.55,1382.6 1287.65,1382.6 1292.75,1382.6 1295.44,1382.6 1298.13,1382.6 1303.24,1382.6 1308.34,1382.6 
  1311.03,1382.6 1313.72,1382.6 1318.82,1382.6 1323.92,1382.6 1326.61,1382.6 1329.3,1382.6 1334.41,1382.6 1339.51,1382.6 1342.2,1382.6 1344.89,1382.6 
  1349.99,1382.6 1355.09,1382.6 1357.78,1382.6 1360.48,1382.6 1365.58,1382.6 1370.68,1382.6 1373.37,1382.6 1376.06,1382.6 1381.16,1382.6 1386.26,1382.6 
  1388.96,1382.6 1391.65,1382.6 1396.75,1382.6 1401.85,1382.6 1404.54,1382.6 1407.23,1382.6 1412.33,1382.6 1417.43,1382.6 1420.13,1382.6 1422.82,1382.6 
  1427.92,1382.6 1433.02,1382.6 1435.71,1382.6 1438.4,1382.6 1443.5,1382.6 1448.61,1382.6 1451.3,1382.6 1453.99,1382.6 1459.09,1382.6 1464.19,1382.6 
  1466.88,1382.6 1469.57,1382.6 1474.67,1382.6 1479.78,1382.6 1482.47,1382.6 1485.16,1382.6 1490.26,1382.6 1495.36,1382.6 1498.05,1382.6 1500.74,1382.6 
  1505.85,1382.6 1510.95,1382.6 1513.64,1382.6 1516.33,1382.6 1521.43,1382.6 1526.53,1382.6 1529.22,1382.6 1531.92,1382.6 1537.02,1382.6 1542.12,1382.6 
  1544.81,1382.6 1547.5,1382.6 1552.6,1382.6 1557.7,1382.6 1560.39,1382.6 1563.09,1382.6 1568.19,1382.6 1573.29,1382.6 1575.98,1382.6 1578.67,1382.6 
  1583.77,1382.6 1588.87,1382.6 1591.57,1382.6 1594.26,1382.6 1599.36,1382.6 1604.46,1382.6 1607.15,1382.6 1609.84,1382.6 1614.94,1382.6 1620.05,1382.6 
  1622.74,1382.6 1625.43,1382.6 1630.53,1382.6 1635.63,1382.6 1638.32,1382.6 1641.01,1382.6 1646.11,1382.6 1651.22,1382.6 1653.91,1382.6 1656.6,1382.6 
  1661.7,1382.6 1666.8,1382.6 1669.49,1382.6 1672.18,1382.6 1677.29,1382.6 1682.39,1382.6 1685.08,1382.6 1687.77,1382.6 1692.87,1382.6 1697.97,1382.6 
  1700.66,1382.6 1703.35,1382.6 1708.46,1382.6 1713.56,1382.6 1716.25,1382.6 1718.94,1382.6 1724.04,1382.6 1729.14,1382.6 1731.83,1382.6 1734.53,1382.6 
  1739.63,1382.6 1744.73,1382.6 1747.42,1382.6 1750.11,1382.6 1755.21,1382.6 1760.31,1382.6 1763,1382.6 1765.7,1382.6 1770.8,1382.6 1775.9,1382.6 
  1778.59,1382.6 1781.28,1382.6 1786.38,1382.6 1791.48,1382.6 1794.18,1382.6 1796.87,1382.6 1801.97,1382.6 1807.07,1382.6 1809.76,1382.6 1812.45,1382.6 
  1817.55,1382.6 1822.66,1382.6 1825.35,1382.6 1828.04,1382.6 1833.14,1382.6 1838.24,1382.6 1840.93,1382.6 1843.62,1382.6 1848.72,1382.6 1853.83,1382.6 
  1856.52,1382.6 1859.21,1382.6 1864.31,1382.6 1869.41,1382.6 1872.1,1382.6 1874.79,1382.6 1879.9,1382.6 1885,1382.6 1887.69,1382.6 1890.38,1382.6 
  1895.48,1382.6 1900.58,1382.6 1903.27,1382.6 1905.96,1382.6 1911.07,1382.6 1916.17,1382.6 1918.86,1382.6 1921.55,1382.6 1926.65,1382.6 1931.75,1382.6 
  1934.44,1382.6 1937.14,1382.6 1942.24,1382.6 1947.34,1382.6 1950.03,1382.6 1952.72,1382.6 1957.82,1382.6 1962.92,1382.6 1965.61,1382.6 1968.31,1382.6 
  1973.41,1382.6 1978.51,1382.6 1981.2,1382.6 1983.89,1382.6 1988.99,1382.6 1994.09,1382.6 1996.79,1382.6 1999.48,1382.6 2004.58,1382.6 2009.68,1382.6 
  2012.37,1382.6 2015.06,1382.6 2020.16,1382.6 2025.27,1382.6 2027.96,1382.6 2030.65,1382.6 2035.75,1382.6 2040.85,1382.6 2043.54,1382.6 2046.23,1382.6 
  2051.33,1382.6 2056.44,1382.6 2059.13,1382.6 2061.82,1382.6 2066.92,1382.6 2072.02,1382.6 2074.71,1382.6 2077.4,1382.6 2082.51,1382.6 2087.61,1382.6 
  2090.3,1382.6 2092.99,1382.6 2098.09,1382.6 2103.19,1382.6 2105.88,1382.6 2108.57,1382.6 2113.68,1382.6 2118.78,1382.6 2121.47,1382.6 2124.16,1382.6 
  2129.26,1382.6 2134.36,1382.6 2137.05,1382.6 2139.75,1382.6 2144.85,1382.6 2149.95,1382.6 2152.64,1382.6 2155.33,1382.6 2160.43,1382.6 2165.53,1382.6 
  2168.22,1382.6 2170.92,1382.6 2176.02,1382.6 2181.12,1382.6 2183.81,1382.6 2186.5,1382.6 2191.6,1382.6 2196.7,1382.6 2199.4,1382.6 2202.09,1382.6 
  2207.19,1382.6 2212.29,1382.6 2214.98,1382.6 2217.67,1382.6 2222.77,1382.6 2227.88,1382.6 2230.57,1382.6 2233.26,1382.6 2238.36,1382.6 2243.46,1382.6 
  2246.15,1382.6 2248.84,1382.6 2253.94,1382.6 2259.05,1382.6 2261.74,1382.6 2264.43,1382.6 2269.53,1382.6 2274.63,1382.6 2277.32,1382.6 2280.01,1382.6 
  2285.12,1382.6 2290.22,1382.6 2292.91,1382.6 
  "/>
<polyline clip-path="url(#clip212)" style="stroke:#e26f46; stroke-width:4; stroke-opacity:1; fill:none" points="
  297.978,1382.6 300.669,1382.6 305.771,1382.6 310.872,1382.6 313.563,1382.6 316.255,1382.6 321.356,1382.6 326.458,1382.6 329.149,1382.6 331.84,1382.6 
  336.941,1382.6 342.043,1382.6 344.734,1382.6 347.425,1382.6 352.527,1382.6 357.628,1382.6 360.32,1382.6 363.011,1382.6 368.112,1382.6 373.214,1382.6 
  375.905,1382.6 378.596,1382.6 383.698,1382.6 388.799,1382.6 391.49,1382.6 394.181,1382.6 399.283,1382.6 404.385,1382.6 407.076,1382.6 409.767,1382.6 
  414.868,1382.6 419.97,1382.6 422.661,1382.6 425.352,1382.6 430.454,1382.6 435.555,1382.6 438.246,1382.6 440.938,1382.6 446.039,1382.6 451.141,1382.6 
  453.832,1382.6 456.523,1382.6 461.625,1382.6 466.726,1382.6 469.417,1382.6 472.108,1382.6 477.21,1382.6 482.311,1382.6 485.003,1382.6 487.694,1382.6 
  492.795,1382.6 497.897,1382.6 500.588,1382.6 503.279,1382.6 508.381,1382.6 513.482,1382.6 516.173,1382.6 518.865,1382.6 523.966,1382.6 529.068,1382.6 
  531.759,1382.6 534.45,1382.6 539.552,1382.6 544.653,1382.6 547.344,1382.6 550.035,1382.6 555.137,1382.6 560.238,1382.6 562.93,1382.6 565.621,1382.6 
  570.722,1382.6 575.824,1382.6 578.515,1382.6 581.206,1382.6 586.308,1382.6 591.409,1382.6 594.1,1382.6 596.792,1382.6 601.893,1382.6 606.995,1382.6 
  609.686,1382.6 612.377,1382.6 617.478,1382.6 622.58,1382.6 625.271,1382.6 627.962,1382.6 633.064,1382.6 638.165,1382.6 640.857,1382.6 643.548,1382.6 
  648.649,1382.6 653.751,1382.6 656.442,1382.6 659.133,1382.6 664.235,1382.6 669.336,1382.6 672.027,1382.6 674.719,1382.6 679.82,1382.6 684.922,1382.6 
  687.613,1382.6 690.304,1382.6 695.405,1382.6 700.507,1382.6 703.198,1382.6 705.889,1382.6 710.991,1382.6 716.092,1382.6 718.784,1382.6 721.475,1382.6 
  726.576,1382.6 731.678,1382.6 734.369,1382.6 737.06,1382.6 742.162,1382.6 747.263,1382.6 749.954,1382.6 752.645,1382.6 757.747,1382.6 762.849,1382.6 
  765.54,1382.6 768.231,1382.6 773.332,1382.6 778.434,1382.6 781.125,1382.6 783.816,1382.6 788.918,1382.6 794.019,1382.6 796.71,1382.6 799.402,1382.6 
  804.503,1382.6 809.605,1382.6 812.296,1382.6 814.987,1382.6 820.089,1382.6 825.19,1382.6 827.881,1382.6 830.572,1382.6 835.674,1382.6 840.775,1382.6 
  843.467,1382.6 846.158,1382.6 851.259,1382.6 856.361,1382.6 859.052,1382.6 861.743,1382.6 866.845,1382.6 871.946,1382.6 874.637,1382.6 877.329,1382.6 
  882.43,1382.6 887.532,1382.6 890.223,1382.6 892.914,1382.6 898.016,1382.6 903.117,1382.6 905.808,1382.6 908.499,1382.6 913.601,1382.6 918.702,1382.6 
  921.394,1382.6 924.085,1382.6 929.186,1382.6 934.288,1382.6 936.979,1382.6 939.67,1382.6 944.772,1382.6 949.873,1382.6 952.564,1382.6 955.256,1382.6 
  960.357,1382.6 965.459,1382.6 968.15,1382.6 970.841,1382.6 975.942,1382.6 981.044,1382.6 983.735,1382.6 986.426,1382.6 991.528,1382.6 996.629,1382.6 
  999.321,1382.6 1002.01,1382.6 1007.11,1382.6 1012.21,1382.6 1014.91,1382.6 1017.6,1382.6 1022.7,1382.6 1027.8,1382.6 1030.49,1382.6 1033.18,1382.6 
  1038.28,1382.6 1043.39,1382.6 1046.08,1382.6 1048.77,1382.6 1053.87,1382.6 1058.97,1382.6 1061.66,1382.6 1064.35,1382.6 1069.45,1382.6 1074.56,1382.6 
  1077.25,1382.6 1079.94,1382.6 1085.04,1382.6 1090.14,1382.6 1092.83,1382.6 1095.52,1382.6 1100.63,1382.6 1105.73,1382.6 1108.42,1382.6 1111.11,1382.6 
  1116.21,1382.6 1121.31,1382.6 1124,1382.6 1126.69,1382.6 1131.8,1382.6 1136.9,1382.6 1139.59,1382.6 1142.28,1382.6 1147.38,1382.6 1152.48,1382.6 
  1155.17,1382.6 1157.87,1382.6 1162.97,1382.6 1168.07,1382.6 1170.76,1382.6 1173.45,1382.6 1178.55,1382.6 1183.65,1382.6 1186.35,1382.6 1189.04,1382.6 
  1194.14,1382.6 1199.24,1382.6 1201.93,1382.6 1204.62,1382.6 1209.72,1382.6 1214.82,1382.6 1217.52,1382.6 1220.21,1382.6 1225.31,1382.6 1230.41,1382.6 
  1233.1,1382.58 1235.79,1382.58 1240.89,1382.59 1246,1382.51 1248.69,1382.47 1251.38,1382.57 1256.48,1382.56 1261.58,1382.49 1264.27,1380.38 1266.96,1384.24 
  1272.06,1374.9 1277.17,1337.2 1279.86,1306.39 1282.55,1250.73 1287.65,1117.11 1292.75,950.923 1295.44,853.054 1298.13,748.23 1303.24,559.005 1308.34,388.929 
  1311.03,306.624 1313.72,242.388 1318.82,152.188 1323.92,100.524 1326.61,86.422 1329.3,86.1857 1334.41,97.6079 1339.51,118.572 1342.2,132.636 1344.89,144.134 
  1349.99,160.794 1355.09,169.853 1357.78,172.005 1360.48,171.061 1365.58,167.532 1370.68,162.911 1373.37,160.152 1376.06,158.496 1381.16,156.594 1386.26,156.281 
  1388.96,156.659 1391.65,157.295 1396.75,158.402 1401.85,159.196 1404.54,159.499 1407.23,159.513 1412.33,159.391 1417.43,159.136 1420.13,158.96 1422.82,158.863 
  1427.92,158.754 1433.02,158.741 1435.71,158.769 1438.4,158.798 1443.5,158.85 1448.61,158.894 1451.3,158.911 1453.99,158.943 1459.09,159.012 1464.19,159.077 
  1466.88,159.108 1469.57,159.096 1474.67,158.943 1479.78,158.616 1482.47,158.41 1485.16,158.092 1490.26,157.772 1495.36,157.952 1498.05,158.19 1500.74,159.06 
  1505.85,161.207 1510.95,163.781 1513.64,165.142 1516.33,166.268 1521.43,165.436 1526.53,160.238 1529.22,156.233 1531.92,148.257 1537.02,131.304 1542.12,113.659 
  1544.81,105.049 1547.5,98.1472 1552.6,102.889 1557.7,133.467 1560.39,158.99 1563.09,202.418 1568.19,314.771 1573.29,462.502 1575.98,551.661 1578.67,653.735 
  1583.77,845.926 1588.87,1028.28 1591.57,1120.3 1594.26,1195.95 1599.36,1303.04 1604.46,1364.66 1607.15,1380.44 1609.84,1382.08 1614.94,1382.2 1620.05,1381.65 
  1622.74,1381.39 1625.43,1381.82 1630.53,1382.25 1635.63,1382.56 1638.32,1382.63 1641.01,1382.6 1646.11,1382.59 1651.22,1382.59 1653.91,1382.59 1656.6,1382.6 
  1661.7,1382.6 1666.8,1382.6 1669.49,1382.6 1672.18,1382.6 1677.29,1382.6 1682.39,1382.6 1685.08,1382.6 1687.77,1382.6 1692.87,1382.6 1697.97,1382.6 
  1700.66,1382.6 1703.35,1382.6 1708.46,1382.6 1713.56,1382.6 1716.25,1382.6 1718.94,1382.6 1724.04,1382.6 1729.14,1382.6 1731.83,1382.6 1734.53,1382.6 
  1739.63,1382.6 1744.73,1382.6 1747.42,1382.6 1750.11,1382.6 1755.21,1382.6 1760.31,1382.6 1763,1382.6 1765.7,1382.6 1770.8,1382.6 1775.9,1382.6 
  1778.59,1382.6 1781.28,1382.6 1786.38,1382.6 1791.48,1382.6 1794.18,1382.6 1796.87,1382.6 1801.97,1382.6 1807.07,1382.6 1809.76,1382.6 1812.45,1382.6 
  1817.55,1382.6 1822.66,1382.6 1825.35,1382.6 1828.04,1382.6 1833.14,1382.6 1838.24,1382.6 1840.93,1382.6 1843.62,1382.6 1848.72,1382.6 1853.83,1382.6 
  1856.52,1382.6 1859.21,1382.6 1864.31,1382.6 1869.41,1382.6 1872.1,1382.6 1874.79,1382.6 1879.9,1382.6 1885,1382.6 1887.69,1382.6 1890.38,1382.6 
  1895.48,1382.6 1900.58,1382.6 1903.27,1382.6 1905.96,1382.6 1911.07,1382.6 1916.17,1382.6 1918.86,1382.6 1921.55,1382.6 1926.65,1382.6 1931.75,1382.6 
  1934.44,1382.6 1937.14,1382.6 1942.24,1382.6 1947.34,1382.6 1950.03,1382.6 1952.72,1382.6 1957.82,1382.6 1962.92,1382.6 1965.61,1382.6 1968.31,1382.6 
  1973.41,1382.6 1978.51,1382.6 1981.2,1382.6 1983.89,1382.6 1988.99,1382.6 1994.09,1382.6 1996.79,1382.6 1999.48,1382.6 2004.58,1382.6 2009.68,1382.6 
  2012.37,1382.6 2015.06,1382.6 2020.16,1382.6 2025.27,1382.6 2027.96,1382.6 2030.65,1382.6 2035.75,1382.6 2040.85,1382.6 2043.54,1382.6 2046.23,1382.6 
  2051.33,1382.6 2056.44,1382.6 2059.13,1382.6 2061.82,1382.6 2066.92,1382.6 2072.02,1382.6 2074.71,1382.6 2077.4,1382.6 2082.51,1382.6 2087.61,1382.6 
  2090.3,1382.6 2092.99,1382.6 2098.09,1382.6 2103.19,1382.6 2105.88,1382.6 2108.57,1382.6 2113.68,1382.6 2118.78,1382.6 2121.47,1382.6 2124.16,1382.6 
  2129.26,1382.6 2134.36,1382.6 2137.05,1382.6 2139.75,1382.6 2144.85,1382.6 2149.95,1382.6 2152.64,1382.6 2155.33,1382.6 2160.43,1382.6 2165.53,1382.6 
  2168.22,1382.6 2170.92,1382.6 2176.02,1382.6 2181.12,1382.6 2183.81,1382.6 2186.5,1382.6 2191.6,1382.6 2196.7,1382.6 2199.4,1382.6 2202.09,1382.6 
  2207.19,1382.6 2212.29,1382.6 2214.98,1382.6 2217.67,1382.6 2222.77,1382.6 2227.88,1382.6 2230.57,1382.6 2233.26,1382.6 2238.36,1382.6 2243.46,1382.6 
  2246.15,1382.6 2248.84,1382.6 2253.94,1382.6 2259.05,1382.6 2261.74,1382.6 2264.43,1382.6 2269.53,1382.6 2274.63,1382.6 2277.32,1382.6 2280.01,1382.6 
  2285.12,1382.6 2290.22,1382.6 2292.91,1382.6 
  "/>
<path clip-path="url(#clip210)" d="
M1802.38 274.549 L2282.27 274.549 L2282.27 93.1086 L1802.38 93.1086  Z
  " fill="#ffffff" fill-rule="evenodd" fill-opacity="1"/>
<polyline clip-path="url(#clip210)" style="stroke:#000000; stroke-width:4; stroke-opacity:1; fill:none" points="
  1802.38,274.549 2282.27,274.549 2282.27,93.1086 1802.38,93.1086 1802.38,274.549 
  "/>
<polyline clip-path="url(#clip210)" style="stroke:#009af9; stroke-width:4; stroke-opacity:1; fill:none" points="
  1825.88,153.589 1966.85,153.589 
  "/>
<path clip-path="url(#clip210)" d="M 0 0 M1994.75 157.929 Q1994.75 162.628 1996.67 165.313 Q1998.61 167.975 2001.99 167.975 Q2005.37 167.975 2007.31 165.313 Q2009.26 162.628 2009.26 157.929 Q2009.26 153.23 2007.31 150.568 Q2005.37 147.883 2001.99 147.883 Q1998.61 147.883 1996.67 150.568 Q1994.75 153.23 1994.75 157.929 M2009.26 166.98 Q2007.92 169.295 2005.86 170.429 Q2003.82 171.54 2000.95 171.54 Q1996.25 171.54 1993.29 167.79 Q1990.35 164.04 1990.35 157.929 Q1990.35 151.818 1993.29 148.068 Q1996.25 144.318 2000.95 144.318 Q2003.82 144.318 2005.86 145.452 Q2007.92 146.563 2009.26 148.878 L2009.26 144.943 L2013.52 144.943 L2013.52 180.73 L2009.26 180.73 L2009.26 166.98 Z" fill="#000000" fill-rule="evenodd" fill-opacity="1" /><path clip-path="url(#clip210)" d="M 0 0 M2019.07 164.989 L2023.96 164.989 L2023.96 168.97 L2020.16 176.378 L2017.18 176.378 L2019.07 168.97 L2019.07 164.989 Z" fill="#000000" fill-rule="evenodd" fill-opacity="1" /><path clip-path="url(#clip210)" d="M 0 0 M2047.71 137.582 L2047.71 144.943 L2056.48 144.943 L2056.48 148.253 L2047.71 148.253 L2047.71 162.327 Q2047.71 165.498 2048.56 166.401 Q2049.44 167.304 2052.11 167.304 L2056.48 167.304 L2056.48 170.869 L2052.11 170.869 Q2047.18 170.869 2045.3 169.04 Q2043.43 167.188 2043.43 162.327 L2043.43 148.253 L2040.3 148.253 L2040.3 144.943 L2043.43 144.943 L2043.43 137.582 L2047.71 137.582 Z" fill="#000000" fill-rule="evenodd" fill-opacity="1" /><path clip-path="url(#clip210)" d="M 0 0 M2061.5 149.341 L2091.18 149.341 L2091.18 153.23 L2061.5 153.23 L2061.5 149.341 M2061.5 158.785 L2091.18 158.785 L2091.18 162.721 L2061.5 162.721 L2061.5 158.785 Z" fill="#000000" fill-rule="evenodd" fill-opacity="1" /><path clip-path="url(#clip210)" d="M 0 0 M2106.25 139.387 Q2102.64 139.387 2100.81 142.952 Q2099 146.494 2099 153.623 Q2099 160.73 2100.81 164.295 Q2102.64 167.836 2106.25 167.836 Q2109.88 167.836 2111.69 164.295 Q2113.52 160.73 2113.52 153.623 Q2113.52 146.494 2111.69 142.952 Q2109.88 139.387 2106.25 139.387 M2106.25 135.684 Q2112.06 135.684 2115.12 140.29 Q2118.19 144.873 2118.19 153.623 Q2118.19 162.35 2115.12 166.957 Q2112.06 171.54 2106.25 171.54 Q2100.44 171.54 2097.36 166.957 Q2094.31 162.35 2094.31 153.623 Q2094.31 144.873 2097.36 140.29 Q2100.44 135.684 2106.25 135.684 Z" fill="#000000" fill-rule="evenodd" fill-opacity="1" /><path clip-path="url(#clip210)" d="M 0 0 M2123.26 164.989 L2128.15 164.989 L2128.15 170.869 L2123.26 170.869 L2123.26 164.989 Z" fill="#000000" fill-rule="evenodd" fill-opacity="1" /><path clip-path="url(#clip210)" d="M 0 0 M2143.22 139.387 Q2139.61 139.387 2137.78 142.952 Q2135.97 146.494 2135.97 153.623 Q2135.97 160.73 2137.78 164.295 Q2139.61 167.836 2143.22 167.836 Q2146.85 167.836 2148.66 164.295 Q2150.49 160.73 2150.49 153.623 Q2150.49 146.494 2148.66 142.952 Q2146.85 139.387 2143.22 139.387 M2143.22 135.684 Q2149.03 135.684 2152.08 140.29 Q2155.16 144.873 2155.16 153.623 Q2155.16 162.35 2152.08 166.957 Q2149.03 171.54 2143.22 171.54 Q2137.41 171.54 2134.33 166.957 Q2131.27 162.35 2131.27 153.623 Q2131.27 144.873 2134.33 140.29 Q2137.41 135.684 2143.22 135.684 Z" fill="#000000" fill-rule="evenodd" fill-opacity="1" /><polyline clip-path="url(#clip210)" style="stroke:#e26f46; stroke-width:4; stroke-opacity:1; fill:none" points="
  1825.88,214.069 1966.85,214.069 
  "/>
<path clip-path="url(#clip210)" d="M 0 0 M1994.75 218.409 Q1994.75 223.108 1996.67 225.793 Q1998.61 228.455 2001.99 228.455 Q2005.37 228.455 2007.31 225.793 Q2009.26 223.108 2009.26 218.409 Q2009.26 213.71 2007.31 211.048 Q2005.37 208.363 2001.99 208.363 Q1998.61 208.363 1996.67 211.048 Q1994.75 213.71 1994.75 218.409 M2009.26 227.46 Q2007.92 229.775 2005.86 230.909 Q2003.82 232.02 2000.95 232.02 Q1996.25 232.02 1993.29 228.27 Q1990.35 224.52 1990.35 218.409 Q1990.35 212.298 1993.29 208.548 Q1996.25 204.798 2000.95 204.798 Q2003.82 204.798 2005.86 205.932 Q2007.92 207.043 2009.26 209.358 L2009.26 205.423 L2013.52 205.423 L2013.52 241.21 L2009.26 241.21 L2009.26 227.46 Z" fill="#000000" fill-rule="evenodd" fill-opacity="1" /><path clip-path="url(#clip210)" d="M 0 0 M2019.07 225.469 L2023.96 225.469 L2023.96 229.45 L2020.16 236.858 L2017.18 236.858 L2019.07 229.45 L2019.07 225.469 Z" fill="#000000" fill-rule="evenodd" fill-opacity="1" /><path clip-path="url(#clip210)" d="M 0 0 M2047.71 198.062 L2047.71 205.423 L2056.48 205.423 L2056.48 208.733 L2047.71 208.733 L2047.71 222.807 Q2047.71 225.978 2048.56 226.881 Q2049.44 227.784 2052.11 227.784 L2056.48 227.784 L2056.48 231.349 L2052.11 231.349 Q2047.18 231.349 2045.3 229.52 Q2043.43 227.668 2043.43 222.807 L2043.43 208.733 L2040.3 208.733 L2040.3 205.423 L2043.43 205.423 L2043.43 198.062 L2047.71 198.062 Z" fill="#000000" fill-rule="evenodd" fill-opacity="1" /><path clip-path="url(#clip210)" d="M 0 0 M2061.5 209.821 L2091.18 209.821 L2091.18 213.71 L2061.5 213.71 L2061.5 209.821 M2061.5 219.265 L2091.18 219.265 L2091.18 223.201 L2061.5 223.201 L2061.5 219.265 Z" fill="#000000" fill-rule="evenodd" fill-opacity="1" /><path clip-path="url(#clip210)" d="M 0 0 M2109.1 200.863 L2097.29 219.312 L2109.1 219.312 L2109.1 200.863 M2107.87 196.789 L2113.75 196.789 L2113.75 219.312 L2118.68 219.312 L2118.68 223.201 L2113.75 223.201 L2113.75 231.349 L2109.1 231.349 L2109.1 223.201 L2093.5 223.201 L2093.5 218.687 L2107.87 196.789 Z" fill="#000000" fill-rule="evenodd" fill-opacity="1" /><path clip-path="url(#clip210)" d="M 0 0 M2123.8 196.789 L2142.15 196.789 L2142.15 200.724 L2128.08 200.724 L2128.08 209.196 Q2129.1 208.849 2130.12 208.687 Q2131.13 208.502 2132.15 208.502 Q2137.94 208.502 2141.32 211.673 Q2144.7 214.844 2144.7 220.261 Q2144.7 225.839 2141.23 228.941 Q2137.75 232.02 2131.43 232.02 Q2129.26 232.02 2126.99 231.65 Q2124.74 231.279 2122.34 230.538 L2122.34 225.839 Q2124.42 226.974 2126.64 227.529 Q2128.87 228.085 2131.34 228.085 Q2135.35 228.085 2137.68 225.978 Q2140.02 223.872 2140.02 220.261 Q2140.02 216.65 2137.68 214.543 Q2135.35 212.437 2131.34 212.437 Q2129.47 212.437 2127.59 212.853 Q2125.74 213.27 2123.8 214.15 L2123.8 196.789 Z" fill="#000000" fill-rule="evenodd" fill-opacity="1" /><path clip-path="url(#clip210)" d="M 0 0 M2159.77 199.867 Q2156.16 199.867 2154.33 203.432 Q2152.52 206.974 2152.52 214.103 Q2152.52 221.21 2154.33 224.775 Q2156.16 228.316 2159.77 228.316 Q2163.4 228.316 2165.21 224.775 Q2167.04 221.21 2167.04 214.103 Q2167.04 206.974 2165.21 203.432 Q2163.4 199.867 2159.77 199.867 M2159.77 196.164 Q2165.58 196.164 2168.63 200.77 Q2171.71 205.353 2171.71 214.103 Q2171.71 222.83 2168.63 227.437 Q2165.58 232.02 2159.77 232.02 Q2153.96 232.02 2150.88 227.437 Q2147.82 222.83 2147.82 214.103 Q2147.82 205.353 2150.88 200.77 Q2153.96 196.164 2159.77 196.164 Z" fill="#000000" fill-rule="evenodd" fill-opacity="1" /><path clip-path="url(#clip210)" d="M 0 0 M2176.78 225.469 L2181.67 225.469 L2181.67 231.349 L2176.78 231.349 L2176.78 225.469 Z" fill="#000000" fill-rule="evenodd" fill-opacity="1" /><path clip-path="url(#clip210)" d="M 0 0 M2199.58 200.863 L2187.78 219.312 L2199.58 219.312 L2199.58 200.863 M2198.36 196.789 L2204.24 196.789 L2204.24 219.312 L2209.17 219.312 L2209.17 223.201 L2204.24 223.201 L2204.24 231.349 L2199.58 231.349 L2199.58 223.201 L2183.98 223.201 L2183.98 218.687 L2198.36 196.789 Z" fill="#000000" fill-rule="evenodd" fill-opacity="1" /><path clip-path="url(#clip210)" d="M 0 0 M2213.05 196.789 L2235.28 196.789 L2235.28 198.779 L2222.73 231.349 L2217.85 231.349 L2229.65 200.724 L2213.05 200.724 L2213.05 196.789 Z" fill="#000000" fill-rule="evenodd" fill-opacity="1" /></svg>
