<?xml version="1.0" encoding="utf-8"?>
<svg xmlns="http://www.w3.org/2000/svg" xmlns:xlink="http://www.w3.org/1999/xlink" width="600" height="400" viewBox="0 0 2400 1600">
<defs>
  <clipPath id="clip120">
    <rect x="0" y="0" width="2400" height="1600"/>
  </clipPath>
</defs>
<path clip-path="url(#clip120)" d="
M0 1600 L2400 1600 L2400 0 L0 0  Z
  " fill="#ffffff" fill-rule="evenodd" fill-opacity="1"/>
<defs>
  <clipPath id="clip121">
    <rect x="480" y="0" width="1681" height="1600"/>
  </clipPath>
</defs>
<path clip-path="url(#clip120)" d="
M238.13 1423.18 L2352.76 1423.18 L2352.76 47.2441 L238.13 47.2441  Z
  " fill="#ffffff" fill-rule="evenodd" fill-opacity="1"/>
<defs>
  <clipPath id="clip122">
    <rect x="238" y="47" width="2116" height="1377"/>
  </clipPath>
</defs>
<polyline clip-path="url(#clip122)" style="stroke:#000000; stroke-width:2; stroke-opacity:0.1; fill:none" points="
  297.978,1423.18 297.978,47.2441 
  "/>
<polyline clip-path="url(#clip122)" style="stroke:#000000; stroke-width:2; stroke-opacity:0.1; fill:none" points="
  867.958,1423.18 867.958,47.2441 
  "/>
<polyline clip-path="url(#clip122)" style="stroke:#000000; stroke-width:2; stroke-opacity:0.1; fill:none" points="
  1437.94,1423.18 1437.94,47.2441 
  "/>
<polyline clip-path="url(#clip122)" style="stroke:#000000; stroke-width:2; stroke-opacity:0.1; fill:none" points="
  2007.92,1423.18 2007.92,47.2441 
  "/>
<polyline clip-path="url(#clip120)" style="stroke:#000000; stroke-width:4; stroke-opacity:1; fill:none" points="
  238.13,1423.18 2352.76,1423.18 
  "/>
<polyline clip-path="url(#clip120)" style="stroke:#000000; stroke-width:4; stroke-opacity:1; fill:none" points="
  297.978,1423.18 297.978,1406.67 
  "/>
<polyline clip-path="url(#clip120)" style="stroke:#000000; stroke-width:4; stroke-opacity:1; fill:none" points="
  867.958,1423.18 867.958,1406.67 
  "/>
<polyline clip-path="url(#clip120)" style="stroke:#000000; stroke-width:4; stroke-opacity:1; fill:none" points="
  1437.94,1423.18 1437.94,1406.67 
  "/>
<polyline clip-path="url(#clip120)" style="stroke:#000000; stroke-width:4; stroke-opacity:1; fill:none" points="
  2007.92,1423.18 2007.92,1406.67 
  "/>
<path clip-path="url(#clip120)" d="M 0 0 M297.978 1452.37 Q294.367 1452.37 292.538 1455.94 Q290.733 1459.48 290.733 1466.61 Q290.733 1473.71 292.538 1477.28 Q294.367 1480.82 297.978 1480.82 Q301.612 1480.82 303.418 1477.28 Q305.246 1473.71 305.246 1466.61 Q305.246 1459.48 303.418 1455.94 Q301.612 1452.37 297.978 1452.37 M297.978 1448.67 Q303.788 1448.67 306.844 1453.27 Q309.922 1457.86 309.922 1466.61 Q309.922 1475.33 306.844 1479.94 Q303.788 1484.52 297.978 1484.52 Q292.168 1484.52 289.089 1479.94 Q286.034 1475.33 286.034 1466.61 Q286.034 1457.86 289.089 1453.27 Q292.168 1448.67 297.978 1448.67 Z" fill="#000000" fill-rule="evenodd" fill-opacity="1" /><path clip-path="url(#clip120)" d="M 0 0 M831.326 1479.92 L838.965 1479.92 L838.965 1453.55 L830.655 1455.22 L830.655 1450.96 L838.919 1449.29 L843.595 1449.29 L843.595 1479.92 L851.234 1479.92 L851.234 1483.85 L831.326 1483.85 L831.326 1479.92 Z" fill="#000000" fill-rule="evenodd" fill-opacity="1" /><path clip-path="url(#clip120)" d="M 0 0 M866.303 1452.37 Q862.692 1452.37 860.863 1455.94 Q859.058 1459.48 859.058 1466.61 Q859.058 1473.71 860.863 1477.28 Q862.692 1480.82 866.303 1480.82 Q869.937 1480.82 871.743 1477.28 Q873.571 1473.71 873.571 1466.61 Q873.571 1459.48 871.743 1455.94 Q869.937 1452.37 866.303 1452.37 M866.303 1448.67 Q872.113 1448.67 875.169 1453.27 Q878.247 1457.86 878.247 1466.61 Q878.247 1475.33 875.169 1479.94 Q872.113 1484.52 866.303 1484.52 Q860.493 1484.52 857.414 1479.94 Q854.359 1475.33 854.359 1466.61 Q854.359 1457.86 857.414 1453.27 Q860.493 1448.67 866.303 1448.67 Z" fill="#000000" fill-rule="evenodd" fill-opacity="1" /><path clip-path="url(#clip120)" d="M 0 0 M893.317 1452.37 Q889.706 1452.37 887.877 1455.94 Q886.071 1459.48 886.071 1466.61 Q886.071 1473.71 887.877 1477.28 Q889.706 1480.82 893.317 1480.82 Q896.951 1480.82 898.756 1477.28 Q900.585 1473.71 900.585 1466.61 Q900.585 1459.48 898.756 1455.94 Q896.951 1452.37 893.317 1452.37 M893.317 1448.67 Q899.127 1448.67 902.182 1453.27 Q905.261 1457.86 905.261 1466.61 Q905.261 1475.33 902.182 1479.94 Q899.127 1484.52 893.317 1484.52 Q887.506 1484.52 884.428 1479.94 Q881.372 1475.33 881.372 1466.61 Q881.372 1457.86 884.428 1453.27 Q887.506 1448.67 893.317 1448.67 Z" fill="#000000" fill-rule="evenodd" fill-opacity="1" /><path clip-path="url(#clip120)" d="M 0 0 M1405.58 1479.92 L1421.9 1479.92 L1421.9 1483.85 L1399.95 1483.85 L1399.95 1479.92 Q1402.61 1477.16 1407.2 1472.53 Q1411.8 1467.88 1412.98 1466.54 Q1415.23 1464.01 1416.11 1462.28 Q1417.01 1460.52 1417.01 1458.83 Q1417.01 1456.07 1415.07 1454.34 Q1413.15 1452.6 1410.04 1452.6 Q1407.85 1452.6 1405.39 1453.37 Q1402.96 1454.13 1400.18 1455.68 L1400.18 1450.96 Q1403.01 1449.82 1405.46 1449.25 Q1407.91 1448.67 1409.95 1448.67 Q1415.32 1448.67 1418.52 1451.35 Q1421.71 1454.04 1421.71 1458.53 Q1421.71 1460.66 1420.9 1462.58 Q1420.11 1464.48 1418.01 1467.07 Q1417.43 1467.74 1414.33 1470.96 Q1411.23 1474.15 1405.58 1479.92 Z" fill="#000000" fill-rule="evenodd" fill-opacity="1" /><path clip-path="url(#clip120)" d="M 0 0 M1436.97 1452.37 Q1433.35 1452.37 1431.53 1455.94 Q1429.72 1459.48 1429.72 1466.61 Q1429.72 1473.71 1431.53 1477.28 Q1433.35 1480.82 1436.97 1480.82 Q1440.6 1480.82 1442.41 1477.28 Q1444.23 1473.71 1444.23 1466.61 Q1444.23 1459.48 1442.41 1455.94 Q1440.6 1452.37 1436.97 1452.37 M1436.97 1448.67 Q1442.78 1448.67 1445.83 1453.27 Q1448.91 1457.86 1448.91 1466.61 Q1448.91 1475.33 1445.83 1479.94 Q1442.78 1484.52 1436.97 1484.52 Q1431.16 1484.52 1428.08 1479.94 Q1425.02 1475.33 1425.02 1466.61 Q1425.02 1457.86 1428.08 1453.27 Q1431.16 1448.67 1436.97 1448.67 Z" fill="#000000" fill-rule="evenodd" fill-opacity="1" /><path clip-path="url(#clip120)" d="M 0 0 M1463.98 1452.37 Q1460.37 1452.37 1458.54 1455.94 Q1456.73 1459.48 1456.73 1466.61 Q1456.73 1473.71 1458.54 1477.28 Q1460.37 1480.82 1463.98 1480.82 Q1467.61 1480.82 1469.42 1477.28 Q1471.25 1473.71 1471.25 1466.61 Q1471.25 1459.48 1469.42 1455.94 Q1467.61 1452.37 1463.98 1452.37 M1463.98 1448.67 Q1469.79 1448.67 1472.85 1453.27 Q1475.92 1457.86 1475.92 1466.61 Q1475.92 1475.33 1472.85 1479.94 Q1469.79 1484.52 1463.98 1484.52 Q1458.17 1484.52 1455.09 1479.94 Q1452.04 1475.33 1452.04 1466.61 Q1452.04 1457.86 1455.09 1453.27 Q1458.17 1448.67 1463.98 1448.67 Z" fill="#000000" fill-rule="evenodd" fill-opacity="1" /><path clip-path="url(#clip120)" d="M 0 0 M1985.15 1465.22 Q1988.51 1465.94 1990.38 1468.2 Q1992.28 1470.47 1992.28 1473.81 Q1992.28 1478.92 1988.76 1481.72 Q1985.24 1484.52 1978.76 1484.52 Q1976.59 1484.52 1974.27 1484.08 Q1971.98 1483.67 1969.53 1482.81 L1969.53 1478.3 Q1971.47 1479.43 1973.79 1480.01 Q1976.1 1480.59 1978.62 1480.59 Q1983.02 1480.59 1985.31 1478.85 Q1987.63 1477.12 1987.63 1473.81 Q1987.63 1470.75 1985.48 1469.04 Q1983.35 1467.3 1979.53 1467.3 L1975.5 1467.3 L1975.5 1463.46 L1979.71 1463.46 Q1983.16 1463.46 1984.99 1462.09 Q1986.82 1460.7 1986.82 1458.11 Q1986.82 1455.45 1984.92 1454.04 Q1983.05 1452.6 1979.53 1452.6 Q1977.61 1452.6 1975.41 1453.02 Q1973.21 1453.44 1970.57 1454.31 L1970.57 1450.15 Q1973.23 1449.41 1975.55 1449.04 Q1977.88 1448.67 1979.94 1448.67 Q1985.27 1448.67 1988.37 1451.1 Q1991.47 1453.5 1991.47 1457.63 Q1991.47 1460.5 1989.83 1462.49 Q1988.18 1464.45 1985.15 1465.22 Z" fill="#000000" fill-rule="evenodd" fill-opacity="1" /><path clip-path="url(#clip120)" d="M 0 0 M2007.35 1452.37 Q2003.74 1452.37 2001.91 1455.94 Q2000.11 1459.48 2000.11 1466.61 Q2000.11 1473.71 2001.91 1477.28 Q2003.74 1480.82 2007.35 1480.82 Q2010.99 1480.82 2012.79 1477.28 Q2014.62 1473.71 2014.62 1466.61 Q2014.62 1459.48 2012.79 1455.94 Q2010.99 1452.37 2007.35 1452.37 M2007.35 1448.67 Q2013.16 1448.67 2016.22 1453.27 Q2019.3 1457.86 2019.3 1466.61 Q2019.3 1475.33 2016.22 1479.94 Q2013.16 1484.52 2007.35 1484.52 Q2001.54 1484.52 1998.46 1479.94 Q1995.41 1475.33 1995.41 1466.61 Q1995.41 1457.86 1998.46 1453.27 Q2001.54 1448.67 2007.35 1448.67 Z" fill="#000000" fill-rule="evenodd" fill-opacity="1" /><path clip-path="url(#clip120)" d="M 0 0 M2034.36 1452.37 Q2030.75 1452.37 2028.92 1455.94 Q2027.12 1459.48 2027.12 1466.61 Q2027.12 1473.71 2028.92 1477.28 Q2030.75 1480.82 2034.36 1480.82 Q2038 1480.82 2039.8 1477.28 Q2041.63 1473.71 2041.63 1466.61 Q2041.63 1459.48 2039.8 1455.94 Q2038 1452.37 2034.36 1452.37 M2034.36 1448.67 Q2040.17 1448.67 2043.23 1453.27 Q2046.31 1457.86 2046.31 1466.61 Q2046.31 1475.33 2043.23 1479.94 Q2040.17 1484.52 2034.36 1484.52 Q2028.55 1484.52 2025.48 1479.94 Q2022.42 1475.33 2022.42 1466.61 Q2022.42 1457.86 2025.48 1453.27 Q2028.55 1448.67 2034.36 1448.67 Z" fill="#000000" fill-rule="evenodd" fill-opacity="1" /><path clip-path="url(#clip120)" d="M 0 0 M1312.06 1520.4 L1299.17 1537.74 L1312.73 1556.04 L1305.82 1556.04 L1295.44 1542.04 L1285.07 1556.04 L1278.16 1556.04 L1292.01 1537.39 L1279.34 1520.4 L1286.24 1520.4 L1295.7 1533.1 L1305.15 1520.4 L1312.06 1520.4 Z" fill="#000000" fill-rule="evenodd" fill-opacity="1" /><polyline clip-path="url(#clip122)" style="stroke:#000000; stroke-width:2; stroke-opacity:0.1; fill:none" points="
  238.13,1313.93 2352.76,1313.93 
  "/>
<polyline clip-path="url(#clip122)" style="stroke:#000000; stroke-width:2; stroke-opacity:0.1; fill:none" points="
  238.13,1025.21 2352.76,1025.21 
  "/>
<polyline clip-path="url(#clip122)" style="stroke:#000000; stroke-width:2; stroke-opacity:0.1; fill:none" points="
  238.13,736.5 2352.76,736.5 
  "/>
<polyline clip-path="url(#clip122)" style="stroke:#000000; stroke-width:2; stroke-opacity:0.1; fill:none" points="
  238.13,447.786 2352.76,447.786 
  "/>
<polyline clip-path="url(#clip122)" style="stroke:#000000; stroke-width:2; stroke-opacity:0.1; fill:none" points="
  238.13,159.072 2352.76,159.072 
  "/>
<polyline clip-path="url(#clip120)" style="stroke:#000000; stroke-width:4; stroke-opacity:1; fill:none" points="
  238.13,1423.18 238.13,47.2441 
  "/>
<polyline clip-path="url(#clip120)" style="stroke:#000000; stroke-width:4; stroke-opacity:1; fill:none" points="
  238.13,1313.93 263.506,1313.93 
  "/>
<polyline clip-path="url(#clip120)" style="stroke:#000000; stroke-width:4; stroke-opacity:1; fill:none" points="
  238.13,1025.21 263.506,1025.21 
  "/>
<polyline clip-path="url(#clip120)" style="stroke:#000000; stroke-width:4; stroke-opacity:1; fill:none" points="
  238.13,736.5 263.506,736.5 
  "/>
<polyline clip-path="url(#clip120)" style="stroke:#000000; stroke-width:4; stroke-opacity:1; fill:none" points="
  238.13,447.786 263.506,447.786 
  "/>
<polyline clip-path="url(#clip120)" style="stroke:#000000; stroke-width:4; stroke-opacity:1; fill:none" points="
  238.13,159.072 263.506,159.072 
  "/>
<path clip-path="url(#clip120)" d="M 0 0 M126.205 1299.73 Q122.593 1299.73 120.765 1303.29 Q118.959 1306.83 118.959 1313.96 Q118.959 1321.07 120.765 1324.63 Q122.593 1328.18 126.205 1328.18 Q129.839 1328.18 131.644 1324.63 Q133.473 1321.07 133.473 1313.96 Q133.473 1306.83 131.644 1303.29 Q129.839 1299.73 126.205 1299.73 M126.205 1296.02 Q132.015 1296.02 135.07 1300.63 Q138.149 1305.21 138.149 1313.96 Q138.149 1322.69 135.07 1327.3 Q132.015 1331.88 126.205 1331.88 Q120.394 1331.88 117.316 1327.3 Q114.26 1322.69 114.26 1313.96 Q114.26 1305.21 117.316 1300.63 Q120.394 1296.02 126.205 1296.02 Z" fill="#000000" fill-rule="evenodd" fill-opacity="1" /><path clip-path="url(#clip120)" d="M 0 0 M143.218 1325.33 L148.103 1325.33 L148.103 1331.21 L143.218 1331.21 L143.218 1325.33 Z" fill="#000000" fill-rule="evenodd" fill-opacity="1" /><path clip-path="url(#clip120)" d="M 0 0 M163.172 1299.73 Q159.561 1299.73 157.732 1303.29 Q155.927 1306.83 155.927 1313.96 Q155.927 1321.07 157.732 1324.63 Q159.561 1328.18 163.172 1328.18 Q166.806 1328.18 168.612 1324.63 Q170.44 1321.07 170.44 1313.96 Q170.44 1306.83 168.612 1303.29 Q166.806 1299.73 163.172 1299.73 M163.172 1296.02 Q168.982 1296.02 172.038 1300.63 Q175.116 1305.21 175.116 1313.96 Q175.116 1322.69 172.038 1327.3 Q168.982 1331.88 163.172 1331.88 Q157.362 1331.88 154.283 1327.3 Q151.228 1322.69 151.228 1313.96 Q151.228 1305.21 154.283 1300.63 Q157.362 1296.02 163.172 1296.02 Z" fill="#000000" fill-rule="evenodd" fill-opacity="1" /><path clip-path="url(#clip120)" d="M 0 0 M190.186 1299.73 Q186.575 1299.73 184.746 1303.29 Q182.94 1306.83 182.94 1313.96 Q182.94 1321.07 184.746 1324.63 Q186.575 1328.18 190.186 1328.18 Q193.82 1328.18 195.625 1324.63 Q197.454 1321.07 197.454 1313.96 Q197.454 1306.83 195.625 1303.29 Q193.82 1299.73 190.186 1299.73 M190.186 1296.02 Q195.996 1296.02 199.051 1300.63 Q202.13 1305.21 202.13 1313.96 Q202.13 1322.69 199.051 1327.3 Q195.996 1331.88 190.186 1331.88 Q184.376 1331.88 181.297 1327.3 Q178.241 1322.69 178.241 1313.96 Q178.241 1305.21 181.297 1300.63 Q184.376 1296.02 190.186 1296.02 Z" fill="#000000" fill-rule="evenodd" fill-opacity="1" /><path clip-path="url(#clip120)" d="M 0 0 M128.797 1011.01 Q125.186 1011.01 123.357 1014.58 Q121.552 1018.12 121.552 1025.25 Q121.552 1032.35 123.357 1035.92 Q125.186 1039.46 128.797 1039.46 Q132.431 1039.46 134.237 1035.92 Q136.066 1032.35 136.066 1025.25 Q136.066 1018.12 134.237 1014.58 Q132.431 1011.01 128.797 1011.01 M128.797 1007.31 Q134.607 1007.31 137.663 1011.92 Q140.741 1016.5 140.741 1025.25 Q140.741 1033.98 137.663 1038.58 Q134.607 1043.17 128.797 1043.17 Q122.987 1043.17 119.908 1038.58 Q116.853 1033.98 116.853 1025.25 Q116.853 1016.5 119.908 1011.92 Q122.987 1007.31 128.797 1007.31 Z" fill="#000000" fill-rule="evenodd" fill-opacity="1" /><path clip-path="url(#clip120)" d="M 0 0 M145.811 1036.61 L150.695 1036.61 L150.695 1042.49 L145.811 1042.49 L145.811 1036.61 Z" fill="#000000" fill-rule="evenodd" fill-opacity="1" /><path clip-path="url(#clip120)" d="M 0 0 M159.792 1038.56 L176.112 1038.56 L176.112 1042.49 L154.167 1042.49 L154.167 1038.56 Q156.829 1035.8 161.413 1031.17 Q166.019 1026.52 167.2 1025.18 Q169.445 1022.66 170.325 1020.92 Q171.227 1019.16 171.227 1017.47 Q171.227 1014.72 169.283 1012.98 Q167.362 1011.24 164.26 1011.24 Q162.061 1011.24 159.607 1012.01 Q157.177 1012.77 154.399 1014.32 L154.399 1009.6 Q157.223 1008.47 159.677 1007.89 Q162.13 1007.31 164.167 1007.31 Q169.538 1007.31 172.732 1009.99 Q175.926 1012.68 175.926 1017.17 Q175.926 1019.3 175.116 1021.22 Q174.329 1023.12 172.223 1025.71 Q171.644 1026.38 168.542 1029.6 Q165.44 1032.79 159.792 1038.56 Z" fill="#000000" fill-rule="evenodd" fill-opacity="1" /><path clip-path="url(#clip120)" d="M 0 0 M181.227 1007.93 L199.584 1007.93 L199.584 1011.87 L185.51 1011.87 L185.51 1020.34 Q186.528 1019.99 187.547 1019.83 Q188.565 1019.65 189.584 1019.65 Q195.371 1019.65 198.75 1022.82 Q202.13 1025.99 202.13 1031.41 Q202.13 1036.98 198.658 1040.09 Q195.186 1043.17 188.866 1043.17 Q186.69 1043.17 184.422 1042.79 Q182.176 1042.42 179.769 1041.68 L179.769 1036.98 Q181.852 1038.12 184.075 1038.67 Q186.297 1039.23 188.774 1039.23 Q192.778 1039.23 195.116 1037.12 Q197.454 1035.02 197.454 1031.41 Q197.454 1027.79 195.116 1025.69 Q192.778 1023.58 188.774 1023.58 Q186.899 1023.58 185.024 1024 Q183.172 1024.42 181.227 1025.29 L181.227 1007.93 Z" fill="#000000" fill-rule="evenodd" fill-opacity="1" /><path clip-path="url(#clip120)" d="M 0 0 M127.2 722.298 Q123.589 722.298 121.76 725.863 Q119.955 729.405 119.955 736.535 Q119.955 743.641 121.76 747.206 Q123.589 750.747 127.2 750.747 Q130.834 750.747 132.64 747.206 Q134.468 743.641 134.468 736.535 Q134.468 729.405 132.64 725.863 Q130.834 722.298 127.2 722.298 M127.2 718.595 Q133.01 718.595 136.066 723.201 Q139.144 727.785 139.144 736.535 Q139.144 745.261 136.066 749.868 Q133.01 754.451 127.2 754.451 Q121.39 754.451 118.311 749.868 Q115.256 745.261 115.256 736.535 Q115.256 727.785 118.311 723.201 Q121.39 718.595 127.2 718.595 Z" fill="#000000" fill-rule="evenodd" fill-opacity="1" /><path clip-path="url(#clip120)" d="M 0 0 M144.214 747.9 L149.098 747.9 L149.098 753.78 L144.214 753.78 L144.214 747.9 Z" fill="#000000" fill-rule="evenodd" fill-opacity="1" /><path clip-path="url(#clip120)" d="M 0 0 M154.214 719.22 L172.57 719.22 L172.57 723.155 L158.496 723.155 L158.496 731.627 Q159.515 731.28 160.533 731.118 Q161.552 730.933 162.57 730.933 Q168.357 730.933 171.737 734.104 Q175.116 737.275 175.116 742.692 Q175.116 748.271 171.644 751.372 Q168.172 754.451 161.852 754.451 Q159.677 754.451 157.408 754.081 Q155.163 753.71 152.755 752.97 L152.755 748.271 Q154.839 749.405 157.061 749.96 Q159.283 750.516 161.76 750.516 Q165.765 750.516 168.102 748.409 Q170.44 746.303 170.44 742.692 Q170.44 739.081 168.102 736.974 Q165.765 734.868 161.76 734.868 Q159.885 734.868 158.01 735.285 Q156.158 735.701 154.214 736.581 L154.214 719.22 Z" fill="#000000" fill-rule="evenodd" fill-opacity="1" /><path clip-path="url(#clip120)" d="M 0 0 M190.186 722.298 Q186.575 722.298 184.746 725.863 Q182.94 729.405 182.94 736.535 Q182.94 743.641 184.746 747.206 Q186.575 750.747 190.186 750.747 Q193.82 750.747 195.625 747.206 Q197.454 743.641 197.454 736.535 Q197.454 729.405 195.625 725.863 Q193.82 722.298 190.186 722.298 M190.186 718.595 Q195.996 718.595 199.051 723.201 Q202.13 727.785 202.13 736.535 Q202.13 745.261 199.051 749.868 Q195.996 754.451 190.186 754.451 Q184.376 754.451 181.297 749.868 Q178.241 745.261 178.241 736.535 Q178.241 727.785 181.297 723.201 Q184.376 718.595 190.186 718.595 Z" fill="#000000" fill-rule="evenodd" fill-opacity="1" /><path clip-path="url(#clip120)" d="M 0 0 M128.103 433.585 Q124.492 433.585 122.663 437.149 Q120.857 440.691 120.857 447.821 Q120.857 454.927 122.663 458.492 Q124.492 462.034 128.103 462.034 Q131.737 462.034 133.542 458.492 Q135.371 454.927 135.371 447.821 Q135.371 440.691 133.542 437.149 Q131.737 433.585 128.103 433.585 M128.103 429.881 Q133.913 429.881 136.968 434.487 Q140.047 439.071 140.047 447.821 Q140.047 456.547 136.968 461.154 Q133.913 465.737 128.103 465.737 Q122.293 465.737 119.214 461.154 Q116.158 456.547 116.158 447.821 Q116.158 439.071 119.214 434.487 Q122.293 429.881 128.103 429.881 Z" fill="#000000" fill-rule="evenodd" fill-opacity="1" /><path clip-path="url(#clip120)" d="M 0 0 M145.116 459.186 L150.001 459.186 L150.001 465.066 L145.116 465.066 L145.116 459.186 Z" fill="#000000" fill-rule="evenodd" fill-opacity="1" /><path clip-path="url(#clip120)" d="M 0 0 M153.89 430.506 L176.112 430.506 L176.112 432.497 L163.565 465.066 L158.681 465.066 L170.487 434.441 L153.89 434.441 L153.89 430.506 Z" fill="#000000" fill-rule="evenodd" fill-opacity="1" /><path clip-path="url(#clip120)" d="M 0 0 M181.227 430.506 L199.584 430.506 L199.584 434.441 L185.51 434.441 L185.51 442.913 Q186.528 442.566 187.547 442.404 Q188.565 442.219 189.584 442.219 Q195.371 442.219 198.75 445.39 Q202.13 448.561 202.13 453.978 Q202.13 459.557 198.658 462.659 Q195.186 465.737 188.866 465.737 Q186.69 465.737 184.422 465.367 Q182.176 464.996 179.769 464.256 L179.769 459.557 Q181.852 460.691 184.075 461.246 Q186.297 461.802 188.774 461.802 Q192.778 461.802 195.116 459.696 Q197.454 457.589 197.454 453.978 Q197.454 450.367 195.116 448.26 Q192.778 446.154 188.774 446.154 Q186.899 446.154 185.024 446.571 Q183.172 446.987 181.227 447.867 L181.227 430.506 Z" fill="#000000" fill-rule="evenodd" fill-opacity="1" /><path clip-path="url(#clip120)" d="M 0 0 M118.242 172.417 L125.88 172.417 L125.88 146.051 L117.57 147.718 L117.57 143.459 L125.834 141.792 L130.51 141.792 L130.51 172.417 L138.149 172.417 L138.149 176.352 L118.242 176.352 L118.242 172.417 Z" fill="#000000" fill-rule="evenodd" fill-opacity="1" /><path clip-path="url(#clip120)" d="M 0 0 M143.218 170.472 L148.103 170.472 L148.103 176.352 L143.218 176.352 L143.218 170.472 Z" fill="#000000" fill-rule="evenodd" fill-opacity="1" /><path clip-path="url(#clip120)" d="M 0 0 M163.172 144.871 Q159.561 144.871 157.732 148.435 Q155.927 151.977 155.927 159.107 Q155.927 166.213 157.732 169.778 Q159.561 173.32 163.172 173.32 Q166.806 173.32 168.612 169.778 Q170.44 166.213 170.44 159.107 Q170.44 151.977 168.612 148.435 Q166.806 144.871 163.172 144.871 M163.172 141.167 Q168.982 141.167 172.038 145.773 Q175.116 150.357 175.116 159.107 Q175.116 167.834 172.038 172.44 Q168.982 177.023 163.172 177.023 Q157.362 177.023 154.283 172.44 Q151.228 167.834 151.228 159.107 Q151.228 150.357 154.283 145.773 Q157.362 141.167 163.172 141.167 Z" fill="#000000" fill-rule="evenodd" fill-opacity="1" /><path clip-path="url(#clip120)" d="M 0 0 M190.186 144.871 Q186.575 144.871 184.746 148.435 Q182.94 151.977 182.94 159.107 Q182.94 166.213 184.746 169.778 Q186.575 173.32 190.186 173.32 Q193.82 173.32 195.625 169.778 Q197.454 166.213 197.454 159.107 Q197.454 151.977 195.625 148.435 Q193.82 144.871 190.186 144.871 M190.186 141.167 Q195.996 141.167 199.051 145.773 Q202.13 150.357 202.13 159.107 Q202.13 167.834 199.051 172.44 Q195.996 177.023 190.186 177.023 Q184.376 177.023 181.297 172.44 Q178.241 167.834 178.241 159.107 Q178.241 150.357 181.297 145.773 Q184.376 141.167 190.186 141.167 Z" fill="#000000" fill-rule="evenodd" fill-opacity="1" /><path clip-path="url(#clip120)" d="M 0 0 M70.212 745.095 Q76.6732 745.095 80.3653 742.453 Q84.0256 739.779 84.0256 735.132 Q84.0256 730.485 80.3653 727.812 Q76.6732 725.138 70.212 725.138 Q63.7508 725.138 60.0905 727.812 Q56.3984 730.485 56.3984 735.132 Q56.3984 739.779 60.0905 742.453 Q63.7508 745.095 70.212 745.095 M82.657 725.138 Q85.8398 726.984 87.3994 729.817 Q88.9272 732.618 88.9272 736.565 Q88.9272 743.026 83.771 747.1 Q78.6147 751.142 70.212 751.142 Q61.8093 751.142 56.6531 747.1 Q51.4968 743.026 51.4968 736.565 Q51.4968 732.618 53.0564 729.817 Q54.5842 726.984 57.7671 725.138 L52.3562 725.138 L52.3562 719.282 L101.563 719.282 L101.563 725.138 L82.657 725.138 Z" fill="#000000" fill-rule="evenodd" fill-opacity="1" /><polyline clip-path="url(#clip122)" style="stroke:#009af9; stroke-width:4; stroke-opacity:1; fill:none" points="
  297.978,1313.93 300.669,1313.93 305.771,1313.93 310.872,1313.93 313.563,1313.93 316.255,1313.93 321.356,1313.93 326.458,1313.93 329.149,1313.93 331.84,1313.93 
  336.941,1313.93 342.043,1313.93 344.734,1313.93 347.425,1313.93 352.527,1313.93 357.628,1313.93 360.32,1313.93 363.011,1313.93 368.112,1313.93 373.214,1313.93 
  375.905,1313.93 378.596,1313.93 383.698,1313.93 388.799,1313.93 391.49,1313.93 394.181,1313.93 399.283,1313.93 404.385,1313.93 407.076,1313.93 409.767,1313.93 
  414.868,1313.93 419.97,1313.93 422.661,1313.93 425.352,1313.93 430.454,1313.93 435.555,1313.93 438.246,1313.93 440.938,1313.93 446.039,1313.93 451.141,1313.93 
  453.832,1313.93 456.523,1313.93 461.625,1313.93 466.726,1313.93 469.417,1313.93 472.108,1313.93 477.21,1313.93 482.311,1313.93 485.003,1313.93 487.694,1313.93 
  492.795,1313.93 497.897,1313.93 500.588,1313.93 503.279,1313.93 508.381,1313.93 513.482,1313.93 516.173,1313.93 518.865,1313.93 523.966,1313.93 529.068,1313.93 
  531.759,1313.93 534.45,1313.93 539.552,1313.93 544.653,1313.93 547.344,1313.93 550.035,1313.93 555.137,1313.93 560.238,1313.93 562.93,1313.93 565.621,1313.93 
  570.722,1313.93 575.824,1313.93 578.515,1313.93 581.206,1313.93 586.308,1313.93 591.409,1313.93 594.1,1313.93 596.792,1313.93 601.893,1313.93 606.995,1313.93 
  609.686,1313.93 612.377,1313.93 617.478,1313.93 622.58,1313.93 625.271,1313.93 627.962,1313.93 633.064,1313.93 638.165,1313.93 640.857,1313.93 643.548,1313.93 
  648.649,1313.93 653.751,1313.93 656.442,1313.93 659.133,1313.93 664.235,1313.93 669.336,1313.93 672.027,1313.93 674.719,1313.93 679.82,1313.93 684.922,1313.93 
  687.613,1313.93 690.304,1313.93 695.405,1313.93 700.507,1313.93 703.198,1313.93 705.889,1313.93 710.991,1313.93 716.092,1313.93 718.784,1313.93 721.475,1313.93 
  726.576,159.072 731.678,159.072 734.369,159.072 737.06,159.072 742.162,159.072 747.263,159.072 749.954,159.072 752.645,159.072 757.747,159.072 762.849,159.072 
  765.54,159.072 768.231,159.072 773.332,159.072 778.434,159.072 781.125,159.072 783.816,159.072 788.918,159.072 794.019,159.072 796.71,159.072 799.402,159.072 
  804.503,159.072 809.605,159.072 812.296,159.072 814.987,159.072 820.089,159.072 825.19,159.072 827.881,159.072 830.572,159.072 835.674,159.072 840.775,159.072 
  843.467,159.072 846.158,159.072 851.259,159.072 856.361,159.072 859.052,159.072 861.743,159.072 866.845,159.072 871.946,159.072 874.637,159.072 877.329,159.072 
  882.43,159.072 887.532,159.072 890.223,159.072 892.914,159.072 898.016,159.072 903.117,159.072 905.808,159.072 908.499,159.072 913.601,159.072 918.702,159.072 
  921.394,159.072 924.085,159.072 929.186,159.072 934.288,159.072 936.979,159.072 939.67,159.072 944.772,159.072 949.873,159.072 952.564,159.072 955.256,159.072 
  960.357,159.072 965.459,159.072 968.15,159.072 970.841,159.072 975.942,159.072 981.044,159.072 983.735,159.072 986.426,159.072 991.528,159.072 996.629,159.072 
  999.321,159.072 1002.01,159.072 1007.11,159.072 1012.21,1313.93 1014.91,1313.93 1017.6,1313.93 1022.7,1313.93 1027.8,1313.93 1030.49,1313.93 1033.18,1313.93 
  1038.28,1313.93 1043.39,1313.93 1046.08,1313.93 1048.77,1313.93 1053.87,1313.93 1058.97,1313.93 1061.66,1313.93 1064.35,1313.93 1069.45,1313.93 1074.56,1313.93 
  1077.25,1313.93 1079.94,1313.93 1085.04,1313.93 1090.14,1313.93 1092.83,1313.93 1095.52,1313.93 1100.63,1313.93 1105.73,1313.93 1108.42,1313.93 1111.11,1313.93 
  1116.21,1313.93 1121.31,1313.93 1124,1313.93 1126.69,1313.93 1131.8,1313.93 1136.9,1313.93 1139.59,1313.93 1142.28,1313.93 1147.38,1313.93 1152.48,1313.93 
  1155.17,1313.93 1157.87,1313.93 1162.97,1313.93 1168.07,1313.93 1170.76,1313.93 1173.45,1313.93 1178.55,1313.93 1183.65,1313.93 1186.35,1313.93 1189.04,1313.93 
  1194.14,1313.93 1199.24,1313.93 1201.93,1313.93 1204.62,1313.93 1209.72,1313.93 1214.82,1313.93 1217.52,1313.93 1220.21,1313.93 1225.31,1313.93 1230.41,1313.93 
  1233.1,1313.93 1235.79,1313.93 1240.89,1313.93 1246,1313.93 1248.69,1313.93 1251.38,1313.93 1256.48,1313.93 1261.58,1313.93 1264.27,1313.93 1266.96,1313.93 
  1272.06,1313.93 1277.17,1313.93 1279.86,1313.93 1282.55,1313.93 1287.65,1313.93 1292.75,1313.93 1295.44,1313.93 1298.13,1313.93 1303.24,1313.93 1308.34,1313.93 
  1311.03,1313.93 1313.72,1313.93 1318.82,1313.93 1323.92,1313.93 1326.61,1313.93 1329.3,1313.93 1334.41,1313.93 1339.51,1313.93 1342.2,1313.93 1344.89,1313.93 
  1349.99,1313.93 1355.09,1313.93 1357.78,1313.93 1360.48,1313.93 1365.58,1313.93 1370.68,1313.93 1373.37,1313.93 1376.06,1313.93 1381.16,1313.93 1386.26,1313.93 
  1388.96,1313.93 1391.65,1313.93 1396.75,1313.93 1401.85,1313.93 1404.54,1313.93 1407.23,1313.93 1412.33,1313.93 1417.43,1313.93 1420.13,1313.93 1422.82,1313.93 
  1427.92,1313.93 1433.02,1313.93 1435.71,1313.93 1438.4,1313.93 1443.5,1313.93 1448.61,1313.93 1451.3,1313.93 1453.99,1313.93 1459.09,1313.93 1464.19,1313.93 
  1466.88,1313.93 1469.57,1313.93 1474.67,1313.93 1479.78,1313.93 1482.47,1313.93 1485.16,1313.93 1490.26,1313.93 1495.36,1313.93 1498.05,1313.93 1500.74,1313.93 
  1505.85,1313.93 1510.95,1313.93 1513.64,1313.93 1516.33,1313.93 1521.43,1313.93 1526.53,1313.93 1529.22,1313.93 1531.92,1313.93 1537.02,1313.93 1542.12,1313.93 
  1544.81,1313.93 1547.5,1313.93 1552.6,1313.93 1557.7,1313.93 1560.39,1313.93 1563.09,1313.93 1568.19,1313.93 1573.29,1313.93 1575.98,1313.93 1578.67,1313.93 
  1583.77,1313.93 1588.87,1313.93 1591.57,1313.93 1594.26,1313.93 1599.36,1313.93 1604.46,1313.93 1607.15,1313.93 1609.84,1313.93 1614.94,1313.93 1620.05,1313.93 
  1622.74,1313.93 1625.43,1313.93 1630.53,1313.93 1635.63,1313.93 1638.32,1313.93 1641.01,1313.93 1646.11,1313.93 1651.22,1313.93 1653.91,1313.93 1656.6,1313.93 
  1661.7,1313.93 1666.8,1313.93 1669.49,1313.93 1672.18,1313.93 1677.29,1313.93 1682.39,1313.93 1685.08,1313.93 1687.77,1313.93 1692.87,1313.93 1697.97,1313.93 
  1700.66,1313.93 1703.35,1313.93 1708.46,1313.93 1713.56,1313.93 1716.25,1313.93 1718.94,1313.93 1724.04,1313.93 1729.14,1313.93 1731.83,1313.93 1734.53,1313.93 
  1739.63,1313.93 1744.73,1313.93 1747.42,1313.93 1750.11,1313.93 1755.21,1313.93 1760.31,1313.93 1763,1313.93 1765.7,1313.93 1770.8,1313.93 1775.9,1313.93 
  1778.59,1313.93 1781.28,1313.93 1786.38,1313.93 1791.48,1313.93 1794.18,1313.93 1796.87,1313.93 1801.97,1313.93 1807.07,1313.93 1809.76,1313.93 1812.45,1313.93 
  1817.55,1313.93 1822.66,1313.93 1825.35,1313.93 1828.04,1313.93 1833.14,1313.93 1838.24,1313.93 1840.93,1313.93 1843.62,1313.93 1848.72,1313.93 1853.83,1313.93 
  1856.52,1313.93 1859.21,1313.93 1864.31,1313.93 1869.41,1313.93 1872.1,1313.93 1874.79,1313.93 1879.9,1313.93 1885,1313.93 1887.69,1313.93 1890.38,1313.93 
  1895.48,1313.93 1900.58,1313.93 1903.27,1313.93 1905.96,1313.93 1911.07,1313.93 1916.17,1313.93 1918.86,1313.93 1921.55,1313.93 1926.65,1313.93 1931.75,1313.93 
  1934.44,1313.93 1937.14,1313.93 1942.24,1313.93 1947.34,1313.93 1950.03,1313.93 1952.72,1313.93 1957.82,1313.93 1962.92,1313.93 1965.61,1313.93 1968.31,1313.93 
  1973.41,1313.93 1978.51,1313.93 1981.2,1313.93 1983.89,1313.93 1988.99,1313.93 1994.09,1313.93 1996.79,1313.93 1999.48,1313.93 2004.58,1313.93 2009.68,1313.93 
  2012.37,1313.93 2015.06,1313.93 2020.16,1313.93 2025.27,1313.93 2027.96,1313.93 2030.65,1313.93 2035.75,1313.93 2040.85,1313.93 2043.54,1313.93 2046.23,1313.93 
  2051.33,1313.93 2056.44,1313.93 2059.13,1313.93 2061.82,1313.93 2066.92,1313.93 2072.02,1313.93 2074.71,1313.93 2077.4,1313.93 2082.51,1313.93 2087.61,1313.93 
  2090.3,1313.93 2092.99,1313.93 2098.09,1313.93 2103.19,1313.93 2105.88,1313.93 2108.57,1313.93 2113.68,1313.93 2118.78,1313.93 2121.47,1313.93 2124.16,1313.93 
  2129.26,1313.93 2134.36,1313.93 2137.05,1313.93 2139.75,1313.93 2144.85,1313.93 2149.95,1313.93 2152.64,1313.93 2155.33,1313.93 2160.43,1313.93 2165.53,1313.93 
  2168.22,1313.93 2170.92,1313.93 2176.02,1313.93 2181.12,1313.93 2183.81,1313.93 2186.5,1313.93 2191.6,1313.93 2196.7,1313.93 2199.4,1313.93 2202.09,1313.93 
  2207.19,1313.93 2212.29,1313.93 2214.98,1313.93 2217.67,1313.93 2222.77,1313.93 2227.88,1313.93 2230.57,1313.93 2233.26,1313.93 2238.36,1313.93 2243.46,1313.93 
  2246.15,1313.93 2248.84,1313.93 2253.94,1313.93 2259.05,1313.93 2261.74,1313.93 2264.43,1313.93 2269.53,1313.93 2274.63,1313.93 2277.32,1313.93 2280.01,1313.93 
  2285.12,1313.93 2290.22,1313.93 2292.91,1313.93 
  "/>
<polyline clip-path="url(#clip122)" style="stroke:#e26f46; stroke-width:4; stroke-opacity:1; fill:none" points="
  297.978,1313.93 300.669,1313.93 305.771,1313.93 310.872,1313.93 313.563,1313.93 316.255,1313.93 321.356,1313.93 326.458,1313.93 329.149,1313.93 331.84,1313.93 
  336.941,1313.93 342.043,1313.93 344.734,1313.93 347.425,1313.93 352.527,1313.93 357.628,1313.93 360.32,1313.93 363.011,1313.93 368.112,1313.93 373.214,1313.93 
  375.905,1313.93 378.596,1313.93 383.698,1313.93 388.799,1313.93 391.49,1313.93 394.181,1313.93 399.283,1313.93 404.385,1313.93 407.076,1313.93 409.767,1313.93 
  414.868,1313.93 419.97,1313.93 422.661,1313.93 425.352,1313.93 430.454,1313.93 435.555,1313.93 438.246,1313.93 440.938,1313.93 446.039,1313.93 451.141,1313.93 
  453.832,1313.93 456.523,1313.93 461.625,1313.93 466.726,1313.93 469.417,1313.93 472.108,1313.93 477.21,1313.93 482.311,1313.93 485.003,1313.93 487.694,1313.93 
  492.795,1313.93 497.897,1313.93 500.588,1313.93 503.279,1313.93 508.381,1313.93 513.482,1313.93 516.173,1313.93 518.865,1313.93 523.966,1313.93 529.068,1313.93 
  531.759,1313.93 534.45,1313.93 539.552,1313.93 544.653,1313.93 547.344,1313.93 550.035,1313.93 555.137,1313.93 560.238,1313.93 562.93,1313.93 565.621,1313.93 
  570.722,1313.93 575.824,1313.93 578.515,1313.93 581.206,1313.93 586.308,1313.93 591.409,1313.93 594.1,1313.93 596.792,1313.93 601.893,1313.93 606.995,1313.93 
  609.686,1313.93 612.377,1313.93 617.478,1313.93 622.58,1313.93 625.271,1313.93 627.962,1313.93 633.064,1313.93 638.165,1313.93 640.857,1313.93 643.548,1313.93 
  648.649,1313.93 653.751,1313.93 656.442,1313.93 659.133,1313.93 664.235,1313.93 669.336,1313.93 672.027,1313.93 674.719,1313.93 679.82,1313.93 684.922,1313.93 
  687.613,1313.93 690.304,1313.93 695.405,1313.93 700.507,1313.93 703.198,1313.93 705.889,1313.93 710.991,1313.93 716.092,1313.93 718.784,1313.93 721.475,1313.93 
  726.576,1313.93 731.678,1313.93 734.369,1313.93 737.06,1313.93 742.162,1313.93 747.263,1313.93 749.954,1313.93 752.645,1313.93 757.747,1313.93 762.849,1313.93 
  765.54,1313.93 768.231,1313.93 773.332,1313.93 778.434,1313.93 781.125,1313.93 783.816,1313.93 788.918,1313.93 794.019,1313.93 796.71,1313.93 799.402,1313.93 
  804.503,1313.93 809.605,1313.93 812.296,1313.93 814.987,1313.93 820.089,1313.93 825.19,1313.93 827.881,1313.93 830.572,1313.93 835.674,1313.93 840.775,1313.93 
  843.467,1313.93 846.158,1313.93 851.259,1313.93 856.361,1313.93 859.052,1313.93 861.743,1313.93 866.845,1313.93 871.946,1313.93 874.637,1313.93 877.329,1313.93 
  882.43,1313.93 887.532,1313.93 890.223,1313.93 892.914,1313.93 898.016,1313.93 903.117,1313.93 905.808,1313.93 908.499,1313.93 913.601,1313.93 918.702,1313.93 
  921.394,1313.93 924.085,1313.93 929.186,1313.93 934.288,1313.93 936.979,1313.93 939.67,1313.93 944.772,1313.93 949.873,1313.93 952.564,1313.93 955.256,1313.93 
  960.357,1313.93 965.459,1313.93 968.15,1313.93 970.841,1313.93 975.942,1313.93 981.044,1313.93 983.735,1313.93 986.426,1313.93 991.528,1313.93 996.629,1313.93 
  999.321,1313.93 1002.01,1313.93 1007.11,1313.93 1012.21,1313.93 1014.91,1313.93 1017.6,1313.93 1022.7,1313.93 1027.8,1313.93 1030.49,1313.93 1033.18,1313.93 
  1038.28,1313.93 1043.39,1313.93 1046.08,1313.93 1048.77,1313.93 1053.87,1313.93 1058.97,1313.93 1061.66,1313.93 1064.35,1313.93 1069.45,1313.93 1074.56,1313.93 
  1077.25,1313.93 1079.94,1313.93 1085.04,1313.93 1090.14,1313.93 1092.83,1313.93 1095.52,1313.93 1100.63,1313.93 1105.73,1313.93 1108.42,1313.93 1111.11,1313.93 
  1116.21,1313.93 1121.31,1313.93 1124,1313.93 1126.69,1313.93 1131.8,1313.92 1136.9,1313.92 1139.59,1313.92 1142.28,1313.92 1147.38,1313.93 1152.48,1313.95 
  1155.17,1313.96 1157.87,1313.97 1162.97,1313.96 1168.07,1313.92 1170.76,1313.89 1173.45,1313.83 1178.55,1313.75 1183.65,1313.74 1186.35,1313.75 1189.04,1313.86 
  1194.14,1314.18 1199.24,1314.59 1201.93,1314.81 1204.62,1315 1209.72,1314.84 1214.82,1313.91 1217.52,1313.24 1220.21,1311.84 1225.31,1309.36 1230.41,1307.48 
  1233.1,1306.8 1235.79,1307.41 1240.89,1312.32 1246,1322.24 1248.69,1328.76 1251.38,1338.97 1256.48,1356.18 1261.58,1368.26 1264.27,1371.94 1266.96,1369.52 
  1272.06,1341.95 1277.17,1283.15 1279.86,1241.27 1282.55,1180.84 1287.65,1042.54 1292.75,878.828 1295.44,784.684 1298.13,685.456 1303.24,508.428 1308.34,351.636 
  1311.03,276.6 1313.72,219.081 1318.82,139.889 1323.92,96.7048 1326.61,86.1857 1329.3,88.1729 1334.41,102.047 1339.51,123.56 1342.2,137.276 1344.89,148.044 
  1349.99,163.188 1355.09,170.829 1357.78,172.278 1360.48,170.929 1365.58,166.964 1370.68,162.3 1373.37,159.65 1376.06,158.165 1381.16,156.572 1386.26,156.498 
  1388.96,156.975 1391.65,157.639 1396.75,158.743 1401.85,159.481 1404.54,159.737 1407.23,159.716 1412.33,159.545 1417.43,159.273 1420.13,159.098 1422.82,159.011 
  1427.92,158.921 1433.02,158.926 1435.71,158.962 1438.4,158.993 1443.5,159.042 1448.61,159.077 1451.3,159.088 1453.99,159.112 1459.09,159.171 1464.19,159.235 
  1466.88,159.268 1469.57,159.27 1474.67,159.152 1479.78,158.866 1482.47,158.683 1485.16,158.38 1490.26,158.035 1495.36,158.111 1498.05,158.275 1500.74,159.002 
  1505.85,160.908 1510.95,163.327 1513.64,164.642 1516.33,165.877 1521.43,165.625 1526.53,161.494 1529.22,158.169 1531.92,151.211 1537.02,135.816 1542.12,118.998 
  1544.81,110.49 1547.5,102.901 1552.6,103.927 1557.7,127.591 1560.39,148.405 1563.09,185.235 1568.19,283.483 1573.29,415.706 1575.98,496.459 1578.67,590.38 
  1583.77,771.284 1588.87,948.736 1591.57,1040.2 1594.26,1120.09 1599.36,1243.11 1604.46,1328.77 1607.15,1360.98 1609.84,1375.64 1614.94,1384.24 1620.05,1373.73 
  1622.74,1361.92 1625.43,1348.91 1630.53,1326.87 1635.63,1310.72 1638.32,1304.32 1641.01,1302.28 1646.11,1302.04 1651.22,1305.38 1653.91,1308.32 1656.6,1310.85 
  1661.7,1314.53 1666.8,1316.43 1669.49,1316.81 1672.18,1316.44 1677.29,1315.45 1682.39,1314.36 1685.08,1313.77 1687.77,1313.51 1692.87,1313.3 1697.97,1313.41 
  1700.66,1313.59 1703.35,1313.75 1708.46,1313.98 1713.56,1314.09 1716.25,1314.1 1718.94,1314.06 1724.04,1313.99 1729.14,1313.92 1731.83,1313.89 1734.53,1313.89 
  1739.63,1313.89 1744.73,1313.91 1747.42,1313.92 1750.11,1313.93 1755.21,1313.94 1760.31,1313.94 1763,1313.93 1765.7,1313.93 1770.8,1313.93 1775.9,1313.92 
  1778.59,1313.92 1781.28,1313.93 1786.38,1313.93 1791.48,1313.93 1794.18,1313.93 1796.87,1313.93 1801.97,1313.93 1807.07,1313.93 1809.76,1313.93 1812.45,1313.93 
  1817.55,1313.93 1822.66,1313.93 1825.35,1313.93 1828.04,1313.93 1833.14,1313.93 1838.24,1313.93 1840.93,1313.93 1843.62,1313.93 1848.72,1313.93 1853.83,1313.93 
  1856.52,1313.93 1859.21,1313.93 1864.31,1313.93 1869.41,1313.93 1872.1,1313.93 1874.79,1313.93 1879.9,1313.93 1885,1313.93 1887.69,1313.93 1890.38,1313.93 
  1895.48,1313.93 1900.58,1313.93 1903.27,1313.93 1905.96,1313.93 1911.07,1313.93 1916.17,1313.93 1918.86,1313.93 1921.55,1313.93 1926.65,1313.93 1931.75,1313.93 
  1934.44,1313.93 1937.14,1313.93 1942.24,1313.93 1947.34,1313.93 1950.03,1313.93 1952.72,1313.93 1957.82,1313.93 1962.92,1313.93 1965.61,1313.93 1968.31,1313.93 
  1973.41,1313.93 1978.51,1313.93 1981.2,1313.93 1983.89,1313.93 1988.99,1313.93 1994.09,1313.93 1996.79,1313.93 1999.48,1313.93 2004.58,1313.93 2009.68,1313.93 
  2012.37,1313.93 2015.06,1313.93 2020.16,1313.93 2025.27,1313.93 2027.96,1313.93 2030.65,1313.93 2035.75,1313.93 2040.85,1313.93 2043.54,1313.93 2046.23,1313.93 
  2051.33,1313.93 2056.44,1313.93 2059.13,1313.93 2061.82,1313.93 2066.92,1313.93 2072.02,1313.93 2074.71,1313.93 2077.4,1313.93 2082.51,1313.93 2087.61,1313.93 
  2090.3,1313.93 2092.99,1313.93 2098.09,1313.93 2103.19,1313.93 2105.88,1313.93 2108.57,1313.93 2113.68,1313.93 2118.78,1313.93 2121.47,1313.93 2124.16,1313.93 
  2129.26,1313.93 2134.36,1313.93 2137.05,1313.93 2139.75,1313.93 2144.85,1313.93 2149.95,1313.93 2152.64,1313.93 2155.33,1313.93 2160.43,1313.93 2165.53,1313.93 
  2168.22,1313.93 2170.92,1313.93 2176.02,1313.93 2181.12,1313.93 2183.81,1313.93 2186.5,1313.93 2191.6,1313.93 2196.7,1313.93 2199.4,1313.93 2202.09,1313.93 
  2207.19,1313.93 2212.29,1313.93 2214.98,1313.93 2217.67,1313.93 2222.77,1313.93 2227.88,1313.93 2230.57,1313.93 2233.26,1313.93 2238.36,1313.93 2243.46,1313.93 
  2246.15,1313.93 2248.84,1313.93 2253.94,1313.93 2259.05,1313.93 2261.74,1313.93 2264.43,1313.93 2269.53,1313.93 2274.63,1313.93 2277.32,1313.93 2280.01,1313.93 
  2285.12,1313.93 2290.22,1313.93 2292.91,1313.93 
  "/>
<path clip-path="url(#clip120)" d="
M1802.38 274.549 L2282.27 274.549 L2282.27 93.1086 L1802.38 93.1086  Z
  " fill="#ffffff" fill-rule="evenodd" fill-opacity="1"/>
<polyline clip-path="url(#clip120)" style="stroke:#000000; stroke-width:4; stroke-opacity:1; fill:none" points="
  1802.38,274.549 2282.27,274.549 2282.27,93.1086 1802.38,93.1086 1802.38,274.549 
  "/>
<polyline clip-path="url(#clip120)" style="stroke:#009af9; stroke-width:4; stroke-opacity:1; fill:none" points="
  1825.88,153.589 1966.85,153.589 
  "/>
<path clip-path="url(#clip120)" d="M 0 0 M1994.75 157.929 Q1994.75 162.628 1996.67 165.313 Q1998.61 167.975 2001.99 167.975 Q2005.37 167.975 2007.31 165.313 Q2009.26 162.628 2009.26 157.929 Q2009.26 153.23 2007.31 150.568 Q2005.37 147.883 2001.99 147.883 Q1998.61 147.883 1996.67 150.568 Q1994.75 153.23 1994.75 157.929 M2009.26 166.98 Q2007.92 169.295 2005.86 170.429 Q2003.82 171.54 2000.95 171.54 Q1996.25 171.54 1993.29 167.79 Q1990.35 164.04 1990.35 157.929 Q1990.35 151.818 1993.29 148.068 Q1996.25 144.318 2000.95 144.318 Q2003.82 144.318 2005.86 145.452 Q2007.92 146.563 2009.26 148.878 L2009.26 144.943 L2013.52 144.943 L2013.52 180.73 L2009.26 180.73 L2009.26 166.98 Z" fill="#000000" fill-rule="evenodd" fill-opacity="1" /><path clip-path="url(#clip120)" d="M 0 0 M2019.07 164.989 L2023.96 164.989 L2023.96 168.97 L2020.16 176.378 L2017.18 176.378 L2019.07 168.97 L2019.07 164.989 Z" fill="#000000" fill-rule="evenodd" fill-opacity="1" /><path clip-path="url(#clip120)" d="M 0 0 M2047.71 137.582 L2047.71 144.943 L2056.48 144.943 L2056.48 148.253 L2047.71 148.253 L2047.71 162.327 Q2047.71 165.498 2048.56 166.401 Q2049.44 167.304 2052.11 167.304 L2056.48 167.304 L2056.48 170.869 L2052.11 170.869 Q2047.18 170.869 2045.3 169.04 Q2043.43 167.188 2043.43 162.327 L2043.43 148.253 L2040.3 148.253 L2040.3 144.943 L2043.43 144.943 L2043.43 137.582 L2047.71 137.582 Z" fill="#000000" fill-rule="evenodd" fill-opacity="1" /><path clip-path="url(#clip120)" d="M 0 0 M2061.5 149.341 L2091.18 149.341 L2091.18 153.23 L2061.5 153.23 L2061.5 149.341 M2061.5 158.785 L2091.18 158.785 L2091.18 162.721 L2061.5 162.721 L2061.5 158.785 Z" fill="#000000" fill-rule="evenodd" fill-opacity="1" /><path clip-path="url(#clip120)" d="M 0 0 M2106.25 139.387 Q2102.64 139.387 2100.81 142.952 Q2099 146.494 2099 153.623 Q2099 160.73 2100.81 164.295 Q2102.64 167.836 2106.25 167.836 Q2109.88 167.836 2111.69 164.295 Q2113.52 160.73 2113.52 153.623 Q2113.52 146.494 2111.69 142.952 Q2109.88 139.387 2106.25 139.387 M2106.25 135.684 Q2112.06 135.684 2115.12 140.29 Q2118.19 144.873 2118.19 153.623 Q2118.19 162.35 2115.12 166.957 Q2112.06 171.54 2106.25 171.54 Q2100.44 171.54 2097.36 166.957 Q2094.31 162.35 2094.31 153.623 Q2094.31 144.873 2097.36 140.29 Q2100.44 135.684 2106.25 135.684 Z" fill="#000000" fill-rule="evenodd" fill-opacity="1" /><path clip-path="url(#clip120)" d="M 0 0 M2123.26 164.989 L2128.15 164.989 L2128.15 170.869 L2123.26 170.869 L2123.26 164.989 Z" fill="#000000" fill-rule="evenodd" fill-opacity="1" /><path clip-path="url(#clip120)" d="M 0 0 M2143.22 139.387 Q2139.61 139.387 2137.78 142.952 Q2135.97 146.494 2135.97 153.623 Q2135.97 160.73 2137.78 164.295 Q2139.61 167.836 2143.22 167.836 Q2146.85 167.836 2148.66 164.295 Q2150.49 160.73 2150.49 153.623 Q2150.49 146.494 2148.66 142.952 Q2146.85 139.387 2143.22 139.387 M2143.22 135.684 Q2149.03 135.684 2152.08 140.29 Q2155.16 144.873 2155.16 153.623 Q2155.16 162.35 2152.08 166.957 Q2149.03 171.54 2143.22 171.54 Q2137.41 171.54 2134.33 166.957 Q2131.27 162.35 2131.27 153.623 Q2131.27 144.873 2134.33 140.29 Q2137.41 135.684 2143.22 135.684 Z" fill="#000000" fill-rule="evenodd" fill-opacity="1" /><polyline clip-path="url(#clip120)" style="stroke:#e26f46; stroke-width:4; stroke-opacity:1; fill:none" points="
  1825.88,214.069 1966.85,214.069 
  "/>
<path clip-path="url(#clip120)" d="M 0 0 M1994.75 218.409 Q1994.75 223.108 1996.67 225.793 Q1998.61 228.455 2001.99 228.455 Q2005.37 228.455 2007.31 225.793 Q2009.26 223.108 2009.26 218.409 Q2009.26 213.71 2007.31 211.048 Q2005.37 208.363 2001.99 208.363 Q1998.61 208.363 1996.67 211.048 Q1994.75 213.71 1994.75 218.409 M2009.26 227.46 Q2007.92 229.775 2005.86 230.909 Q2003.82 232.02 2000.95 232.02 Q1996.25 232.02 1993.29 228.27 Q1990.35 224.52 1990.35 218.409 Q1990.35 212.298 1993.29 208.548 Q1996.25 204.798 2000.95 204.798 Q2003.82 204.798 2005.86 205.932 Q2007.92 207.043 2009.26 209.358 L2009.26 205.423 L2013.52 205.423 L2013.52 241.21 L2009.26 241.21 L2009.26 227.46 Z" fill="#000000" fill-rule="evenodd" fill-opacity="1" /><path clip-path="url(#clip120)" d="M 0 0 M2019.07 225.469 L2023.96 225.469 L2023.96 229.45 L2020.16 236.858 L2017.18 236.858 L2019.07 229.45 L2019.07 225.469 Z" fill="#000000" fill-rule="evenodd" fill-opacity="1" /><path clip-path="url(#clip120)" d="M 0 0 M2047.71 198.062 L2047.71 205.423 L2056.48 205.423 L2056.48 208.733 L2047.71 208.733 L2047.71 222.807 Q2047.71 225.978 2048.56 226.881 Q2049.44 227.784 2052.11 227.784 L2056.48 227.784 L2056.48 231.349 L2052.11 231.349 Q2047.18 231.349 2045.3 229.52 Q2043.43 227.668 2043.43 222.807 L2043.43 208.733 L2040.3 208.733 L2040.3 205.423 L2043.43 205.423 L2043.43 198.062 L2047.71 198.062 Z" fill="#000000" fill-rule="evenodd" fill-opacity="1" /><path clip-path="url(#clip120)" d="M 0 0 M2061.5 209.821 L2091.18 209.821 L2091.18 213.71 L2061.5 213.71 L2061.5 209.821 M2061.5 219.265 L2091.18 219.265 L2091.18 223.201 L2061.5 223.201 L2061.5 219.265 Z" fill="#000000" fill-rule="evenodd" fill-opacity="1" /><path clip-path="url(#clip120)" d="M 0 0 M2109.1 200.863 L2097.29 219.312 L2109.1 219.312 L2109.1 200.863 M2107.87 196.789 L2113.75 196.789 L2113.75 219.312 L2118.68 219.312 L2118.68 223.201 L2113.75 223.201 L2113.75 231.349 L2109.1 231.349 L2109.1 223.201 L2093.5 223.201 L2093.5 218.687 L2107.87 196.789 Z" fill="#000000" fill-rule="evenodd" fill-opacity="1" /><path clip-path="url(#clip120)" d="M 0 0 M2123.8 196.789 L2142.15 196.789 L2142.15 200.724 L2128.08 200.724 L2128.08 209.196 Q2129.1 208.849 2130.12 208.687 Q2131.13 208.502 2132.15 208.502 Q2137.94 208.502 2141.32 211.673 Q2144.7 214.844 2144.7 220.261 Q2144.7 225.839 2141.23 228.941 Q2137.75 232.02 2131.43 232.02 Q2129.26 232.02 2126.99 231.65 Q2124.74 231.279 2122.34 230.538 L2122.34 225.839 Q2124.42 226.974 2126.64 227.529 Q2128.87 228.085 2131.34 228.085 Q2135.35 228.085 2137.68 225.978 Q2140.02 223.872 2140.02 220.261 Q2140.02 216.65 2137.68 214.543 Q2135.35 212.437 2131.34 212.437 Q2129.47 212.437 2127.59 212.853 Q2125.74 213.27 2123.8 214.15 L2123.8 196.789 Z" fill="#000000" fill-rule="evenodd" fill-opacity="1" /><path clip-path="url(#clip120)" d="M 0 0 M2159.77 199.867 Q2156.16 199.867 2154.33 203.432 Q2152.52 206.974 2152.52 214.103 Q2152.52 221.21 2154.33 224.775 Q2156.16 228.316 2159.77 228.316 Q2163.4 228.316 2165.21 224.775 Q2167.04 221.21 2167.04 214.103 Q2167.04 206.974 2165.21 203.432 Q2163.4 199.867 2159.77 199.867 M2159.77 196.164 Q2165.58 196.164 2168.63 200.77 Q2171.71 205.353 2171.71 214.103 Q2171.71 222.83 2168.63 227.437 Q2165.58 232.02 2159.77 232.02 Q2153.96 232.02 2150.88 227.437 Q2147.82 222.83 2147.82 214.103 Q2147.82 205.353 2150.88 200.77 Q2153.96 196.164 2159.77 196.164 Z" fill="#000000" fill-rule="evenodd" fill-opacity="1" /><path clip-path="url(#clip120)" d="M 0 0 M2176.78 225.469 L2181.67 225.469 L2181.67 231.349 L2176.78 231.349 L2176.78 225.469 Z" fill="#000000" fill-rule="evenodd" fill-opacity="1" /><path clip-path="url(#clip120)" d="M 0 0 M2199.58 200.863 L2187.78 219.312 L2199.58 219.312 L2199.58 200.863 M2198.36 196.789 L2204.24 196.789 L2204.24 219.312 L2209.17 219.312 L2209.17 223.201 L2204.24 223.201 L2204.24 231.349 L2199.58 231.349 L2199.58 223.201 L2183.98 223.201 L2183.98 218.687 L2198.36 196.789 Z" fill="#000000" fill-rule="evenodd" fill-opacity="1" /><path clip-path="url(#clip120)" d="M 0 0 M2213.05 196.789 L2235.28 196.789 L2235.28 198.779 L2222.73 231.349 L2217.85 231.349 L2229.65 200.724 L2213.05 200.724 L2213.05 196.789 Z" fill="#000000" fill-rule="evenodd" fill-opacity="1" /></svg>
