<?xml version="1.0" encoding="utf-8"?>
<svg xmlns="http://www.w3.org/2000/svg" xmlns:xlink="http://www.w3.org/1999/xlink" width="600" height="400" viewBox="0 0 2400 1600">
<defs>
  <clipPath id="clip000">
    <rect x="0" y="0" width="2400" height="1600"/>
  </clipPath>
</defs>
<path clip-path="url(#clip000)" d="
M0 1600 L2400 1600 L2400 0 L0 0  Z
  " fill="#ffffff" fill-rule="evenodd" fill-opacity="1"/>
<defs>
  <clipPath id="clip001">
    <rect x="480" y="0" width="1681" height="1600"/>
  </clipPath>
</defs>
<path clip-path="url(#clip000)" d="
M238.13 1423.18 L2352.76 1423.18 L2352.76 47.2441 L238.13 47.2441  Z
  " fill="#ffffff" fill-rule="evenodd" fill-opacity="1"/>
<defs>
  <clipPath id="clip002">
    <rect x="238" y="47" width="2116" height="1377"/>
  </clipPath>
</defs>
<polyline clip-path="url(#clip002)" style="stroke:#000000; stroke-width:2; stroke-opacity:0.1; fill:none" points="
  297.978,1423.18 297.978,47.2441 
  "/>
<polyline clip-path="url(#clip002)" style="stroke:#000000; stroke-width:2; stroke-opacity:0.1; fill:none" points="
  867.958,1423.18 867.958,47.2441 
  "/>
<polyline clip-path="url(#clip002)" style="stroke:#000000; stroke-width:2; stroke-opacity:0.1; fill:none" points="
  1437.94,1423.18 1437.94,47.2441 
  "/>
<polyline clip-path="url(#clip002)" style="stroke:#000000; stroke-width:2; stroke-opacity:0.1; fill:none" points="
  2007.92,1423.18 2007.92,47.2441 
  "/>
<polyline clip-path="url(#clip000)" style="stroke:#000000; stroke-width:4; stroke-opacity:1; fill:none" points="
  238.13,1423.18 2352.76,1423.18 
  "/>
<polyline clip-path="url(#clip000)" style="stroke:#000000; stroke-width:4; stroke-opacity:1; fill:none" points="
  297.978,1423.18 297.978,1406.67 
  "/>
<polyline clip-path="url(#clip000)" style="stroke:#000000; stroke-width:4; stroke-opacity:1; fill:none" points="
  867.958,1423.18 867.958,1406.67 
  "/>
<polyline clip-path="url(#clip000)" style="stroke:#000000; stroke-width:4; stroke-opacity:1; fill:none" points="
  1437.94,1423.18 1437.94,1406.67 
  "/>
<polyline clip-path="url(#clip000)" style="stroke:#000000; stroke-width:4; stroke-opacity:1; fill:none" points="
  2007.92,1423.18 2007.92,1406.67 
  "/>
<path clip-path="url(#clip000)" d="M 0 0 M297.978 1452.37 Q294.367 1452.37 292.538 1455.94 Q290.733 1459.48 290.733 1466.61 Q290.733 1473.71 292.538 1477.28 Q294.367 1480.82 297.978 1480.82 Q301.612 1480.82 303.418 1477.28 Q305.246 1473.71 305.246 1466.61 Q305.246 1459.48 303.418 1455.94 Q301.612 1452.37 297.978 1452.37 M297.978 1448.67 Q303.788 1448.67 306.844 1453.27 Q309.922 1457.86 309.922 1466.61 Q309.922 1475.33 306.844 1479.94 Q303.788 1484.52 297.978 1484.52 Q292.168 1484.52 289.089 1479.94 Q286.034 1475.33 286.034 1466.61 Q286.034 1457.86 289.089 1453.27 Q292.168 1448.67 297.978 1448.67 Z" fill="#000000" fill-rule="evenodd" fill-opacity="1" /><path clip-path="url(#clip000)" d="M 0 0 M831.326 1479.92 L838.965 1479.92 L838.965 1453.55 L830.655 1455.22 L830.655 1450.96 L838.919 1449.29 L843.595 1449.29 L843.595 1479.92 L851.234 1479.92 L851.234 1483.85 L831.326 1483.85 L831.326 1479.92 Z" fill="#000000" fill-rule="evenodd" fill-opacity="1" /><path clip-path="url(#clip000)" d="M 0 0 M866.303 1452.37 Q862.692 1452.37 860.863 1455.94 Q859.058 1459.48 859.058 1466.61 Q859.058 1473.71 860.863 1477.28 Q862.692 1480.82 866.303 1480.82 Q869.937 1480.82 871.743 1477.28 Q873.571 1473.71 873.571 1466.61 Q873.571 1459.48 871.743 1455.94 Q869.937 1452.37 866.303 1452.37 M866.303 1448.67 Q872.113 1448.67 875.169 1453.27 Q878.247 1457.86 878.247 1466.61 Q878.247 1475.33 875.169 1479.94 Q872.113 1484.52 866.303 1484.52 Q860.493 1484.52 857.414 1479.94 Q854.359 1475.33 854.359 1466.61 Q854.359 1457.86 857.414 1453.27 Q860.493 1448.67 866.303 1448.67 Z" fill="#000000" fill-rule="evenodd" fill-opacity="1" /><path clip-path="url(#clip000)" d="M 0 0 M893.317 1452.37 Q889.706 1452.37 887.877 1455.94 Q886.071 1459.48 886.071 1466.61 Q886.071 1473.71 887.877 1477.28 Q889.706 1480.82 893.317 1480.82 Q896.951 1480.82 898.756 1477.28 Q900.585 1473.71 900.585 1466.61 Q900.585 1459.48 898.756 1455.94 Q896.951 1452.37 893.317 1452.37 M893.317 1448.67 Q899.127 1448.67 902.182 1453.27 Q905.261 1457.86 905.261 1466.61 Q905.261 1475.33 902.182 1479.94 Q899.127 1484.52 893.317 1484.52 Q887.506 1484.52 884.428 1479.94 Q881.372 1475.33 881.372 1466.61 Q881.372 1457.86 884.428 1453.27 Q887.506 1448.67 893.317 1448.67 Z" fill="#000000" fill-rule="evenodd" fill-opacity="1" /><path clip-path="url(#clip000)" d="M 0 0 M1405.58 1479.92 L1421.9 1479.92 L1421.9 1483.85 L1399.95 1483.85 L1399.95 1479.92 Q1402.61 1477.16 1407.2 1472.53 Q1411.8 1467.88 1412.98 1466.54 Q1415.23 1464.01 1416.11 1462.28 Q1417.01 1460.52 1417.01 1458.83 Q1417.01 1456.07 1415.07 1454.34 Q1413.15 1452.6 1410.04 1452.6 Q1407.85 1452.6 1405.39 1453.37 Q1402.96 1454.13 1400.18 1455.68 L1400.18 1450.96 Q1403.01 1449.82 1405.46 1449.25 Q1407.91 1448.67 1409.95 1448.67 Q1415.32 1448.67 1418.52 1451.35 Q1421.71 1454.04 1421.71 1458.53 Q1421.71 1460.66 1420.9 1462.58 Q1420.11 1464.48 1418.01 1467.07 Q1417.43 1467.74 1414.33 1470.96 Q1411.23 1474.15 1405.58 1479.92 Z" fill="#000000" fill-rule="evenodd" fill-opacity="1" /><path clip-path="url(#clip000)" d="M 0 0 M1436.97 1452.37 Q1433.35 1452.37 1431.53 1455.94 Q1429.72 1459.48 1429.72 1466.61 Q1429.72 1473.71 1431.53 1477.28 Q1433.35 1480.82 1436.97 1480.82 Q1440.6 1480.82 1442.41 1477.28 Q1444.23 1473.71 1444.23 1466.61 Q1444.23 1459.48 1442.41 1455.94 Q1440.6 1452.37 1436.97 1452.37 M1436.97 1448.67 Q1442.78 1448.67 1445.83 1453.27 Q1448.91 1457.86 1448.91 1466.61 Q1448.91 1475.33 1445.83 1479.94 Q1442.78 1484.52 1436.97 1484.52 Q1431.16 1484.52 1428.08 1479.94 Q1425.02 1475.33 1425.02 1466.61 Q1425.02 1457.86 1428.08 1453.27 Q1431.16 1448.67 1436.97 1448.67 Z" fill="#000000" fill-rule="evenodd" fill-opacity="1" /><path clip-path="url(#clip000)" d="M 0 0 M1463.98 1452.37 Q1460.37 1452.37 1458.54 1455.94 Q1456.73 1459.48 1456.73 1466.61 Q1456.73 1473.71 1458.54 1477.28 Q1460.37 1480.82 1463.98 1480.82 Q1467.61 1480.82 1469.42 1477.28 Q1471.25 1473.71 1471.25 1466.61 Q1471.25 1459.48 1469.42 1455.94 Q1467.61 1452.37 1463.98 1452.37 M1463.98 1448.67 Q1469.79 1448.67 1472.85 1453.27 Q1475.92 1457.86 1475.92 1466.61 Q1475.92 1475.33 1472.85 1479.94 Q1469.79 1484.52 1463.98 1484.52 Q1458.17 1484.52 1455.09 1479.94 Q1452.04 1475.33 1452.04 1466.61 Q1452.04 1457.86 1455.09 1453.27 Q1458.17 1448.67 1463.98 1448.67 Z" fill="#000000" fill-rule="evenodd" fill-opacity="1" /><path clip-path="url(#clip000)" d="M 0 0 M1985.15 1465.22 Q1988.51 1465.94 1990.38 1468.2 Q1992.28 1470.47 1992.28 1473.81 Q1992.28 1478.92 1988.76 1481.72 Q1985.24 1484.52 1978.76 1484.52 Q1976.59 1484.52 1974.27 1484.08 Q1971.98 1483.67 1969.53 1482.81 L1969.53 1478.3 Q1971.47 1479.43 1973.79 1480.01 Q1976.1 1480.59 1978.62 1480.59 Q1983.02 1480.59 1985.31 1478.85 Q1987.63 1477.12 1987.63 1473.81 Q1987.63 1470.75 1985.48 1469.04 Q1983.35 1467.3 1979.53 1467.3 L1975.5 1467.3 L1975.5 1463.46 L1979.71 1463.46 Q1983.16 1463.46 1984.99 1462.09 Q1986.82 1460.7 1986.82 1458.11 Q1986.82 1455.45 1984.92 1454.04 Q1983.05 1452.6 1979.53 1452.6 Q1977.61 1452.6 1975.41 1453.02 Q1973.21 1453.44 1970.57 1454.31 L1970.57 1450.15 Q1973.23 1449.41 1975.55 1449.04 Q1977.88 1448.67 1979.94 1448.67 Q1985.27 1448.67 1988.37 1451.1 Q1991.47 1453.5 1991.47 1457.63 Q1991.47 1460.5 1989.83 1462.49 Q1988.18 1464.45 1985.15 1465.22 Z" fill="#000000" fill-rule="evenodd" fill-opacity="1" /><path clip-path="url(#clip000)" d="M 0 0 M2007.35 1452.37 Q2003.74 1452.37 2001.91 1455.94 Q2000.11 1459.48 2000.11 1466.61 Q2000.11 1473.71 2001.91 1477.28 Q2003.74 1480.82 2007.35 1480.82 Q2010.99 1480.82 2012.79 1477.28 Q2014.62 1473.71 2014.62 1466.61 Q2014.62 1459.48 2012.79 1455.94 Q2010.99 1452.37 2007.35 1452.37 M2007.35 1448.67 Q2013.16 1448.67 2016.22 1453.27 Q2019.3 1457.86 2019.3 1466.61 Q2019.3 1475.33 2016.22 1479.94 Q2013.16 1484.52 2007.35 1484.52 Q2001.54 1484.52 1998.46 1479.94 Q1995.41 1475.33 1995.41 1466.61 Q1995.41 1457.86 1998.46 1453.27 Q2001.54 1448.67 2007.35 1448.67 Z" fill="#000000" fill-rule="evenodd" fill-opacity="1" /><path clip-path="url(#clip000)" d="M 0 0 M2034.36 1452.37 Q2030.75 1452.37 2028.92 1455.94 Q2027.12 1459.48 2027.12 1466.61 Q2027.12 1473.71 2028.92 1477.28 Q2030.75 1480.82 2034.36 1480.82 Q2038 1480.82 2039.8 1477.28 Q2041.63 1473.71 2041.63 1466.61 Q2041.63 1459.48 2039.8 1455.94 Q2038 1452.37 2034.36 1452.37 M2034.36 1448.67 Q2040.17 1448.67 2043.23 1453.27 Q2046.31 1457.86 2046.31 1466.61 Q2046.31 1475.33 2043.23 1479.94 Q2040.17 1484.52 2034.36 1484.52 Q2028.55 1484.52 2025.48 1479.94 Q2022.42 1475.33 2022.42 1466.61 Q2022.42 1457.86 2025.48 1453.27 Q2028.55 1448.67 2034.36 1448.67 Z" fill="#000000" fill-rule="evenodd" fill-opacity="1" /><path clip-path="url(#clip000)" d="M 0 0 M1312.06 1520.4 L1299.17 1537.74 L1312.73 1556.04 L1305.82 1556.04 L1295.44 1542.04 L1285.07 1556.04 L1278.16 1556.04 L1292.01 1537.39 L1279.34 1520.4 L1286.24 1520.4 L1295.7 1533.1 L1305.15 1520.4 L1312.06 1520.4 Z" fill="#000000" fill-rule="evenodd" fill-opacity="1" /><polyline clip-path="url(#clip002)" style="stroke:#000000; stroke-width:2; stroke-opacity:0.1; fill:none" points="
  238.13,1316.89 2352.76,1316.89 
  "/>
<polyline clip-path="url(#clip002)" style="stroke:#000000; stroke-width:2; stroke-opacity:0.1; fill:none" points="
  238.13,1026.5 2352.76,1026.5 
  "/>
<polyline clip-path="url(#clip002)" style="stroke:#000000; stroke-width:2; stroke-opacity:0.1; fill:none" points="
  238.13,736.113 2352.76,736.113 
  "/>
<polyline clip-path="url(#clip002)" style="stroke:#000000; stroke-width:2; stroke-opacity:0.1; fill:none" points="
  238.13,445.725 2352.76,445.725 
  "/>
<polyline clip-path="url(#clip002)" style="stroke:#000000; stroke-width:2; stroke-opacity:0.1; fill:none" points="
  238.13,155.337 2352.76,155.337 
  "/>
<polyline clip-path="url(#clip000)" style="stroke:#000000; stroke-width:4; stroke-opacity:1; fill:none" points="
  238.13,1423.18 238.13,47.2441 
  "/>
<polyline clip-path="url(#clip000)" style="stroke:#000000; stroke-width:4; stroke-opacity:1; fill:none" points="
  238.13,1316.89 263.506,1316.89 
  "/>
<polyline clip-path="url(#clip000)" style="stroke:#000000; stroke-width:4; stroke-opacity:1; fill:none" points="
  238.13,1026.5 263.506,1026.5 
  "/>
<polyline clip-path="url(#clip000)" style="stroke:#000000; stroke-width:4; stroke-opacity:1; fill:none" points="
  238.13,736.113 263.506,736.113 
  "/>
<polyline clip-path="url(#clip000)" style="stroke:#000000; stroke-width:4; stroke-opacity:1; fill:none" points="
  238.13,445.725 263.506,445.725 
  "/>
<polyline clip-path="url(#clip000)" style="stroke:#000000; stroke-width:4; stroke-opacity:1; fill:none" points="
  238.13,155.337 263.506,155.337 
  "/>
<path clip-path="url(#clip000)" d="M 0 0 M126.205 1302.69 Q122.593 1302.69 120.765 1306.25 Q118.959 1309.79 118.959 1316.92 Q118.959 1324.03 120.765 1327.59 Q122.593 1331.14 126.205 1331.14 Q129.839 1331.14 131.644 1327.59 Q133.473 1324.03 133.473 1316.92 Q133.473 1309.79 131.644 1306.25 Q129.839 1302.69 126.205 1302.69 M126.205 1298.98 Q132.015 1298.98 135.07 1303.59 Q138.149 1308.17 138.149 1316.92 Q138.149 1325.65 135.07 1330.26 Q132.015 1334.84 126.205 1334.84 Q120.394 1334.84 117.316 1330.26 Q114.26 1325.65 114.26 1316.92 Q114.26 1308.17 117.316 1303.59 Q120.394 1298.98 126.205 1298.98 Z" fill="#000000" fill-rule="evenodd" fill-opacity="1" /><path clip-path="url(#clip000)" d="M 0 0 M143.218 1328.29 L148.103 1328.29 L148.103 1334.17 L143.218 1334.17 L143.218 1328.29 Z" fill="#000000" fill-rule="evenodd" fill-opacity="1" /><path clip-path="url(#clip000)" d="M 0 0 M163.172 1302.69 Q159.561 1302.69 157.732 1306.25 Q155.927 1309.79 155.927 1316.92 Q155.927 1324.03 157.732 1327.59 Q159.561 1331.14 163.172 1331.14 Q166.806 1331.14 168.612 1327.59 Q170.44 1324.03 170.44 1316.92 Q170.44 1309.79 168.612 1306.25 Q166.806 1302.69 163.172 1302.69 M163.172 1298.98 Q168.982 1298.98 172.038 1303.59 Q175.116 1308.17 175.116 1316.92 Q175.116 1325.65 172.038 1330.26 Q168.982 1334.84 163.172 1334.84 Q157.362 1334.84 154.283 1330.26 Q151.228 1325.65 151.228 1316.92 Q151.228 1308.17 154.283 1303.59 Q157.362 1298.98 163.172 1298.98 Z" fill="#000000" fill-rule="evenodd" fill-opacity="1" /><path clip-path="url(#clip000)" d="M 0 0 M190.186 1302.69 Q186.575 1302.69 184.746 1306.25 Q182.94 1309.79 182.94 1316.92 Q182.94 1324.03 184.746 1327.59 Q186.575 1331.14 190.186 1331.14 Q193.82 1331.14 195.625 1327.59 Q197.454 1324.03 197.454 1316.92 Q197.454 1309.79 195.625 1306.25 Q193.82 1302.69 190.186 1302.69 M190.186 1298.98 Q195.996 1298.98 199.051 1303.59 Q202.13 1308.17 202.13 1316.92 Q202.13 1325.65 199.051 1330.26 Q195.996 1334.84 190.186 1334.84 Q184.376 1334.84 181.297 1330.26 Q178.241 1325.65 178.241 1316.92 Q178.241 1308.17 181.297 1303.59 Q184.376 1298.98 190.186 1298.98 Z" fill="#000000" fill-rule="evenodd" fill-opacity="1" /><path clip-path="url(#clip000)" d="M 0 0 M128.797 1012.3 Q125.186 1012.3 123.357 1015.86 Q121.552 1019.41 121.552 1026.54 Q121.552 1033.64 123.357 1037.21 Q125.186 1040.75 128.797 1040.75 Q132.431 1040.75 134.237 1037.21 Q136.066 1033.64 136.066 1026.54 Q136.066 1019.41 134.237 1015.86 Q132.431 1012.3 128.797 1012.3 M128.797 1008.6 Q134.607 1008.6 137.663 1013.2 Q140.741 1017.79 140.741 1026.54 Q140.741 1035.26 137.663 1039.87 Q134.607 1044.45 128.797 1044.45 Q122.987 1044.45 119.908 1039.87 Q116.853 1035.26 116.853 1026.54 Q116.853 1017.79 119.908 1013.2 Q122.987 1008.6 128.797 1008.6 Z" fill="#000000" fill-rule="evenodd" fill-opacity="1" /><path clip-path="url(#clip000)" d="M 0 0 M145.811 1037.9 L150.695 1037.9 L150.695 1043.78 L145.811 1043.78 L145.811 1037.9 Z" fill="#000000" fill-rule="evenodd" fill-opacity="1" /><path clip-path="url(#clip000)" d="M 0 0 M159.792 1039.85 L176.112 1039.85 L176.112 1043.78 L154.167 1043.78 L154.167 1039.85 Q156.829 1037.09 161.413 1032.46 Q166.019 1027.81 167.2 1026.47 Q169.445 1023.94 170.325 1022.21 Q171.227 1020.45 171.227 1018.76 Q171.227 1016 169.283 1014.27 Q167.362 1012.53 164.26 1012.53 Q162.061 1012.53 159.607 1013.29 Q157.177 1014.06 154.399 1015.61 L154.399 1010.89 Q157.223 1009.75 159.677 1009.17 Q162.13 1008.6 164.167 1008.6 Q169.538 1008.6 172.732 1011.28 Q175.926 1013.97 175.926 1018.46 Q175.926 1020.59 175.116 1022.51 Q174.329 1024.41 172.223 1027 Q171.644 1027.67 168.542 1030.89 Q165.44 1034.08 159.792 1039.85 Z" fill="#000000" fill-rule="evenodd" fill-opacity="1" /><path clip-path="url(#clip000)" d="M 0 0 M181.227 1009.22 L199.584 1009.22 L199.584 1013.16 L185.51 1013.16 L185.51 1021.63 Q186.528 1021.28 187.547 1021.12 Q188.565 1020.93 189.584 1020.93 Q195.371 1020.93 198.75 1024.11 Q202.13 1027.28 202.13 1032.69 Q202.13 1038.27 198.658 1041.37 Q195.186 1044.45 188.866 1044.45 Q186.69 1044.45 184.422 1044.08 Q182.176 1043.71 179.769 1042.97 L179.769 1038.27 Q181.852 1039.41 184.075 1039.96 Q186.297 1040.52 188.774 1040.52 Q192.778 1040.52 195.116 1038.41 Q197.454 1036.3 197.454 1032.69 Q197.454 1029.08 195.116 1026.98 Q192.778 1024.87 188.774 1024.87 Q186.899 1024.87 185.024 1025.29 Q183.172 1025.7 181.227 1026.58 L181.227 1009.22 Z" fill="#000000" fill-rule="evenodd" fill-opacity="1" /><path clip-path="url(#clip000)" d="M 0 0 M127.2 721.912 Q123.589 721.912 121.76 725.477 Q119.955 729.018 119.955 736.148 Q119.955 743.254 121.76 746.819 Q123.589 750.361 127.2 750.361 Q130.834 750.361 132.64 746.819 Q134.468 743.254 134.468 736.148 Q134.468 729.018 132.64 725.477 Q130.834 721.912 127.2 721.912 M127.2 718.208 Q133.01 718.208 136.066 722.815 Q139.144 727.398 139.144 736.148 Q139.144 744.875 136.066 749.481 Q133.01 754.064 127.2 754.064 Q121.39 754.064 118.311 749.481 Q115.256 744.875 115.256 736.148 Q115.256 727.398 118.311 722.815 Q121.39 718.208 127.2 718.208 Z" fill="#000000" fill-rule="evenodd" fill-opacity="1" /><path clip-path="url(#clip000)" d="M 0 0 M144.214 747.513 L149.098 747.513 L149.098 753.393 L144.214 753.393 L144.214 747.513 Z" fill="#000000" fill-rule="evenodd" fill-opacity="1" /><path clip-path="url(#clip000)" d="M 0 0 M154.214 718.833 L172.57 718.833 L172.57 722.768 L158.496 722.768 L158.496 731.24 Q159.515 730.893 160.533 730.731 Q161.552 730.546 162.57 730.546 Q168.357 730.546 171.737 733.717 Q175.116 736.889 175.116 742.305 Q175.116 747.884 171.644 750.986 Q168.172 754.064 161.852 754.064 Q159.677 754.064 157.408 753.694 Q155.163 753.324 152.755 752.583 L152.755 747.884 Q154.839 749.018 157.061 749.574 Q159.283 750.129 161.76 750.129 Q165.765 750.129 168.102 748.023 Q170.44 745.916 170.44 742.305 Q170.44 738.694 168.102 736.588 Q165.765 734.481 161.76 734.481 Q159.885 734.481 158.01 734.898 Q156.158 735.314 154.214 736.194 L154.214 718.833 Z" fill="#000000" fill-rule="evenodd" fill-opacity="1" /><path clip-path="url(#clip000)" d="M 0 0 M190.186 721.912 Q186.575 721.912 184.746 725.477 Q182.94 729.018 182.94 736.148 Q182.94 743.254 184.746 746.819 Q186.575 750.361 190.186 750.361 Q193.82 750.361 195.625 746.819 Q197.454 743.254 197.454 736.148 Q197.454 729.018 195.625 725.477 Q193.82 721.912 190.186 721.912 M190.186 718.208 Q195.996 718.208 199.051 722.815 Q202.13 727.398 202.13 736.148 Q202.13 744.875 199.051 749.481 Q195.996 754.064 190.186 754.064 Q184.376 754.064 181.297 749.481 Q178.241 744.875 178.241 736.148 Q178.241 727.398 181.297 722.815 Q184.376 718.208 190.186 718.208 Z" fill="#000000" fill-rule="evenodd" fill-opacity="1" /><path clip-path="url(#clip000)" d="M 0 0 M128.103 431.524 Q124.492 431.524 122.663 435.089 Q120.857 438.63 120.857 445.76 Q120.857 452.866 122.663 456.431 Q124.492 459.973 128.103 459.973 Q131.737 459.973 133.542 456.431 Q135.371 452.866 135.371 445.76 Q135.371 438.63 133.542 435.089 Q131.737 431.524 128.103 431.524 M128.103 427.82 Q133.913 427.82 136.968 432.427 Q140.047 437.01 140.047 445.76 Q140.047 454.487 136.968 459.093 Q133.913 463.677 128.103 463.677 Q122.293 463.677 119.214 459.093 Q116.158 454.487 116.158 445.76 Q116.158 437.01 119.214 432.427 Q122.293 427.82 128.103 427.82 Z" fill="#000000" fill-rule="evenodd" fill-opacity="1" /><path clip-path="url(#clip000)" d="M 0 0 M145.116 457.126 L150.001 457.126 L150.001 463.005 L145.116 463.005 L145.116 457.126 Z" fill="#000000" fill-rule="evenodd" fill-opacity="1" /><path clip-path="url(#clip000)" d="M 0 0 M153.89 428.445 L176.112 428.445 L176.112 430.436 L163.565 463.005 L158.681 463.005 L170.487 432.38 L153.89 432.38 L153.89 428.445 Z" fill="#000000" fill-rule="evenodd" fill-opacity="1" /><path clip-path="url(#clip000)" d="M 0 0 M181.227 428.445 L199.584 428.445 L199.584 432.38 L185.51 432.38 L185.51 440.853 Q186.528 440.505 187.547 440.343 Q188.565 440.158 189.584 440.158 Q195.371 440.158 198.75 443.329 Q202.13 446.501 202.13 451.917 Q202.13 457.496 198.658 460.598 Q195.186 463.677 188.866 463.677 Q186.69 463.677 184.422 463.306 Q182.176 462.936 179.769 462.195 L179.769 457.496 Q181.852 458.63 184.075 459.186 Q186.297 459.741 188.774 459.741 Q192.778 459.741 195.116 457.635 Q197.454 455.528 197.454 451.917 Q197.454 448.306 195.116 446.2 Q192.778 444.093 188.774 444.093 Q186.899 444.093 185.024 444.51 Q183.172 444.927 181.227 445.806 L181.227 428.445 Z" fill="#000000" fill-rule="evenodd" fill-opacity="1" /><path clip-path="url(#clip000)" d="M 0 0 M118.242 168.682 L125.88 168.682 L125.88 142.317 L117.57 143.983 L117.57 139.724 L125.834 138.057 L130.51 138.057 L130.51 168.682 L138.149 168.682 L138.149 172.617 L118.242 172.617 L118.242 168.682 Z" fill="#000000" fill-rule="evenodd" fill-opacity="1" /><path clip-path="url(#clip000)" d="M 0 0 M143.218 166.738 L148.103 166.738 L148.103 172.617 L143.218 172.617 L143.218 166.738 Z" fill="#000000" fill-rule="evenodd" fill-opacity="1" /><path clip-path="url(#clip000)" d="M 0 0 M163.172 141.136 Q159.561 141.136 157.732 144.701 Q155.927 148.243 155.927 155.372 Q155.927 162.479 157.732 166.043 Q159.561 169.585 163.172 169.585 Q166.806 169.585 168.612 166.043 Q170.44 162.479 170.44 155.372 Q170.44 148.243 168.612 144.701 Q166.806 141.136 163.172 141.136 M163.172 137.432 Q168.982 137.432 172.038 142.039 Q175.116 146.622 175.116 155.372 Q175.116 164.099 172.038 168.705 Q168.982 173.289 163.172 173.289 Q157.362 173.289 154.283 168.705 Q151.228 164.099 151.228 155.372 Q151.228 146.622 154.283 142.039 Q157.362 137.432 163.172 137.432 Z" fill="#000000" fill-rule="evenodd" fill-opacity="1" /><path clip-path="url(#clip000)" d="M 0 0 M190.186 141.136 Q186.575 141.136 184.746 144.701 Q182.94 148.243 182.94 155.372 Q182.94 162.479 184.746 166.043 Q186.575 169.585 190.186 169.585 Q193.82 169.585 195.625 166.043 Q197.454 162.479 197.454 155.372 Q197.454 148.243 195.625 144.701 Q193.82 141.136 190.186 141.136 M190.186 137.432 Q195.996 137.432 199.051 142.039 Q202.13 146.622 202.13 155.372 Q202.13 164.099 199.051 168.705 Q195.996 173.289 190.186 173.289 Q184.376 173.289 181.297 168.705 Q178.241 164.099 178.241 155.372 Q178.241 146.622 181.297 142.039 Q184.376 137.432 190.186 137.432 Z" fill="#000000" fill-rule="evenodd" fill-opacity="1" /><path clip-path="url(#clip000)" d="M 0 0 M70.212 745.095 Q76.6732 745.095 80.3653 742.453 Q84.0256 739.779 84.0256 735.132 Q84.0256 730.485 80.3653 727.812 Q76.6732 725.138 70.212 725.138 Q63.7508 725.138 60.0905 727.812 Q56.3984 730.485 56.3984 735.132 Q56.3984 739.779 60.0905 742.453 Q63.7508 745.095 70.212 745.095 M82.657 725.138 Q85.8398 726.984 87.3994 729.817 Q88.9272 732.618 88.9272 736.565 Q88.9272 743.026 83.771 747.1 Q78.6147 751.142 70.212 751.142 Q61.8093 751.142 56.6531 747.1 Q51.4968 743.026 51.4968 736.565 Q51.4968 732.618 53.0564 729.817 Q54.5842 726.984 57.7671 725.138 L52.3562 725.138 L52.3562 719.282 L101.563 719.282 L101.563 725.138 L82.657 725.138 Z" fill="#000000" fill-rule="evenodd" fill-opacity="1" /><polyline clip-path="url(#clip002)" style="stroke:#009af9; stroke-width:4; stroke-opacity:1; fill:none" points="
  297.978,1316.89 300.669,1316.89 305.771,1316.89 310.872,1316.89 313.563,1316.89 316.255,1316.89 321.356,1316.89 326.458,1316.89 329.149,1316.89 331.84,1316.89 
  336.941,1316.89 342.043,1316.89 344.734,1316.89 347.425,1316.89 352.527,1316.89 357.628,1316.89 360.32,1316.89 363.011,1316.89 368.112,1316.89 373.214,1316.89 
  375.905,1316.89 378.596,1316.89 383.698,1316.89 388.799,1316.89 391.49,1316.89 394.181,1316.89 399.283,1316.89 404.385,1316.89 407.076,1316.89 409.767,1316.89 
  414.868,1316.89 419.97,1316.89 422.661,1316.89 425.352,1316.89 430.454,1316.89 435.555,1316.89 438.246,1316.89 440.938,1316.89 446.039,1316.89 451.141,1316.89 
  453.832,1316.89 456.523,1316.89 461.625,1316.89 466.726,1316.89 469.417,1316.89 472.108,1316.89 477.21,1316.89 482.311,1316.89 485.003,1316.89 487.694,1316.89 
  492.795,1316.89 497.897,1316.89 500.588,1316.89 503.279,1316.89 508.381,1316.89 513.482,1316.89 516.173,1316.89 518.865,1316.89 523.966,1316.89 529.068,1316.89 
  531.759,1316.89 534.45,1316.89 539.552,1316.89 544.653,1316.89 547.344,1316.89 550.035,1316.89 555.137,1316.89 560.238,1316.89 562.93,1316.89 565.621,1316.89 
  570.722,1316.89 575.824,1316.89 578.515,1316.89 581.206,1316.89 586.308,1316.89 591.409,1316.89 594.1,1316.89 596.792,1316.89 601.893,1316.89 606.995,1316.89 
  609.686,1316.89 612.377,1316.89 617.478,1316.89 622.58,1316.89 625.271,1316.89 627.962,1316.89 633.064,1316.89 638.165,1316.89 640.857,1316.89 643.548,1316.89 
  648.649,1316.89 653.751,1316.89 656.442,1316.89 659.133,1316.89 664.235,1316.89 669.336,1316.89 672.027,1316.89 674.719,1316.89 679.82,1316.89 684.922,1316.89 
  687.613,1316.89 690.304,1316.89 695.405,1316.89 700.507,1316.89 703.198,1316.89 705.889,1316.89 710.991,1316.89 716.092,1316.89 718.784,1316.89 721.475,1316.89 
  726.576,155.337 731.678,155.337 734.369,155.337 737.06,155.337 742.162,155.337 747.263,155.337 749.954,155.337 752.645,155.337 757.747,155.337 762.849,155.337 
  765.54,155.337 768.231,155.337 773.332,155.337 778.434,155.337 781.125,155.337 783.816,155.337 788.918,155.337 794.019,155.337 796.71,155.337 799.402,155.337 
  804.503,155.337 809.605,155.337 812.296,155.337 814.987,155.337 820.089,155.337 825.19,155.337 827.881,155.337 830.572,155.337 835.674,155.337 840.775,155.337 
  843.467,155.337 846.158,155.337 851.259,155.337 856.361,155.337 859.052,155.337 861.743,155.337 866.845,155.337 871.946,155.337 874.637,155.337 877.329,155.337 
  882.43,155.337 887.532,155.337 890.223,155.337 892.914,155.337 898.016,155.337 903.117,155.337 905.808,155.337 908.499,155.337 913.601,155.337 918.702,155.337 
  921.394,155.337 924.085,155.337 929.186,155.337 934.288,155.337 936.979,155.337 939.67,155.337 944.772,155.337 949.873,155.337 952.564,155.337 955.256,155.337 
  960.357,155.337 965.459,155.337 968.15,155.337 970.841,155.337 975.942,155.337 981.044,155.337 983.735,155.337 986.426,155.337 991.528,155.337 996.629,155.337 
  999.321,155.337 1002.01,155.337 1007.11,155.337 1012.21,1316.89 1014.91,1316.89 1017.6,1316.89 1022.7,1316.89 1027.8,1316.89 1030.49,1316.89 1033.18,1316.89 
  1038.28,1316.89 1043.39,1316.89 1046.08,1316.89 1048.77,1316.89 1053.87,1316.89 1058.97,1316.89 1061.66,1316.89 1064.35,1316.89 1069.45,1316.89 1074.56,1316.89 
  1077.25,1316.89 1079.94,1316.89 1085.04,1316.89 1090.14,1316.89 1092.83,1316.89 1095.52,1316.89 1100.63,1316.89 1105.73,1316.89 1108.42,1316.89 1111.11,1316.89 
  1116.21,1316.89 1121.31,1316.89 1124,1316.89 1126.69,1316.89 1131.8,1316.89 1136.9,1316.89 1139.59,1316.89 1142.28,1316.89 1147.38,1316.89 1152.48,1316.89 
  1155.17,1316.89 1157.87,1316.89 1162.97,1316.89 1168.07,1316.89 1170.76,1316.89 1173.45,1316.89 1178.55,1316.89 1183.65,1316.89 1186.35,1316.89 1189.04,1316.89 
  1194.14,1316.89 1199.24,1316.89 1201.93,1316.89 1204.62,1316.89 1209.72,1316.89 1214.82,1316.89 1217.52,1316.89 1220.21,1316.89 1225.31,1316.89 1230.41,1316.89 
  1233.1,1316.89 1235.79,1316.89 1240.89,1316.89 1246,1316.89 1248.69,1316.89 1251.38,1316.89 1256.48,1316.89 1261.58,1316.89 1264.27,1316.89 1266.96,1316.89 
  1272.06,1316.89 1277.17,1316.89 1279.86,1316.89 1282.55,1316.89 1287.65,1316.89 1292.75,1316.89 1295.44,1316.89 1298.13,1316.89 1303.24,1316.89 1308.34,1316.89 
  1311.03,1316.89 1313.72,1316.89 1318.82,1316.89 1323.92,1316.89 1326.61,1316.89 1329.3,1316.89 1334.41,1316.89 1339.51,1316.89 1342.2,1316.89 1344.89,1316.89 
  1349.99,1316.89 1355.09,1316.89 1357.78,1316.89 1360.48,1316.89 1365.58,1316.89 1370.68,1316.89 1373.37,1316.89 1376.06,1316.89 1381.16,1316.89 1386.26,1316.89 
  1388.96,1316.89 1391.65,1316.89 1396.75,1316.89 1401.85,1316.89 1404.54,1316.89 1407.23,1316.89 1412.33,1316.89 1417.43,1316.89 1420.13,1316.89 1422.82,1316.89 
  1427.92,1316.89 1433.02,1316.89 1435.71,1316.89 1438.4,1316.89 1443.5,1316.89 1448.61,1316.89 1451.3,1316.89 1453.99,1316.89 1459.09,1316.89 1464.19,1316.89 
  1466.88,1316.89 1469.57,1316.89 1474.67,1316.89 1479.78,1316.89 1482.47,1316.89 1485.16,1316.89 1490.26,1316.89 1495.36,1316.89 1498.05,1316.89 1500.74,1316.89 
  1505.85,1316.89 1510.95,1316.89 1513.64,1316.89 1516.33,1316.89 1521.43,1316.89 1526.53,1316.89 1529.22,1316.89 1531.92,1316.89 1537.02,1316.89 1542.12,1316.89 
  1544.81,1316.89 1547.5,1316.89 1552.6,1316.89 1557.7,1316.89 1560.39,1316.89 1563.09,1316.89 1568.19,1316.89 1573.29,1316.89 1575.98,1316.89 1578.67,1316.89 
  1583.77,1316.89 1588.87,1316.89 1591.57,1316.89 1594.26,1316.89 1599.36,1316.89 1604.46,1316.89 1607.15,1316.89 1609.84,1316.89 1614.94,1316.89 1620.05,1316.89 
  1622.74,1316.89 1625.43,1316.89 1630.53,1316.89 1635.63,1316.89 1638.32,1316.89 1641.01,1316.89 1646.11,1316.89 1651.22,1316.89 1653.91,1316.89 1656.6,1316.89 
  1661.7,1316.89 1666.8,1316.89 1669.49,1316.89 1672.18,1316.89 1677.29,1316.89 1682.39,1316.89 1685.08,1316.89 1687.77,1316.89 1692.87,1316.89 1697.97,1316.89 
  1700.66,1316.89 1703.35,1316.89 1708.46,1316.89 1713.56,1316.89 1716.25,1316.89 1718.94,1316.89 1724.04,1316.89 1729.14,1316.89 1731.83,1316.89 1734.53,1316.89 
  1739.63,1316.89 1744.73,1316.89 1747.42,1316.89 1750.11,1316.89 1755.21,1316.89 1760.31,1316.89 1763,1316.89 1765.7,1316.89 1770.8,1316.89 1775.9,1316.89 
  1778.59,1316.89 1781.28,1316.89 1786.38,1316.89 1791.48,1316.89 1794.18,1316.89 1796.87,1316.89 1801.97,1316.89 1807.07,1316.89 1809.76,1316.89 1812.45,1316.89 
  1817.55,1316.89 1822.66,1316.89 1825.35,1316.89 1828.04,1316.89 1833.14,1316.89 1838.24,1316.89 1840.93,1316.89 1843.62,1316.89 1848.72,1316.89 1853.83,1316.89 
  1856.52,1316.89 1859.21,1316.89 1864.31,1316.89 1869.41,1316.89 1872.1,1316.89 1874.79,1316.89 1879.9,1316.89 1885,1316.89 1887.69,1316.89 1890.38,1316.89 
  1895.48,1316.89 1900.58,1316.89 1903.27,1316.89 1905.96,1316.89 1911.07,1316.89 1916.17,1316.89 1918.86,1316.89 1921.55,1316.89 1926.65,1316.89 1931.75,1316.89 
  1934.44,1316.89 1937.14,1316.89 1942.24,1316.89 1947.34,1316.89 1950.03,1316.89 1952.72,1316.89 1957.82,1316.89 1962.92,1316.89 1965.61,1316.89 1968.31,1316.89 
  1973.41,1316.89 1978.51,1316.89 1981.2,1316.89 1983.89,1316.89 1988.99,1316.89 1994.09,1316.89 1996.79,1316.89 1999.48,1316.89 2004.58,1316.89 2009.68,1316.89 
  2012.37,1316.89 2015.06,1316.89 2020.16,1316.89 2025.27,1316.89 2027.96,1316.89 2030.65,1316.89 2035.75,1316.89 2040.85,1316.89 2043.54,1316.89 2046.23,1316.89 
  2051.33,1316.89 2056.44,1316.89 2059.13,1316.89 2061.82,1316.89 2066.92,1316.89 2072.02,1316.89 2074.71,1316.89 2077.4,1316.89 2082.51,1316.89 2087.61,1316.89 
  2090.3,1316.89 2092.99,1316.89 2098.09,1316.89 2103.19,1316.89 2105.88,1316.89 2108.57,1316.89 2113.68,1316.89 2118.78,1316.89 2121.47,1316.89 2124.16,1316.89 
  2129.26,1316.89 2134.36,1316.89 2137.05,1316.89 2139.75,1316.89 2144.85,1316.89 2149.95,1316.89 2152.64,1316.89 2155.33,1316.89 2160.43,1316.89 2165.53,1316.89 
  2168.22,1316.89 2170.92,1316.89 2176.02,1316.89 2181.12,1316.89 2183.81,1316.89 2186.5,1316.89 2191.6,1316.89 2196.7,1316.89 2199.4,1316.89 2202.09,1316.89 
  2207.19,1316.89 2212.29,1316.89 2214.98,1316.89 2217.67,1316.89 2222.77,1316.89 2227.88,1316.89 2230.57,1316.89 2233.26,1316.89 2238.36,1316.89 2243.46,1316.89 
  2246.15,1316.89 2248.84,1316.89 2253.94,1316.89 2259.05,1316.89 2261.74,1316.89 2264.43,1316.89 2269.53,1316.89 2274.63,1316.89 2277.32,1316.89 2280.01,1316.89 
  2285.12,1316.89 2290.22,1316.89 2292.91,1316.89 
  "/>
<polyline clip-path="url(#clip002)" style="stroke:#e26f46; stroke-width:4; stroke-opacity:1; fill:none" points="
  297.978,1316.89 300.669,1316.89 305.771,1316.89 310.872,1316.89 313.563,1316.89 316.255,1316.89 321.356,1316.89 326.458,1316.89 329.149,1316.89 331.84,1316.89 
  336.941,1316.89 342.043,1316.89 344.734,1316.89 347.425,1316.89 352.527,1316.89 357.628,1316.89 360.32,1316.89 363.011,1316.89 368.112,1316.89 373.214,1316.89 
  375.905,1316.89 378.596,1316.89 383.698,1316.89 388.799,1316.89 391.49,1316.89 394.181,1316.89 399.283,1316.89 404.385,1316.89 407.076,1316.89 409.767,1316.89 
  414.868,1316.89 419.97,1316.89 422.661,1316.89 425.352,1316.89 430.454,1316.89 435.555,1316.89 438.246,1316.89 440.938,1316.89 446.039,1316.89 451.141,1316.89 
  453.832,1316.89 456.523,1316.89 461.625,1316.89 466.726,1316.89 469.417,1316.89 472.108,1316.89 477.21,1316.89 482.311,1316.89 485.003,1316.89 487.694,1316.89 
  492.795,1316.89 497.897,1316.89 500.588,1316.89 503.279,1316.89 508.381,1316.89 513.482,1316.89 516.173,1316.89 518.865,1316.89 523.966,1316.89 529.068,1316.89 
  531.759,1316.89 534.45,1316.89 539.552,1316.89 544.653,1316.89 547.344,1316.89 550.035,1316.89 555.137,1316.89 560.238,1316.89 562.93,1316.89 565.621,1316.89 
  570.722,1316.89 575.824,1316.89 578.515,1316.89 581.206,1316.89 586.308,1316.89 591.409,1316.89 594.1,1316.89 596.792,1316.89 601.893,1316.89 606.995,1316.89 
  609.686,1316.89 612.377,1316.89 617.478,1316.89 622.58,1316.89 625.271,1316.89 627.962,1316.89 633.064,1316.89 638.165,1316.89 640.857,1316.89 643.548,1316.89 
  648.649,1316.89 653.751,1316.89 656.442,1316.89 659.133,1316.89 664.235,1316.89 669.336,1316.89 672.027,1316.89 674.719,1316.89 679.82,1316.89 684.922,1316.89 
  687.613,1316.89 690.304,1316.89 695.405,1316.89 700.507,1316.89 703.198,1316.89 705.889,1316.89 710.991,1316.89 716.092,1316.89 718.784,1316.89 721.475,1316.89 
  726.576,1316.89 731.678,1316.89 734.369,1316.89 737.06,1316.89 742.162,1316.89 747.263,1316.89 749.954,1316.89 752.645,1316.89 757.747,1316.89 762.849,1316.89 
  765.54,1316.89 768.231,1316.89 773.332,1316.89 778.434,1316.89 781.125,1316.89 783.816,1316.89 788.918,1316.89 794.019,1316.89 796.71,1316.89 799.402,1316.89 
  804.503,1316.89 809.605,1316.89 812.296,1316.89 814.987,1316.89 820.089,1316.89 825.19,1316.89 827.881,1316.89 830.572,1316.89 835.674,1316.89 840.775,1316.89 
  843.467,1316.89 846.158,1316.89 851.259,1316.89 856.361,1316.89 859.052,1316.89 861.743,1316.89 866.845,1316.89 871.946,1316.89 874.637,1316.89 877.329,1316.89 
  882.43,1316.89 887.532,1316.89 890.223,1316.89 892.914,1316.89 898.016,1316.89 903.117,1316.89 905.808,1316.89 908.499,1316.89 913.601,1316.89 918.702,1316.89 
  921.394,1316.89 924.085,1316.89 929.186,1316.89 934.288,1316.89 936.979,1316.89 939.67,1316.89 944.772,1316.89 949.873,1316.89 952.564,1316.89 955.256,1316.89 
  960.357,1316.89 965.459,1316.89 968.15,1316.89 970.841,1316.89 975.942,1316.89 981.044,1316.89 983.735,1316.89 986.426,1316.89 991.528,1316.89 996.629,1316.89 
  999.321,1316.89 1002.01,1316.89 1007.11,1316.89 1012.21,1316.89 1014.91,1316.89 1017.6,1316.89 1022.7,1316.89 1027.8,1316.89 1030.49,1316.89 1033.18,1316.89 
  1038.28,1316.89 1043.39,1316.89 1046.08,1316.89 1048.77,1316.89 1053.87,1316.89 1058.97,1316.89 1061.66,1316.89 1064.35,1316.89 1069.45,1316.89 1074.56,1316.89 
  1077.25,1316.89 1079.94,1316.89 1085.04,1316.89 1090.14,1316.89 1092.83,1316.9 1095.52,1316.9 1100.63,1316.89 1105.73,1316.89 1108.42,1316.89 1111.11,1316.88 
  1116.21,1316.86 1121.31,1316.85 1124,1316.83 1126.69,1316.83 1131.8,1316.83 1136.9,1316.85 1139.59,1316.87 1142.28,1316.91 1147.38,1317.02 1152.48,1317.16 
  1155.17,1317.25 1157.87,1317.34 1162.97,1317.43 1168.07,1317.43 1170.76,1317.44 1173.45,1317.28 1178.55,1316.71 1183.65,1315.9 1186.35,1315.37 1189.04,1314.66 
  1194.14,1313.38 1199.24,1312.21 1201.93,1311.43 1204.62,1311.23 1209.72,1312.23 1214.82,1314.53 1217.52,1315.92 1220.21,1319.06 1225.31,1326.96 1230.41,1336.55 
  1233.1,1342.49 1235.79,1349.04 1240.89,1359.63 1246,1368.32 1248.69,1373.77 1251.38,1373.9 1256.48,1363.95 1261.58,1344.7 1264.27,1333.57 1266.96,1309.78 
  1272.06,1248.99 1277.17,1174.59 1279.86,1131.82 1282.55,1076.37 1287.65,961.693 1292.75,839.384 1295.44,771.12 1298.13,701.138 1303.24,574.04 1308.34,452.558 
  1311.03,387.944 1313.72,334.743 1318.82,249.963 1323.92,179.285 1326.61,145.113 1329.3,125.582 1334.41,101.874 1339.51,89.2212 1342.2,86.1857 1344.89,90.4374 
  1349.99,101.907 1355.09,115.822 1357.78,124.567 1360.48,132.551 1365.58,145.076 1370.68,155.228 1373.37,160.057 1376.06,162.188 1381.16,164.1 1386.26,164.292 
  1388.96,163.724 1391.65,162.398 1396.75,159.923 1401.85,157.557 1404.54,156.251 1407.23,155.453 1412.33,154.476 1417.43,153.946 1420.13,153.828 1422.82,153.973 
  1427.92,154.29 1433.02,154.621 1435.71,154.821 1438.4,154.917 1443.5,155.01 1448.61,155.036 1451.3,154.995 1453.99,154.989 1459.09,155.178 1464.19,155.562 
  1466.88,155.805 1469.57,156.304 1474.67,157.428 1479.78,158.69 1482.47,159.525 1485.16,160.181 1490.26,160.572 1495.36,160.134 1498.05,159.912 1500.74,158.272 
  1505.85,153.103 1510.95,146.084 1513.64,141.744 1516.33,135.894 1521.43,124.636 1526.53,113.426 1529.22,106.461 1531.92,102.205 1537.02,101.167 1542.12,106.675 
  1544.81,109.694 1547.5,123.137 1552.6,163.348 1557.7,216.571 1560.39,247.365 1563.09,292.154 1568.19,390.269 1573.29,499.413 1575.98,561.078 1578.67,629.29 
  1583.77,758.671 1588.87,887.274 1591.57,957.059 1594.26,1019.46 1599.36,1124.06 1604.46,1216.33 1607.15,1262.97 1609.84,1294.61 1614.94,1338.9 1620.05,1369.88 
  1622.74,1382.35 1625.43,1384.24 1630.53,1380.86 1635.63,1372.01 1638.32,1365.02 1641.01,1356.48 1646.11,1341.59 1651.22,1328.1 1653.91,1321.02 1656.6,1316.65 
  1661.7,1311.15 1666.8,1308 1669.49,1307.12 1672.18,1307.8 1677.29,1309.71 1682.39,1312.03 1685.08,1313.53 1687.77,1314.75 1692.87,1316.51 1697.97,1317.78 
  1700.66,1318.3 1703.35,1318.38 1708.46,1318.27 1713.56,1317.97 1716.25,1317.72 1718.94,1317.47 1724.04,1317.09 1729.14,1316.81 1731.83,1316.68 1734.53,1316.65 
  1739.63,1316.65 1744.73,1316.69 1747.42,1316.73 1750.11,1316.78 1755.21,1316.85 1760.31,1316.91 1763,1316.93 1765.7,1316.93 1770.8,1316.93 1775.9,1316.92 
  1778.59,1316.91 1781.28,1316.9 1786.38,1316.89 1791.48,1316.88 1794.18,1316.88 1796.87,1316.88 1801.97,1316.88 1807.07,1316.88 1809.76,1316.89 1812.45,1316.89 
  1817.55,1316.89 1822.66,1316.89 1825.35,1316.89 1828.04,1316.89 1833.14,1316.89 1838.24,1316.89 1840.93,1316.89 1843.62,1316.89 1848.72,1316.89 1853.83,1316.89 
  1856.52,1316.89 1859.21,1316.89 1864.31,1316.89 1869.41,1316.89 1872.1,1316.89 1874.79,1316.89 1879.9,1316.89 1885,1316.89 1887.69,1316.89 1890.38,1316.89 
  1895.48,1316.89 1900.58,1316.89 1903.27,1316.89 1905.96,1316.89 1911.07,1316.89 1916.17,1316.89 1918.86,1316.89 1921.55,1316.89 1926.65,1316.89 1931.75,1316.89 
  1934.44,1316.89 1937.14,1316.89 1942.24,1316.89 1947.34,1316.89 1950.03,1316.89 1952.72,1316.89 1957.82,1316.89 1962.92,1316.89 1965.61,1316.89 1968.31,1316.89 
  1973.41,1316.89 1978.51,1316.89 1981.2,1316.89 1983.89,1316.89 1988.99,1316.89 1994.09,1316.89 1996.79,1316.89 1999.48,1316.89 2004.58,1316.89 2009.68,1316.89 
  2012.37,1316.89 2015.06,1316.89 2020.16,1316.89 2025.27,1316.89 2027.96,1316.89 2030.65,1316.89 2035.75,1316.89 2040.85,1316.89 2043.54,1316.89 2046.23,1316.89 
  2051.33,1316.89 2056.44,1316.89 2059.13,1316.89 2061.82,1316.89 2066.92,1316.89 2072.02,1316.89 2074.71,1316.89 2077.4,1316.89 2082.51,1316.89 2087.61,1316.89 
  2090.3,1316.89 2092.99,1316.89 2098.09,1316.89 2103.19,1316.89 2105.88,1316.89 2108.57,1316.89 2113.68,1316.89 2118.78,1316.89 2121.47,1316.89 2124.16,1316.89 
  2129.26,1316.89 2134.36,1316.89 2137.05,1316.89 2139.75,1316.89 2144.85,1316.89 2149.95,1316.89 2152.64,1316.89 2155.33,1316.89 2160.43,1316.89 2165.53,1316.89 
  2168.22,1316.89 2170.92,1316.89 2176.02,1316.89 2181.12,1316.89 2183.81,1316.89 2186.5,1316.89 2191.6,1316.89 2196.7,1316.89 2199.4,1316.89 2202.09,1316.89 
  2207.19,1316.89 2212.29,1316.89 2214.98,1316.89 2217.67,1316.89 2222.77,1316.89 2227.88,1316.89 2230.57,1316.89 2233.26,1316.89 2238.36,1316.89 2243.46,1316.89 
  2246.15,1316.89 2248.84,1316.89 2253.94,1316.89 2259.05,1316.89 2261.74,1316.89 2264.43,1316.89 2269.53,1316.89 2274.63,1316.89 2277.32,1316.89 2280.01,1316.89 
  2285.12,1316.89 2290.22,1316.89 2292.91,1316.89 
  "/>
<path clip-path="url(#clip000)" d="
M1802.38 274.549 L2282.27 274.549 L2282.27 93.1086 L1802.38 93.1086  Z
  " fill="#ffffff" fill-rule="evenodd" fill-opacity="1"/>
<polyline clip-path="url(#clip000)" style="stroke:#000000; stroke-width:4; stroke-opacity:1; fill:none" points="
  1802.38,274.549 2282.27,274.549 2282.27,93.1086 1802.38,93.1086 1802.38,274.549 
  "/>
<polyline clip-path="url(#clip000)" style="stroke:#009af9; stroke-width:4; stroke-opacity:1; fill:none" points="
  1825.88,153.589 1966.85,153.589 
  "/>
<path clip-path="url(#clip000)" d="M 0 0 M1994.75 157.929 Q1994.75 162.628 1996.67 165.313 Q1998.61 167.975 2001.99 167.975 Q2005.37 167.975 2007.31 165.313 Q2009.26 162.628 2009.26 157.929 Q2009.26 153.23 2007.31 150.568 Q2005.37 147.883 2001.99 147.883 Q1998.61 147.883 1996.67 150.568 Q1994.75 153.23 1994.75 157.929 M2009.26 166.98 Q2007.92 169.295 2005.86 170.429 Q2003.82 171.54 2000.95 171.54 Q1996.25 171.54 1993.29 167.79 Q1990.35 164.04 1990.35 157.929 Q1990.35 151.818 1993.29 148.068 Q1996.25 144.318 2000.95 144.318 Q2003.82 144.318 2005.86 145.452 Q2007.92 146.563 2009.26 148.878 L2009.26 144.943 L2013.52 144.943 L2013.52 180.73 L2009.26 180.73 L2009.26 166.98 Z" fill="#000000" fill-rule="evenodd" fill-opacity="1" /><path clip-path="url(#clip000)" d="M 0 0 M2019.07 164.989 L2023.96 164.989 L2023.96 168.97 L2020.16 176.378 L2017.18 176.378 L2019.07 168.97 L2019.07 164.989 Z" fill="#000000" fill-rule="evenodd" fill-opacity="1" /><path clip-path="url(#clip000)" d="M 0 0 M2047.71 137.582 L2047.71 144.943 L2056.48 144.943 L2056.48 148.253 L2047.71 148.253 L2047.71 162.327 Q2047.71 165.498 2048.56 166.401 Q2049.44 167.304 2052.11 167.304 L2056.48 167.304 L2056.48 170.869 L2052.11 170.869 Q2047.18 170.869 2045.3 169.04 Q2043.43 167.188 2043.43 162.327 L2043.43 148.253 L2040.3 148.253 L2040.3 144.943 L2043.43 144.943 L2043.43 137.582 L2047.71 137.582 Z" fill="#000000" fill-rule="evenodd" fill-opacity="1" /><path clip-path="url(#clip000)" d="M 0 0 M2061.5 149.341 L2091.18 149.341 L2091.18 153.23 L2061.5 153.23 L2061.5 149.341 M2061.5 158.785 L2091.18 158.785 L2091.18 162.721 L2061.5 162.721 L2061.5 158.785 Z" fill="#000000" fill-rule="evenodd" fill-opacity="1" /><path clip-path="url(#clip000)" d="M 0 0 M2106.25 139.387 Q2102.64 139.387 2100.81 142.952 Q2099 146.494 2099 153.623 Q2099 160.73 2100.81 164.295 Q2102.64 167.836 2106.25 167.836 Q2109.88 167.836 2111.69 164.295 Q2113.52 160.73 2113.52 153.623 Q2113.52 146.494 2111.69 142.952 Q2109.88 139.387 2106.25 139.387 M2106.25 135.684 Q2112.06 135.684 2115.12 140.29 Q2118.19 144.873 2118.19 153.623 Q2118.19 162.35 2115.12 166.957 Q2112.06 171.54 2106.25 171.54 Q2100.44 171.54 2097.36 166.957 Q2094.31 162.35 2094.31 153.623 Q2094.31 144.873 2097.36 140.29 Q2100.44 135.684 2106.25 135.684 Z" fill="#000000" fill-rule="evenodd" fill-opacity="1" /><path clip-path="url(#clip000)" d="M 0 0 M2123.26 164.989 L2128.15 164.989 L2128.15 170.869 L2123.26 170.869 L2123.26 164.989 Z" fill="#000000" fill-rule="evenodd" fill-opacity="1" /><path clip-path="url(#clip000)" d="M 0 0 M2143.22 139.387 Q2139.61 139.387 2137.78 142.952 Q2135.97 146.494 2135.97 153.623 Q2135.97 160.73 2137.78 164.295 Q2139.61 167.836 2143.22 167.836 Q2146.85 167.836 2148.66 164.295 Q2150.49 160.73 2150.49 153.623 Q2150.49 146.494 2148.66 142.952 Q2146.85 139.387 2143.22 139.387 M2143.22 135.684 Q2149.03 135.684 2152.08 140.29 Q2155.16 144.873 2155.16 153.623 Q2155.16 162.35 2152.08 166.957 Q2149.03 171.54 2143.22 171.54 Q2137.41 171.54 2134.33 166.957 Q2131.27 162.35 2131.27 153.623 Q2131.27 144.873 2134.33 140.29 Q2137.41 135.684 2143.22 135.684 Z" fill="#000000" fill-rule="evenodd" fill-opacity="1" /><polyline clip-path="url(#clip000)" style="stroke:#e26f46; stroke-width:4; stroke-opacity:1; fill:none" points="
  1825.88,214.069 1966.85,214.069 
  "/>
<path clip-path="url(#clip000)" d="M 0 0 M1994.75 218.409 Q1994.75 223.108 1996.67 225.793 Q1998.61 228.455 2001.99 228.455 Q2005.37 228.455 2007.31 225.793 Q2009.26 223.108 2009.26 218.409 Q2009.26 213.71 2007.31 211.048 Q2005.37 208.363 2001.99 208.363 Q1998.61 208.363 1996.67 211.048 Q1994.75 213.71 1994.75 218.409 M2009.26 227.46 Q2007.92 229.775 2005.86 230.909 Q2003.82 232.02 2000.95 232.02 Q1996.25 232.02 1993.29 228.27 Q1990.35 224.52 1990.35 218.409 Q1990.35 212.298 1993.29 208.548 Q1996.25 204.798 2000.95 204.798 Q2003.82 204.798 2005.86 205.932 Q2007.92 207.043 2009.26 209.358 L2009.26 205.423 L2013.52 205.423 L2013.52 241.21 L2009.26 241.21 L2009.26 227.46 Z" fill="#000000" fill-rule="evenodd" fill-opacity="1" /><path clip-path="url(#clip000)" d="M 0 0 M2019.07 225.469 L2023.96 225.469 L2023.96 229.45 L2020.16 236.858 L2017.18 236.858 L2019.07 229.45 L2019.07 225.469 Z" fill="#000000" fill-rule="evenodd" fill-opacity="1" /><path clip-path="url(#clip000)" d="M 0 0 M2047.71 198.062 L2047.71 205.423 L2056.48 205.423 L2056.48 208.733 L2047.71 208.733 L2047.71 222.807 Q2047.71 225.978 2048.56 226.881 Q2049.44 227.784 2052.11 227.784 L2056.48 227.784 L2056.48 231.349 L2052.11 231.349 Q2047.18 231.349 2045.3 229.52 Q2043.43 227.668 2043.43 222.807 L2043.43 208.733 L2040.3 208.733 L2040.3 205.423 L2043.43 205.423 L2043.43 198.062 L2047.71 198.062 Z" fill="#000000" fill-rule="evenodd" fill-opacity="1" /><path clip-path="url(#clip000)" d="M 0 0 M2061.5 209.821 L2091.18 209.821 L2091.18 213.71 L2061.5 213.71 L2061.5 209.821 M2061.5 219.265 L2091.18 219.265 L2091.18 223.201 L2061.5 223.201 L2061.5 219.265 Z" fill="#000000" fill-rule="evenodd" fill-opacity="1" /><path clip-path="url(#clip000)" d="M 0 0 M2109.1 200.863 L2097.29 219.312 L2109.1 219.312 L2109.1 200.863 M2107.87 196.789 L2113.75 196.789 L2113.75 219.312 L2118.68 219.312 L2118.68 223.201 L2113.75 223.201 L2113.75 231.349 L2109.1 231.349 L2109.1 223.201 L2093.5 223.201 L2093.5 218.687 L2107.87 196.789 Z" fill="#000000" fill-rule="evenodd" fill-opacity="1" /><path clip-path="url(#clip000)" d="M 0 0 M2123.8 196.789 L2142.15 196.789 L2142.15 200.724 L2128.08 200.724 L2128.08 209.196 Q2129.1 208.849 2130.12 208.687 Q2131.13 208.502 2132.15 208.502 Q2137.94 208.502 2141.32 211.673 Q2144.7 214.844 2144.7 220.261 Q2144.7 225.839 2141.23 228.941 Q2137.75 232.02 2131.43 232.02 Q2129.26 232.02 2126.99 231.65 Q2124.74 231.279 2122.34 230.538 L2122.34 225.839 Q2124.42 226.974 2126.64 227.529 Q2128.87 228.085 2131.34 228.085 Q2135.35 228.085 2137.68 225.978 Q2140.02 223.872 2140.02 220.261 Q2140.02 216.65 2137.68 214.543 Q2135.35 212.437 2131.34 212.437 Q2129.47 212.437 2127.59 212.853 Q2125.74 213.27 2123.8 214.15 L2123.8 196.789 Z" fill="#000000" fill-rule="evenodd" fill-opacity="1" /><path clip-path="url(#clip000)" d="M 0 0 M2159.77 199.867 Q2156.16 199.867 2154.33 203.432 Q2152.52 206.974 2152.52 214.103 Q2152.52 221.21 2154.33 224.775 Q2156.16 228.316 2159.77 228.316 Q2163.4 228.316 2165.21 224.775 Q2167.04 221.21 2167.04 214.103 Q2167.04 206.974 2165.21 203.432 Q2163.4 199.867 2159.77 199.867 M2159.77 196.164 Q2165.58 196.164 2168.63 200.77 Q2171.71 205.353 2171.71 214.103 Q2171.71 222.83 2168.63 227.437 Q2165.58 232.02 2159.77 232.02 Q2153.96 232.02 2150.88 227.437 Q2147.82 222.83 2147.82 214.103 Q2147.82 205.353 2150.88 200.77 Q2153.96 196.164 2159.77 196.164 Z" fill="#000000" fill-rule="evenodd" fill-opacity="1" /><path clip-path="url(#clip000)" d="M 0 0 M2176.78 225.469 L2181.67 225.469 L2181.67 231.349 L2176.78 231.349 L2176.78 225.469 Z" fill="#000000" fill-rule="evenodd" fill-opacity="1" /><path clip-path="url(#clip000)" d="M 0 0 M2199.58 200.863 L2187.78 219.312 L2199.58 219.312 L2199.58 200.863 M2198.36 196.789 L2204.24 196.789 L2204.24 219.312 L2209.17 219.312 L2209.17 223.201 L2204.24 223.201 L2204.24 231.349 L2199.58 231.349 L2199.58 223.201 L2183.98 223.201 L2183.98 218.687 L2198.36 196.789 Z" fill="#000000" fill-rule="evenodd" fill-opacity="1" /><path clip-path="url(#clip000)" d="M 0 0 M2213.05 196.789 L2235.28 196.789 L2235.28 198.779 L2222.73 231.349 L2217.85 231.349 L2229.65 200.724 L2213.05 200.724 L2213.05 196.789 Z" fill="#000000" fill-rule="evenodd" fill-opacity="1" /></svg>
