<?xml version="1.0" encoding="utf-8"?>
<svg xmlns="http://www.w3.org/2000/svg" xmlns:xlink="http://www.w3.org/1999/xlink" width="600" height="400" viewBox="0 0 2400 1600">
<defs>
  <clipPath id="clip150">
    <rect x="0" y="0" width="2400" height="1600"/>
  </clipPath>
</defs>
<path clip-path="url(#clip150)" d="
M0 1600 L2400 1600 L2400 0 L0 0  Z
  " fill="#ffffff" fill-rule="evenodd" fill-opacity="1"/>
<defs>
  <clipPath id="clip151">
    <rect x="480" y="0" width="1681" height="1600"/>
  </clipPath>
</defs>
<path clip-path="url(#clip150)" d="
M238.13 1423.18 L2352.76 1423.18 L2352.76 47.2441 L238.13 47.2441  Z
  " fill="#ffffff" fill-rule="evenodd" fill-opacity="1"/>
<defs>
  <clipPath id="clip152">
    <rect x="238" y="47" width="2116" height="1377"/>
  </clipPath>
</defs>
<polyline clip-path="url(#clip152)" style="stroke:#000000; stroke-width:2; stroke-opacity:0.1; fill:none" points="
  297.978,1423.18 297.978,47.2441 
  "/>
<polyline clip-path="url(#clip152)" style="stroke:#000000; stroke-width:2; stroke-opacity:0.1; fill:none" points="
  867.958,1423.18 867.958,47.2441 
  "/>
<polyline clip-path="url(#clip152)" style="stroke:#000000; stroke-width:2; stroke-opacity:0.1; fill:none" points="
  1437.94,1423.18 1437.94,47.2441 
  "/>
<polyline clip-path="url(#clip152)" style="stroke:#000000; stroke-width:2; stroke-opacity:0.1; fill:none" points="
  2007.92,1423.18 2007.92,47.2441 
  "/>
<polyline clip-path="url(#clip150)" style="stroke:#000000; stroke-width:4; stroke-opacity:1; fill:none" points="
  238.13,1423.18 2352.76,1423.18 
  "/>
<polyline clip-path="url(#clip150)" style="stroke:#000000; stroke-width:4; stroke-opacity:1; fill:none" points="
  297.978,1423.18 297.978,1406.67 
  "/>
<polyline clip-path="url(#clip150)" style="stroke:#000000; stroke-width:4; stroke-opacity:1; fill:none" points="
  867.958,1423.18 867.958,1406.67 
  "/>
<polyline clip-path="url(#clip150)" style="stroke:#000000; stroke-width:4; stroke-opacity:1; fill:none" points="
  1437.94,1423.18 1437.94,1406.67 
  "/>
<polyline clip-path="url(#clip150)" style="stroke:#000000; stroke-width:4; stroke-opacity:1; fill:none" points="
  2007.92,1423.18 2007.92,1406.67 
  "/>
<path clip-path="url(#clip150)" d="M 0 0 M297.978 1452.37 Q294.367 1452.37 292.538 1455.94 Q290.733 1459.48 290.733 1466.61 Q290.733 1473.71 292.538 1477.28 Q294.367 1480.82 297.978 1480.82 Q301.612 1480.82 303.418 1477.28 Q305.246 1473.71 305.246 1466.61 Q305.246 1459.48 303.418 1455.94 Q301.612 1452.37 297.978 1452.37 M297.978 1448.67 Q303.788 1448.67 306.844 1453.27 Q309.922 1457.86 309.922 1466.61 Q309.922 1475.33 306.844 1479.94 Q303.788 1484.52 297.978 1484.52 Q292.168 1484.52 289.089 1479.94 Q286.034 1475.33 286.034 1466.61 Q286.034 1457.86 289.089 1453.27 Q292.168 1448.67 297.978 1448.67 Z" fill="#000000" fill-rule="evenodd" fill-opacity="1" /><path clip-path="url(#clip150)" d="M 0 0 M831.326 1479.92 L838.965 1479.92 L838.965 1453.55 L830.655 1455.22 L830.655 1450.96 L838.919 1449.29 L843.595 1449.29 L843.595 1479.92 L851.234 1479.92 L851.234 1483.85 L831.326 1483.85 L831.326 1479.92 Z" fill="#000000" fill-rule="evenodd" fill-opacity="1" /><path clip-path="url(#clip150)" d="M 0 0 M866.303 1452.37 Q862.692 1452.37 860.863 1455.94 Q859.058 1459.48 859.058 1466.61 Q859.058 1473.71 860.863 1477.28 Q862.692 1480.82 866.303 1480.82 Q869.937 1480.82 871.743 1477.28 Q873.571 1473.71 873.571 1466.61 Q873.571 1459.48 871.743 1455.94 Q869.937 1452.37 866.303 1452.37 M866.303 1448.67 Q872.113 1448.67 875.169 1453.27 Q878.247 1457.86 878.247 1466.61 Q878.247 1475.33 875.169 1479.94 Q872.113 1484.52 866.303 1484.52 Q860.493 1484.52 857.414 1479.94 Q854.359 1475.33 854.359 1466.61 Q854.359 1457.86 857.414 1453.27 Q860.493 1448.67 866.303 1448.67 Z" fill="#000000" fill-rule="evenodd" fill-opacity="1" /><path clip-path="url(#clip150)" d="M 0 0 M893.317 1452.37 Q889.706 1452.37 887.877 1455.94 Q886.071 1459.48 886.071 1466.61 Q886.071 1473.71 887.877 1477.28 Q889.706 1480.82 893.317 1480.82 Q896.951 1480.82 898.756 1477.28 Q900.585 1473.71 900.585 1466.61 Q900.585 1459.48 898.756 1455.94 Q896.951 1452.37 893.317 1452.37 M893.317 1448.67 Q899.127 1448.67 902.182 1453.27 Q905.261 1457.86 905.261 1466.61 Q905.261 1475.33 902.182 1479.94 Q899.127 1484.52 893.317 1484.52 Q887.506 1484.52 884.428 1479.94 Q881.372 1475.33 881.372 1466.61 Q881.372 1457.86 884.428 1453.27 Q887.506 1448.67 893.317 1448.67 Z" fill="#000000" fill-rule="evenodd" fill-opacity="1" /><path clip-path="url(#clip150)" d="M 0 0 M1405.58 1479.92 L1421.9 1479.92 L1421.9 1483.85 L1399.95 1483.85 L1399.95 1479.92 Q1402.61 1477.16 1407.2 1472.53 Q1411.8 1467.88 1412.98 1466.54 Q1415.23 1464.01 1416.11 1462.28 Q1417.01 1460.52 1417.01 1458.83 Q1417.01 1456.07 1415.07 1454.34 Q1413.15 1452.6 1410.04 1452.6 Q1407.85 1452.6 1405.39 1453.37 Q1402.96 1454.13 1400.18 1455.68 L1400.18 1450.96 Q1403.01 1449.82 1405.46 1449.25 Q1407.91 1448.67 1409.95 1448.67 Q1415.32 1448.67 1418.52 1451.35 Q1421.71 1454.04 1421.71 1458.53 Q1421.71 1460.66 1420.9 1462.58 Q1420.11 1464.48 1418.01 1467.07 Q1417.43 1467.74 1414.33 1470.96 Q1411.23 1474.15 1405.58 1479.92 Z" fill="#000000" fill-rule="evenodd" fill-opacity="1" /><path clip-path="url(#clip150)" d="M 0 0 M1436.97 1452.37 Q1433.35 1452.37 1431.53 1455.94 Q1429.72 1459.48 1429.72 1466.61 Q1429.72 1473.71 1431.53 1477.28 Q1433.35 1480.82 1436.97 1480.82 Q1440.6 1480.82 1442.41 1477.28 Q1444.23 1473.71 1444.23 1466.61 Q1444.23 1459.48 1442.41 1455.94 Q1440.6 1452.37 1436.97 1452.37 M1436.97 1448.67 Q1442.78 1448.67 1445.83 1453.27 Q1448.91 1457.86 1448.91 1466.61 Q1448.91 1475.33 1445.83 1479.94 Q1442.78 1484.52 1436.97 1484.52 Q1431.16 1484.52 1428.08 1479.94 Q1425.02 1475.33 1425.02 1466.61 Q1425.02 1457.86 1428.08 1453.27 Q1431.16 1448.67 1436.97 1448.67 Z" fill="#000000" fill-rule="evenodd" fill-opacity="1" /><path clip-path="url(#clip150)" d="M 0 0 M1463.98 1452.37 Q1460.37 1452.37 1458.54 1455.94 Q1456.73 1459.48 1456.73 1466.61 Q1456.73 1473.71 1458.54 1477.28 Q1460.37 1480.82 1463.98 1480.82 Q1467.61 1480.82 1469.42 1477.28 Q1471.25 1473.71 1471.25 1466.61 Q1471.25 1459.48 1469.42 1455.94 Q1467.61 1452.37 1463.98 1452.37 M1463.98 1448.67 Q1469.79 1448.67 1472.85 1453.27 Q1475.92 1457.86 1475.92 1466.61 Q1475.92 1475.33 1472.85 1479.94 Q1469.79 1484.52 1463.98 1484.52 Q1458.17 1484.52 1455.09 1479.94 Q1452.04 1475.33 1452.04 1466.61 Q1452.04 1457.86 1455.09 1453.27 Q1458.17 1448.67 1463.98 1448.67 Z" fill="#000000" fill-rule="evenodd" fill-opacity="1" /><path clip-path="url(#clip150)" d="M 0 0 M1985.15 1465.22 Q1988.51 1465.94 1990.38 1468.2 Q1992.28 1470.47 1992.28 1473.81 Q1992.28 1478.92 1988.76 1481.72 Q1985.24 1484.52 1978.76 1484.52 Q1976.59 1484.52 1974.27 1484.08 Q1971.98 1483.67 1969.53 1482.81 L1969.53 1478.3 Q1971.47 1479.43 1973.79 1480.01 Q1976.1 1480.59 1978.62 1480.59 Q1983.02 1480.59 1985.31 1478.85 Q1987.63 1477.12 1987.63 1473.81 Q1987.63 1470.75 1985.48 1469.04 Q1983.35 1467.3 1979.53 1467.3 L1975.5 1467.3 L1975.5 1463.46 L1979.71 1463.46 Q1983.16 1463.46 1984.99 1462.09 Q1986.82 1460.7 1986.82 1458.11 Q1986.82 1455.45 1984.92 1454.04 Q1983.05 1452.6 1979.53 1452.6 Q1977.61 1452.6 1975.41 1453.02 Q1973.21 1453.44 1970.57 1454.31 L1970.57 1450.15 Q1973.23 1449.41 1975.55 1449.04 Q1977.88 1448.67 1979.94 1448.67 Q1985.27 1448.67 1988.37 1451.1 Q1991.47 1453.5 1991.47 1457.63 Q1991.47 1460.5 1989.83 1462.49 Q1988.18 1464.45 1985.15 1465.22 Z" fill="#000000" fill-rule="evenodd" fill-opacity="1" /><path clip-path="url(#clip150)" d="M 0 0 M2007.35 1452.37 Q2003.74 1452.37 2001.91 1455.94 Q2000.11 1459.48 2000.11 1466.61 Q2000.11 1473.71 2001.91 1477.28 Q2003.74 1480.82 2007.35 1480.82 Q2010.99 1480.82 2012.79 1477.28 Q2014.62 1473.71 2014.62 1466.61 Q2014.62 1459.48 2012.79 1455.94 Q2010.99 1452.37 2007.35 1452.37 M2007.35 1448.67 Q2013.16 1448.67 2016.22 1453.27 Q2019.3 1457.86 2019.3 1466.61 Q2019.3 1475.33 2016.22 1479.94 Q2013.16 1484.52 2007.35 1484.52 Q2001.54 1484.52 1998.46 1479.94 Q1995.41 1475.33 1995.41 1466.61 Q1995.41 1457.86 1998.46 1453.27 Q2001.54 1448.67 2007.35 1448.67 Z" fill="#000000" fill-rule="evenodd" fill-opacity="1" /><path clip-path="url(#clip150)" d="M 0 0 M2034.36 1452.37 Q2030.75 1452.37 2028.92 1455.94 Q2027.12 1459.48 2027.12 1466.61 Q2027.12 1473.71 2028.92 1477.28 Q2030.75 1480.82 2034.36 1480.82 Q2038 1480.82 2039.8 1477.28 Q2041.63 1473.71 2041.63 1466.61 Q2041.63 1459.48 2039.8 1455.94 Q2038 1452.37 2034.36 1452.37 M2034.36 1448.67 Q2040.17 1448.67 2043.23 1453.27 Q2046.31 1457.86 2046.31 1466.61 Q2046.31 1475.33 2043.23 1479.94 Q2040.17 1484.52 2034.36 1484.52 Q2028.55 1484.52 2025.48 1479.94 Q2022.42 1475.33 2022.42 1466.61 Q2022.42 1457.86 2025.48 1453.27 Q2028.55 1448.67 2034.36 1448.67 Z" fill="#000000" fill-rule="evenodd" fill-opacity="1" /><path clip-path="url(#clip150)" d="M 0 0 M1312.06 1520.4 L1299.17 1537.74 L1312.73 1556.04 L1305.82 1556.04 L1295.44 1542.04 L1285.07 1556.04 L1278.16 1556.04 L1292.01 1537.39 L1279.34 1520.4 L1286.24 1520.4 L1295.7 1533.1 L1305.15 1520.4 L1312.06 1520.4 Z" fill="#000000" fill-rule="evenodd" fill-opacity="1" /><polyline clip-path="url(#clip152)" style="stroke:#000000; stroke-width:2; stroke-opacity:0.1; fill:none" points="
  238.13,1292.98 2352.76,1292.98 
  "/>
<polyline clip-path="url(#clip152)" style="stroke:#000000; stroke-width:2; stroke-opacity:0.1; fill:none" points="
  238.13,1012.32 2352.76,1012.32 
  "/>
<polyline clip-path="url(#clip152)" style="stroke:#000000; stroke-width:2; stroke-opacity:0.1; fill:none" points="
  238.13,731.663 2352.76,731.663 
  "/>
<polyline clip-path="url(#clip152)" style="stroke:#000000; stroke-width:2; stroke-opacity:0.1; fill:none" points="
  238.13,451.005 2352.76,451.005 
  "/>
<polyline clip-path="url(#clip152)" style="stroke:#000000; stroke-width:2; stroke-opacity:0.1; fill:none" points="
  238.13,170.346 2352.76,170.346 
  "/>
<polyline clip-path="url(#clip150)" style="stroke:#000000; stroke-width:4; stroke-opacity:1; fill:none" points="
  238.13,1423.18 238.13,47.2441 
  "/>
<polyline clip-path="url(#clip150)" style="stroke:#000000; stroke-width:4; stroke-opacity:1; fill:none" points="
  238.13,1292.98 263.506,1292.98 
  "/>
<polyline clip-path="url(#clip150)" style="stroke:#000000; stroke-width:4; stroke-opacity:1; fill:none" points="
  238.13,1012.32 263.506,1012.32 
  "/>
<polyline clip-path="url(#clip150)" style="stroke:#000000; stroke-width:4; stroke-opacity:1; fill:none" points="
  238.13,731.663 263.506,731.663 
  "/>
<polyline clip-path="url(#clip150)" style="stroke:#000000; stroke-width:4; stroke-opacity:1; fill:none" points="
  238.13,451.005 263.506,451.005 
  "/>
<polyline clip-path="url(#clip150)" style="stroke:#000000; stroke-width:4; stroke-opacity:1; fill:none" points="
  238.13,170.346 263.506,170.346 
  "/>
<path clip-path="url(#clip150)" d="M 0 0 M126.205 1278.78 Q122.593 1278.78 120.765 1282.34 Q118.959 1285.89 118.959 1293.02 Q118.959 1300.12 120.765 1303.69 Q122.593 1307.23 126.205 1307.23 Q129.839 1307.23 131.644 1303.69 Q133.473 1300.12 133.473 1293.02 Q133.473 1285.89 131.644 1282.34 Q129.839 1278.78 126.205 1278.78 M126.205 1275.08 Q132.015 1275.08 135.07 1279.68 Q138.149 1284.27 138.149 1293.02 Q138.149 1301.74 135.07 1306.35 Q132.015 1310.93 126.205 1310.93 Q120.394 1310.93 117.316 1306.35 Q114.26 1301.74 114.26 1293.02 Q114.26 1284.27 117.316 1279.68 Q120.394 1275.08 126.205 1275.08 Z" fill="#000000" fill-rule="evenodd" fill-opacity="1" /><path clip-path="url(#clip150)" d="M 0 0 M143.218 1304.38 L148.103 1304.38 L148.103 1310.26 L143.218 1310.26 L143.218 1304.38 Z" fill="#000000" fill-rule="evenodd" fill-opacity="1" /><path clip-path="url(#clip150)" d="M 0 0 M163.172 1278.78 Q159.561 1278.78 157.732 1282.34 Q155.927 1285.89 155.927 1293.02 Q155.927 1300.12 157.732 1303.69 Q159.561 1307.23 163.172 1307.23 Q166.806 1307.23 168.612 1303.69 Q170.44 1300.12 170.44 1293.02 Q170.44 1285.89 168.612 1282.34 Q166.806 1278.78 163.172 1278.78 M163.172 1275.08 Q168.982 1275.08 172.038 1279.68 Q175.116 1284.27 175.116 1293.02 Q175.116 1301.74 172.038 1306.35 Q168.982 1310.93 163.172 1310.93 Q157.362 1310.93 154.283 1306.35 Q151.228 1301.74 151.228 1293.02 Q151.228 1284.27 154.283 1279.68 Q157.362 1275.08 163.172 1275.08 Z" fill="#000000" fill-rule="evenodd" fill-opacity="1" /><path clip-path="url(#clip150)" d="M 0 0 M190.186 1278.78 Q186.575 1278.78 184.746 1282.34 Q182.94 1285.89 182.94 1293.02 Q182.94 1300.12 184.746 1303.69 Q186.575 1307.23 190.186 1307.23 Q193.82 1307.23 195.625 1303.69 Q197.454 1300.12 197.454 1293.02 Q197.454 1285.89 195.625 1282.34 Q193.82 1278.78 190.186 1278.78 M190.186 1275.08 Q195.996 1275.08 199.051 1279.68 Q202.13 1284.27 202.13 1293.02 Q202.13 1301.74 199.051 1306.35 Q195.996 1310.93 190.186 1310.93 Q184.376 1310.93 181.297 1306.35 Q178.241 1301.74 178.241 1293.02 Q178.241 1284.27 181.297 1279.68 Q184.376 1275.08 190.186 1275.08 Z" fill="#000000" fill-rule="evenodd" fill-opacity="1" /><path clip-path="url(#clip150)" d="M 0 0 M128.797 998.121 Q125.186 998.121 123.357 1001.69 Q121.552 1005.23 121.552 1012.36 Q121.552 1019.46 123.357 1023.03 Q125.186 1026.57 128.797 1026.57 Q132.431 1026.57 134.237 1023.03 Q136.066 1019.46 136.066 1012.36 Q136.066 1005.23 134.237 1001.69 Q132.431 998.121 128.797 998.121 M128.797 994.417 Q134.607 994.417 137.663 999.023 Q140.741 1003.61 140.741 1012.36 Q140.741 1021.08 137.663 1025.69 Q134.607 1030.27 128.797 1030.27 Q122.987 1030.27 119.908 1025.69 Q116.853 1021.08 116.853 1012.36 Q116.853 1003.61 119.908 999.023 Q122.987 994.417 128.797 994.417 Z" fill="#000000" fill-rule="evenodd" fill-opacity="1" /><path clip-path="url(#clip150)" d="M 0 0 M145.811 1023.72 L150.695 1023.72 L150.695 1029.6 L145.811 1029.6 L145.811 1023.72 Z" fill="#000000" fill-rule="evenodd" fill-opacity="1" /><path clip-path="url(#clip150)" d="M 0 0 M159.792 1025.67 L176.112 1025.67 L176.112 1029.6 L154.167 1029.6 L154.167 1025.67 Q156.829 1022.91 161.413 1018.28 Q166.019 1013.63 167.2 1012.29 Q169.445 1009.76 170.325 1008.03 Q171.227 1006.27 171.227 1004.58 Q171.227 1001.82 169.283 1000.09 Q167.362 998.352 164.26 998.352 Q162.061 998.352 159.607 999.116 Q157.177 999.88 154.399 1001.43 L154.399 996.709 Q157.223 995.574 159.677 994.996 Q162.13 994.417 164.167 994.417 Q169.538 994.417 172.732 997.102 Q175.926 999.787 175.926 1004.28 Q175.926 1006.41 175.116 1008.33 Q174.329 1010.23 172.223 1012.82 Q171.644 1013.49 168.542 1016.71 Q165.44 1019.9 159.792 1025.67 Z" fill="#000000" fill-rule="evenodd" fill-opacity="1" /><path clip-path="url(#clip150)" d="M 0 0 M181.227 995.042 L199.584 995.042 L199.584 998.977 L185.51 998.977 L185.51 1007.45 Q186.528 1007.1 187.547 1006.94 Q188.565 1006.75 189.584 1006.75 Q195.371 1006.75 198.75 1009.93 Q202.13 1013.1 202.13 1018.51 Q202.13 1024.09 198.658 1027.19 Q195.186 1030.27 188.866 1030.27 Q186.69 1030.27 184.422 1029.9 Q182.176 1029.53 179.769 1028.79 L179.769 1024.09 Q181.852 1025.23 184.075 1025.78 Q186.297 1026.34 188.774 1026.34 Q192.778 1026.34 195.116 1024.23 Q197.454 1022.13 197.454 1018.51 Q197.454 1014.9 195.116 1012.8 Q192.778 1010.69 188.774 1010.69 Q186.899 1010.69 185.024 1011.11 Q183.172 1011.52 181.227 1012.4 L181.227 995.042 Z" fill="#000000" fill-rule="evenodd" fill-opacity="1" /><path clip-path="url(#clip150)" d="M 0 0 M127.2 717.462 Q123.589 717.462 121.76 721.027 Q119.955 724.568 119.955 731.698 Q119.955 738.804 121.76 742.369 Q123.589 745.911 127.2 745.911 Q130.834 745.911 132.64 742.369 Q134.468 738.804 134.468 731.698 Q134.468 724.568 132.64 721.027 Q130.834 717.462 127.2 717.462 M127.2 713.758 Q133.01 713.758 136.066 718.365 Q139.144 722.948 139.144 731.698 Q139.144 740.425 136.066 745.031 Q133.01 749.615 127.2 749.615 Q121.39 749.615 118.311 745.031 Q115.256 740.425 115.256 731.698 Q115.256 722.948 118.311 718.365 Q121.39 713.758 127.2 713.758 Z" fill="#000000" fill-rule="evenodd" fill-opacity="1" /><path clip-path="url(#clip150)" d="M 0 0 M144.214 743.064 L149.098 743.064 L149.098 748.943 L144.214 748.943 L144.214 743.064 Z" fill="#000000" fill-rule="evenodd" fill-opacity="1" /><path clip-path="url(#clip150)" d="M 0 0 M154.214 714.383 L172.57 714.383 L172.57 718.318 L158.496 718.318 L158.496 726.791 Q159.515 726.443 160.533 726.281 Q161.552 726.096 162.57 726.096 Q168.357 726.096 171.737 729.267 Q175.116 732.439 175.116 737.855 Q175.116 743.434 171.644 746.536 Q168.172 749.615 161.852 749.615 Q159.677 749.615 157.408 749.244 Q155.163 748.874 152.755 748.133 L152.755 743.434 Q154.839 744.568 157.061 745.124 Q159.283 745.679 161.76 745.679 Q165.765 745.679 168.102 743.573 Q170.44 741.466 170.44 737.855 Q170.44 734.244 168.102 732.138 Q165.765 730.031 161.76 730.031 Q159.885 730.031 158.01 730.448 Q156.158 730.865 154.214 731.744 L154.214 714.383 Z" fill="#000000" fill-rule="evenodd" fill-opacity="1" /><path clip-path="url(#clip150)" d="M 0 0 M190.186 717.462 Q186.575 717.462 184.746 721.027 Q182.94 724.568 182.94 731.698 Q182.94 738.804 184.746 742.369 Q186.575 745.911 190.186 745.911 Q193.82 745.911 195.625 742.369 Q197.454 738.804 197.454 731.698 Q197.454 724.568 195.625 721.027 Q193.82 717.462 190.186 717.462 M190.186 713.758 Q195.996 713.758 199.051 718.365 Q202.13 722.948 202.13 731.698 Q202.13 740.425 199.051 745.031 Q195.996 749.615 190.186 749.615 Q184.376 749.615 181.297 745.031 Q178.241 740.425 178.241 731.698 Q178.241 722.948 181.297 718.365 Q184.376 713.758 190.186 713.758 Z" fill="#000000" fill-rule="evenodd" fill-opacity="1" /><path clip-path="url(#clip150)" d="M 0 0 M128.103 436.803 Q124.492 436.803 122.663 440.368 Q120.857 443.91 120.857 451.039 Q120.857 458.146 122.663 461.711 Q124.492 465.252 128.103 465.252 Q131.737 465.252 133.542 461.711 Q135.371 458.146 135.371 451.039 Q135.371 443.91 133.542 440.368 Q131.737 436.803 128.103 436.803 M128.103 433.1 Q133.913 433.1 136.968 437.706 Q140.047 442.289 140.047 451.039 Q140.047 459.766 136.968 464.373 Q133.913 468.956 128.103 468.956 Q122.293 468.956 119.214 464.373 Q116.158 459.766 116.158 451.039 Q116.158 442.289 119.214 437.706 Q122.293 433.1 128.103 433.1 Z" fill="#000000" fill-rule="evenodd" fill-opacity="1" /><path clip-path="url(#clip150)" d="M 0 0 M145.116 462.405 L150.001 462.405 L150.001 468.285 L145.116 468.285 L145.116 462.405 Z" fill="#000000" fill-rule="evenodd" fill-opacity="1" /><path clip-path="url(#clip150)" d="M 0 0 M153.89 433.725 L176.112 433.725 L176.112 435.715 L163.565 468.285 L158.681 468.285 L170.487 437.66 L153.89 437.66 L153.89 433.725 Z" fill="#000000" fill-rule="evenodd" fill-opacity="1" /><path clip-path="url(#clip150)" d="M 0 0 M181.227 433.725 L199.584 433.725 L199.584 437.66 L185.51 437.66 L185.51 446.132 Q186.528 445.785 187.547 445.623 Q188.565 445.437 189.584 445.437 Q195.371 445.437 198.75 448.609 Q202.13 451.78 202.13 457.197 Q202.13 462.775 198.658 465.877 Q195.186 468.956 188.866 468.956 Q186.69 468.956 184.422 468.585 Q182.176 468.215 179.769 467.474 L179.769 462.775 Q181.852 463.91 184.075 464.465 Q186.297 465.021 188.774 465.021 Q192.778 465.021 195.116 462.914 Q197.454 460.808 197.454 457.197 Q197.454 453.586 195.116 451.479 Q192.778 449.373 188.774 449.373 Q186.899 449.373 185.024 449.789 Q183.172 450.206 181.227 451.086 L181.227 433.725 Z" fill="#000000" fill-rule="evenodd" fill-opacity="1" /><path clip-path="url(#clip150)" d="M 0 0 M118.242 183.691 L125.88 183.691 L125.88 157.325 L117.57 158.992 L117.57 154.732 L125.834 153.066 L130.51 153.066 L130.51 183.691 L138.149 183.691 L138.149 187.626 L118.242 187.626 L118.242 183.691 Z" fill="#000000" fill-rule="evenodd" fill-opacity="1" /><path clip-path="url(#clip150)" d="M 0 0 M143.218 181.746 L148.103 181.746 L148.103 187.626 L143.218 187.626 L143.218 181.746 Z" fill="#000000" fill-rule="evenodd" fill-opacity="1" /><path clip-path="url(#clip150)" d="M 0 0 M163.172 156.145 Q159.561 156.145 157.732 159.709 Q155.927 163.251 155.927 170.381 Q155.927 177.487 157.732 181.052 Q159.561 184.593 163.172 184.593 Q166.806 184.593 168.612 181.052 Q170.44 177.487 170.44 170.381 Q170.44 163.251 168.612 159.709 Q166.806 156.145 163.172 156.145 M163.172 152.441 Q168.982 152.441 172.038 157.047 Q175.116 161.631 175.116 170.381 Q175.116 179.107 172.038 183.714 Q168.982 188.297 163.172 188.297 Q157.362 188.297 154.283 183.714 Q151.228 179.107 151.228 170.381 Q151.228 161.631 154.283 157.047 Q157.362 152.441 163.172 152.441 Z" fill="#000000" fill-rule="evenodd" fill-opacity="1" /><path clip-path="url(#clip150)" d="M 0 0 M190.186 156.145 Q186.575 156.145 184.746 159.709 Q182.94 163.251 182.94 170.381 Q182.94 177.487 184.746 181.052 Q186.575 184.593 190.186 184.593 Q193.82 184.593 195.625 181.052 Q197.454 177.487 197.454 170.381 Q197.454 163.251 195.625 159.709 Q193.82 156.145 190.186 156.145 M190.186 152.441 Q195.996 152.441 199.051 157.047 Q202.13 161.631 202.13 170.381 Q202.13 179.107 199.051 183.714 Q195.996 188.297 190.186 188.297 Q184.376 188.297 181.297 183.714 Q178.241 179.107 178.241 170.381 Q178.241 161.631 181.297 157.047 Q184.376 152.441 190.186 152.441 Z" fill="#000000" fill-rule="evenodd" fill-opacity="1" /><path clip-path="url(#clip150)" d="M 0 0 M70.212 745.095 Q76.6732 745.095 80.3653 742.453 Q84.0256 739.779 84.0256 735.132 Q84.0256 730.485 80.3653 727.812 Q76.6732 725.138 70.212 725.138 Q63.7508 725.138 60.0905 727.812 Q56.3984 730.485 56.3984 735.132 Q56.3984 739.779 60.0905 742.453 Q63.7508 745.095 70.212 745.095 M82.657 725.138 Q85.8398 726.984 87.3994 729.817 Q88.9272 732.618 88.9272 736.565 Q88.9272 743.026 83.771 747.1 Q78.6147 751.142 70.212 751.142 Q61.8093 751.142 56.6531 747.1 Q51.4968 743.026 51.4968 736.565 Q51.4968 732.618 53.0564 729.817 Q54.5842 726.984 57.7671 725.138 L52.3562 725.138 L52.3562 719.282 L101.563 719.282 L101.563 725.138 L82.657 725.138 Z" fill="#000000" fill-rule="evenodd" fill-opacity="1" /><polyline clip-path="url(#clip152)" style="stroke:#009af9; stroke-width:4; stroke-opacity:1; fill:none" points="
  297.978,1292.98 300.669,1292.98 305.771,1292.98 310.872,1292.98 313.563,1292.98 316.255,1292.98 321.356,1292.98 326.458,1292.98 329.149,1292.98 331.84,1292.98 
  336.941,1292.98 342.043,1292.98 344.734,1292.98 347.425,1292.98 352.527,1292.98 357.628,1292.98 360.32,1292.98 363.011,1292.98 368.112,1292.98 373.214,1292.98 
  375.905,1292.98 378.596,1292.98 383.698,1292.98 388.799,1292.98 391.49,1292.98 394.181,1292.98 399.283,1292.98 404.385,1292.98 407.076,1292.98 409.767,1292.98 
  414.868,1292.98 419.97,1292.98 422.661,1292.98 425.352,1292.98 430.454,1292.98 435.555,1292.98 438.246,1292.98 440.938,1292.98 446.039,1292.98 451.141,1292.98 
  453.832,1292.98 456.523,1292.98 461.625,1292.98 466.726,1292.98 469.417,1292.98 472.108,1292.98 477.21,1292.98 482.311,1292.98 485.003,1292.98 487.694,1292.98 
  492.795,1292.98 497.897,1292.98 500.588,1292.98 503.279,1292.98 508.381,1292.98 513.482,1292.98 516.173,1292.98 518.865,1292.98 523.966,1292.98 529.068,1292.98 
  531.759,1292.98 534.45,1292.98 539.552,1292.98 544.653,1292.98 547.344,1292.98 550.035,1292.98 555.137,1292.98 560.238,1292.98 562.93,1292.98 565.621,1292.98 
  570.722,1292.98 575.824,1292.98 578.515,1292.98 581.206,1292.98 586.308,1292.98 591.409,1292.98 594.1,1292.98 596.792,1292.98 601.893,1292.98 606.995,1292.98 
  609.686,1292.98 612.377,1292.98 617.478,1292.98 622.58,1292.98 625.271,1292.98 627.962,1292.98 633.064,1292.98 638.165,1292.98 640.857,1292.98 643.548,1292.98 
  648.649,1292.98 653.751,1292.98 656.442,1292.98 659.133,1292.98 664.235,1292.98 669.336,1292.98 672.027,1292.98 674.719,1292.98 679.82,1292.98 684.922,1292.98 
  687.613,1292.98 690.304,1292.98 695.405,1292.98 700.507,1292.98 703.198,1292.98 705.889,1292.98 710.991,1292.98 716.092,1292.98 718.784,1292.98 721.475,1292.98 
  726.576,170.346 731.678,170.346 734.369,170.346 737.06,170.346 742.162,170.346 747.263,170.346 749.954,170.346 752.645,170.346 757.747,170.346 762.849,170.346 
  765.54,170.346 768.231,170.346 773.332,170.346 778.434,170.346 781.125,170.346 783.816,170.346 788.918,170.346 794.019,170.346 796.71,170.346 799.402,170.346 
  804.503,170.346 809.605,170.346 812.296,170.346 814.987,170.346 820.089,170.346 825.19,170.346 827.881,170.346 830.572,170.346 835.674,170.346 840.775,170.346 
  843.467,170.346 846.158,170.346 851.259,170.346 856.361,170.346 859.052,170.346 861.743,170.346 866.845,170.346 871.946,170.346 874.637,170.346 877.329,170.346 
  882.43,170.346 887.532,170.346 890.223,170.346 892.914,170.346 898.016,170.346 903.117,170.346 905.808,170.346 908.499,170.346 913.601,170.346 918.702,170.346 
  921.394,170.346 924.085,170.346 929.186,170.346 934.288,170.346 936.979,170.346 939.67,170.346 944.772,170.346 949.873,170.346 952.564,170.346 955.256,170.346 
  960.357,170.346 965.459,170.346 968.15,170.346 970.841,170.346 975.942,170.346 981.044,170.346 983.735,170.346 986.426,170.346 991.528,170.346 996.629,170.346 
  999.321,170.346 1002.01,170.346 1007.11,170.346 1012.21,1292.98 1014.91,1292.98 1017.6,1292.98 1022.7,1292.98 1027.8,1292.98 1030.49,1292.98 1033.18,1292.98 
  1038.28,1292.98 1043.39,1292.98 1046.08,1292.98 1048.77,1292.98 1053.87,1292.98 1058.97,1292.98 1061.66,1292.98 1064.35,1292.98 1069.45,1292.98 1074.56,1292.98 
  1077.25,1292.98 1079.94,1292.98 1085.04,1292.98 1090.14,1292.98 1092.83,1292.98 1095.52,1292.98 1100.63,1292.98 1105.73,1292.98 1108.42,1292.98 1111.11,1292.98 
  1116.21,1292.98 1121.31,1292.98 1124,1292.98 1126.69,1292.98 1131.8,1292.98 1136.9,1292.98 1139.59,1292.98 1142.28,1292.98 1147.38,1292.98 1152.48,1292.98 
  1155.17,1292.98 1157.87,1292.98 1162.97,1292.98 1168.07,1292.98 1170.76,1292.98 1173.45,1292.98 1178.55,1292.98 1183.65,1292.98 1186.35,1292.98 1189.04,1292.98 
  1194.14,1292.98 1199.24,1292.98 1201.93,1292.98 1204.62,1292.98 1209.72,1292.98 1214.82,1292.98 1217.52,1292.98 1220.21,1292.98 1225.31,1292.98 1230.41,1292.98 
  1233.1,1292.98 1235.79,1292.98 1240.89,1292.98 1246,1292.98 1248.69,1292.98 1251.38,1292.98 1256.48,1292.98 1261.58,1292.98 1264.27,1292.98 1266.96,1292.98 
  1272.06,1292.98 1277.17,1292.98 1279.86,1292.98 1282.55,1292.98 1287.65,1292.98 1292.75,1292.98 1295.44,1292.98 1298.13,1292.98 1303.24,1292.98 1308.34,1292.98 
  1311.03,1292.98 1313.72,1292.98 1318.82,1292.98 1323.92,1292.98 1326.61,1292.98 1329.3,1292.98 1334.41,1292.98 1339.51,1292.98 1342.2,1292.98 1344.89,1292.98 
  1349.99,1292.98 1355.09,1292.98 1357.78,1292.98 1360.48,1292.98 1365.58,1292.98 1370.68,1292.98 1373.37,1292.98 1376.06,1292.98 1381.16,1292.98 1386.26,1292.98 
  1388.96,1292.98 1391.65,1292.98 1396.75,1292.98 1401.85,1292.98 1404.54,1292.98 1407.23,1292.98 1412.33,1292.98 1417.43,1292.98 1420.13,1292.98 1422.82,1292.98 
  1427.92,1292.98 1433.02,1292.98 1435.71,1292.98 1438.4,1292.98 1443.5,1292.98 1448.61,1292.98 1451.3,1292.98 1453.99,1292.98 1459.09,1292.98 1464.19,1292.98 
  1466.88,1292.98 1469.57,1292.98 1474.67,1292.98 1479.78,1292.98 1482.47,1292.98 1485.16,1292.98 1490.26,1292.98 1495.36,1292.98 1498.05,1292.98 1500.74,1292.98 
  1505.85,1292.98 1510.95,1292.98 1513.64,1292.98 1516.33,1292.98 1521.43,1292.98 1526.53,1292.98 1529.22,1292.98 1531.92,1292.98 1537.02,1292.98 1542.12,1292.98 
  1544.81,1292.98 1547.5,1292.98 1552.6,1292.98 1557.7,1292.98 1560.39,1292.98 1563.09,1292.98 1568.19,1292.98 1573.29,1292.98 1575.98,1292.98 1578.67,1292.98 
  1583.77,1292.98 1588.87,1292.98 1591.57,1292.98 1594.26,1292.98 1599.36,1292.98 1604.46,1292.98 1607.15,1292.98 1609.84,1292.98 1614.94,1292.98 1620.05,1292.98 
  1622.74,1292.98 1625.43,1292.98 1630.53,1292.98 1635.63,1292.98 1638.32,1292.98 1641.01,1292.98 1646.11,1292.98 1651.22,1292.98 1653.91,1292.98 1656.6,1292.98 
  1661.7,1292.98 1666.8,1292.98 1669.49,1292.98 1672.18,1292.98 1677.29,1292.98 1682.39,1292.98 1685.08,1292.98 1687.77,1292.98 1692.87,1292.98 1697.97,1292.98 
  1700.66,1292.98 1703.35,1292.98 1708.46,1292.98 1713.56,1292.98 1716.25,1292.98 1718.94,1292.98 1724.04,1292.98 1729.14,1292.98 1731.83,1292.98 1734.53,1292.98 
  1739.63,1292.98 1744.73,1292.98 1747.42,1292.98 1750.11,1292.98 1755.21,1292.98 1760.31,1292.98 1763,1292.98 1765.7,1292.98 1770.8,1292.98 1775.9,1292.98 
  1778.59,1292.98 1781.28,1292.98 1786.38,1292.98 1791.48,1292.98 1794.18,1292.98 1796.87,1292.98 1801.97,1292.98 1807.07,1292.98 1809.76,1292.98 1812.45,1292.98 
  1817.55,1292.98 1822.66,1292.98 1825.35,1292.98 1828.04,1292.98 1833.14,1292.98 1838.24,1292.98 1840.93,1292.98 1843.62,1292.98 1848.72,1292.98 1853.83,1292.98 
  1856.52,1292.98 1859.21,1292.98 1864.31,1292.98 1869.41,1292.98 1872.1,1292.98 1874.79,1292.98 1879.9,1292.98 1885,1292.98 1887.69,1292.98 1890.38,1292.98 
  1895.48,1292.98 1900.58,1292.98 1903.27,1292.98 1905.96,1292.98 1911.07,1292.98 1916.17,1292.98 1918.86,1292.98 1921.55,1292.98 1926.65,1292.98 1931.75,1292.98 
  1934.44,1292.98 1937.14,1292.98 1942.24,1292.98 1947.34,1292.98 1950.03,1292.98 1952.72,1292.98 1957.82,1292.98 1962.92,1292.98 1965.61,1292.98 1968.31,1292.98 
  1973.41,1292.98 1978.51,1292.98 1981.2,1292.98 1983.89,1292.98 1988.99,1292.98 1994.09,1292.98 1996.79,1292.98 1999.48,1292.98 2004.58,1292.98 2009.68,1292.98 
  2012.37,1292.98 2015.06,1292.98 2020.16,1292.98 2025.27,1292.98 2027.96,1292.98 2030.65,1292.98 2035.75,1292.98 2040.85,1292.98 2043.54,1292.98 2046.23,1292.98 
  2051.33,1292.98 2056.44,1292.98 2059.13,1292.98 2061.82,1292.98 2066.92,1292.98 2072.02,1292.98 2074.71,1292.98 2077.4,1292.98 2082.51,1292.98 2087.61,1292.98 
  2090.3,1292.98 2092.99,1292.98 2098.09,1292.98 2103.19,1292.98 2105.88,1292.98 2108.57,1292.98 2113.68,1292.98 2118.78,1292.98 2121.47,1292.98 2124.16,1292.98 
  2129.26,1292.98 2134.36,1292.98 2137.05,1292.98 2139.75,1292.98 2144.85,1292.98 2149.95,1292.98 2152.64,1292.98 2155.33,1292.98 2160.43,1292.98 2165.53,1292.98 
  2168.22,1292.98 2170.92,1292.98 2176.02,1292.98 2181.12,1292.98 2183.81,1292.98 2186.5,1292.98 2191.6,1292.98 2196.7,1292.98 2199.4,1292.98 2202.09,1292.98 
  2207.19,1292.98 2212.29,1292.98 2214.98,1292.98 2217.67,1292.98 2222.77,1292.98 2227.88,1292.98 2230.57,1292.98 2233.26,1292.98 2238.36,1292.98 2243.46,1292.98 
  2246.15,1292.98 2248.84,1292.98 2253.94,1292.98 2259.05,1292.98 2261.74,1292.98 2264.43,1292.98 2269.53,1292.98 2274.63,1292.98 2277.32,1292.98 2280.01,1292.98 
  2285.12,1292.98 2290.22,1292.98 2292.91,1292.98 
  "/>
<polyline clip-path="url(#clip152)" style="stroke:#e26f46; stroke-width:4; stroke-opacity:1; fill:none" points="
  297.978,1292.98 300.669,1292.98 305.771,1292.98 310.872,1292.98 313.563,1292.98 316.255,1292.98 321.356,1292.98 326.458,1292.98 329.149,1292.98 331.84,1292.98 
  336.941,1292.98 342.043,1292.98 344.734,1292.98 347.425,1292.98 352.527,1292.98 357.628,1292.98 360.32,1292.98 363.011,1292.98 368.112,1292.98 373.214,1292.98 
  375.905,1292.98 378.596,1292.98 383.698,1292.98 388.799,1292.98 391.49,1292.98 394.181,1292.98 399.283,1292.98 404.385,1292.98 407.076,1292.98 409.767,1292.98 
  414.868,1292.98 419.97,1292.98 422.661,1292.98 425.352,1292.98 430.454,1292.98 435.555,1292.98 438.246,1292.98 440.938,1292.98 446.039,1292.98 451.141,1292.98 
  453.832,1292.98 456.523,1292.98 461.625,1292.98 466.726,1292.98 469.417,1292.98 472.108,1292.98 477.21,1292.98 482.311,1292.98 485.003,1292.98 487.694,1292.98 
  492.795,1292.98 497.897,1292.98 500.588,1292.98 503.279,1292.98 508.381,1292.98 513.482,1292.98 516.173,1292.98 518.865,1292.98 523.966,1292.98 529.068,1292.98 
  531.759,1292.98 534.45,1292.98 539.552,1292.98 544.653,1292.98 547.344,1292.98 550.035,1292.98 555.137,1292.98 560.238,1292.98 562.93,1292.98 565.621,1292.98 
  570.722,1292.98 575.824,1292.98 578.515,1292.98 581.206,1292.98 586.308,1292.98 591.409,1292.98 594.1,1292.98 596.792,1292.98 601.893,1292.98 606.995,1292.98 
  609.686,1292.98 612.377,1292.98 617.478,1292.98 622.58,1292.98 625.271,1292.98 627.962,1292.98 633.064,1292.98 638.165,1292.98 640.857,1292.98 643.548,1292.98 
  648.649,1292.98 653.751,1292.98 656.442,1292.98 659.133,1292.98 664.235,1292.98 669.336,1292.98 672.027,1292.98 674.719,1292.98 679.82,1292.98 684.922,1292.98 
  687.613,1292.98 690.304,1292.98 695.405,1292.98 700.507,1292.98 703.198,1292.98 705.889,1292.98 710.991,1292.98 716.092,1292.98 718.784,1292.98 721.475,1292.98 
  726.576,1292.98 731.678,1292.98 734.369,1292.98 737.06,1292.98 742.162,1292.98 747.263,1292.98 749.954,1292.98 752.645,1292.98 757.747,1292.98 762.849,1292.98 
  765.54,1292.98 768.231,1292.98 773.332,1292.98 778.434,1292.98 781.125,1292.98 783.816,1292.98 788.918,1292.98 794.019,1292.98 796.71,1292.98 799.402,1292.98 
  804.503,1292.98 809.605,1292.98 812.296,1292.98 814.987,1292.98 820.089,1292.98 825.19,1292.98 827.881,1292.98 830.572,1292.98 835.674,1292.98 840.775,1292.98 
  843.467,1292.98 846.158,1292.98 851.259,1292.98 856.361,1292.98 859.052,1292.98 861.743,1292.98 866.845,1292.98 871.946,1292.98 874.637,1292.98 877.329,1292.98 
  882.43,1292.98 887.532,1292.98 890.223,1292.98 892.914,1292.98 898.016,1292.98 903.117,1292.98 905.808,1292.98 908.499,1292.98 913.601,1292.98 918.702,1292.98 
  921.394,1292.98 924.085,1292.98 929.186,1292.98 934.288,1292.98 936.979,1292.98 939.67,1292.98 944.772,1292.98 949.873,1292.98 952.564,1292.98 955.256,1292.98 
  960.357,1292.98 965.459,1292.98 968.15,1292.98 970.841,1292.98 975.942,1292.98 981.044,1292.98 983.735,1292.98 986.426,1292.98 991.528,1292.98 996.629,1292.98 
  999.321,1292.98 1002.01,1292.98 1007.11,1292.98 1012.21,1292.98 1014.91,1292.98 1017.6,1292.98 1022.7,1292.98 1027.8,1292.98 1030.49,1292.98 1033.18,1292.98 
  1038.28,1292.98 1043.39,1292.98 1046.08,1292.98 1048.77,1292.98 1053.87,1292.98 1058.97,1292.98 1061.66,1292.98 1064.35,1292.98 1069.45,1292.98 1074.56,1292.98 
  1077.25,1292.98 1079.94,1292.98 1085.04,1292.98 1090.14,1292.98 1092.83,1292.98 1095.52,1292.99 1100.63,1292.99 1105.73,1292.98 1108.42,1292.98 1111.11,1292.97 
  1116.21,1292.96 1121.31,1292.96 1124,1292.96 1126.69,1292.98 1131.8,1293.01 1136.9,1293.04 1139.59,1293.05 1142.28,1293.04 1147.38,1292.99 1152.48,1292.89 
  1155.17,1292.84 1157.87,1292.79 1162.97,1292.79 1168.07,1292.96 1170.76,1293.07 1173.45,1293.29 1178.55,1293.56 1183.65,1293.54 1186.35,1293.47 1189.04,1293.02 
  1194.14,1292.11 1199.24,1291.33 1201.93,1290.96 1204.62,1291.19 1209.72,1292.49 1214.82,1294.92 1217.52,1296.34 1220.21,1297.94 1225.31,1298.77 1230.41,1295.9 
  1233.1,1293.66 1235.79,1288.27 1240.89,1279.31 1246,1273.92 1248.69,1272.25 1251.38,1277.28 1256.48,1294.7 1261.58,1321.69 1264.27,1336.17 1266.96,1354.61 
  1272.06,1366.12 1277.17,1337.94 1279.86,1308.21 1282.55,1250.65 1287.65,1102.83 1292.75,907.248 1295.44,790.639 1298.13,664.524 1303.24,445.544 1308.34,267.283 
  1311.03,188.799 1313.72,140.645 1318.82,88.7565 1323.92,86.1857 1326.61,101.25 1329.3,122.408 1334.41,160.619 1339.51,187.818 1342.2,198.328 1344.89,198.356 
  1349.99,192.486 1355.09,180.408 1357.78,171.978 1360.48,167.008 1365.58,161.319 1370.68,161.576 1373.37,163.734 1376.06,166.587 1381.16,171.099 1386.26,173.518 
  1388.96,174.079 1391.65,173.325 1396.75,171.678 1401.85,170.067 1404.54,169.226 1407.23,169.14 1412.33,169.312 1417.43,169.9 1420.13,170.362 1422.82,170.559 
  1427.92,170.756 1433.02,170.686 1435.71,170.542 1438.4,170.475 1443.5,170.39 1448.61,170.358 1451.3,170.382 1453.99,170.294 1459.09,170.081 1464.19,169.857 
  1466.88,169.731 1469.57,169.799 1474.67,170.239 1479.78,171.074 1482.47,171.567 1485.16,172.086 1490.26,172.253 1495.36,171.08 1498.05,170.242 1500.74,168.303 
  1505.85,165.449 1510.95,164.48 1513.64,164.443 1516.33,167.18 1521.43,174.247 1526.53,183.05 1529.22,187.688 1531.92,190.498 1537.02,187.505 1542.12,171.867 
  1544.81,161.422 1547.5,141.001 1552.6,110.549 1557.7,98.1719 1560.39,100.508 1563.09,120.729 1568.19,201.822 1573.29,342.757 1575.98,435.709 1578.67,553.187 
  1583.77,779.855 1588.87,997.965 1591.57,1107.48 1594.26,1194.65 1599.36,1315.94 1604.46,1374.63 1607.15,1384.24 1609.84,1374.28 1614.94,1343.49 1620.05,1306.75 
  1622.74,1285.62 1625.43,1275.13 1630.53,1264.98 1635.63,1269.13 1638.32,1276.11 1641.01,1283.78 1646.11,1295.74 1651.22,1301.96 1653.91,1303.27 1656.6,1301.39 
  1661.7,1297.05 1666.8,1292.64 1669.49,1290.29 1672.18,1289.8 1677.29,1289.92 1682.39,1291.39 1685.08,1292.64 1687.77,1293.37 1692.87,1294.2 1697.97,1294.12 
  1700.66,1293.75 1703.35,1293.34 1708.46,1292.73 1713.56,1292.49 1716.25,1292.49 1718.94,1292.65 1724.04,1292.93 1729.14,1293.12 1731.83,1293.2 1734.53,1293.16 
  1739.63,1293.06 1744.73,1292.97 1747.42,1292.91 1750.11,1292.91 1755.21,1292.93 1760.31,1292.97 1763,1293 1765.7,1293 1770.8,1293.01 1775.9,1292.99 
  1778.59,1292.98 1781.28,1292.98 1786.38,1292.97 1791.48,1292.97 1794.18,1292.98 1796.87,1292.98 1801.97,1292.98 1807.07,1292.98 1809.76,1292.98 1812.45,1292.98 
  1817.55,1292.98 1822.66,1292.98 1825.35,1292.98 1828.04,1292.98 1833.14,1292.98 1838.24,1292.98 1840.93,1292.98 1843.62,1292.98 1848.72,1292.98 1853.83,1292.98 
  1856.52,1292.98 1859.21,1292.98 1864.31,1292.98 1869.41,1292.98 1872.1,1292.98 1874.79,1292.98 1879.9,1292.98 1885,1292.98 1887.69,1292.98 1890.38,1292.98 
  1895.48,1292.98 1900.58,1292.98 1903.27,1292.98 1905.96,1292.98 1911.07,1292.98 1916.17,1292.98 1918.86,1292.98 1921.55,1292.98 1926.65,1292.98 1931.75,1292.98 
  1934.44,1292.98 1937.14,1292.98 1942.24,1292.98 1947.34,1292.98 1950.03,1292.98 1952.72,1292.98 1957.82,1292.98 1962.92,1292.98 1965.61,1292.98 1968.31,1292.98 
  1973.41,1292.98 1978.51,1292.98 1981.2,1292.98 1983.89,1292.98 1988.99,1292.98 1994.09,1292.98 1996.79,1292.98 1999.48,1292.98 2004.58,1292.98 2009.68,1292.98 
  2012.37,1292.98 2015.06,1292.98 2020.16,1292.98 2025.27,1292.98 2027.96,1292.98 2030.65,1292.98 2035.75,1292.98 2040.85,1292.98 2043.54,1292.98 2046.23,1292.98 
  2051.33,1292.98 2056.44,1292.98 2059.13,1292.98 2061.82,1292.98 2066.92,1292.98 2072.02,1292.98 2074.71,1292.98 2077.4,1292.98 2082.51,1292.98 2087.61,1292.98 
  2090.3,1292.98 2092.99,1292.98 2098.09,1292.98 2103.19,1292.98 2105.88,1292.98 2108.57,1292.98 2113.68,1292.98 2118.78,1292.98 2121.47,1292.98 2124.16,1292.98 
  2129.26,1292.98 2134.36,1292.98 2137.05,1292.98 2139.75,1292.98 2144.85,1292.98 2149.95,1292.98 2152.64,1292.98 2155.33,1292.98 2160.43,1292.98 2165.53,1292.98 
  2168.22,1292.98 2170.92,1292.98 2176.02,1292.98 2181.12,1292.98 2183.81,1292.98 2186.5,1292.98 2191.6,1292.98 2196.7,1292.98 2199.4,1292.98 2202.09,1292.98 
  2207.19,1292.98 2212.29,1292.98 2214.98,1292.98 2217.67,1292.98 2222.77,1292.98 2227.88,1292.98 2230.57,1292.98 2233.26,1292.98 2238.36,1292.98 2243.46,1292.98 
  2246.15,1292.98 2248.84,1292.98 2253.94,1292.98 2259.05,1292.98 2261.74,1292.98 2264.43,1292.98 2269.53,1292.98 2274.63,1292.98 2277.32,1292.98 2280.01,1292.98 
  2285.12,1292.98 2290.22,1292.98 2292.91,1292.98 
  "/>
<path clip-path="url(#clip150)" d="
M1802.38 274.549 L2282.27 274.549 L2282.27 93.1086 L1802.38 93.1086  Z
  " fill="#ffffff" fill-rule="evenodd" fill-opacity="1"/>
<polyline clip-path="url(#clip150)" style="stroke:#000000; stroke-width:4; stroke-opacity:1; fill:none" points="
  1802.38,274.549 2282.27,274.549 2282.27,93.1086 1802.38,93.1086 1802.38,274.549 
  "/>
<polyline clip-path="url(#clip150)" style="stroke:#009af9; stroke-width:4; stroke-opacity:1; fill:none" points="
  1825.88,153.589 1966.85,153.589 
  "/>
<path clip-path="url(#clip150)" d="M 0 0 M1994.75 157.929 Q1994.75 162.628 1996.67 165.313 Q1998.61 167.975 2001.99 167.975 Q2005.37 167.975 2007.31 165.313 Q2009.26 162.628 2009.26 157.929 Q2009.26 153.23 2007.31 150.568 Q2005.37 147.883 2001.99 147.883 Q1998.61 147.883 1996.67 150.568 Q1994.75 153.23 1994.75 157.929 M2009.26 166.98 Q2007.92 169.295 2005.86 170.429 Q2003.82 171.54 2000.95 171.54 Q1996.25 171.54 1993.29 167.79 Q1990.35 164.04 1990.35 157.929 Q1990.35 151.818 1993.29 148.068 Q1996.25 144.318 2000.95 144.318 Q2003.82 144.318 2005.86 145.452 Q2007.92 146.563 2009.26 148.878 L2009.26 144.943 L2013.52 144.943 L2013.52 180.73 L2009.26 180.73 L2009.26 166.98 Z" fill="#000000" fill-rule="evenodd" fill-opacity="1" /><path clip-path="url(#clip150)" d="M 0 0 M2019.07 164.989 L2023.96 164.989 L2023.96 168.97 L2020.16 176.378 L2017.18 176.378 L2019.07 168.97 L2019.07 164.989 Z" fill="#000000" fill-rule="evenodd" fill-opacity="1" /><path clip-path="url(#clip150)" d="M 0 0 M2047.71 137.582 L2047.71 144.943 L2056.48 144.943 L2056.48 148.253 L2047.71 148.253 L2047.71 162.327 Q2047.71 165.498 2048.56 166.401 Q2049.44 167.304 2052.11 167.304 L2056.48 167.304 L2056.48 170.869 L2052.11 170.869 Q2047.18 170.869 2045.3 169.04 Q2043.43 167.188 2043.43 162.327 L2043.43 148.253 L2040.3 148.253 L2040.3 144.943 L2043.43 144.943 L2043.43 137.582 L2047.71 137.582 Z" fill="#000000" fill-rule="evenodd" fill-opacity="1" /><path clip-path="url(#clip150)" d="M 0 0 M2061.5 149.341 L2091.18 149.341 L2091.18 153.23 L2061.5 153.23 L2061.5 149.341 M2061.5 158.785 L2091.18 158.785 L2091.18 162.721 L2061.5 162.721 L2061.5 158.785 Z" fill="#000000" fill-rule="evenodd" fill-opacity="1" /><path clip-path="url(#clip150)" d="M 0 0 M2106.25 139.387 Q2102.64 139.387 2100.81 142.952 Q2099 146.494 2099 153.623 Q2099 160.73 2100.81 164.295 Q2102.64 167.836 2106.25 167.836 Q2109.88 167.836 2111.69 164.295 Q2113.52 160.73 2113.52 153.623 Q2113.52 146.494 2111.69 142.952 Q2109.88 139.387 2106.25 139.387 M2106.25 135.684 Q2112.06 135.684 2115.12 140.29 Q2118.19 144.873 2118.19 153.623 Q2118.19 162.35 2115.12 166.957 Q2112.06 171.54 2106.25 171.54 Q2100.44 171.54 2097.36 166.957 Q2094.31 162.35 2094.31 153.623 Q2094.31 144.873 2097.36 140.29 Q2100.44 135.684 2106.25 135.684 Z" fill="#000000" fill-rule="evenodd" fill-opacity="1" /><path clip-path="url(#clip150)" d="M 0 0 M2123.26 164.989 L2128.15 164.989 L2128.15 170.869 L2123.26 170.869 L2123.26 164.989 Z" fill="#000000" fill-rule="evenodd" fill-opacity="1" /><path clip-path="url(#clip150)" d="M 0 0 M2143.22 139.387 Q2139.61 139.387 2137.78 142.952 Q2135.97 146.494 2135.97 153.623 Q2135.97 160.73 2137.78 164.295 Q2139.61 167.836 2143.22 167.836 Q2146.85 167.836 2148.66 164.295 Q2150.49 160.73 2150.49 153.623 Q2150.49 146.494 2148.66 142.952 Q2146.85 139.387 2143.22 139.387 M2143.22 135.684 Q2149.03 135.684 2152.08 140.29 Q2155.16 144.873 2155.16 153.623 Q2155.16 162.35 2152.08 166.957 Q2149.03 171.54 2143.22 171.54 Q2137.41 171.54 2134.33 166.957 Q2131.27 162.35 2131.27 153.623 Q2131.27 144.873 2134.33 140.29 Q2137.41 135.684 2143.22 135.684 Z" fill="#000000" fill-rule="evenodd" fill-opacity="1" /><polyline clip-path="url(#clip150)" style="stroke:#e26f46; stroke-width:4; stroke-opacity:1; fill:none" points="
  1825.88,214.069 1966.85,214.069 
  "/>
<path clip-path="url(#clip150)" d="M 0 0 M1994.75 218.409 Q1994.75 223.108 1996.67 225.793 Q1998.61 228.455 2001.99 228.455 Q2005.37 228.455 2007.31 225.793 Q2009.26 223.108 2009.26 218.409 Q2009.26 213.71 2007.31 211.048 Q2005.37 208.363 2001.99 208.363 Q1998.61 208.363 1996.67 211.048 Q1994.75 213.71 1994.75 218.409 M2009.26 227.46 Q2007.92 229.775 2005.86 230.909 Q2003.82 232.02 2000.95 232.02 Q1996.25 232.02 1993.29 228.27 Q1990.35 224.52 1990.35 218.409 Q1990.35 212.298 1993.29 208.548 Q1996.25 204.798 2000.95 204.798 Q2003.82 204.798 2005.86 205.932 Q2007.92 207.043 2009.26 209.358 L2009.26 205.423 L2013.52 205.423 L2013.52 241.21 L2009.26 241.21 L2009.26 227.46 Z" fill="#000000" fill-rule="evenodd" fill-opacity="1" /><path clip-path="url(#clip150)" d="M 0 0 M2019.07 225.469 L2023.96 225.469 L2023.96 229.45 L2020.16 236.858 L2017.18 236.858 L2019.07 229.45 L2019.07 225.469 Z" fill="#000000" fill-rule="evenodd" fill-opacity="1" /><path clip-path="url(#clip150)" d="M 0 0 M2047.71 198.062 L2047.71 205.423 L2056.48 205.423 L2056.48 208.733 L2047.71 208.733 L2047.71 222.807 Q2047.71 225.978 2048.56 226.881 Q2049.44 227.784 2052.11 227.784 L2056.48 227.784 L2056.48 231.349 L2052.11 231.349 Q2047.18 231.349 2045.3 229.52 Q2043.43 227.668 2043.43 222.807 L2043.43 208.733 L2040.3 208.733 L2040.3 205.423 L2043.43 205.423 L2043.43 198.062 L2047.71 198.062 Z" fill="#000000" fill-rule="evenodd" fill-opacity="1" /><path clip-path="url(#clip150)" d="M 0 0 M2061.5 209.821 L2091.18 209.821 L2091.18 213.71 L2061.5 213.71 L2061.5 209.821 M2061.5 219.265 L2091.18 219.265 L2091.18 223.201 L2061.5 223.201 L2061.5 219.265 Z" fill="#000000" fill-rule="evenodd" fill-opacity="1" /><path clip-path="url(#clip150)" d="M 0 0 M2109.1 200.863 L2097.29 219.312 L2109.1 219.312 L2109.1 200.863 M2107.87 196.789 L2113.75 196.789 L2113.75 219.312 L2118.68 219.312 L2118.68 223.201 L2113.75 223.201 L2113.75 231.349 L2109.1 231.349 L2109.1 223.201 L2093.5 223.201 L2093.5 218.687 L2107.87 196.789 Z" fill="#000000" fill-rule="evenodd" fill-opacity="1" /><path clip-path="url(#clip150)" d="M 0 0 M2123.8 196.789 L2142.15 196.789 L2142.15 200.724 L2128.08 200.724 L2128.08 209.196 Q2129.1 208.849 2130.12 208.687 Q2131.13 208.502 2132.15 208.502 Q2137.94 208.502 2141.32 211.673 Q2144.7 214.844 2144.7 220.261 Q2144.7 225.839 2141.23 228.941 Q2137.75 232.02 2131.43 232.02 Q2129.26 232.02 2126.99 231.65 Q2124.74 231.279 2122.34 230.538 L2122.34 225.839 Q2124.42 226.974 2126.64 227.529 Q2128.87 228.085 2131.34 228.085 Q2135.35 228.085 2137.68 225.978 Q2140.02 223.872 2140.02 220.261 Q2140.02 216.65 2137.68 214.543 Q2135.35 212.437 2131.34 212.437 Q2129.47 212.437 2127.59 212.853 Q2125.74 213.27 2123.8 214.15 L2123.8 196.789 Z" fill="#000000" fill-rule="evenodd" fill-opacity="1" /><path clip-path="url(#clip150)" d="M 0 0 M2159.77 199.867 Q2156.16 199.867 2154.33 203.432 Q2152.52 206.974 2152.52 214.103 Q2152.52 221.21 2154.33 224.775 Q2156.16 228.316 2159.77 228.316 Q2163.4 228.316 2165.21 224.775 Q2167.04 221.21 2167.04 214.103 Q2167.04 206.974 2165.21 203.432 Q2163.4 199.867 2159.77 199.867 M2159.77 196.164 Q2165.58 196.164 2168.63 200.77 Q2171.71 205.353 2171.71 214.103 Q2171.71 222.83 2168.63 227.437 Q2165.58 232.02 2159.77 232.02 Q2153.96 232.02 2150.88 227.437 Q2147.82 222.83 2147.82 214.103 Q2147.82 205.353 2150.88 200.77 Q2153.96 196.164 2159.77 196.164 Z" fill="#000000" fill-rule="evenodd" fill-opacity="1" /><path clip-path="url(#clip150)" d="M 0 0 M2176.78 225.469 L2181.67 225.469 L2181.67 231.349 L2176.78 231.349 L2176.78 225.469 Z" fill="#000000" fill-rule="evenodd" fill-opacity="1" /><path clip-path="url(#clip150)" d="M 0 0 M2199.58 200.863 L2187.78 219.312 L2199.58 219.312 L2199.58 200.863 M2198.36 196.789 L2204.24 196.789 L2204.24 219.312 L2209.17 219.312 L2209.17 223.201 L2204.24 223.201 L2204.24 231.349 L2199.58 231.349 L2199.58 223.201 L2183.98 223.201 L2183.98 218.687 L2198.36 196.789 Z" fill="#000000" fill-rule="evenodd" fill-opacity="1" /><path clip-path="url(#clip150)" d="M 0 0 M2213.05 196.789 L2235.28 196.789 L2235.28 198.779 L2222.73 231.349 L2217.85 231.349 L2229.65 200.724 L2213.05 200.724 L2213.05 196.789 Z" fill="#000000" fill-rule="evenodd" fill-opacity="1" /></svg>
